G75*
%MOIN*%
%OFA0B0*%
%FSLAX24Y24*%
%IPPOS*%
%LPD*%
%AMOC8*
5,1,8,0,0,1.08239X$1,22.5*
%
%ADD10C,0.0060*%
%ADD11C,0.0160*%
%ADD12C,0.0300*%
%ADD13C,0.0200*%
%ADD14R,0.0100X0.0200*%
%ADD15R,0.0200X0.0200*%
%ADD16C,0.0050*%
%ADD17C,0.0100*%
%ADD18R,0.0200X0.0800*%
D10*
X005500Y002700D02*
X005850Y002700D01*
X005100Y002700D02*
X005102Y002763D01*
X005108Y002825D01*
X005118Y002887D01*
X005131Y002949D01*
X005149Y003009D01*
X005170Y003068D01*
X005195Y003126D01*
X005224Y003182D01*
X005256Y003236D01*
X005291Y003288D01*
X005329Y003337D01*
X005371Y003385D01*
X005415Y003429D01*
X005463Y003471D01*
X005512Y003509D01*
X005564Y003544D01*
X005618Y003576D01*
X005674Y003605D01*
X005732Y003630D01*
X005791Y003651D01*
X005851Y003669D01*
X005913Y003682D01*
X005975Y003692D01*
X006037Y003698D01*
X006100Y003700D01*
X006163Y003698D01*
X006225Y003692D01*
X006287Y003682D01*
X006349Y003669D01*
X006409Y003651D01*
X006468Y003630D01*
X006526Y003605D01*
X006582Y003576D01*
X006636Y003544D01*
X006688Y003509D01*
X006737Y003471D01*
X006785Y003429D01*
X006829Y003385D01*
X006871Y003337D01*
X006909Y003288D01*
X006944Y003236D01*
X006976Y003182D01*
X007005Y003126D01*
X007030Y003068D01*
X007051Y003009D01*
X007069Y002949D01*
X007082Y002887D01*
X007092Y002825D01*
X007098Y002763D01*
X007100Y002700D01*
X007098Y002637D01*
X007092Y002575D01*
X007082Y002513D01*
X007069Y002451D01*
X007051Y002391D01*
X007030Y002332D01*
X007005Y002274D01*
X006976Y002218D01*
X006944Y002164D01*
X006909Y002112D01*
X006871Y002063D01*
X006829Y002015D01*
X006785Y001971D01*
X006737Y001929D01*
X006688Y001891D01*
X006636Y001856D01*
X006582Y001824D01*
X006526Y001795D01*
X006468Y001770D01*
X006409Y001749D01*
X006349Y001731D01*
X006287Y001718D01*
X006225Y001708D01*
X006163Y001702D01*
X006100Y001700D01*
X006037Y001702D01*
X005975Y001708D01*
X005913Y001718D01*
X005851Y001731D01*
X005791Y001749D01*
X005732Y001770D01*
X005674Y001795D01*
X005618Y001824D01*
X005564Y001856D01*
X005512Y001891D01*
X005463Y001929D01*
X005415Y001971D01*
X005371Y002015D01*
X005329Y002063D01*
X005291Y002112D01*
X005256Y002164D01*
X005224Y002218D01*
X005195Y002274D01*
X005170Y002332D01*
X005149Y002391D01*
X005131Y002451D01*
X005118Y002513D01*
X005108Y002575D01*
X005102Y002637D01*
X005100Y002700D01*
X006200Y002300D02*
X006400Y002300D01*
X006400Y002700D01*
X006400Y003100D01*
X006200Y003100D01*
X006200Y002300D01*
X006500Y002100D02*
X006500Y001900D01*
X006600Y002000D02*
X006400Y002000D01*
X006400Y002700D02*
X006700Y002700D01*
X009000Y002050D02*
X009000Y003550D01*
X009250Y003800D01*
X009750Y003800D01*
X010000Y003550D01*
X010000Y002050D01*
X010250Y001800D01*
X010750Y001800D01*
X011000Y002050D01*
X011000Y003550D01*
X011250Y003800D01*
X011750Y003800D01*
X012000Y003550D01*
X012000Y002050D01*
X012250Y001800D01*
X012750Y001800D01*
X013000Y002050D01*
X013250Y001800D01*
X013750Y001800D01*
X014000Y002050D01*
X014000Y003550D01*
X013750Y003800D01*
X013250Y003800D01*
X013000Y003550D01*
X013000Y002050D01*
X012000Y002050D02*
X011750Y001800D01*
X011250Y001800D01*
X011000Y002050D01*
X010000Y002050D02*
X009750Y001800D01*
X009250Y001800D01*
X009000Y002050D01*
X010000Y003550D02*
X010250Y003800D01*
X010750Y003800D01*
X011000Y003550D01*
X012000Y003550D02*
X012250Y003800D01*
X012750Y003800D01*
X013000Y003550D01*
X010850Y006100D02*
X009150Y006100D01*
X009133Y006102D01*
X009116Y006106D01*
X009100Y006113D01*
X009086Y006123D01*
X009073Y006136D01*
X009063Y006150D01*
X009056Y006166D01*
X009052Y006183D01*
X009050Y006200D01*
X009050Y007000D01*
X009052Y007017D01*
X009056Y007034D01*
X009063Y007050D01*
X009073Y007064D01*
X009086Y007077D01*
X009100Y007087D01*
X009116Y007094D01*
X009133Y007098D01*
X009150Y007100D01*
X010850Y007100D01*
X010867Y007098D01*
X010884Y007094D01*
X010900Y007087D01*
X010914Y007077D01*
X010927Y007064D01*
X010937Y007050D01*
X010944Y007034D01*
X010948Y007017D01*
X010950Y007000D01*
X010950Y006200D01*
X010948Y006183D01*
X010944Y006166D01*
X010937Y006150D01*
X010927Y006136D01*
X010914Y006123D01*
X010900Y006113D01*
X010884Y006106D01*
X010867Y006102D01*
X010850Y006100D01*
X010300Y006600D02*
X010150Y006600D01*
X010100Y006600D01*
X009900Y006600D02*
X009850Y006600D01*
X009700Y006600D01*
X008850Y007600D02*
X011150Y007600D01*
X011150Y015600D01*
X010400Y015600D01*
X010398Y015561D01*
X010392Y015522D01*
X010383Y015484D01*
X010370Y015447D01*
X010353Y015411D01*
X010333Y015378D01*
X010309Y015346D01*
X010283Y015317D01*
X010254Y015291D01*
X010222Y015267D01*
X010189Y015247D01*
X010153Y015230D01*
X010116Y015217D01*
X010078Y015208D01*
X010039Y015202D01*
X010000Y015200D01*
X009961Y015202D01*
X009922Y015208D01*
X009884Y015217D01*
X009847Y015230D01*
X009811Y015247D01*
X009778Y015267D01*
X009746Y015291D01*
X009717Y015317D01*
X009691Y015346D01*
X009667Y015378D01*
X009647Y015411D01*
X009630Y015447D01*
X009617Y015484D01*
X009608Y015522D01*
X009602Y015561D01*
X009600Y015600D01*
X008850Y015600D01*
X008850Y007600D01*
X005450Y007600D02*
X003150Y007600D01*
X003150Y015600D01*
X003900Y015600D01*
X003902Y015561D01*
X003908Y015522D01*
X003917Y015484D01*
X003930Y015447D01*
X003947Y015411D01*
X003967Y015378D01*
X003991Y015346D01*
X004017Y015317D01*
X004046Y015291D01*
X004078Y015267D01*
X004111Y015247D01*
X004147Y015230D01*
X004184Y015217D01*
X004222Y015208D01*
X004261Y015202D01*
X004300Y015200D01*
X004339Y015202D01*
X004378Y015208D01*
X004416Y015217D01*
X004453Y015230D01*
X004489Y015247D01*
X004522Y015267D01*
X004554Y015291D01*
X004583Y015317D01*
X004609Y015346D01*
X004633Y015378D01*
X004653Y015411D01*
X004670Y015447D01*
X004683Y015484D01*
X004692Y015522D01*
X004698Y015561D01*
X004700Y015600D01*
X005450Y015600D01*
X005450Y007600D01*
X005150Y007100D02*
X003450Y007100D01*
X003433Y007098D01*
X003416Y007094D01*
X003400Y007087D01*
X003386Y007077D01*
X003373Y007064D01*
X003363Y007050D01*
X003356Y007034D01*
X003352Y007017D01*
X003350Y007000D01*
X003350Y006200D01*
X003352Y006183D01*
X003356Y006166D01*
X003363Y006150D01*
X003373Y006136D01*
X003386Y006123D01*
X003400Y006113D01*
X003416Y006106D01*
X003433Y006102D01*
X003450Y006100D01*
X005150Y006100D01*
X005167Y006102D01*
X005184Y006106D01*
X005200Y006113D01*
X005214Y006123D01*
X005227Y006136D01*
X005237Y006150D01*
X005244Y006166D01*
X005248Y006183D01*
X005250Y006200D01*
X005250Y007000D01*
X005248Y007017D01*
X005244Y007034D01*
X005237Y007050D01*
X005227Y007064D01*
X005214Y007077D01*
X005200Y007087D01*
X005184Y007094D01*
X005167Y007098D01*
X005150Y007100D01*
X004600Y006600D02*
X004450Y006600D01*
X004400Y006600D01*
X004200Y006600D02*
X004150Y006600D01*
X004000Y006600D01*
X013500Y007850D02*
X013500Y008350D01*
X013502Y008367D01*
X013506Y008384D01*
X013513Y008400D01*
X013523Y008414D01*
X013536Y008427D01*
X013550Y008437D01*
X013566Y008444D01*
X013583Y008448D01*
X013600Y008450D01*
X013700Y008450D01*
X013750Y008400D01*
X014650Y008400D01*
X014700Y008450D01*
X014800Y008450D01*
X014817Y008448D01*
X014834Y008444D01*
X014850Y008437D01*
X014864Y008427D01*
X014877Y008414D01*
X014887Y008400D01*
X014894Y008384D01*
X014898Y008367D01*
X014900Y008350D01*
X014900Y007850D01*
X014898Y007833D01*
X014894Y007816D01*
X014887Y007800D01*
X014877Y007786D01*
X014864Y007773D01*
X014850Y007763D01*
X014834Y007756D01*
X014817Y007752D01*
X014800Y007750D01*
X014700Y007750D01*
X014650Y007800D01*
X013750Y007800D01*
X013700Y007750D01*
X013600Y007750D01*
X013583Y007752D01*
X013566Y007756D01*
X013550Y007763D01*
X013536Y007773D01*
X013523Y007786D01*
X013513Y007800D01*
X013506Y007816D01*
X013502Y007833D01*
X013500Y007850D01*
X013600Y008750D02*
X013700Y008750D01*
X013750Y008800D01*
X014650Y008800D01*
X014700Y008750D01*
X014800Y008750D01*
X014817Y008752D01*
X014834Y008756D01*
X014850Y008763D01*
X014864Y008773D01*
X014877Y008786D01*
X014887Y008800D01*
X014894Y008816D01*
X014898Y008833D01*
X014900Y008850D01*
X014900Y009350D01*
X014898Y009367D01*
X014894Y009384D01*
X014887Y009400D01*
X014877Y009414D01*
X014864Y009427D01*
X014850Y009437D01*
X014834Y009444D01*
X014817Y009448D01*
X014800Y009450D01*
X014700Y009450D01*
X014650Y009400D01*
X013750Y009400D01*
X013700Y009450D01*
X013600Y009450D01*
X013583Y009448D01*
X013566Y009444D01*
X013550Y009437D01*
X013536Y009427D01*
X013523Y009414D01*
X013513Y009400D01*
X013506Y009384D01*
X013502Y009367D01*
X013500Y009350D01*
X013500Y008850D01*
X013502Y008833D01*
X013506Y008816D01*
X013513Y008800D01*
X013523Y008786D01*
X013536Y008773D01*
X013550Y008763D01*
X013566Y008756D01*
X013583Y008752D01*
X013600Y008750D01*
X013600Y009750D02*
X013700Y009750D01*
X013750Y009800D01*
X014650Y009800D01*
X014700Y009750D01*
X014800Y009750D01*
X014817Y009752D01*
X014834Y009756D01*
X014850Y009763D01*
X014864Y009773D01*
X014877Y009786D01*
X014887Y009800D01*
X014894Y009816D01*
X014898Y009833D01*
X014900Y009850D01*
X014900Y010350D01*
X014898Y010367D01*
X014894Y010384D01*
X014887Y010400D01*
X014877Y010414D01*
X014864Y010427D01*
X014850Y010437D01*
X014834Y010444D01*
X014817Y010448D01*
X014800Y010450D01*
X014700Y010450D01*
X014650Y010400D01*
X013750Y010400D01*
X013700Y010450D01*
X013600Y010450D01*
X013583Y010448D01*
X013566Y010444D01*
X013550Y010437D01*
X013536Y010427D01*
X013523Y010414D01*
X013513Y010400D01*
X013506Y010384D01*
X013502Y010367D01*
X013500Y010350D01*
X013500Y009850D01*
X013502Y009833D01*
X013506Y009816D01*
X013513Y009800D01*
X013523Y009786D01*
X013536Y009773D01*
X013550Y009763D01*
X013566Y009756D01*
X013583Y009752D01*
X013600Y009750D01*
X013600Y010750D02*
X013700Y010750D01*
X013750Y010800D01*
X014650Y010800D01*
X014700Y010750D01*
X014800Y010750D01*
X014817Y010752D01*
X014834Y010756D01*
X014850Y010763D01*
X014864Y010773D01*
X014877Y010786D01*
X014887Y010800D01*
X014894Y010816D01*
X014898Y010833D01*
X014900Y010850D01*
X014900Y011350D01*
X014898Y011367D01*
X014894Y011384D01*
X014887Y011400D01*
X014877Y011414D01*
X014864Y011427D01*
X014850Y011437D01*
X014834Y011444D01*
X014817Y011448D01*
X014800Y011450D01*
X014700Y011450D01*
X014650Y011400D01*
X013750Y011400D01*
X013700Y011450D01*
X013600Y011450D01*
X013583Y011448D01*
X013566Y011444D01*
X013550Y011437D01*
X013536Y011427D01*
X013523Y011414D01*
X013513Y011400D01*
X013506Y011384D01*
X013502Y011367D01*
X013500Y011350D01*
X013500Y010850D01*
X013502Y010833D01*
X013506Y010816D01*
X013513Y010800D01*
X013523Y010786D01*
X013536Y010773D01*
X013550Y010763D01*
X013566Y010756D01*
X013583Y010752D01*
X013600Y010750D01*
X013600Y011750D02*
X013700Y011750D01*
X013750Y011800D01*
X014650Y011800D01*
X014700Y011750D01*
X014800Y011750D01*
X014817Y011752D01*
X014834Y011756D01*
X014850Y011763D01*
X014864Y011773D01*
X014877Y011786D01*
X014887Y011800D01*
X014894Y011816D01*
X014898Y011833D01*
X014900Y011850D01*
X014900Y012350D01*
X014898Y012367D01*
X014894Y012384D01*
X014887Y012400D01*
X014877Y012414D01*
X014864Y012427D01*
X014850Y012437D01*
X014834Y012444D01*
X014817Y012448D01*
X014800Y012450D01*
X014700Y012450D01*
X014650Y012400D01*
X013750Y012400D01*
X013700Y012450D01*
X013600Y012450D01*
X013583Y012448D01*
X013566Y012444D01*
X013550Y012437D01*
X013536Y012427D01*
X013523Y012414D01*
X013513Y012400D01*
X013506Y012384D01*
X013502Y012367D01*
X013500Y012350D01*
X013500Y011850D01*
X013502Y011833D01*
X013506Y011816D01*
X013513Y011800D01*
X013523Y011786D01*
X013536Y011773D01*
X013550Y011763D01*
X013566Y011756D01*
X013583Y011752D01*
X013600Y011750D01*
X013600Y012750D02*
X013700Y012750D01*
X013750Y012800D01*
X014650Y012800D01*
X014700Y012750D01*
X014800Y012750D01*
X014817Y012752D01*
X014834Y012756D01*
X014850Y012763D01*
X014864Y012773D01*
X014877Y012786D01*
X014887Y012800D01*
X014894Y012816D01*
X014898Y012833D01*
X014900Y012850D01*
X014900Y013350D01*
X014898Y013367D01*
X014894Y013384D01*
X014887Y013400D01*
X014877Y013414D01*
X014864Y013427D01*
X014850Y013437D01*
X014834Y013444D01*
X014817Y013448D01*
X014800Y013450D01*
X014700Y013450D01*
X014650Y013400D01*
X013750Y013400D01*
X013700Y013450D01*
X013600Y013450D01*
X013583Y013448D01*
X013566Y013444D01*
X013550Y013437D01*
X013536Y013427D01*
X013523Y013414D01*
X013513Y013400D01*
X013506Y013384D01*
X013502Y013367D01*
X013500Y013350D01*
X013500Y012850D01*
X013502Y012833D01*
X013506Y012816D01*
X013513Y012800D01*
X013523Y012786D01*
X013536Y012773D01*
X013550Y012763D01*
X013566Y012756D01*
X013583Y012752D01*
X013600Y012750D01*
X013600Y013750D02*
X013700Y013750D01*
X013750Y013800D01*
X014650Y013800D01*
X014700Y013750D01*
X014800Y013750D01*
X014817Y013752D01*
X014834Y013756D01*
X014850Y013763D01*
X014864Y013773D01*
X014877Y013786D01*
X014887Y013800D01*
X014894Y013816D01*
X014898Y013833D01*
X014900Y013850D01*
X014900Y014350D01*
X014898Y014367D01*
X014894Y014384D01*
X014887Y014400D01*
X014877Y014414D01*
X014864Y014427D01*
X014850Y014437D01*
X014834Y014444D01*
X014817Y014448D01*
X014800Y014450D01*
X014700Y014450D01*
X014650Y014400D01*
X013750Y014400D01*
X013700Y014450D01*
X013600Y014450D01*
X013583Y014448D01*
X013566Y014444D01*
X013550Y014437D01*
X013536Y014427D01*
X013523Y014414D01*
X013513Y014400D01*
X013506Y014384D01*
X013502Y014367D01*
X013500Y014350D01*
X013500Y013850D01*
X013502Y013833D01*
X013506Y013816D01*
X013513Y013800D01*
X013523Y013786D01*
X013536Y013773D01*
X013550Y013763D01*
X013566Y013756D01*
X013583Y013752D01*
X013600Y013750D01*
X013600Y014750D02*
X013700Y014750D01*
X013750Y014800D01*
X014650Y014800D01*
X014700Y014750D01*
X014800Y014750D01*
X014817Y014752D01*
X014834Y014756D01*
X014850Y014763D01*
X014864Y014773D01*
X014877Y014786D01*
X014887Y014800D01*
X014894Y014816D01*
X014898Y014833D01*
X014900Y014850D01*
X014900Y015350D01*
X014898Y015367D01*
X014894Y015384D01*
X014887Y015400D01*
X014877Y015414D01*
X014864Y015427D01*
X014850Y015437D01*
X014834Y015444D01*
X014817Y015448D01*
X014800Y015450D01*
X014700Y015450D01*
X014650Y015400D01*
X013750Y015400D01*
X013700Y015450D01*
X013600Y015450D01*
X013583Y015448D01*
X013566Y015444D01*
X013550Y015437D01*
X013536Y015427D01*
X013523Y015414D01*
X013513Y015400D01*
X013506Y015384D01*
X013502Y015367D01*
X013500Y015350D01*
X013500Y014850D01*
X013502Y014833D01*
X013506Y014816D01*
X013513Y014800D01*
X013523Y014786D01*
X013536Y014773D01*
X013550Y014763D01*
X013566Y014756D01*
X013583Y014752D01*
X013600Y014750D01*
X016330Y015414D02*
X016330Y007986D01*
X021270Y007986D01*
X021270Y015414D01*
X016330Y015414D01*
D11*
X017645Y014338D02*
X017611Y014277D01*
X017589Y014210D01*
X017186Y011897D01*
X017412Y011897D01*
X017639Y012133D01*
X018052Y014495D01*
X017944Y014495D01*
X017874Y014488D01*
X017807Y014468D01*
X017745Y014436D01*
X017690Y014392D01*
X017645Y014338D01*
X017668Y014365D02*
X018029Y014365D01*
X018001Y014207D02*
X017589Y014207D01*
X017561Y014048D02*
X017974Y014048D01*
X017946Y013890D02*
X017533Y013890D01*
X017506Y013731D02*
X017918Y013731D01*
X017890Y013573D02*
X017478Y013573D01*
X017451Y013414D02*
X017863Y013414D01*
X017835Y013256D02*
X017423Y013256D01*
X017395Y013097D02*
X017807Y013097D01*
X017780Y012939D02*
X017368Y012939D01*
X017340Y012780D02*
X017752Y012780D01*
X017724Y012622D02*
X017312Y012622D01*
X017285Y012463D02*
X017696Y012463D01*
X017669Y012305D02*
X017257Y012305D01*
X017229Y012146D02*
X017641Y012146D01*
X017499Y011988D02*
X017202Y011988D01*
X017599Y011710D02*
X017747Y011562D01*
X019833Y011562D01*
X020011Y011749D01*
X019863Y011956D01*
X017845Y011956D01*
X017599Y011710D01*
X017639Y011671D02*
X019936Y011671D01*
X019954Y011829D02*
X017718Y011829D01*
X017434Y011512D02*
X017126Y011512D01*
X017146Y011631D02*
X017333Y011631D01*
X017518Y011412D01*
X017132Y009031D01*
X017010Y009028D01*
X016957Y009034D01*
X016906Y009052D01*
X016859Y009079D01*
X016819Y009115D01*
X016788Y009158D01*
X016765Y009207D01*
X016753Y009259D01*
X016752Y009313D01*
X016761Y009366D01*
X017146Y011631D01*
X017099Y011354D02*
X017508Y011354D01*
X017483Y011195D02*
X017072Y011195D01*
X017045Y011037D02*
X017457Y011037D01*
X017431Y010878D02*
X017018Y010878D01*
X016991Y010720D02*
X017406Y010720D01*
X017380Y010561D02*
X016965Y010561D01*
X016938Y010403D02*
X017354Y010403D01*
X017328Y010244D02*
X016911Y010244D01*
X016884Y010086D02*
X017303Y010086D01*
X017277Y009927D02*
X016857Y009927D01*
X016830Y009769D02*
X017251Y009769D01*
X017226Y009610D02*
X016803Y009610D01*
X016776Y009452D02*
X017200Y009452D01*
X017174Y009293D02*
X016752Y009293D01*
X016805Y009135D02*
X017148Y009135D01*
X017383Y009013D02*
X017432Y009407D01*
X019391Y009407D01*
X019322Y009013D01*
X017383Y009013D01*
X017398Y009135D02*
X019343Y009135D01*
X019371Y009293D02*
X017418Y009293D01*
X019578Y009013D02*
X019686Y009013D01*
X019756Y009020D01*
X019823Y009040D01*
X019885Y009073D01*
X019940Y009117D01*
X019985Y009170D01*
X020019Y009232D01*
X020040Y009298D01*
X020414Y011533D01*
X020188Y011533D01*
X019971Y011316D01*
X019578Y009013D01*
X019630Y008997D02*
X019760Y009127D01*
X019598Y009135D02*
X019955Y009135D01*
X020038Y009293D02*
X019625Y009293D01*
X019653Y009452D02*
X020066Y009452D01*
X020092Y009610D02*
X019680Y009610D01*
X019707Y009769D02*
X020119Y009769D01*
X020145Y009927D02*
X019734Y009927D01*
X019761Y010086D02*
X020172Y010086D01*
X020198Y010244D02*
X019788Y010244D01*
X019815Y010403D02*
X020225Y010403D01*
X020252Y010561D02*
X019842Y010561D01*
X019869Y010720D02*
X020278Y010720D01*
X020305Y010878D02*
X019896Y010878D01*
X019923Y011037D02*
X020331Y011037D01*
X020358Y011195D02*
X019951Y011195D01*
X020009Y011354D02*
X020384Y011354D01*
X020411Y011512D02*
X020167Y011512D01*
X020267Y011897D02*
X020082Y012116D01*
X020498Y014477D01*
X020620Y014481D01*
X020673Y014474D01*
X020724Y014457D01*
X020770Y014429D01*
X020810Y014393D01*
X020842Y014350D01*
X020864Y014301D01*
X020876Y014249D01*
X020878Y014195D01*
X020868Y014142D01*
X020454Y011897D01*
X020267Y011897D01*
X020190Y011988D02*
X020470Y011988D01*
X020500Y012146D02*
X020087Y012146D01*
X020115Y012305D02*
X020529Y012305D01*
X020558Y012463D02*
X020143Y012463D01*
X020171Y012622D02*
X020587Y012622D01*
X020617Y012780D02*
X020199Y012780D01*
X020227Y012939D02*
X020646Y012939D01*
X020675Y013097D02*
X020255Y013097D01*
X020283Y013256D02*
X020704Y013256D01*
X020734Y013414D02*
X020311Y013414D01*
X020339Y013573D02*
X020763Y013573D01*
X020792Y013731D02*
X020367Y013731D01*
X020394Y013890D02*
X020822Y013890D01*
X020851Y014048D02*
X020422Y014048D01*
X020450Y014207D02*
X020877Y014207D01*
X020831Y014365D02*
X020478Y014365D01*
X020231Y014365D02*
X018285Y014365D01*
X018308Y014495D02*
X020247Y014495D01*
X020198Y014102D01*
X018239Y014102D01*
X018308Y014495D01*
X018257Y014207D02*
X020211Y014207D01*
D12*
X020450Y009200D02*
X020452Y009224D01*
X020458Y009248D01*
X020467Y009270D01*
X020480Y009290D01*
X020496Y009308D01*
X020515Y009323D01*
X020536Y009336D01*
X020558Y009344D01*
X020582Y009349D01*
X020606Y009350D01*
X020630Y009347D01*
X020653Y009340D01*
X020675Y009330D01*
X020695Y009316D01*
X020712Y009299D01*
X020727Y009280D01*
X020738Y009259D01*
X020746Y009236D01*
X020750Y009212D01*
X020750Y009188D01*
X020746Y009164D01*
X020738Y009141D01*
X020727Y009120D01*
X020712Y009101D01*
X020695Y009084D01*
X020675Y009070D01*
X020653Y009060D01*
X020630Y009053D01*
X020606Y009050D01*
X020582Y009051D01*
X020558Y009056D01*
X020536Y009064D01*
X020515Y009077D01*
X020496Y009092D01*
X020480Y009110D01*
X020467Y009130D01*
X020458Y009152D01*
X020452Y009176D01*
X020450Y009200D01*
D13*
X015200Y009100D02*
X015000Y009100D01*
X015000Y008100D02*
X015200Y008100D01*
X013400Y008100D02*
X013200Y008100D01*
X013200Y009100D02*
X013400Y009100D01*
X013400Y010100D02*
X013200Y010100D01*
X013200Y011100D02*
X013400Y011100D01*
X013400Y012100D02*
X013200Y012100D01*
X013200Y013100D02*
X013400Y013100D01*
X013400Y014100D02*
X013200Y014100D01*
X013200Y015100D02*
X013400Y015100D01*
X015000Y015100D02*
X015200Y015100D01*
X015200Y014100D02*
X015000Y014100D01*
X015000Y013100D02*
X015200Y013100D01*
X015200Y012100D02*
X015000Y012100D01*
X015000Y011100D02*
X015200Y011100D01*
X015200Y010100D02*
X015000Y010100D01*
D14*
X014950Y010100D03*
X014950Y011100D03*
X014950Y012100D03*
X014950Y013100D03*
X014950Y014100D03*
X014950Y015100D03*
X013450Y015100D03*
X013450Y014100D03*
X013450Y013100D03*
X013450Y012100D03*
X013450Y011100D03*
X013450Y010100D03*
X013450Y009100D03*
X013450Y008100D03*
X014950Y008100D03*
X014950Y009100D03*
D15*
X013500Y003300D03*
X012500Y003300D03*
X012500Y002300D03*
X013500Y002300D03*
X011500Y002300D03*
X010500Y002300D03*
X009500Y002300D03*
X009500Y003300D03*
X010500Y003300D03*
X011500Y003300D03*
D16*
X009500Y001600D02*
X009900Y001100D01*
X009100Y001100D01*
X009500Y001600D01*
X009464Y001555D02*
X009536Y001555D01*
X009575Y001507D02*
X009425Y001507D01*
X009386Y001458D02*
X009614Y001458D01*
X009652Y001410D02*
X009348Y001410D01*
X009309Y001361D02*
X009691Y001361D01*
X009730Y001313D02*
X009270Y001313D01*
X009231Y001264D02*
X009769Y001264D01*
X009808Y001216D02*
X009192Y001216D01*
X009154Y001167D02*
X009846Y001167D01*
X009885Y001119D02*
X009115Y001119D01*
D17*
X009900Y006300D02*
X009900Y006600D01*
X009900Y006900D01*
X010100Y006900D02*
X010100Y006600D01*
X010100Y006300D01*
X004400Y006300D02*
X004400Y006600D01*
X004400Y006900D01*
X004200Y006900D02*
X004200Y006600D01*
X004200Y006300D01*
D18*
X005900Y002700D03*
M02*
