G75*
%MOIN*%
%OFA0B0*%
%FSLAX24Y24*%
%IPPOS*%
%LPD*%
%AMOC8*
5,1,8,0,0,1.08239X$1,22.5*
%
%ADD10R,0.0600X0.0600*%
%ADD11OC8,0.0600*%
%ADD12C,0.0520*%
%ADD13C,0.0740*%
%ADD14OC8,0.0520*%
%ADD15OC8,0.0630*%
%ADD16C,0.0630*%
%ADD17C,0.1700*%
%ADD18C,0.0100*%
D10*
X042000Y022350D03*
X052000Y004600D03*
D11*
X051000Y004600D03*
X051000Y005600D03*
X052000Y005600D03*
X052000Y006600D03*
X051000Y006600D03*
X051000Y007600D03*
X052000Y007600D03*
X052000Y008600D03*
X051000Y008600D03*
X046000Y022350D03*
X045000Y022350D03*
X044000Y022350D03*
X043000Y022350D03*
X043000Y023350D03*
X042000Y023350D03*
X044000Y023350D03*
X045000Y023350D03*
X046000Y023350D03*
D12*
X022010Y022600D02*
X021490Y022600D01*
X021490Y021600D02*
X022010Y021600D01*
X022010Y020600D02*
X021490Y020600D01*
X021490Y019600D02*
X022010Y019600D01*
X022010Y018600D02*
X021490Y018600D01*
X021490Y017600D02*
X022010Y017600D01*
X022010Y016600D02*
X021490Y016600D01*
X019010Y016600D02*
X018490Y016600D01*
X018490Y017600D02*
X019010Y017600D01*
X019010Y018600D02*
X018490Y018600D01*
X018490Y019600D02*
X019010Y019600D01*
X019010Y020600D02*
X018490Y020600D01*
X018490Y021600D02*
X019010Y021600D01*
X019010Y022600D02*
X018490Y022600D01*
X012760Y022600D02*
X012240Y022600D01*
X012240Y021600D02*
X012760Y021600D01*
X012760Y020600D02*
X012240Y020600D01*
X012240Y019600D02*
X012760Y019600D01*
X012760Y018600D02*
X012240Y018600D01*
X012240Y017600D02*
X012760Y017600D01*
X012760Y016600D02*
X012240Y016600D01*
X009760Y016600D02*
X009240Y016600D01*
X009240Y017600D02*
X009760Y017600D01*
X009760Y018600D02*
X009240Y018600D01*
X009240Y019600D02*
X009760Y019600D01*
X009760Y020600D02*
X009240Y020600D01*
X009240Y021600D02*
X009760Y021600D01*
X009760Y022600D02*
X009240Y022600D01*
X018490Y013350D02*
X019010Y013350D01*
X019010Y012350D02*
X018490Y012350D01*
X018490Y011350D02*
X019010Y011350D01*
X019010Y010350D02*
X018490Y010350D01*
X018490Y009350D02*
X019010Y009350D01*
X019010Y008350D02*
X018490Y008350D01*
X018490Y007350D02*
X019010Y007350D01*
X021490Y007350D02*
X022010Y007350D01*
X022010Y008350D02*
X021490Y008350D01*
X021490Y009350D02*
X022010Y009350D01*
X022010Y010350D02*
X021490Y010350D01*
X021490Y011350D02*
X022010Y011350D01*
X022010Y012350D02*
X021490Y012350D01*
X021490Y013350D02*
X022010Y013350D01*
X012010Y013100D02*
X011490Y013100D01*
X011490Y012100D02*
X012010Y012100D01*
X012010Y011100D02*
X011490Y011100D01*
X011490Y010100D02*
X012010Y010100D01*
X009010Y010100D02*
X008490Y010100D01*
X008490Y011100D02*
X009010Y011100D01*
X009010Y012100D02*
X008490Y012100D01*
X008490Y013100D02*
X009010Y013100D01*
D13*
X006000Y021350D03*
X005000Y021350D03*
X031720Y020710D03*
X034280Y020710D03*
X034280Y022490D03*
X031720Y022490D03*
X038000Y013850D03*
X038000Y012850D03*
X034280Y011960D03*
X031720Y011960D03*
X031720Y013740D03*
X034280Y013740D03*
X038000Y004350D03*
X038000Y003350D03*
X034280Y002460D03*
X031720Y002460D03*
X031720Y004240D03*
X034280Y004240D03*
D14*
X034000Y005850D03*
X032000Y005850D03*
X038000Y005850D03*
X038000Y007850D03*
X038000Y009350D03*
X038000Y011350D03*
X034000Y015350D03*
X032000Y015350D03*
X024500Y013350D03*
X023500Y013350D03*
X007000Y014100D03*
X007000Y015100D03*
X004250Y015100D03*
X004250Y014100D03*
X004250Y012600D03*
X004250Y010600D03*
X004250Y009850D03*
X004250Y007850D03*
X006000Y016850D03*
X006000Y018850D03*
X014250Y022600D03*
X015250Y022600D03*
X023500Y022600D03*
X024500Y022600D03*
X032000Y024100D03*
X034000Y024100D03*
X051500Y014850D03*
X052500Y014850D03*
X053000Y012850D03*
X051000Y012850D03*
D15*
X038250Y022850D03*
X048250Y002600D03*
D16*
X049250Y002600D03*
X039250Y022850D03*
D17*
X005894Y003850D03*
X003531Y003850D03*
X004713Y002000D03*
D18*
X002000Y000600D02*
X002000Y025020D01*
X054000Y025020D01*
X054000Y000600D01*
X002000Y000600D01*
X002000Y000691D02*
X054000Y000691D01*
X054000Y000790D02*
X002000Y000790D01*
X002000Y000888D02*
X054000Y000888D01*
X054000Y000987D02*
X005027Y000987D01*
X005122Y001012D02*
X005363Y001151D01*
X005561Y001349D01*
X005700Y001590D01*
X005773Y001860D01*
X005773Y002139D01*
X005700Y002409D01*
X005561Y002650D01*
X005363Y002848D01*
X005122Y002987D01*
X004852Y003060D01*
X004573Y003060D01*
X004303Y002987D01*
X004062Y002848D01*
X003864Y002650D01*
X003725Y002409D01*
X003653Y002139D01*
X003653Y001860D01*
X003725Y001590D01*
X003864Y001349D01*
X004062Y001151D01*
X004303Y001012D01*
X004573Y000940D01*
X004852Y000940D01*
X005122Y001012D01*
X005248Y001085D02*
X054000Y001085D01*
X054000Y001184D02*
X005396Y001184D01*
X005494Y001282D02*
X054000Y001282D01*
X054000Y001381D02*
X005579Y001381D01*
X005636Y001479D02*
X054000Y001479D01*
X054000Y001578D02*
X005693Y001578D01*
X005723Y001676D02*
X054000Y001676D01*
X054000Y001775D02*
X005750Y001775D01*
X005773Y001873D02*
X054000Y001873D01*
X054000Y001972D02*
X034459Y001972D01*
X034480Y001978D02*
X034553Y002015D01*
X034619Y002063D01*
X034677Y002121D01*
X034725Y002187D01*
X034762Y002260D01*
X034787Y002338D01*
X034799Y002410D01*
X034330Y002410D01*
X034330Y002510D01*
X034799Y002510D01*
X034787Y002582D01*
X034762Y002660D01*
X034725Y002733D01*
X034677Y002799D01*
X034619Y002857D01*
X034553Y002905D01*
X034480Y002942D01*
X034402Y002967D01*
X034330Y002979D01*
X034330Y002510D01*
X034230Y002510D01*
X034230Y002979D01*
X034158Y002967D01*
X034080Y002942D01*
X034007Y002905D01*
X033941Y002857D01*
X033883Y002799D01*
X033835Y002733D01*
X033798Y002660D01*
X033773Y002582D01*
X033761Y002510D01*
X034230Y002510D01*
X034230Y002410D01*
X034330Y002410D01*
X034330Y001941D01*
X034402Y001953D01*
X034480Y001978D01*
X034330Y001972D02*
X034230Y001972D01*
X034230Y001941D02*
X034230Y002410D01*
X033761Y002410D01*
X033773Y002338D01*
X033798Y002260D01*
X033835Y002187D01*
X033883Y002121D01*
X033941Y002063D01*
X034007Y002015D01*
X034080Y001978D01*
X034158Y001953D01*
X034230Y001941D01*
X034230Y002070D02*
X034330Y002070D01*
X034330Y002169D02*
X034230Y002169D01*
X034230Y002267D02*
X034330Y002267D01*
X034330Y002366D02*
X034230Y002366D01*
X034230Y002464D02*
X031770Y002464D01*
X031770Y002510D02*
X032239Y002510D01*
X032227Y002582D01*
X032202Y002660D01*
X032165Y002733D01*
X032117Y002799D01*
X032059Y002857D01*
X031993Y002905D01*
X031920Y002942D01*
X031842Y002967D01*
X031770Y002979D01*
X031770Y002510D01*
X031770Y002410D01*
X032239Y002410D01*
X032227Y002338D01*
X032202Y002260D01*
X032165Y002187D01*
X032117Y002121D01*
X032059Y002063D01*
X031993Y002015D01*
X031920Y001978D01*
X031842Y001953D01*
X031770Y001941D01*
X031770Y002410D01*
X031670Y002410D01*
X031670Y001941D01*
X031598Y001953D01*
X031520Y001978D01*
X031447Y002015D01*
X031381Y002063D01*
X031323Y002121D01*
X031275Y002187D01*
X031238Y002260D01*
X031213Y002338D01*
X031201Y002410D01*
X031670Y002410D01*
X031670Y002510D01*
X031670Y002979D01*
X031598Y002967D01*
X031520Y002942D01*
X031447Y002905D01*
X031381Y002857D01*
X031323Y002799D01*
X031275Y002733D01*
X031238Y002660D01*
X031213Y002582D01*
X031201Y002510D01*
X031670Y002510D01*
X031770Y002510D01*
X031770Y002563D02*
X031670Y002563D01*
X031670Y002661D02*
X031770Y002661D01*
X031770Y002760D02*
X031670Y002760D01*
X031670Y002858D02*
X031770Y002858D01*
X031770Y002957D02*
X031670Y002957D01*
X031565Y002957D02*
X006343Y002957D01*
X006378Y002973D02*
X006473Y003033D01*
X006561Y003103D01*
X006641Y003183D01*
X006711Y003270D01*
X006770Y003366D01*
X006819Y003467D01*
X006856Y003573D01*
X006881Y003682D01*
X006894Y003794D01*
X006894Y003800D01*
X005944Y003800D01*
X005944Y003900D01*
X006894Y003900D01*
X006894Y003906D01*
X006881Y004018D01*
X006856Y004127D01*
X006819Y004233D01*
X006770Y004334D01*
X006711Y004430D01*
X006641Y004517D01*
X006561Y004597D01*
X006473Y004667D01*
X006378Y004727D01*
X006277Y004775D01*
X006171Y004812D01*
X006061Y004837D01*
X005950Y004850D01*
X005944Y004850D01*
X005944Y003900D01*
X005844Y003900D01*
X005844Y004850D01*
X005838Y004850D01*
X005726Y004837D01*
X005616Y004812D01*
X005510Y004775D01*
X005409Y004727D01*
X005314Y004667D01*
X005226Y004597D01*
X005147Y004517D01*
X005077Y004430D01*
X005017Y004334D01*
X004968Y004233D01*
X004931Y004127D01*
X004906Y004018D01*
X004894Y003906D01*
X004894Y003900D01*
X005844Y003900D01*
X005844Y003800D01*
X005944Y003800D01*
X005944Y002850D01*
X005950Y002850D01*
X006061Y002863D01*
X006171Y002888D01*
X006277Y002925D01*
X006378Y002973D01*
X006501Y003055D02*
X037494Y003055D01*
X037508Y003021D02*
X037671Y002858D01*
X037885Y002770D01*
X038115Y002770D01*
X038329Y002858D01*
X038492Y003021D01*
X038580Y003235D01*
X038580Y003465D01*
X038492Y003679D01*
X038329Y003842D01*
X038309Y003850D01*
X038329Y003858D01*
X038492Y004021D01*
X038580Y004235D01*
X038580Y004465D01*
X038492Y004679D01*
X038329Y004842D01*
X038115Y004930D01*
X037885Y004930D01*
X037671Y004842D01*
X037508Y004679D01*
X037420Y004465D01*
X037420Y004235D01*
X037508Y004021D01*
X037671Y003858D01*
X037691Y003850D01*
X037671Y003842D01*
X037508Y003679D01*
X037420Y003465D01*
X037420Y003235D01*
X037508Y003021D01*
X037573Y002957D02*
X034435Y002957D01*
X034330Y002957D02*
X034230Y002957D01*
X034230Y002858D02*
X034330Y002858D01*
X034330Y002760D02*
X034230Y002760D01*
X034230Y002661D02*
X034330Y002661D01*
X034330Y002563D02*
X034230Y002563D01*
X034330Y002464D02*
X047725Y002464D01*
X047725Y002383D02*
X048033Y002075D01*
X048467Y002075D01*
X048775Y002383D01*
X048775Y002817D01*
X048467Y003125D01*
X048033Y003125D01*
X047725Y002817D01*
X047725Y002383D01*
X047742Y002366D02*
X034792Y002366D01*
X034764Y002267D02*
X047841Y002267D01*
X047939Y002169D02*
X034711Y002169D01*
X034625Y002070D02*
X054000Y002070D01*
X054000Y002169D02*
X049427Y002169D01*
X049428Y002169D02*
X049494Y002202D01*
X049553Y002245D01*
X049605Y002297D01*
X049648Y002356D01*
X049681Y002422D01*
X049704Y002491D01*
X049715Y002563D01*
X049715Y002570D01*
X049280Y002570D01*
X049280Y002630D01*
X049715Y002630D01*
X049715Y002637D01*
X049704Y002709D01*
X049681Y002778D01*
X049648Y002844D01*
X049605Y002903D01*
X049553Y002955D01*
X049494Y002998D01*
X049428Y003031D01*
X049359Y003054D01*
X049287Y003065D01*
X049280Y003065D01*
X049280Y002630D01*
X049220Y002630D01*
X049220Y003065D01*
X049213Y003065D01*
X049141Y003054D01*
X049072Y003031D01*
X049006Y002998D01*
X048947Y002955D01*
X048895Y002903D01*
X048852Y002844D01*
X048819Y002778D01*
X048796Y002709D01*
X048785Y002637D01*
X048785Y002630D01*
X049220Y002630D01*
X049220Y002570D01*
X049280Y002570D01*
X049280Y002135D01*
X049287Y002135D01*
X049359Y002146D01*
X049428Y002169D01*
X049280Y002169D02*
X049220Y002169D01*
X049220Y002135D02*
X049220Y002570D01*
X048785Y002570D01*
X048785Y002563D01*
X048796Y002491D01*
X048819Y002422D01*
X048852Y002356D01*
X048895Y002297D01*
X048947Y002245D01*
X049006Y002202D01*
X049072Y002169D01*
X049141Y002146D01*
X049213Y002135D01*
X049220Y002135D01*
X049220Y002267D02*
X049280Y002267D01*
X049280Y002366D02*
X049220Y002366D01*
X049220Y002464D02*
X049280Y002464D01*
X049280Y002563D02*
X049220Y002563D01*
X049220Y002661D02*
X049280Y002661D01*
X049280Y002760D02*
X049220Y002760D01*
X049220Y002858D02*
X049280Y002858D01*
X049280Y002957D02*
X049220Y002957D01*
X049220Y003055D02*
X049280Y003055D01*
X049350Y003055D02*
X054000Y003055D01*
X054000Y002957D02*
X049550Y002957D01*
X049637Y002858D02*
X054000Y002858D01*
X054000Y002760D02*
X049687Y002760D01*
X049711Y002661D02*
X054000Y002661D01*
X054000Y002563D02*
X049715Y002563D01*
X049695Y002464D02*
X054000Y002464D01*
X054000Y002366D02*
X049652Y002366D01*
X049575Y002267D02*
X054000Y002267D01*
X054000Y003154D02*
X038546Y003154D01*
X038580Y003252D02*
X054000Y003252D01*
X054000Y003351D02*
X038580Y003351D01*
X038580Y003449D02*
X054000Y003449D01*
X054000Y003548D02*
X038546Y003548D01*
X038505Y003646D02*
X054000Y003646D01*
X054000Y003745D02*
X038426Y003745D01*
X038325Y003843D02*
X054000Y003843D01*
X054000Y003942D02*
X038412Y003942D01*
X038499Y004040D02*
X054000Y004040D01*
X054000Y004139D02*
X051260Y004139D01*
X051211Y004090D02*
X051510Y004389D01*
X051510Y004811D01*
X051221Y005100D01*
X051500Y005379D01*
X051789Y005090D01*
X052211Y005090D01*
X052510Y005389D01*
X052510Y005811D01*
X052221Y006100D01*
X052461Y006340D01*
X053052Y006340D01*
X053147Y006380D01*
X053220Y006453D01*
X053720Y006953D01*
X053760Y007048D01*
X053760Y009652D01*
X053720Y009747D01*
X053647Y009820D01*
X051260Y012208D01*
X051260Y012445D01*
X051470Y012655D01*
X051470Y013045D01*
X051195Y013320D01*
X050805Y013320D01*
X050530Y013045D01*
X050530Y012655D01*
X050740Y012445D01*
X050740Y012048D01*
X050780Y011953D01*
X053240Y009492D01*
X053240Y009200D01*
X053220Y009247D01*
X053147Y009320D01*
X052397Y010070D01*
X052302Y010110D01*
X048198Y010110D01*
X048103Y010070D01*
X048030Y009997D01*
X047642Y009610D01*
X038405Y009610D01*
X038195Y009820D01*
X037805Y009820D01*
X037595Y009610D01*
X033108Y009610D01*
X032147Y010570D01*
X032052Y010610D01*
X022411Y010610D01*
X022408Y010616D01*
X022276Y010748D01*
X022103Y010820D01*
X021397Y010820D01*
X021224Y010748D01*
X021092Y010616D01*
X021020Y010443D01*
X019480Y010443D01*
X019408Y010616D01*
X019276Y010748D01*
X019103Y010820D01*
X018397Y010820D01*
X018224Y010748D01*
X018092Y010616D01*
X018020Y010443D01*
X012332Y010443D01*
X012276Y010498D02*
X012408Y010366D01*
X012480Y010193D01*
X012480Y010007D01*
X012408Y009834D01*
X012276Y009702D01*
X012103Y009630D01*
X011397Y009630D01*
X011224Y009702D01*
X011092Y009834D01*
X011020Y010007D01*
X011020Y010193D01*
X011092Y010366D01*
X011224Y010498D01*
X011397Y010570D01*
X012103Y010570D01*
X012276Y010498D01*
X012173Y010541D02*
X018060Y010541D01*
X018020Y010443D02*
X018020Y010257D01*
X018092Y010084D01*
X018224Y009952D01*
X018397Y009880D01*
X019103Y009880D01*
X019276Y009952D01*
X019408Y010084D01*
X019480Y010257D01*
X019480Y010443D01*
X019480Y010344D02*
X021020Y010344D01*
X021020Y010257D02*
X021092Y010084D01*
X021224Y009952D01*
X021397Y009880D01*
X022103Y009880D01*
X022276Y009952D01*
X022408Y010084D01*
X022411Y010090D01*
X031892Y010090D01*
X032780Y009203D01*
X032853Y009130D01*
X032948Y009090D01*
X037595Y009090D01*
X037805Y008880D01*
X038195Y008880D01*
X038405Y009090D01*
X047802Y009090D01*
X047897Y009130D01*
X048358Y009590D01*
X052142Y009590D01*
X052740Y008992D01*
X052740Y007958D01*
X052642Y007860D01*
X052461Y007860D01*
X052221Y008100D01*
X052510Y008389D01*
X052510Y008811D01*
X052211Y009110D01*
X051789Y009110D01*
X051500Y008821D01*
X051211Y009110D01*
X050789Y009110D01*
X050539Y008860D01*
X047948Y008860D01*
X047853Y008820D01*
X047780Y008747D01*
X047142Y008110D01*
X038405Y008110D01*
X038195Y008320D01*
X037805Y008320D01*
X037595Y008110D01*
X032698Y008110D01*
X032603Y008070D01*
X032530Y007997D01*
X032142Y007610D01*
X022411Y007610D01*
X022408Y007616D01*
X022276Y007748D01*
X022103Y007820D01*
X021397Y007820D01*
X021224Y007748D01*
X021092Y007616D01*
X021020Y007443D01*
X021020Y007257D01*
X021092Y007084D01*
X021224Y006952D01*
X021397Y006880D01*
X022103Y006880D01*
X022276Y006952D01*
X022408Y007084D01*
X022411Y007090D01*
X032302Y007090D01*
X032397Y007130D01*
X032858Y007590D01*
X037595Y007590D01*
X037805Y007380D01*
X038195Y007380D01*
X038405Y007590D01*
X047302Y007590D01*
X047397Y007630D01*
X048108Y008340D01*
X050539Y008340D01*
X050779Y008100D01*
X050490Y007811D01*
X050490Y007389D01*
X038204Y007389D01*
X038302Y007488D02*
X050490Y007488D01*
X050490Y007586D02*
X038401Y007586D01*
X038000Y007850D02*
X047250Y007850D01*
X048000Y008600D01*
X051000Y008600D01*
X050603Y008276D02*
X048043Y008276D01*
X047945Y008177D02*
X050702Y008177D01*
X050757Y008079D02*
X047846Y008079D01*
X047748Y007980D02*
X050659Y007980D01*
X050560Y007882D02*
X047649Y007882D01*
X047551Y007783D02*
X050490Y007783D01*
X050490Y007685D02*
X047452Y007685D01*
X047209Y008177D02*
X038338Y008177D01*
X038239Y008276D02*
X047308Y008276D01*
X047406Y008374D02*
X022480Y008374D01*
X022480Y008443D02*
X022480Y008257D01*
X022408Y008084D01*
X022276Y007952D01*
X022103Y007880D01*
X021397Y007880D01*
X021224Y007952D01*
X021092Y008084D01*
X021020Y008257D01*
X021020Y008443D01*
X021092Y008616D01*
X021224Y008748D01*
X021397Y008820D01*
X022103Y008820D01*
X022276Y008748D01*
X022408Y008616D01*
X022480Y008443D01*
X022468Y008473D02*
X047505Y008473D01*
X047603Y008571D02*
X022427Y008571D01*
X022355Y008670D02*
X047702Y008670D01*
X047800Y008768D02*
X022229Y008768D01*
X022103Y008880D02*
X022276Y008952D01*
X022408Y009084D01*
X022480Y009257D01*
X022480Y009443D01*
X022408Y009616D01*
X022276Y009748D01*
X022103Y009820D01*
X021397Y009820D01*
X021224Y009748D01*
X021092Y009616D01*
X021020Y009443D01*
X021020Y009257D01*
X021092Y009084D01*
X021224Y008952D01*
X021397Y008880D01*
X022103Y008880D01*
X022290Y008965D02*
X037720Y008965D01*
X037622Y009064D02*
X022388Y009064D01*
X022441Y009162D02*
X032820Y009162D01*
X032722Y009261D02*
X022480Y009261D01*
X022480Y009359D02*
X032623Y009359D01*
X032525Y009458D02*
X022474Y009458D01*
X022433Y009556D02*
X032426Y009556D01*
X032328Y009655D02*
X022370Y009655D01*
X022265Y009753D02*
X032229Y009753D01*
X032131Y009852D02*
X012416Y009852D01*
X012457Y009950D02*
X018227Y009950D01*
X018127Y010049D02*
X012480Y010049D01*
X012480Y010147D02*
X018065Y010147D01*
X018025Y010246D02*
X012458Y010246D01*
X012418Y010344D02*
X018020Y010344D01*
X018115Y010640D02*
X012126Y010640D01*
X012103Y010630D02*
X012276Y010702D01*
X012408Y010834D01*
X012480Y011007D01*
X012480Y011193D01*
X012408Y011366D01*
X012276Y011498D01*
X012103Y011570D01*
X011397Y011570D01*
X011224Y011498D01*
X011092Y011366D01*
X011020Y011193D01*
X011020Y011007D01*
X011092Y010834D01*
X011224Y010702D01*
X011397Y010630D01*
X012103Y010630D01*
X012313Y010738D02*
X018213Y010738D01*
X018264Y010935D02*
X012450Y010935D01*
X012480Y011034D02*
X018142Y011034D01*
X018092Y011084D02*
X018224Y010952D01*
X018397Y010880D01*
X019103Y010880D01*
X019276Y010952D01*
X019408Y011084D01*
X019480Y011257D01*
X019480Y011443D01*
X019408Y011616D01*
X019276Y011748D01*
X019103Y011820D01*
X018397Y011820D01*
X018224Y011748D01*
X018092Y011616D01*
X018020Y011443D01*
X018020Y011257D01*
X018092Y011084D01*
X018072Y011132D02*
X012480Y011132D01*
X012465Y011231D02*
X018031Y011231D01*
X018020Y011329D02*
X012424Y011329D01*
X012347Y011428D02*
X018020Y011428D01*
X018054Y011526D02*
X012210Y011526D01*
X012103Y011630D02*
X012276Y011702D01*
X012408Y011834D01*
X012411Y011840D01*
X014052Y011840D01*
X014147Y011880D01*
X014220Y011953D01*
X015470Y013203D01*
X015510Y013298D01*
X015510Y019902D01*
X015470Y019997D01*
X015397Y020070D01*
X014647Y020820D01*
X014552Y020860D01*
X013161Y020860D01*
X013158Y020866D01*
X013026Y020998D01*
X012853Y021070D01*
X012147Y021070D01*
X011974Y020998D01*
X011842Y020866D01*
X011770Y020693D01*
X011770Y020507D01*
X011842Y020334D01*
X011974Y020202D01*
X012147Y020130D01*
X012853Y020130D01*
X013026Y020202D01*
X013158Y020334D01*
X013161Y020340D01*
X014392Y020340D01*
X014990Y019742D01*
X014990Y013458D01*
X013892Y012360D01*
X012411Y012360D01*
X012408Y012366D01*
X012276Y012498D01*
X012103Y012570D01*
X011397Y012570D01*
X011224Y012498D01*
X011092Y012366D01*
X011089Y012360D01*
X010858Y012360D01*
X010510Y012708D01*
X011370Y012708D01*
X011394Y012700D02*
X011458Y012690D01*
X011720Y012690D01*
X011720Y013070D01*
X011780Y013070D01*
X011780Y013130D01*
X011720Y013130D01*
X011720Y013510D01*
X011458Y013510D01*
X011394Y013500D01*
X011333Y013480D01*
X011275Y013451D01*
X011223Y013413D01*
X011177Y013367D01*
X011139Y013315D01*
X011110Y013257D01*
X011090Y013196D01*
X011080Y013132D01*
X011080Y013130D01*
X011720Y013130D01*
X011720Y013070D01*
X011080Y013070D01*
X011080Y013068D01*
X011090Y013004D01*
X011110Y012943D01*
X011139Y012885D01*
X011177Y012833D01*
X011223Y012787D01*
X011275Y012749D01*
X011333Y012720D01*
X011394Y012700D01*
X011204Y012807D02*
X010510Y012807D01*
X010510Y012905D02*
X011129Y012905D01*
X011090Y013004D02*
X010510Y013004D01*
X010510Y013102D02*
X011720Y013102D01*
X011780Y013102D02*
X014634Y013102D01*
X014536Y013004D02*
X012410Y013004D01*
X012420Y013068D01*
X012420Y013070D01*
X011780Y013070D01*
X011780Y012690D01*
X012042Y012690D01*
X012106Y012700D01*
X012167Y012720D01*
X012225Y012749D01*
X012277Y012787D01*
X012323Y012833D01*
X012361Y012885D01*
X012390Y012943D01*
X012410Y013004D01*
X012371Y012905D02*
X014437Y012905D01*
X014339Y012807D02*
X012296Y012807D01*
X012130Y012708D02*
X014240Y012708D01*
X014142Y012610D02*
X010608Y012610D01*
X010510Y012708D02*
X010510Y013402D01*
X010470Y013497D01*
X010397Y013570D01*
X006897Y017070D01*
X006802Y017110D01*
X006405Y017110D01*
X006195Y017320D01*
X005805Y017320D01*
X005530Y017045D01*
X005530Y016655D01*
X005805Y016380D01*
X006195Y016380D01*
X006405Y016590D01*
X006642Y016590D01*
X009990Y013242D01*
X009990Y012548D01*
X010030Y012453D01*
X010530Y011953D01*
X010603Y011880D01*
X010698Y011840D01*
X011089Y011840D01*
X011092Y011834D01*
X011224Y011702D01*
X011397Y011630D01*
X012103Y011630D01*
X012298Y011723D02*
X018198Y011723D01*
X018100Y011625D02*
X002000Y011625D01*
X002000Y011723D02*
X008202Y011723D01*
X008224Y011702D02*
X008397Y011630D01*
X009103Y011630D01*
X009276Y011702D01*
X009408Y011834D01*
X009480Y012007D01*
X009480Y012193D01*
X009408Y012366D01*
X009276Y012498D01*
X009103Y012570D01*
X008397Y012570D01*
X008224Y012498D01*
X008092Y012366D01*
X008020Y012193D01*
X008020Y012007D01*
X008092Y011834D01*
X008224Y011702D01*
X008104Y011822D02*
X002000Y011822D01*
X002000Y011920D02*
X008056Y011920D01*
X008020Y012019D02*
X002000Y012019D01*
X002000Y012117D02*
X008020Y012117D01*
X008029Y012216D02*
X004530Y012216D01*
X004445Y012130D02*
X004720Y012405D01*
X004720Y012795D01*
X004445Y013070D01*
X004055Y013070D01*
X003780Y012795D01*
X003780Y012405D01*
X004055Y012130D01*
X004445Y012130D01*
X004629Y012314D02*
X008070Y012314D01*
X008138Y012413D02*
X004720Y012413D01*
X004720Y012511D02*
X008254Y012511D01*
X008397Y012630D02*
X008224Y012702D01*
X008092Y012834D01*
X008020Y013007D01*
X008020Y013193D01*
X008092Y013366D01*
X008224Y013498D01*
X008397Y013570D01*
X009103Y013570D01*
X009276Y013498D01*
X009408Y013366D01*
X009480Y013193D01*
X009480Y013007D01*
X009408Y012834D01*
X009276Y012702D01*
X009103Y012630D01*
X008397Y012630D01*
X008217Y012708D02*
X004720Y012708D01*
X004720Y012610D02*
X009990Y012610D01*
X009990Y012708D02*
X009283Y012708D01*
X009381Y012807D02*
X009990Y012807D01*
X009990Y012905D02*
X009438Y012905D01*
X009479Y013004D02*
X009990Y013004D01*
X009990Y013102D02*
X009480Y013102D01*
X009477Y013201D02*
X009990Y013201D01*
X009933Y013299D02*
X009436Y013299D01*
X009377Y013398D02*
X009835Y013398D01*
X009736Y013496D02*
X009279Y013496D01*
X009539Y013693D02*
X007258Y013693D01*
X007195Y013630D02*
X007470Y013905D01*
X007470Y014295D01*
X007195Y014570D01*
X006805Y014570D01*
X006530Y014295D01*
X006530Y013905D01*
X006805Y013630D01*
X007195Y013630D01*
X007356Y013792D02*
X009441Y013792D01*
X009342Y013890D02*
X007455Y013890D01*
X007470Y013989D02*
X009244Y013989D01*
X009145Y014087D02*
X007470Y014087D01*
X007470Y014186D02*
X009047Y014186D01*
X008948Y014284D02*
X007470Y014284D01*
X007382Y014383D02*
X008850Y014383D01*
X008751Y014481D02*
X007284Y014481D01*
X007195Y014630D02*
X006805Y014630D01*
X006530Y014905D01*
X006530Y015295D01*
X006805Y015570D01*
X007195Y015570D01*
X007470Y015295D01*
X007470Y014905D01*
X007195Y014630D01*
X007243Y014678D02*
X008554Y014678D01*
X008456Y014777D02*
X007341Y014777D01*
X007440Y014875D02*
X008357Y014875D01*
X008259Y014974D02*
X007470Y014974D01*
X007470Y015072D02*
X008160Y015072D01*
X008062Y015171D02*
X007470Y015171D01*
X007470Y015269D02*
X007963Y015269D01*
X007865Y015368D02*
X007397Y015368D01*
X007299Y015466D02*
X007766Y015466D01*
X007668Y015565D02*
X007200Y015565D01*
X007471Y015762D02*
X002000Y015762D01*
X002000Y015860D02*
X007372Y015860D01*
X007274Y015959D02*
X002000Y015959D01*
X002000Y016057D02*
X007175Y016057D01*
X007077Y016156D02*
X002000Y016156D01*
X002000Y016254D02*
X006978Y016254D01*
X006880Y016353D02*
X002000Y016353D01*
X002000Y016451D02*
X005734Y016451D01*
X005636Y016550D02*
X002000Y016550D01*
X002000Y016648D02*
X005537Y016648D01*
X005530Y016747D02*
X002000Y016747D01*
X002000Y016845D02*
X005530Y016845D01*
X005530Y016944D02*
X002000Y016944D01*
X002000Y017042D02*
X005530Y017042D01*
X005626Y017141D02*
X002000Y017141D01*
X002000Y017239D02*
X005724Y017239D01*
X006276Y017239D02*
X008936Y017239D01*
X008974Y017202D02*
X009147Y017130D01*
X009853Y017130D01*
X010026Y017202D01*
X010158Y017334D01*
X010230Y017507D01*
X010230Y017693D01*
X010158Y017866D01*
X010026Y017998D01*
X009853Y018070D01*
X009147Y018070D01*
X008974Y017998D01*
X008842Y017866D01*
X008770Y017693D01*
X008770Y017507D01*
X008842Y017334D01*
X008974Y017202D01*
X009121Y017141D02*
X006374Y017141D01*
X006926Y017042D02*
X009079Y017042D01*
X009147Y017070D02*
X008974Y016998D01*
X008842Y016866D01*
X008770Y016693D01*
X008770Y016507D01*
X008842Y016334D01*
X008974Y016202D01*
X009147Y016130D01*
X009853Y016130D01*
X010026Y016202D01*
X010158Y016334D01*
X010230Y016507D01*
X010230Y016693D01*
X010158Y016866D01*
X010026Y016998D01*
X009853Y017070D01*
X009147Y017070D01*
X008919Y016944D02*
X007024Y016944D01*
X007123Y016845D02*
X008833Y016845D01*
X008792Y016747D02*
X007221Y016747D01*
X007320Y016648D02*
X008770Y016648D01*
X008770Y016550D02*
X007418Y016550D01*
X007517Y016451D02*
X008793Y016451D01*
X008834Y016353D02*
X007615Y016353D01*
X007714Y016254D02*
X008921Y016254D01*
X009085Y016156D02*
X007812Y016156D01*
X007911Y016057D02*
X014990Y016057D01*
X014990Y015959D02*
X008009Y015959D01*
X008108Y015860D02*
X014990Y015860D01*
X014990Y015762D02*
X008206Y015762D01*
X008305Y015663D02*
X014990Y015663D01*
X014990Y015565D02*
X008403Y015565D01*
X008502Y015466D02*
X014990Y015466D01*
X014990Y015368D02*
X008600Y015368D01*
X008699Y015269D02*
X014990Y015269D01*
X014990Y015171D02*
X008797Y015171D01*
X008896Y015072D02*
X014990Y015072D01*
X014990Y014974D02*
X008994Y014974D01*
X009093Y014875D02*
X014990Y014875D01*
X014990Y014777D02*
X009191Y014777D01*
X009290Y014678D02*
X014990Y014678D01*
X014990Y014580D02*
X009388Y014580D01*
X009487Y014481D02*
X014990Y014481D01*
X014990Y014383D02*
X009585Y014383D01*
X009684Y014284D02*
X014990Y014284D01*
X014990Y014186D02*
X009782Y014186D01*
X009881Y014087D02*
X014990Y014087D01*
X014990Y013989D02*
X009979Y013989D01*
X010078Y013890D02*
X014990Y013890D01*
X014990Y013792D02*
X010176Y013792D01*
X010275Y013693D02*
X014990Y013693D01*
X014990Y013595D02*
X010373Y013595D01*
X010471Y013496D02*
X011382Y013496D01*
X011208Y013398D02*
X010510Y013398D01*
X010510Y013299D02*
X011131Y013299D01*
X011092Y013201D02*
X010510Y013201D01*
X010250Y013350D02*
X010250Y012600D01*
X010750Y012100D01*
X011750Y012100D01*
X014000Y012100D01*
X015250Y013350D01*
X015250Y019850D01*
X014500Y020600D01*
X012500Y020600D01*
X011883Y020293D02*
X010117Y020293D01*
X010158Y020334D02*
X010230Y020507D01*
X010230Y020693D01*
X010158Y020866D01*
X010026Y020998D01*
X009853Y021070D01*
X009147Y021070D01*
X008974Y020998D01*
X008842Y020866D01*
X008770Y020693D01*
X008770Y020507D01*
X008842Y020334D01*
X008974Y020202D01*
X009147Y020130D01*
X009853Y020130D01*
X010026Y020202D01*
X010158Y020334D01*
X010182Y020391D02*
X011818Y020391D01*
X011777Y020490D02*
X010223Y020490D01*
X010230Y020588D02*
X011770Y020588D01*
X011770Y020687D02*
X010230Y020687D01*
X010192Y020785D02*
X011808Y020785D01*
X011859Y020884D02*
X010141Y020884D01*
X010043Y020982D02*
X011957Y020982D01*
X012028Y021179D02*
X009972Y021179D01*
X010026Y021202D02*
X010158Y021334D01*
X010230Y021507D01*
X010230Y021693D01*
X010158Y021866D01*
X010026Y021998D01*
X009853Y022070D01*
X009147Y022070D01*
X008974Y021998D01*
X008842Y021866D01*
X008770Y021693D01*
X008770Y021507D01*
X008842Y021334D01*
X008974Y021202D01*
X009147Y021130D01*
X009853Y021130D01*
X010026Y021202D01*
X010102Y021278D02*
X011898Y021278D01*
X011842Y021334D02*
X011974Y021202D01*
X012147Y021130D01*
X012853Y021130D01*
X013026Y021202D01*
X013158Y021334D01*
X013230Y021507D01*
X013230Y021693D01*
X013158Y021866D01*
X013026Y021998D01*
X012853Y022070D01*
X012147Y022070D01*
X011974Y021998D01*
X011842Y021866D01*
X011770Y021693D01*
X011770Y021507D01*
X011842Y021334D01*
X011824Y021376D02*
X010176Y021376D01*
X010217Y021475D02*
X011783Y021475D01*
X011770Y021573D02*
X010230Y021573D01*
X010230Y021672D02*
X011770Y021672D01*
X011802Y021770D02*
X010198Y021770D01*
X010156Y021869D02*
X011844Y021869D01*
X011942Y021967D02*
X010058Y021967D01*
X009864Y022066D02*
X012136Y022066D01*
X012144Y022200D02*
X012208Y022190D01*
X012470Y022190D01*
X012470Y022570D01*
X012530Y022570D01*
X012530Y022630D01*
X012470Y022630D01*
X012470Y023010D01*
X012208Y023010D01*
X012144Y023000D01*
X012083Y022980D01*
X012025Y022951D01*
X011973Y022913D01*
X011927Y022867D01*
X011889Y022815D01*
X011860Y022757D01*
X011840Y022696D01*
X011830Y022632D01*
X011830Y022630D01*
X012470Y022630D01*
X012470Y022570D01*
X011830Y022570D01*
X011830Y022568D01*
X011840Y022504D01*
X011860Y022443D01*
X011889Y022385D01*
X011927Y022333D01*
X011973Y022287D01*
X012025Y022249D01*
X012083Y022220D01*
X012144Y022200D01*
X012007Y022263D02*
X010087Y022263D01*
X010026Y022202D02*
X010158Y022334D01*
X010230Y022507D01*
X010230Y022693D01*
X010158Y022866D01*
X010026Y022998D01*
X009853Y023070D01*
X009147Y023070D01*
X008974Y022998D01*
X008842Y022866D01*
X008770Y022693D01*
X008770Y022507D01*
X008842Y022334D01*
X008974Y022202D01*
X009147Y022130D01*
X009853Y022130D01*
X010026Y022202D01*
X009936Y022164D02*
X015021Y022164D01*
X015055Y022130D02*
X015445Y022130D01*
X015720Y022405D01*
X015720Y022795D01*
X015445Y023070D01*
X015055Y023070D01*
X014780Y022795D01*
X014780Y022405D01*
X015055Y022130D01*
X014923Y022263D02*
X014492Y022263D01*
X014420Y022190D02*
X014660Y022430D01*
X014660Y022570D01*
X014280Y022570D01*
X014280Y022630D01*
X014660Y022630D01*
X014660Y022770D01*
X014420Y023010D01*
X014280Y023010D01*
X014280Y022630D01*
X014220Y022630D01*
X014220Y023010D01*
X014080Y023010D01*
X013840Y022770D01*
X013840Y022630D01*
X014220Y022630D01*
X014220Y022570D01*
X014280Y022570D01*
X014280Y022190D01*
X014420Y022190D01*
X014280Y022263D02*
X014220Y022263D01*
X014220Y022190D02*
X014080Y022190D01*
X013840Y022430D01*
X013840Y022570D01*
X014220Y022570D01*
X014220Y022190D01*
X014220Y022361D02*
X014280Y022361D01*
X014280Y022460D02*
X014220Y022460D01*
X014220Y022558D02*
X014280Y022558D01*
X014280Y022657D02*
X014220Y022657D01*
X014220Y022755D02*
X014280Y022755D01*
X014280Y022854D02*
X014220Y022854D01*
X014220Y022952D02*
X014280Y022952D01*
X014478Y022952D02*
X014937Y022952D01*
X014839Y022854D02*
X014576Y022854D01*
X014660Y022755D02*
X014780Y022755D01*
X014780Y022657D02*
X014660Y022657D01*
X014660Y022558D02*
X014780Y022558D01*
X014780Y022460D02*
X014660Y022460D01*
X014591Y022361D02*
X014824Y022361D01*
X015479Y022164D02*
X018314Y022164D01*
X018397Y022130D02*
X018224Y022202D01*
X018092Y022334D01*
X018020Y022507D01*
X018020Y022693D01*
X018092Y022866D01*
X018224Y022998D01*
X018397Y023070D01*
X019103Y023070D01*
X019276Y022998D01*
X019408Y022866D01*
X019480Y022693D01*
X019480Y022507D01*
X019408Y022334D01*
X019276Y022202D01*
X019103Y022130D01*
X018397Y022130D01*
X018397Y022070D02*
X018224Y021998D01*
X018092Y021866D01*
X018020Y021693D01*
X018020Y021507D01*
X018092Y021334D01*
X018224Y021202D01*
X018397Y021130D01*
X019103Y021130D01*
X019276Y021202D01*
X019408Y021334D01*
X019480Y021507D01*
X019480Y021693D01*
X019408Y021866D01*
X019276Y021998D01*
X019103Y022070D01*
X018397Y022070D01*
X018386Y022066D02*
X012864Y022066D01*
X012856Y022200D02*
X012917Y022220D01*
X012975Y022249D01*
X013027Y022287D01*
X013073Y022333D01*
X013111Y022385D01*
X013140Y022443D01*
X013160Y022504D01*
X013170Y022568D01*
X013170Y022570D01*
X012530Y022570D01*
X012530Y022190D01*
X012792Y022190D01*
X012856Y022200D01*
X012993Y022263D02*
X014008Y022263D01*
X013909Y022361D02*
X013093Y022361D01*
X013145Y022460D02*
X013840Y022460D01*
X013840Y022558D02*
X013168Y022558D01*
X013170Y022630D02*
X013170Y022632D01*
X013160Y022696D01*
X013140Y022757D01*
X013111Y022815D01*
X013073Y022867D01*
X013027Y022913D01*
X012975Y022951D01*
X012917Y022980D01*
X012856Y023000D01*
X012792Y023010D01*
X012530Y023010D01*
X012530Y022630D01*
X013170Y022630D01*
X013166Y022657D02*
X013840Y022657D01*
X013840Y022755D02*
X013141Y022755D01*
X013083Y022854D02*
X013924Y022854D01*
X014022Y022952D02*
X012972Y022952D01*
X012530Y022952D02*
X012470Y022952D01*
X012470Y022854D02*
X012530Y022854D01*
X012530Y022755D02*
X012470Y022755D01*
X012470Y022657D02*
X012530Y022657D01*
X012530Y022558D02*
X012470Y022558D01*
X012470Y022460D02*
X012530Y022460D01*
X012530Y022361D02*
X012470Y022361D01*
X012470Y022263D02*
X012530Y022263D01*
X011907Y022361D02*
X010170Y022361D01*
X010211Y022460D02*
X011855Y022460D01*
X011832Y022558D02*
X010230Y022558D01*
X010230Y022657D02*
X011834Y022657D01*
X011859Y022755D02*
X010204Y022755D01*
X010164Y022854D02*
X011917Y022854D01*
X012028Y022952D02*
X010073Y022952D01*
X009900Y023051D02*
X015036Y023051D01*
X015464Y023051D02*
X018350Y023051D01*
X018177Y022952D02*
X015563Y022952D01*
X015661Y022854D02*
X018086Y022854D01*
X018046Y022755D02*
X015720Y022755D01*
X015720Y022657D02*
X018020Y022657D01*
X018020Y022558D02*
X015720Y022558D01*
X015720Y022460D02*
X018039Y022460D01*
X018080Y022361D02*
X015676Y022361D01*
X015577Y022263D02*
X018163Y022263D01*
X018192Y021967D02*
X013058Y021967D01*
X013156Y021869D02*
X018094Y021869D01*
X018052Y021770D02*
X013198Y021770D01*
X013230Y021672D02*
X018020Y021672D01*
X018020Y021573D02*
X013230Y021573D01*
X013217Y021475D02*
X018033Y021475D01*
X018074Y021376D02*
X013176Y021376D01*
X013102Y021278D02*
X018148Y021278D01*
X018278Y021179D02*
X012972Y021179D01*
X013043Y020982D02*
X018207Y020982D01*
X018224Y020998D02*
X018092Y020866D01*
X018020Y020693D01*
X018020Y020507D01*
X018092Y020334D01*
X018224Y020202D01*
X018397Y020130D01*
X019103Y020130D01*
X019276Y020202D01*
X019408Y020334D01*
X019480Y020507D01*
X019480Y020693D01*
X019408Y020866D01*
X019276Y020998D01*
X019103Y021070D01*
X018397Y021070D01*
X018224Y020998D01*
X018109Y020884D02*
X013141Y020884D01*
X013117Y020293D02*
X014440Y020293D01*
X014538Y020194D02*
X013008Y020194D01*
X013026Y019998D02*
X012853Y020070D01*
X012147Y020070D01*
X011974Y019998D01*
X011842Y019866D01*
X011770Y019693D01*
X011770Y019507D01*
X011842Y019334D01*
X011974Y019202D01*
X012147Y019130D01*
X012853Y019130D01*
X013026Y019202D01*
X013158Y019334D01*
X013230Y019507D01*
X013230Y019693D01*
X013158Y019866D01*
X013026Y019998D01*
X013028Y019997D02*
X014735Y019997D01*
X014637Y020096D02*
X006260Y020096D01*
X006260Y020194D02*
X008992Y020194D01*
X008883Y020293D02*
X006260Y020293D01*
X006260Y020391D02*
X008818Y020391D01*
X008777Y020490D02*
X006260Y020490D01*
X006260Y020588D02*
X008770Y020588D01*
X008770Y020687D02*
X006260Y020687D01*
X006260Y020785D02*
X008808Y020785D01*
X008859Y020884D02*
X006354Y020884D01*
X006329Y020858D02*
X006492Y021021D01*
X006580Y021235D01*
X006580Y021465D01*
X006492Y021679D01*
X006329Y021842D01*
X006115Y021930D01*
X005885Y021930D01*
X005671Y021842D01*
X005508Y021679D01*
X005500Y021659D01*
X005492Y021679D01*
X005329Y021842D01*
X005115Y021930D01*
X004885Y021930D01*
X004671Y021842D01*
X004508Y021679D01*
X004420Y021465D01*
X004420Y021235D01*
X004508Y021021D01*
X004671Y020858D01*
X004885Y020770D01*
X005115Y020770D01*
X005329Y020858D01*
X005492Y021021D01*
X005500Y021041D01*
X005508Y021021D01*
X005671Y020858D01*
X005740Y020830D01*
X005740Y019255D01*
X005530Y019045D01*
X005530Y018655D01*
X005805Y018380D01*
X006195Y018380D01*
X006470Y018655D01*
X006470Y019045D01*
X006260Y019255D01*
X006260Y020830D01*
X006329Y020858D01*
X006452Y020982D02*
X008957Y020982D01*
X009028Y021179D02*
X006557Y021179D01*
X006580Y021278D02*
X008898Y021278D01*
X008824Y021376D02*
X006580Y021376D01*
X006576Y021475D02*
X008783Y021475D01*
X008770Y021573D02*
X006535Y021573D01*
X006495Y021672D02*
X008770Y021672D01*
X008802Y021770D02*
X006400Y021770D01*
X006264Y021869D02*
X008844Y021869D01*
X008942Y021967D02*
X002000Y021967D01*
X002000Y021869D02*
X004736Y021869D01*
X004600Y021770D02*
X002000Y021770D01*
X002000Y021672D02*
X004505Y021672D01*
X004465Y021573D02*
X002000Y021573D01*
X002000Y021475D02*
X004424Y021475D01*
X004420Y021376D02*
X002000Y021376D01*
X002000Y021278D02*
X004420Y021278D01*
X004443Y021179D02*
X002000Y021179D01*
X002000Y021081D02*
X004484Y021081D01*
X004548Y020982D02*
X002000Y020982D01*
X002000Y020884D02*
X004646Y020884D01*
X004848Y020785D02*
X002000Y020785D01*
X002000Y020687D02*
X005740Y020687D01*
X005740Y020785D02*
X005152Y020785D01*
X005354Y020884D02*
X005646Y020884D01*
X005548Y020982D02*
X005452Y020982D01*
X006000Y021350D02*
X006000Y018850D01*
X006334Y018520D02*
X008770Y018520D01*
X008770Y018507D02*
X008842Y018334D01*
X008974Y018202D01*
X009147Y018130D01*
X009853Y018130D01*
X010026Y018202D01*
X010158Y018334D01*
X010230Y018507D01*
X010230Y018693D01*
X010158Y018866D01*
X010026Y018998D01*
X009853Y019070D01*
X009147Y019070D01*
X008974Y018998D01*
X008842Y018866D01*
X008770Y018693D01*
X008770Y018507D01*
X008805Y018421D02*
X006236Y018421D01*
X006433Y018618D02*
X008770Y018618D01*
X008780Y018717D02*
X006470Y018717D01*
X006470Y018815D02*
X008820Y018815D01*
X008889Y018914D02*
X006470Y018914D01*
X006470Y019012D02*
X009007Y019012D01*
X009147Y019130D02*
X009853Y019130D01*
X010026Y019202D01*
X010158Y019334D01*
X010230Y019507D01*
X010230Y019693D01*
X010158Y019866D01*
X010026Y019998D01*
X009853Y020070D01*
X009147Y020070D01*
X008974Y019998D01*
X008842Y019866D01*
X008770Y019693D01*
X008770Y019507D01*
X008842Y019334D01*
X008974Y019202D01*
X009147Y019130D01*
X008966Y019209D02*
X006306Y019209D01*
X006260Y019308D02*
X008868Y019308D01*
X008812Y019406D02*
X006260Y019406D01*
X006260Y019505D02*
X008771Y019505D01*
X008770Y019603D02*
X006260Y019603D01*
X006260Y019702D02*
X008773Y019702D01*
X008814Y019800D02*
X006260Y019800D01*
X006260Y019899D02*
X008874Y019899D01*
X008972Y019997D02*
X006260Y019997D01*
X005740Y019997D02*
X002000Y019997D01*
X002000Y019899D02*
X005740Y019899D01*
X005740Y019800D02*
X002000Y019800D01*
X002000Y019702D02*
X005740Y019702D01*
X005740Y019603D02*
X002000Y019603D01*
X002000Y019505D02*
X005740Y019505D01*
X005740Y019406D02*
X002000Y019406D01*
X002000Y019308D02*
X005740Y019308D01*
X005694Y019209D02*
X002000Y019209D01*
X002000Y019111D02*
X005596Y019111D01*
X005530Y019012D02*
X002000Y019012D01*
X002000Y018914D02*
X005530Y018914D01*
X005530Y018815D02*
X002000Y018815D01*
X002000Y018717D02*
X005530Y018717D01*
X005567Y018618D02*
X002000Y018618D01*
X002000Y018520D02*
X005666Y018520D01*
X005764Y018421D02*
X002000Y018421D01*
X002000Y018323D02*
X008853Y018323D01*
X008951Y018224D02*
X002000Y018224D01*
X002000Y018126D02*
X014990Y018126D01*
X014990Y018224D02*
X013049Y018224D01*
X013026Y018202D02*
X013158Y018334D01*
X013230Y018507D01*
X013230Y018693D01*
X013158Y018866D01*
X013026Y018998D01*
X012853Y019070D01*
X012147Y019070D01*
X011974Y018998D01*
X011842Y018866D01*
X011770Y018693D01*
X011770Y018507D01*
X011842Y018334D01*
X011974Y018202D01*
X012147Y018130D01*
X012853Y018130D01*
X013026Y018202D01*
X013147Y018323D02*
X014990Y018323D01*
X014990Y018421D02*
X013195Y018421D01*
X013230Y018520D02*
X014990Y018520D01*
X014990Y018618D02*
X013230Y018618D01*
X013220Y018717D02*
X014990Y018717D01*
X014990Y018815D02*
X013180Y018815D01*
X013111Y018914D02*
X014990Y018914D01*
X014990Y019012D02*
X012993Y019012D01*
X013034Y019209D02*
X014990Y019209D01*
X014990Y019111D02*
X006404Y019111D01*
X005740Y020096D02*
X002000Y020096D01*
X002000Y020194D02*
X005740Y020194D01*
X005740Y020293D02*
X002000Y020293D01*
X002000Y020391D02*
X005740Y020391D01*
X005740Y020490D02*
X002000Y020490D01*
X002000Y020588D02*
X005740Y020588D01*
X006516Y021081D02*
X031270Y021081D01*
X031228Y021039D02*
X031140Y020825D01*
X031140Y020595D01*
X031228Y020381D01*
X031391Y020218D01*
X031605Y020130D01*
X031835Y020130D01*
X032049Y020218D01*
X032212Y020381D01*
X032300Y020595D01*
X032300Y020825D01*
X032212Y021039D01*
X032049Y021202D01*
X031835Y021290D01*
X031605Y021290D01*
X031391Y021202D01*
X031228Y021039D01*
X031205Y020982D02*
X022293Y020982D01*
X022276Y020998D02*
X022103Y021070D01*
X021397Y021070D01*
X021224Y020998D01*
X021092Y020866D01*
X021020Y020693D01*
X021020Y020507D01*
X021092Y020334D01*
X021224Y020202D01*
X021397Y020130D01*
X022103Y020130D01*
X022276Y020202D01*
X022408Y020334D01*
X022411Y020340D01*
X026392Y020340D01*
X029280Y017453D01*
X029353Y017380D01*
X029448Y017340D01*
X041052Y017340D01*
X041147Y017380D01*
X043147Y019380D01*
X043220Y019453D01*
X043260Y019548D01*
X043260Y021889D01*
X043500Y022129D01*
X043789Y021840D01*
X044211Y021840D01*
X044500Y022129D01*
X044740Y021889D01*
X044740Y019708D01*
X041892Y016860D01*
X022411Y016860D01*
X022408Y016866D01*
X022276Y016998D01*
X022103Y017070D01*
X021397Y017070D01*
X021224Y016998D01*
X021092Y016866D01*
X021020Y016693D01*
X021020Y016507D01*
X021092Y016334D01*
X021224Y016202D01*
X021397Y016130D01*
X022103Y016130D01*
X022276Y016202D01*
X022408Y016334D01*
X022411Y016340D01*
X042052Y016340D01*
X042147Y016380D01*
X045147Y019380D01*
X045220Y019453D01*
X045260Y019548D01*
X045260Y021889D01*
X045500Y022129D01*
X045789Y021840D01*
X046211Y021840D01*
X046510Y022139D01*
X046510Y022561D01*
X046221Y022850D01*
X046510Y023139D01*
X046510Y023561D01*
X046211Y023860D01*
X045789Y023860D01*
X045500Y023571D01*
X045211Y023860D01*
X044789Y023860D01*
X044500Y023571D01*
X044211Y023860D01*
X043789Y023860D01*
X043500Y023571D01*
X043211Y023860D01*
X042789Y023860D01*
X042500Y023571D01*
X042211Y023860D01*
X041789Y023860D01*
X041490Y023561D01*
X041490Y023139D01*
X041789Y022840D01*
X042211Y022840D01*
X042500Y023129D01*
X042779Y022850D01*
X042490Y022561D01*
X042490Y022139D01*
X042740Y021889D01*
X042740Y019708D01*
X040892Y017860D01*
X029608Y017860D01*
X026647Y020820D01*
X026552Y020860D01*
X022411Y020860D01*
X022408Y020866D01*
X022276Y020998D01*
X022391Y020884D02*
X031164Y020884D01*
X031140Y020785D02*
X026683Y020785D01*
X026781Y020687D02*
X031140Y020687D01*
X031143Y020588D02*
X026880Y020588D01*
X026978Y020490D02*
X031184Y020490D01*
X031224Y020391D02*
X027077Y020391D01*
X027175Y020293D02*
X031317Y020293D01*
X031450Y020194D02*
X027274Y020194D01*
X027372Y020096D02*
X042740Y020096D01*
X042740Y020194D02*
X034550Y020194D01*
X034609Y020218D02*
X034395Y020130D01*
X034165Y020130D01*
X033951Y020218D01*
X033788Y020381D01*
X033700Y020595D01*
X033700Y020825D01*
X033788Y021039D01*
X033951Y021202D01*
X034165Y021290D01*
X034395Y021290D01*
X034609Y021202D01*
X034772Y021039D01*
X034860Y020825D01*
X034860Y020595D01*
X034772Y020381D01*
X034609Y020218D01*
X034683Y020293D02*
X042740Y020293D01*
X042740Y020391D02*
X034776Y020391D01*
X034816Y020490D02*
X042740Y020490D01*
X042740Y020588D02*
X034857Y020588D01*
X034860Y020687D02*
X042740Y020687D01*
X042740Y020785D02*
X034860Y020785D01*
X034836Y020884D02*
X042740Y020884D01*
X042740Y020982D02*
X034795Y020982D01*
X034730Y021081D02*
X042740Y021081D01*
X042740Y021179D02*
X034631Y021179D01*
X034425Y021278D02*
X042740Y021278D01*
X042740Y021376D02*
X022426Y021376D01*
X022408Y021334D02*
X022480Y021507D01*
X022480Y021693D01*
X022408Y021866D01*
X022276Y021998D01*
X022103Y022070D01*
X021397Y022070D01*
X021224Y021998D01*
X021092Y021866D01*
X021020Y021693D01*
X021020Y021507D01*
X021092Y021334D01*
X021224Y021202D01*
X021397Y021130D01*
X022103Y021130D01*
X022276Y021202D01*
X022408Y021334D01*
X022352Y021278D02*
X031575Y021278D01*
X031369Y021179D02*
X022222Y021179D01*
X022467Y021475D02*
X042740Y021475D01*
X042740Y021573D02*
X022480Y021573D01*
X022480Y021672D02*
X042740Y021672D01*
X042740Y021770D02*
X022448Y021770D01*
X022406Y021869D02*
X042740Y021869D01*
X042662Y021967D02*
X042425Y021967D01*
X042420Y021958D02*
X042440Y021992D01*
X042450Y022030D01*
X042450Y022300D01*
X042050Y022300D01*
X042050Y022400D01*
X042450Y022400D01*
X042450Y022670D01*
X042440Y022708D01*
X042420Y022742D01*
X042392Y022770D01*
X042358Y022790D01*
X042320Y022800D01*
X042050Y022800D01*
X042050Y022400D01*
X041950Y022400D01*
X041950Y022800D01*
X041680Y022800D01*
X041642Y022790D01*
X041608Y022770D01*
X041580Y022742D01*
X041560Y022708D01*
X041550Y022670D01*
X041550Y022400D01*
X041950Y022400D01*
X041950Y022300D01*
X042050Y022300D01*
X042050Y021900D01*
X042320Y021900D01*
X042358Y021910D01*
X042392Y021930D01*
X042420Y021958D01*
X042450Y022066D02*
X042563Y022066D01*
X042490Y022164D02*
X042450Y022164D01*
X042450Y022263D02*
X042490Y022263D01*
X042490Y022361D02*
X042050Y022361D01*
X042050Y022263D02*
X041950Y022263D01*
X041950Y022300D02*
X041950Y021900D01*
X041680Y021900D01*
X041642Y021910D01*
X041608Y021930D01*
X041580Y021958D01*
X041560Y021992D01*
X041550Y022030D01*
X041550Y022300D01*
X041950Y022300D01*
X041950Y022361D02*
X038504Y022361D01*
X038467Y022325D02*
X038775Y022633D01*
X038775Y023067D01*
X038467Y023375D01*
X038033Y023375D01*
X037725Y023067D01*
X037725Y022633D01*
X038033Y022325D01*
X038467Y022325D01*
X038602Y022460D02*
X038996Y022460D01*
X039006Y022452D02*
X039072Y022419D01*
X039141Y022396D01*
X039213Y022385D01*
X039220Y022385D01*
X039220Y022820D01*
X039280Y022820D01*
X039280Y022880D01*
X039715Y022880D01*
X039715Y022887D01*
X039704Y022959D01*
X039681Y023028D01*
X039648Y023094D01*
X039605Y023153D01*
X039553Y023205D01*
X039494Y023248D01*
X039428Y023281D01*
X039359Y023304D01*
X039287Y023315D01*
X039280Y023315D01*
X039280Y022880D01*
X039220Y022880D01*
X039220Y023315D01*
X039213Y023315D01*
X039141Y023304D01*
X039072Y023281D01*
X039006Y023248D01*
X038947Y023205D01*
X038895Y023153D01*
X038852Y023094D01*
X038819Y023028D01*
X038796Y022959D01*
X038785Y022887D01*
X038785Y022880D01*
X039220Y022880D01*
X039220Y022820D01*
X038785Y022820D01*
X038785Y022813D01*
X038796Y022741D01*
X038819Y022672D01*
X038852Y022606D01*
X038895Y022547D01*
X038947Y022495D01*
X039006Y022452D01*
X038887Y022558D02*
X038701Y022558D01*
X038775Y022657D02*
X038827Y022657D01*
X038794Y022755D02*
X038775Y022755D01*
X038775Y022854D02*
X039220Y022854D01*
X039280Y022854D02*
X041775Y022854D01*
X041677Y022952D02*
X039705Y022952D01*
X039670Y023051D02*
X041578Y023051D01*
X041490Y023149D02*
X039607Y023149D01*
X039494Y023248D02*
X041490Y023248D01*
X041490Y023346D02*
X038496Y023346D01*
X038595Y023248D02*
X039006Y023248D01*
X038893Y023149D02*
X038693Y023149D01*
X038775Y023051D02*
X038830Y023051D01*
X038795Y022952D02*
X038775Y022952D01*
X039220Y022952D02*
X039280Y022952D01*
X039280Y023051D02*
X039220Y023051D01*
X039220Y023149D02*
X039280Y023149D01*
X039280Y023248D02*
X039220Y023248D01*
X039280Y022820D02*
X039715Y022820D01*
X039715Y022813D01*
X039704Y022741D01*
X039681Y022672D01*
X039648Y022606D01*
X039605Y022547D01*
X039553Y022495D01*
X039494Y022452D01*
X039428Y022419D01*
X039359Y022396D01*
X039287Y022385D01*
X039280Y022385D01*
X039280Y022820D01*
X039280Y022755D02*
X039220Y022755D01*
X039220Y022657D02*
X039280Y022657D01*
X039280Y022558D02*
X039220Y022558D01*
X039220Y022460D02*
X039280Y022460D01*
X039504Y022460D02*
X041550Y022460D01*
X041550Y022558D02*
X039613Y022558D01*
X039673Y022657D02*
X041550Y022657D01*
X041593Y022755D02*
X039706Y022755D01*
X037996Y022361D02*
X034854Y022361D01*
X034860Y022375D02*
X034772Y022161D01*
X034609Y021998D01*
X034395Y021910D01*
X034165Y021910D01*
X033951Y021998D01*
X033788Y022161D01*
X033700Y022375D01*
X033700Y022605D01*
X033788Y022819D01*
X033951Y022982D01*
X034165Y023070D01*
X034395Y023070D01*
X034609Y022982D01*
X034772Y022819D01*
X034860Y022605D01*
X034860Y022375D01*
X034860Y022460D02*
X037898Y022460D01*
X037799Y022558D02*
X034860Y022558D01*
X034839Y022657D02*
X037725Y022657D01*
X037725Y022755D02*
X034798Y022755D01*
X034737Y022854D02*
X037725Y022854D01*
X037725Y022952D02*
X034638Y022952D01*
X034442Y023051D02*
X037725Y023051D01*
X037807Y023149D02*
X002000Y023149D01*
X002000Y023051D02*
X009100Y023051D01*
X008927Y022952D02*
X002000Y022952D01*
X002000Y022854D02*
X008836Y022854D01*
X008796Y022755D02*
X002000Y022755D01*
X002000Y022657D02*
X008770Y022657D01*
X008770Y022558D02*
X002000Y022558D01*
X002000Y022460D02*
X008789Y022460D01*
X008830Y022361D02*
X002000Y022361D01*
X002000Y022263D02*
X008913Y022263D01*
X009064Y022164D02*
X002000Y022164D01*
X002000Y022066D02*
X009136Y022066D01*
X005736Y021869D02*
X005264Y021869D01*
X005400Y021770D02*
X005600Y021770D01*
X005505Y021672D02*
X005495Y021672D01*
X002000Y023248D02*
X037905Y023248D01*
X038004Y023346D02*
X002000Y023346D01*
X002000Y023445D02*
X041490Y023445D01*
X041490Y023543D02*
X002000Y023543D01*
X002000Y023642D02*
X031794Y023642D01*
X031805Y023630D02*
X032195Y023630D01*
X032470Y023905D01*
X032470Y024295D01*
X032195Y024570D01*
X031805Y024570D01*
X031530Y024295D01*
X031530Y023905D01*
X031805Y023630D01*
X031695Y023740D02*
X002000Y023740D01*
X002000Y023839D02*
X031597Y023839D01*
X031530Y023937D02*
X002000Y023937D01*
X002000Y024036D02*
X031530Y024036D01*
X031530Y024134D02*
X002000Y024134D01*
X002000Y024233D02*
X031530Y024233D01*
X031566Y024331D02*
X002000Y024331D01*
X002000Y024430D02*
X031665Y024430D01*
X031763Y024528D02*
X002000Y024528D01*
X002000Y024627D02*
X054000Y024627D01*
X054000Y024725D02*
X002000Y024725D01*
X002000Y024824D02*
X054000Y024824D01*
X054000Y024922D02*
X002000Y024922D01*
X010008Y020194D02*
X011992Y020194D01*
X011972Y019997D02*
X010028Y019997D01*
X010126Y019899D02*
X011874Y019899D01*
X011814Y019800D02*
X010186Y019800D01*
X010227Y019702D02*
X011773Y019702D01*
X011770Y019603D02*
X010230Y019603D01*
X010229Y019505D02*
X011771Y019505D01*
X011812Y019406D02*
X010188Y019406D01*
X010132Y019308D02*
X011868Y019308D01*
X011966Y019209D02*
X010034Y019209D01*
X009993Y019012D02*
X012007Y019012D01*
X011889Y018914D02*
X010111Y018914D01*
X010180Y018815D02*
X011820Y018815D01*
X011780Y018717D02*
X010220Y018717D01*
X010230Y018618D02*
X011770Y018618D01*
X011770Y018520D02*
X010230Y018520D01*
X010195Y018421D02*
X011805Y018421D01*
X011853Y018323D02*
X010147Y018323D01*
X010049Y018224D02*
X011951Y018224D01*
X012043Y018027D02*
X009957Y018027D01*
X010096Y017929D02*
X011904Y017929D01*
X011842Y017866D02*
X011974Y017998D01*
X012147Y018070D01*
X012853Y018070D01*
X013026Y017998D01*
X013158Y017866D01*
X013230Y017693D01*
X013230Y017507D01*
X013158Y017334D01*
X013026Y017202D01*
X012853Y017130D01*
X012147Y017130D01*
X011974Y017202D01*
X011842Y017334D01*
X011770Y017507D01*
X011770Y017693D01*
X011842Y017866D01*
X011827Y017830D02*
X010173Y017830D01*
X010214Y017732D02*
X011786Y017732D01*
X011770Y017633D02*
X010230Y017633D01*
X010230Y017535D02*
X011770Y017535D01*
X011799Y017436D02*
X010201Y017436D01*
X010160Y017338D02*
X011840Y017338D01*
X011936Y017239D02*
X010064Y017239D01*
X009879Y017141D02*
X012121Y017141D01*
X012147Y017070D02*
X011974Y016998D01*
X011842Y016866D01*
X011770Y016693D01*
X011770Y016507D01*
X011842Y016334D01*
X011974Y016202D01*
X012147Y016130D01*
X012853Y016130D01*
X013026Y016202D01*
X013158Y016334D01*
X013230Y016507D01*
X013230Y016693D01*
X013158Y016866D01*
X013026Y016998D01*
X012853Y017070D01*
X012147Y017070D01*
X012079Y017042D02*
X009921Y017042D01*
X010081Y016944D02*
X011919Y016944D01*
X011833Y016845D02*
X010167Y016845D01*
X010208Y016747D02*
X011792Y016747D01*
X011770Y016648D02*
X010230Y016648D01*
X010230Y016550D02*
X011770Y016550D01*
X011793Y016451D02*
X010207Y016451D01*
X010166Y016353D02*
X011834Y016353D01*
X011921Y016254D02*
X010079Y016254D01*
X009915Y016156D02*
X012085Y016156D01*
X012915Y016156D02*
X014990Y016156D01*
X014990Y016254D02*
X013079Y016254D01*
X013166Y016353D02*
X014990Y016353D01*
X014990Y016451D02*
X013207Y016451D01*
X013230Y016550D02*
X014990Y016550D01*
X014990Y016648D02*
X013230Y016648D01*
X013208Y016747D02*
X014990Y016747D01*
X014990Y016845D02*
X013167Y016845D01*
X013081Y016944D02*
X014990Y016944D01*
X014990Y017042D02*
X012921Y017042D01*
X012879Y017141D02*
X014990Y017141D01*
X014990Y017239D02*
X013064Y017239D01*
X013160Y017338D02*
X014990Y017338D01*
X014990Y017436D02*
X013201Y017436D01*
X013230Y017535D02*
X014990Y017535D01*
X014990Y017633D02*
X013230Y017633D01*
X013214Y017732D02*
X014990Y017732D01*
X014990Y017830D02*
X013173Y017830D01*
X013096Y017929D02*
X014990Y017929D01*
X014990Y018027D02*
X012957Y018027D01*
X013132Y019308D02*
X014990Y019308D01*
X014990Y019406D02*
X013188Y019406D01*
X013229Y019505D02*
X014990Y019505D01*
X014990Y019603D02*
X013230Y019603D01*
X013227Y019702D02*
X014990Y019702D01*
X014932Y019800D02*
X013186Y019800D01*
X013126Y019899D02*
X014834Y019899D01*
X015274Y020194D02*
X018242Y020194D01*
X018133Y020293D02*
X015175Y020293D01*
X015077Y020391D02*
X018068Y020391D01*
X018027Y020490D02*
X014978Y020490D01*
X014880Y020588D02*
X018020Y020588D01*
X018020Y020687D02*
X014781Y020687D01*
X014683Y020785D02*
X018058Y020785D01*
X019222Y021179D02*
X021278Y021179D01*
X021148Y021278D02*
X019352Y021278D01*
X019426Y021376D02*
X021074Y021376D01*
X021033Y021475D02*
X019467Y021475D01*
X019480Y021573D02*
X021020Y021573D01*
X021020Y021672D02*
X019480Y021672D01*
X019448Y021770D02*
X021052Y021770D01*
X021094Y021869D02*
X019406Y021869D01*
X019308Y021967D02*
X021192Y021967D01*
X021386Y022066D02*
X019114Y022066D01*
X019186Y022164D02*
X024271Y022164D01*
X024305Y022130D02*
X024695Y022130D01*
X024970Y022405D01*
X024970Y022795D01*
X024695Y023070D01*
X024305Y023070D01*
X024030Y022795D01*
X024030Y022405D01*
X024305Y022130D01*
X024173Y022263D02*
X023742Y022263D01*
X023670Y022190D02*
X023910Y022430D01*
X023910Y022570D01*
X023530Y022570D01*
X023530Y022630D01*
X023910Y022630D01*
X023910Y022770D01*
X023670Y023010D01*
X023530Y023010D01*
X023530Y022630D01*
X023470Y022630D01*
X023470Y023010D01*
X023330Y023010D01*
X023090Y022770D01*
X023090Y022630D01*
X023470Y022630D01*
X023470Y022570D01*
X023530Y022570D01*
X023530Y022190D01*
X023670Y022190D01*
X023530Y022263D02*
X023470Y022263D01*
X023470Y022190D02*
X023470Y022570D01*
X023090Y022570D01*
X023090Y022430D01*
X023330Y022190D01*
X023470Y022190D01*
X023470Y022361D02*
X023530Y022361D01*
X023530Y022460D02*
X023470Y022460D01*
X023470Y022558D02*
X023530Y022558D01*
X023530Y022657D02*
X023470Y022657D01*
X023470Y022755D02*
X023530Y022755D01*
X023530Y022854D02*
X023470Y022854D01*
X023470Y022952D02*
X023530Y022952D01*
X023728Y022952D02*
X024187Y022952D01*
X024089Y022854D02*
X023826Y022854D01*
X023910Y022755D02*
X024030Y022755D01*
X024030Y022657D02*
X023910Y022657D01*
X023910Y022558D02*
X024030Y022558D01*
X024030Y022460D02*
X023910Y022460D01*
X023841Y022361D02*
X024074Y022361D01*
X024729Y022164D02*
X031227Y022164D01*
X031228Y022161D02*
X031391Y021998D01*
X031605Y021910D01*
X031835Y021910D01*
X032049Y021998D01*
X032212Y022161D01*
X032300Y022375D01*
X032300Y022605D01*
X032212Y022819D01*
X032049Y022982D01*
X031835Y023070D01*
X031605Y023070D01*
X031391Y022982D01*
X031228Y022819D01*
X031140Y022605D01*
X031140Y022375D01*
X031228Y022161D01*
X031186Y022263D02*
X024827Y022263D01*
X024926Y022361D02*
X031146Y022361D01*
X031140Y022460D02*
X024970Y022460D01*
X024970Y022558D02*
X031140Y022558D01*
X031161Y022657D02*
X024970Y022657D01*
X024970Y022755D02*
X031202Y022755D01*
X031263Y022854D02*
X024911Y022854D01*
X024813Y022952D02*
X031362Y022952D01*
X031558Y023051D02*
X024714Y023051D01*
X024286Y023051D02*
X019150Y023051D01*
X019323Y022952D02*
X021278Y022952D01*
X021275Y022951D02*
X021223Y022913D01*
X021177Y022867D01*
X021139Y022815D01*
X021110Y022757D01*
X021090Y022696D01*
X021080Y022632D01*
X021080Y022630D01*
X021720Y022630D01*
X021720Y023010D01*
X021458Y023010D01*
X021394Y023000D01*
X021333Y022980D01*
X021275Y022951D01*
X021167Y022854D02*
X019414Y022854D01*
X019454Y022755D02*
X021109Y022755D01*
X021084Y022657D02*
X019480Y022657D01*
X019480Y022558D02*
X021082Y022558D01*
X021080Y022568D02*
X021090Y022504D01*
X021110Y022443D01*
X021139Y022385D01*
X021177Y022333D01*
X021223Y022287D01*
X021275Y022249D01*
X021333Y022220D01*
X021394Y022200D01*
X021458Y022190D01*
X021720Y022190D01*
X021720Y022570D01*
X021780Y022570D01*
X021780Y022630D01*
X021720Y022630D01*
X021720Y022570D01*
X021080Y022570D01*
X021080Y022568D01*
X021105Y022460D02*
X019461Y022460D01*
X019420Y022361D02*
X021157Y022361D01*
X021257Y022263D02*
X019337Y022263D01*
X021720Y022263D02*
X021780Y022263D01*
X021780Y022190D02*
X022042Y022190D01*
X022106Y022200D01*
X022167Y022220D01*
X022225Y022249D01*
X022277Y022287D01*
X022323Y022333D01*
X022361Y022385D01*
X022390Y022443D01*
X022410Y022504D01*
X022420Y022568D01*
X022420Y022570D01*
X021780Y022570D01*
X021780Y022190D01*
X021780Y022361D02*
X021720Y022361D01*
X021720Y022460D02*
X021780Y022460D01*
X021780Y022558D02*
X021720Y022558D01*
X021780Y022630D02*
X021780Y023010D01*
X022042Y023010D01*
X022106Y023000D01*
X022167Y022980D01*
X022225Y022951D01*
X022277Y022913D01*
X022323Y022867D01*
X022361Y022815D01*
X022390Y022757D01*
X022410Y022696D01*
X022420Y022632D01*
X022420Y022630D01*
X021780Y022630D01*
X021780Y022657D02*
X021720Y022657D01*
X021720Y022755D02*
X021780Y022755D01*
X021780Y022854D02*
X021720Y022854D01*
X021720Y022952D02*
X021780Y022952D01*
X022222Y022952D02*
X023272Y022952D01*
X023174Y022854D02*
X022333Y022854D01*
X022391Y022755D02*
X023090Y022755D01*
X023090Y022657D02*
X022416Y022657D01*
X022418Y022558D02*
X023090Y022558D01*
X023090Y022460D02*
X022395Y022460D01*
X022343Y022361D02*
X023159Y022361D01*
X023258Y022263D02*
X022243Y022263D01*
X022114Y022066D02*
X031324Y022066D01*
X031467Y021967D02*
X022308Y021967D01*
X021207Y020982D02*
X019293Y020982D01*
X019391Y020884D02*
X021109Y020884D01*
X021058Y020785D02*
X019442Y020785D01*
X019480Y020687D02*
X021020Y020687D01*
X021020Y020588D02*
X019480Y020588D01*
X019473Y020490D02*
X021027Y020490D01*
X021068Y020391D02*
X019432Y020391D01*
X019367Y020293D02*
X021133Y020293D01*
X021242Y020194D02*
X019258Y020194D01*
X019276Y019998D02*
X019103Y020070D01*
X018397Y020070D01*
X018224Y019998D01*
X018092Y019866D01*
X018020Y019693D01*
X018020Y019507D01*
X018092Y019334D01*
X018224Y019202D01*
X018397Y019130D01*
X019103Y019130D01*
X019276Y019202D01*
X019408Y019334D01*
X019480Y019507D01*
X019480Y019693D01*
X019408Y019866D01*
X019276Y019998D01*
X019278Y019997D02*
X021385Y019997D01*
X021394Y020000D02*
X021333Y019980D01*
X021275Y019951D01*
X021223Y019913D01*
X021177Y019867D01*
X021139Y019815D01*
X021110Y019757D01*
X021090Y019696D01*
X021080Y019632D01*
X021080Y019630D01*
X021720Y019630D01*
X021720Y020010D01*
X021458Y020010D01*
X021394Y020000D01*
X021209Y019899D02*
X019376Y019899D01*
X019436Y019800D02*
X021132Y019800D01*
X021092Y019702D02*
X019477Y019702D01*
X019480Y019603D02*
X021720Y019603D01*
X021720Y019630D02*
X021720Y019570D01*
X021780Y019570D01*
X021780Y019630D01*
X021720Y019630D01*
X021780Y019630D02*
X021780Y020010D01*
X022042Y020010D01*
X022106Y020000D01*
X022167Y019980D01*
X022225Y019951D01*
X022277Y019913D01*
X022323Y019867D01*
X022361Y019815D01*
X022390Y019757D01*
X022410Y019696D01*
X022420Y019632D01*
X022420Y019630D01*
X021780Y019630D01*
X021780Y019603D02*
X027129Y019603D01*
X027031Y019702D02*
X022408Y019702D01*
X022368Y019800D02*
X026932Y019800D01*
X026834Y019899D02*
X022291Y019899D01*
X022115Y019997D02*
X026735Y019997D01*
X026637Y020096D02*
X015372Y020096D01*
X015471Y019997D02*
X018222Y019997D01*
X018124Y019899D02*
X015510Y019899D01*
X015510Y019800D02*
X018064Y019800D01*
X018023Y019702D02*
X015510Y019702D01*
X015510Y019603D02*
X018020Y019603D01*
X018021Y019505D02*
X015510Y019505D01*
X015510Y019406D02*
X018062Y019406D01*
X018118Y019308D02*
X015510Y019308D01*
X015510Y019209D02*
X018216Y019209D01*
X018257Y019012D02*
X015510Y019012D01*
X015510Y018914D02*
X018139Y018914D01*
X018092Y018866D02*
X018020Y018693D01*
X018020Y018507D01*
X018092Y018334D01*
X018224Y018202D01*
X018397Y018130D01*
X019103Y018130D01*
X019276Y018202D01*
X019408Y018334D01*
X019480Y018507D01*
X019480Y018693D01*
X019408Y018866D01*
X019276Y018998D01*
X019103Y019070D01*
X018397Y019070D01*
X018224Y018998D01*
X018092Y018866D01*
X018070Y018815D02*
X015510Y018815D01*
X015510Y018717D02*
X018030Y018717D01*
X018020Y018618D02*
X015510Y018618D01*
X015510Y018520D02*
X018020Y018520D01*
X018055Y018421D02*
X015510Y018421D01*
X015510Y018323D02*
X018103Y018323D01*
X018201Y018224D02*
X015510Y018224D01*
X015510Y018126D02*
X028607Y018126D01*
X028508Y018224D02*
X022299Y018224D01*
X022276Y018202D02*
X022408Y018334D01*
X022480Y018507D01*
X022480Y018693D01*
X022408Y018866D01*
X022276Y018998D01*
X022103Y019070D01*
X021397Y019070D01*
X021224Y018998D01*
X021092Y018866D01*
X021020Y018693D01*
X021020Y018507D01*
X021092Y018334D01*
X021224Y018202D01*
X021397Y018130D01*
X022103Y018130D01*
X022276Y018202D01*
X022397Y018323D02*
X028410Y018323D01*
X028311Y018421D02*
X022445Y018421D01*
X022480Y018520D02*
X028213Y018520D01*
X028114Y018618D02*
X022480Y018618D01*
X022470Y018717D02*
X028016Y018717D01*
X027917Y018815D02*
X022430Y018815D01*
X022361Y018914D02*
X027819Y018914D01*
X027720Y019012D02*
X022243Y019012D01*
X022167Y019220D02*
X022225Y019249D01*
X022277Y019287D01*
X022323Y019333D01*
X022361Y019385D01*
X022390Y019443D01*
X022410Y019504D01*
X022420Y019568D01*
X022420Y019570D01*
X021780Y019570D01*
X021780Y019190D01*
X022042Y019190D01*
X022106Y019200D01*
X022167Y019220D01*
X022134Y019209D02*
X027523Y019209D01*
X027425Y019308D02*
X022297Y019308D01*
X022371Y019406D02*
X027326Y019406D01*
X027228Y019505D02*
X022410Y019505D01*
X021780Y019505D02*
X021720Y019505D01*
X021720Y019570D02*
X021720Y019190D01*
X021458Y019190D01*
X021394Y019200D01*
X021333Y019220D01*
X021275Y019249D01*
X021223Y019287D01*
X021177Y019333D01*
X021139Y019385D01*
X021110Y019443D01*
X021090Y019504D01*
X021080Y019568D01*
X021080Y019570D01*
X021720Y019570D01*
X021720Y019702D02*
X021780Y019702D01*
X021780Y019800D02*
X021720Y019800D01*
X021720Y019899D02*
X021780Y019899D01*
X021780Y019997D02*
X021720Y019997D01*
X022258Y020194D02*
X026538Y020194D01*
X026440Y020293D02*
X022367Y020293D01*
X021750Y020600D02*
X026500Y020600D01*
X029500Y017600D01*
X041000Y017600D01*
X043000Y019600D01*
X043000Y022350D01*
X042684Y022755D02*
X042407Y022755D01*
X042450Y022657D02*
X042585Y022657D01*
X042490Y022558D02*
X042450Y022558D01*
X042450Y022460D02*
X042490Y022460D01*
X042050Y022460D02*
X041950Y022460D01*
X041950Y022558D02*
X042050Y022558D01*
X042050Y022657D02*
X041950Y022657D01*
X041950Y022755D02*
X042050Y022755D01*
X042225Y022854D02*
X042775Y022854D01*
X042677Y022952D02*
X042323Y022952D01*
X042422Y023051D02*
X042578Y023051D01*
X042570Y023642D02*
X042430Y023642D01*
X042331Y023740D02*
X042669Y023740D01*
X042767Y023839D02*
X042233Y023839D01*
X041767Y023839D02*
X034318Y023839D01*
X034410Y023930D02*
X034170Y023690D01*
X034030Y023690D01*
X034030Y024070D01*
X034030Y024130D01*
X034410Y024130D01*
X034410Y024270D01*
X034170Y024510D01*
X034030Y024510D01*
X034030Y024130D01*
X033970Y024130D01*
X033970Y024510D01*
X033830Y024510D01*
X033590Y024270D01*
X033590Y024130D01*
X033970Y024130D01*
X033970Y024070D01*
X034030Y024070D01*
X034410Y024070D01*
X034410Y023930D01*
X034410Y023937D02*
X054000Y023937D01*
X054000Y023839D02*
X046233Y023839D01*
X046331Y023740D02*
X054000Y023740D01*
X054000Y023642D02*
X046430Y023642D01*
X046510Y023543D02*
X054000Y023543D01*
X054000Y023445D02*
X046510Y023445D01*
X046510Y023346D02*
X054000Y023346D01*
X054000Y023248D02*
X046510Y023248D01*
X046510Y023149D02*
X054000Y023149D01*
X054000Y023051D02*
X046422Y023051D01*
X046323Y022952D02*
X054000Y022952D01*
X054000Y022854D02*
X046225Y022854D01*
X046316Y022755D02*
X054000Y022755D01*
X054000Y022657D02*
X046415Y022657D01*
X046510Y022558D02*
X054000Y022558D01*
X054000Y022460D02*
X046510Y022460D01*
X046510Y022361D02*
X054000Y022361D01*
X054000Y022263D02*
X046510Y022263D01*
X046510Y022164D02*
X054000Y022164D01*
X054000Y022066D02*
X046437Y022066D01*
X046338Y021967D02*
X054000Y021967D01*
X054000Y021869D02*
X046240Y021869D01*
X045760Y021869D02*
X045260Y021869D01*
X045260Y021770D02*
X054000Y021770D01*
X054000Y021672D02*
X045260Y021672D01*
X045260Y021573D02*
X054000Y021573D01*
X054000Y021475D02*
X045260Y021475D01*
X045260Y021376D02*
X054000Y021376D01*
X054000Y021278D02*
X045260Y021278D01*
X045260Y021179D02*
X054000Y021179D01*
X054000Y021081D02*
X045260Y021081D01*
X045260Y020982D02*
X054000Y020982D01*
X054000Y020884D02*
X045260Y020884D01*
X045260Y020785D02*
X054000Y020785D01*
X054000Y020687D02*
X045260Y020687D01*
X045260Y020588D02*
X054000Y020588D01*
X054000Y020490D02*
X045260Y020490D01*
X045260Y020391D02*
X054000Y020391D01*
X054000Y020293D02*
X045260Y020293D01*
X045260Y020194D02*
X054000Y020194D01*
X054000Y020096D02*
X045260Y020096D01*
X045260Y019997D02*
X054000Y019997D01*
X054000Y019899D02*
X045260Y019899D01*
X045260Y019800D02*
X054000Y019800D01*
X054000Y019702D02*
X045260Y019702D01*
X045260Y019603D02*
X054000Y019603D01*
X054000Y019505D02*
X045242Y019505D01*
X045174Y019406D02*
X054000Y019406D01*
X054000Y019308D02*
X045075Y019308D01*
X044977Y019209D02*
X054000Y019209D01*
X054000Y019111D02*
X044878Y019111D01*
X044780Y019012D02*
X054000Y019012D01*
X054000Y018914D02*
X044681Y018914D01*
X044583Y018815D02*
X054000Y018815D01*
X054000Y018717D02*
X044484Y018717D01*
X044386Y018618D02*
X054000Y018618D01*
X054000Y018520D02*
X044287Y018520D01*
X044189Y018421D02*
X054000Y018421D01*
X054000Y018323D02*
X044090Y018323D01*
X043992Y018224D02*
X054000Y018224D01*
X054000Y018126D02*
X043893Y018126D01*
X043795Y018027D02*
X054000Y018027D01*
X054000Y017929D02*
X043696Y017929D01*
X043598Y017830D02*
X054000Y017830D01*
X054000Y017732D02*
X043499Y017732D01*
X043401Y017633D02*
X054000Y017633D01*
X054000Y017535D02*
X043302Y017535D01*
X043204Y017436D02*
X054000Y017436D01*
X054000Y017338D02*
X043105Y017338D01*
X043007Y017239D02*
X054000Y017239D01*
X054000Y017141D02*
X042908Y017141D01*
X042810Y017042D02*
X054000Y017042D01*
X054000Y016944D02*
X042711Y016944D01*
X042613Y016845D02*
X054000Y016845D01*
X054000Y016747D02*
X042514Y016747D01*
X042416Y016648D02*
X054000Y016648D01*
X054000Y016550D02*
X042317Y016550D01*
X042219Y016451D02*
X054000Y016451D01*
X054000Y016353D02*
X042082Y016353D01*
X042000Y016600D02*
X045000Y019600D01*
X045000Y022350D01*
X045437Y022066D02*
X045563Y022066D01*
X045662Y021967D02*
X045338Y021967D01*
X044740Y021869D02*
X044240Y021869D01*
X044338Y021967D02*
X044662Y021967D01*
X044563Y022066D02*
X044437Y022066D01*
X044740Y021770D02*
X043260Y021770D01*
X043260Y021672D02*
X044740Y021672D01*
X044740Y021573D02*
X043260Y021573D01*
X043260Y021475D02*
X044740Y021475D01*
X044740Y021376D02*
X043260Y021376D01*
X043260Y021278D02*
X044740Y021278D01*
X044740Y021179D02*
X043260Y021179D01*
X043260Y021081D02*
X044740Y021081D01*
X044740Y020982D02*
X043260Y020982D01*
X043260Y020884D02*
X044740Y020884D01*
X044740Y020785D02*
X043260Y020785D01*
X043260Y020687D02*
X044740Y020687D01*
X044740Y020588D02*
X043260Y020588D01*
X043260Y020490D02*
X044740Y020490D01*
X044740Y020391D02*
X043260Y020391D01*
X043260Y020293D02*
X044740Y020293D01*
X044740Y020194D02*
X043260Y020194D01*
X043260Y020096D02*
X044740Y020096D01*
X044740Y019997D02*
X043260Y019997D01*
X043260Y019899D02*
X044740Y019899D01*
X044740Y019800D02*
X043260Y019800D01*
X043260Y019702D02*
X044734Y019702D01*
X044635Y019603D02*
X043260Y019603D01*
X043242Y019505D02*
X044537Y019505D01*
X044438Y019406D02*
X043174Y019406D01*
X043075Y019308D02*
X044340Y019308D01*
X044241Y019209D02*
X042977Y019209D01*
X042878Y019111D02*
X044143Y019111D01*
X044044Y019012D02*
X042780Y019012D01*
X042681Y018914D02*
X043946Y018914D01*
X043847Y018815D02*
X042583Y018815D01*
X042484Y018717D02*
X043749Y018717D01*
X043650Y018618D02*
X042386Y018618D01*
X042287Y018520D02*
X043552Y018520D01*
X043453Y018421D02*
X042189Y018421D01*
X042090Y018323D02*
X043355Y018323D01*
X043256Y018224D02*
X041992Y018224D01*
X041893Y018126D02*
X043158Y018126D01*
X043059Y018027D02*
X041795Y018027D01*
X041696Y017929D02*
X042961Y017929D01*
X042862Y017830D02*
X041598Y017830D01*
X041499Y017732D02*
X042764Y017732D01*
X042665Y017633D02*
X041401Y017633D01*
X041302Y017535D02*
X042567Y017535D01*
X042468Y017436D02*
X041204Y017436D01*
X040961Y017929D02*
X029539Y017929D01*
X029441Y018027D02*
X041059Y018027D01*
X041158Y018126D02*
X029342Y018126D01*
X029244Y018224D02*
X041256Y018224D01*
X041355Y018323D02*
X029145Y018323D01*
X029047Y018421D02*
X041453Y018421D01*
X041552Y018520D02*
X028948Y018520D01*
X028850Y018618D02*
X041650Y018618D01*
X041749Y018717D02*
X028751Y018717D01*
X028653Y018815D02*
X041847Y018815D01*
X041946Y018914D02*
X028554Y018914D01*
X028456Y019012D02*
X042044Y019012D01*
X042143Y019111D02*
X028357Y019111D01*
X028259Y019209D02*
X042241Y019209D01*
X042340Y019308D02*
X028160Y019308D01*
X028062Y019406D02*
X042438Y019406D01*
X042537Y019505D02*
X027963Y019505D01*
X027865Y019603D02*
X042635Y019603D01*
X042734Y019702D02*
X027766Y019702D01*
X027668Y019800D02*
X042740Y019800D01*
X042740Y019899D02*
X027569Y019899D01*
X027471Y019997D02*
X042740Y019997D01*
X043260Y021869D02*
X043760Y021869D01*
X043662Y021967D02*
X043338Y021967D01*
X043437Y022066D02*
X043563Y022066D01*
X042050Y022066D02*
X041950Y022066D01*
X041950Y022164D02*
X042050Y022164D01*
X042050Y021967D02*
X041950Y021967D01*
X041575Y021967D02*
X034533Y021967D01*
X034676Y022066D02*
X041550Y022066D01*
X041550Y022164D02*
X034773Y022164D01*
X034814Y022263D02*
X041550Y022263D01*
X041570Y023642D02*
X032206Y023642D01*
X032305Y023740D02*
X033780Y023740D01*
X033830Y023690D02*
X033970Y023690D01*
X033970Y024070D01*
X033590Y024070D01*
X033590Y023930D01*
X033830Y023690D01*
X033970Y023740D02*
X034030Y023740D01*
X034030Y023839D02*
X033970Y023839D01*
X033970Y023937D02*
X034030Y023937D01*
X034030Y024036D02*
X033970Y024036D01*
X033970Y024134D02*
X034030Y024134D01*
X034030Y024233D02*
X033970Y024233D01*
X033970Y024331D02*
X034030Y024331D01*
X034030Y024430D02*
X033970Y024430D01*
X033750Y024430D02*
X032335Y024430D01*
X032237Y024528D02*
X054000Y024528D01*
X054000Y024430D02*
X034250Y024430D01*
X034349Y024331D02*
X054000Y024331D01*
X054000Y024233D02*
X034410Y024233D01*
X034410Y024134D02*
X054000Y024134D01*
X054000Y024036D02*
X034410Y024036D01*
X034220Y023740D02*
X041669Y023740D01*
X043233Y023839D02*
X043767Y023839D01*
X043669Y023740D02*
X043331Y023740D01*
X043430Y023642D02*
X043570Y023642D01*
X044233Y023839D02*
X044767Y023839D01*
X044669Y023740D02*
X044331Y023740D01*
X044430Y023642D02*
X044570Y023642D01*
X045233Y023839D02*
X045767Y023839D01*
X045669Y023740D02*
X045331Y023740D01*
X045430Y023642D02*
X045570Y023642D01*
X034118Y023051D02*
X031882Y023051D01*
X032078Y022952D02*
X033922Y022952D01*
X033823Y022854D02*
X032177Y022854D01*
X032238Y022755D02*
X033762Y022755D01*
X033721Y022657D02*
X032279Y022657D01*
X032300Y022558D02*
X033700Y022558D01*
X033700Y022460D02*
X032300Y022460D01*
X032294Y022361D02*
X033706Y022361D01*
X033746Y022263D02*
X032254Y022263D01*
X032213Y022164D02*
X033787Y022164D01*
X033884Y022066D02*
X032116Y022066D01*
X031973Y021967D02*
X034027Y021967D01*
X034135Y021278D02*
X031865Y021278D01*
X032071Y021179D02*
X033929Y021179D01*
X033830Y021081D02*
X032170Y021081D01*
X032235Y020982D02*
X033765Y020982D01*
X033724Y020884D02*
X032276Y020884D01*
X032300Y020785D02*
X033700Y020785D01*
X033700Y020687D02*
X032300Y020687D01*
X032297Y020588D02*
X033703Y020588D01*
X033744Y020490D02*
X032256Y020490D01*
X032216Y020391D02*
X033784Y020391D01*
X033877Y020293D02*
X032123Y020293D01*
X031990Y020194D02*
X034010Y020194D01*
X029001Y017732D02*
X022464Y017732D01*
X022480Y017693D02*
X022408Y017866D01*
X022276Y017998D01*
X022103Y018070D01*
X021397Y018070D01*
X021224Y017998D01*
X021092Y017866D01*
X021020Y017693D01*
X021020Y017507D01*
X021092Y017334D01*
X021224Y017202D01*
X021397Y017130D01*
X022103Y017130D01*
X022276Y017202D01*
X022408Y017334D01*
X022480Y017507D01*
X022480Y017693D01*
X022480Y017633D02*
X029099Y017633D01*
X029198Y017535D02*
X022480Y017535D01*
X022451Y017436D02*
X029296Y017436D01*
X028902Y017830D02*
X022423Y017830D01*
X022346Y017929D02*
X028804Y017929D01*
X028705Y018027D02*
X022207Y018027D01*
X021293Y018027D02*
X019207Y018027D01*
X019276Y017998D02*
X019103Y018070D01*
X018397Y018070D01*
X018224Y017998D01*
X018092Y017866D01*
X018020Y017693D01*
X018020Y017507D01*
X018092Y017334D01*
X018224Y017202D01*
X018397Y017130D01*
X019103Y017130D01*
X019276Y017202D01*
X019408Y017334D01*
X019480Y017507D01*
X019480Y017693D01*
X019408Y017866D01*
X019276Y017998D01*
X019346Y017929D02*
X021154Y017929D01*
X021077Y017830D02*
X019423Y017830D01*
X019464Y017732D02*
X021036Y017732D01*
X021020Y017633D02*
X019480Y017633D01*
X019480Y017535D02*
X021020Y017535D01*
X021049Y017436D02*
X019451Y017436D01*
X019410Y017338D02*
X021090Y017338D01*
X021186Y017239D02*
X019314Y017239D01*
X019129Y017141D02*
X021371Y017141D01*
X021329Y017042D02*
X015510Y017042D01*
X015510Y016944D02*
X018265Y016944D01*
X018275Y016951D02*
X018223Y016913D01*
X018177Y016867D01*
X018139Y016815D01*
X018110Y016757D01*
X018090Y016696D01*
X018080Y016632D01*
X018080Y016630D01*
X018720Y016630D01*
X018720Y017010D01*
X018458Y017010D01*
X018394Y017000D01*
X018333Y016980D01*
X018275Y016951D01*
X018161Y016845D02*
X015510Y016845D01*
X015510Y016747D02*
X018107Y016747D01*
X018082Y016648D02*
X015510Y016648D01*
X015510Y016550D02*
X018083Y016550D01*
X018080Y016568D02*
X018090Y016504D01*
X018110Y016443D01*
X018139Y016385D01*
X018177Y016333D01*
X018223Y016287D01*
X018275Y016249D01*
X018333Y016220D01*
X018394Y016200D01*
X018458Y016190D01*
X018720Y016190D01*
X018720Y016570D01*
X018780Y016570D01*
X018780Y016630D01*
X018720Y016630D01*
X018720Y016570D01*
X018080Y016570D01*
X018080Y016568D01*
X018107Y016451D02*
X015510Y016451D01*
X015510Y016353D02*
X018163Y016353D01*
X018269Y016254D02*
X015510Y016254D01*
X015510Y016156D02*
X021335Y016156D01*
X021171Y016254D02*
X019231Y016254D01*
X019225Y016249D02*
X019277Y016287D01*
X019323Y016333D01*
X019361Y016385D01*
X019390Y016443D01*
X019410Y016504D01*
X019420Y016568D01*
X019420Y016570D01*
X018780Y016570D01*
X018780Y016190D01*
X019042Y016190D01*
X019106Y016200D01*
X019167Y016220D01*
X019225Y016249D01*
X019337Y016353D02*
X021084Y016353D01*
X021043Y016451D02*
X019393Y016451D01*
X019417Y016550D02*
X021020Y016550D01*
X021020Y016648D02*
X019418Y016648D01*
X019420Y016632D02*
X019410Y016696D01*
X019390Y016757D01*
X019361Y016815D01*
X019323Y016867D01*
X019277Y016913D01*
X019225Y016951D01*
X019167Y016980D01*
X019106Y017000D01*
X019042Y017010D01*
X018780Y017010D01*
X018780Y016630D01*
X019420Y016630D01*
X019420Y016632D01*
X019393Y016747D02*
X021042Y016747D01*
X021083Y016845D02*
X019339Y016845D01*
X019235Y016944D02*
X021169Y016944D01*
X021750Y016600D02*
X042000Y016600D01*
X041976Y016944D02*
X022331Y016944D01*
X022171Y017042D02*
X042074Y017042D01*
X042173Y017141D02*
X022129Y017141D01*
X022314Y017239D02*
X042271Y017239D01*
X042370Y017338D02*
X022410Y017338D01*
X022329Y016254D02*
X054000Y016254D01*
X054000Y016156D02*
X022165Y016156D01*
X018780Y016254D02*
X018720Y016254D01*
X018720Y016353D02*
X018780Y016353D01*
X018780Y016451D02*
X018720Y016451D01*
X018720Y016550D02*
X018780Y016550D01*
X018780Y016648D02*
X018720Y016648D01*
X018720Y016747D02*
X018780Y016747D01*
X018780Y016845D02*
X018720Y016845D01*
X018720Y016944D02*
X018780Y016944D01*
X018371Y017141D02*
X015510Y017141D01*
X015510Y017239D02*
X018186Y017239D01*
X018090Y017338D02*
X015510Y017338D01*
X015510Y017436D02*
X018049Y017436D01*
X018020Y017535D02*
X015510Y017535D01*
X015510Y017633D02*
X018020Y017633D01*
X018036Y017732D02*
X015510Y017732D01*
X015510Y017830D02*
X018077Y017830D01*
X018154Y017929D02*
X015510Y017929D01*
X015510Y018027D02*
X018293Y018027D01*
X019299Y018224D02*
X021201Y018224D01*
X021103Y018323D02*
X019397Y018323D01*
X019445Y018421D02*
X021055Y018421D01*
X021020Y018520D02*
X019480Y018520D01*
X019480Y018618D02*
X021020Y018618D01*
X021030Y018717D02*
X019470Y018717D01*
X019430Y018815D02*
X021070Y018815D01*
X021139Y018914D02*
X019361Y018914D01*
X019243Y019012D02*
X021257Y019012D01*
X021366Y019209D02*
X019284Y019209D01*
X019382Y019308D02*
X021203Y019308D01*
X021129Y019406D02*
X019438Y019406D01*
X019479Y019505D02*
X021090Y019505D01*
X021720Y019406D02*
X021780Y019406D01*
X021780Y019308D02*
X021720Y019308D01*
X021720Y019209D02*
X021780Y019209D01*
X027622Y019111D02*
X015510Y019111D01*
X015510Y016057D02*
X054000Y016057D01*
X054000Y015959D02*
X015510Y015959D01*
X015510Y015860D02*
X054000Y015860D01*
X054000Y015762D02*
X034253Y015762D01*
X034195Y015820D02*
X033805Y015820D01*
X033530Y015545D01*
X033530Y015155D01*
X033805Y014880D01*
X034195Y014880D01*
X034470Y015155D01*
X034470Y015545D01*
X034195Y015820D01*
X034352Y015663D02*
X054000Y015663D01*
X054000Y015565D02*
X034450Y015565D01*
X034470Y015466D02*
X054000Y015466D01*
X054000Y015368D02*
X034470Y015368D01*
X034470Y015269D02*
X051254Y015269D01*
X051305Y015320D02*
X051030Y015045D01*
X051030Y014655D01*
X051305Y014380D01*
X051695Y014380D01*
X051970Y014655D01*
X051970Y015045D01*
X051695Y015320D01*
X051305Y015320D01*
X051156Y015171D02*
X034470Y015171D01*
X034387Y015072D02*
X051057Y015072D01*
X051030Y014974D02*
X034288Y014974D01*
X033712Y014974D02*
X032288Y014974D01*
X032195Y014880D02*
X032470Y015155D01*
X032470Y015545D01*
X032195Y015820D01*
X031805Y015820D01*
X031530Y015545D01*
X031530Y015155D01*
X031805Y014880D01*
X032195Y014880D01*
X032387Y015072D02*
X033613Y015072D01*
X033530Y015171D02*
X032470Y015171D01*
X032470Y015269D02*
X033530Y015269D01*
X033530Y015368D02*
X032470Y015368D01*
X032470Y015466D02*
X033530Y015466D01*
X033550Y015565D02*
X032450Y015565D01*
X032352Y015663D02*
X033648Y015663D01*
X033747Y015762D02*
X032253Y015762D01*
X031747Y015762D02*
X015510Y015762D01*
X015510Y015663D02*
X031648Y015663D01*
X031550Y015565D02*
X015510Y015565D01*
X015510Y015466D02*
X031530Y015466D01*
X031530Y015368D02*
X015510Y015368D01*
X015510Y015269D02*
X031530Y015269D01*
X031530Y015171D02*
X015510Y015171D01*
X015510Y015072D02*
X031613Y015072D01*
X031712Y014974D02*
X015510Y014974D01*
X015510Y014875D02*
X051030Y014875D01*
X051030Y014777D02*
X015510Y014777D01*
X015510Y014678D02*
X051030Y014678D01*
X051106Y014580D02*
X015510Y014580D01*
X015510Y014481D02*
X051204Y014481D01*
X051303Y014383D02*
X038230Y014383D01*
X038329Y014342D02*
X038115Y014430D01*
X037885Y014430D01*
X037671Y014342D01*
X037508Y014179D01*
X037420Y013965D01*
X037420Y013735D01*
X037508Y013521D01*
X037671Y013358D01*
X037691Y013350D01*
X037671Y013342D01*
X037508Y013179D01*
X037420Y012965D01*
X037420Y012735D01*
X037508Y012521D01*
X037671Y012358D01*
X037885Y012270D01*
X038115Y012270D01*
X038329Y012358D01*
X038492Y012521D01*
X038580Y012735D01*
X038580Y012965D01*
X038492Y013179D01*
X038329Y013342D01*
X038309Y013350D01*
X038329Y013358D01*
X038492Y013521D01*
X038580Y013735D01*
X038580Y013965D01*
X038492Y014179D01*
X038329Y014342D01*
X038386Y014284D02*
X054000Y014284D01*
X054000Y014186D02*
X038485Y014186D01*
X038530Y014087D02*
X054000Y014087D01*
X054000Y013989D02*
X038570Y013989D01*
X038580Y013890D02*
X054000Y013890D01*
X054000Y013792D02*
X038580Y013792D01*
X038563Y013693D02*
X054000Y013693D01*
X054000Y013595D02*
X038522Y013595D01*
X038466Y013496D02*
X054000Y013496D01*
X054000Y013398D02*
X038368Y013398D01*
X038371Y013299D02*
X050784Y013299D01*
X050686Y013201D02*
X038470Y013201D01*
X038523Y013102D02*
X050587Y013102D01*
X050530Y013004D02*
X038564Y013004D01*
X038580Y012905D02*
X050530Y012905D01*
X050530Y012807D02*
X038580Y012807D01*
X038569Y012708D02*
X050530Y012708D01*
X050576Y012610D02*
X038528Y012610D01*
X038481Y012511D02*
X050674Y012511D01*
X050740Y012413D02*
X038383Y012413D01*
X038222Y012314D02*
X050740Y012314D01*
X050740Y012216D02*
X034733Y012216D01*
X034725Y012233D02*
X034677Y012299D01*
X034619Y012357D01*
X034553Y012405D01*
X034480Y012442D01*
X034402Y012467D01*
X034330Y012479D01*
X034330Y012010D01*
X034799Y012010D01*
X034787Y012082D01*
X034762Y012160D01*
X034725Y012233D01*
X034661Y012314D02*
X037778Y012314D01*
X037617Y012413D02*
X034537Y012413D01*
X034330Y012413D02*
X034230Y012413D01*
X034230Y012479D02*
X034158Y012467D01*
X034080Y012442D01*
X034007Y012405D01*
X033941Y012357D01*
X033883Y012299D01*
X033835Y012233D01*
X033798Y012160D01*
X033773Y012082D01*
X033761Y012010D01*
X034230Y012010D01*
X034230Y012479D01*
X034230Y012314D02*
X034330Y012314D01*
X034330Y012216D02*
X034230Y012216D01*
X034230Y012117D02*
X034330Y012117D01*
X034330Y012019D02*
X034230Y012019D01*
X034230Y012010D02*
X034330Y012010D01*
X034330Y011910D01*
X034799Y011910D01*
X034787Y011838D01*
X034762Y011760D01*
X034725Y011687D01*
X034677Y011621D01*
X034619Y011563D01*
X034553Y011515D01*
X034480Y011478D01*
X034402Y011453D01*
X034330Y011441D01*
X034330Y011910D01*
X034230Y011910D01*
X034230Y011441D01*
X034158Y011453D01*
X034080Y011478D01*
X034007Y011515D01*
X033941Y011563D01*
X033883Y011621D01*
X033835Y011687D01*
X033798Y011760D01*
X033773Y011838D01*
X033761Y011910D01*
X034230Y011910D01*
X034230Y012010D01*
X034230Y011920D02*
X031770Y011920D01*
X031770Y011910D02*
X031770Y012010D01*
X032239Y012010D01*
X032227Y012082D01*
X032202Y012160D01*
X032165Y012233D01*
X032117Y012299D01*
X032059Y012357D01*
X031993Y012405D01*
X031920Y012442D01*
X031842Y012467D01*
X031770Y012479D01*
X031770Y012010D01*
X031670Y012010D01*
X031670Y012479D01*
X031598Y012467D01*
X031520Y012442D01*
X031447Y012405D01*
X031381Y012357D01*
X031323Y012299D01*
X031275Y012233D01*
X031238Y012160D01*
X031213Y012082D01*
X031201Y012010D01*
X031670Y012010D01*
X031670Y011910D01*
X031770Y011910D01*
X032239Y011910D01*
X032227Y011838D01*
X032202Y011760D01*
X032165Y011687D01*
X032117Y011621D01*
X032059Y011563D01*
X031993Y011515D01*
X031920Y011478D01*
X031842Y011453D01*
X031770Y011441D01*
X031770Y011910D01*
X031770Y011822D02*
X031670Y011822D01*
X031670Y011910D02*
X031670Y011441D01*
X031598Y011453D01*
X031520Y011478D01*
X031447Y011515D01*
X031381Y011563D01*
X031323Y011621D01*
X031275Y011687D01*
X031238Y011760D01*
X031213Y011838D01*
X031201Y011910D01*
X031670Y011910D01*
X031670Y011920D02*
X022200Y011920D01*
X022276Y011952D02*
X022408Y012084D01*
X022480Y012257D01*
X022480Y012443D01*
X022408Y012616D01*
X022276Y012748D01*
X022103Y012820D01*
X021397Y012820D01*
X021224Y012748D01*
X021092Y012616D01*
X021020Y012443D01*
X021020Y012257D01*
X021092Y012084D01*
X021224Y011952D01*
X021397Y011880D01*
X022103Y011880D01*
X022276Y011952D01*
X022343Y012019D02*
X031203Y012019D01*
X031224Y012117D02*
X022422Y012117D01*
X022463Y012216D02*
X031267Y012216D01*
X031339Y012314D02*
X022480Y012314D01*
X022480Y012413D02*
X031463Y012413D01*
X031670Y012413D02*
X031770Y012413D01*
X031770Y012314D02*
X031670Y012314D01*
X031670Y012216D02*
X031770Y012216D01*
X031770Y012117D02*
X031670Y012117D01*
X031670Y012019D02*
X031770Y012019D01*
X032101Y012314D02*
X033899Y012314D01*
X033827Y012216D02*
X032173Y012216D01*
X032216Y012117D02*
X033784Y012117D01*
X033763Y012019D02*
X032237Y012019D01*
X032222Y011822D02*
X033778Y011822D01*
X033817Y011723D02*
X032183Y011723D01*
X032119Y011625D02*
X033881Y011625D01*
X033993Y011526D02*
X032007Y011526D01*
X031770Y011526D02*
X031670Y011526D01*
X031670Y011625D02*
X031770Y011625D01*
X031770Y011723D02*
X031670Y011723D01*
X031433Y011526D02*
X022446Y011526D01*
X022480Y011443D02*
X022408Y011616D01*
X022276Y011748D01*
X022103Y011820D01*
X021397Y011820D01*
X021224Y011748D01*
X021092Y011616D01*
X021020Y011443D01*
X021020Y011257D01*
X021092Y011084D01*
X021224Y010952D01*
X021397Y010880D01*
X022103Y010880D01*
X022276Y010952D01*
X022408Y011084D01*
X022480Y011257D01*
X022480Y011443D01*
X022480Y011428D02*
X037530Y011428D01*
X037530Y011526D02*
X034567Y011526D01*
X034679Y011625D02*
X037610Y011625D01*
X037530Y011545D02*
X037530Y011155D01*
X037805Y010880D01*
X038195Y010880D01*
X038470Y011155D01*
X038470Y011545D01*
X038195Y011820D01*
X037805Y011820D01*
X037530Y011545D01*
X037530Y011329D02*
X022480Y011329D01*
X022469Y011231D02*
X037530Y011231D01*
X037553Y011132D02*
X022428Y011132D01*
X022358Y011034D02*
X037652Y011034D01*
X037750Y010935D02*
X022236Y010935D01*
X022287Y010738D02*
X051994Y010738D01*
X051896Y010837D02*
X012410Y010837D01*
X011374Y010640D02*
X009126Y010640D01*
X009103Y010630D02*
X009276Y010702D01*
X009408Y010834D01*
X009480Y011007D01*
X009480Y011193D01*
X009408Y011366D01*
X009276Y011498D01*
X009103Y011570D01*
X008397Y011570D01*
X008224Y011498D01*
X008092Y011366D01*
X008020Y011193D01*
X008020Y011007D01*
X008092Y010834D01*
X008224Y010702D01*
X008397Y010630D01*
X009103Y010630D01*
X009106Y010500D02*
X009042Y010510D01*
X008780Y010510D01*
X008780Y010130D01*
X008720Y010130D01*
X008720Y010510D01*
X008458Y010510D01*
X008394Y010500D01*
X008333Y010480D01*
X008275Y010451D01*
X008223Y010413D01*
X008177Y010367D01*
X008139Y010315D01*
X008110Y010257D01*
X008090Y010196D01*
X008080Y010132D01*
X008080Y010130D01*
X008720Y010130D01*
X008720Y010070D01*
X008780Y010070D01*
X008780Y010130D01*
X009420Y010130D01*
X009420Y010132D01*
X009410Y010196D01*
X009390Y010257D01*
X009361Y010315D01*
X009323Y010367D01*
X009277Y010413D01*
X009225Y010451D01*
X009167Y010480D01*
X009106Y010500D01*
X009236Y010443D02*
X011168Y010443D01*
X011082Y010344D02*
X009339Y010344D01*
X009394Y010246D02*
X011042Y010246D01*
X011020Y010147D02*
X009418Y010147D01*
X009420Y010070D02*
X008780Y010070D01*
X008780Y009690D01*
X009042Y009690D01*
X009106Y009700D01*
X009167Y009720D01*
X009225Y009749D01*
X009277Y009787D01*
X009323Y009833D01*
X009361Y009885D01*
X009390Y009943D01*
X009410Y010004D01*
X009420Y010068D01*
X009420Y010070D01*
X009417Y010049D02*
X011020Y010049D01*
X011043Y009950D02*
X009392Y009950D01*
X009336Y009852D02*
X011084Y009852D01*
X011172Y009753D02*
X009230Y009753D01*
X008780Y009753D02*
X008720Y009753D01*
X008720Y009690D02*
X008720Y010070D01*
X008080Y010070D01*
X008080Y010068D01*
X008090Y010004D01*
X008110Y009943D01*
X008139Y009885D01*
X008177Y009833D01*
X008223Y009787D01*
X008275Y009749D01*
X008333Y009720D01*
X008394Y009700D01*
X008458Y009690D01*
X008720Y009690D01*
X008720Y009852D02*
X008780Y009852D01*
X008780Y009950D02*
X008720Y009950D01*
X008720Y010049D02*
X008780Y010049D01*
X008780Y010147D02*
X008720Y010147D01*
X008720Y010246D02*
X008780Y010246D01*
X008780Y010344D02*
X008720Y010344D01*
X008720Y010443D02*
X008780Y010443D01*
X008374Y010640D02*
X004720Y010640D01*
X004720Y010738D02*
X008187Y010738D01*
X008090Y010837D02*
X004678Y010837D01*
X004720Y010795D02*
X004445Y011070D01*
X004055Y011070D01*
X003780Y010795D01*
X003780Y010405D01*
X003960Y010225D01*
X003780Y010045D01*
X003780Y009655D01*
X004055Y009380D01*
X004445Y009380D01*
X004720Y009655D01*
X004720Y010045D01*
X004540Y010225D01*
X004720Y010405D01*
X004720Y010795D01*
X004580Y010935D02*
X008050Y010935D01*
X008020Y011034D02*
X004481Y011034D01*
X004019Y011034D02*
X002000Y011034D01*
X002000Y011132D02*
X008020Y011132D01*
X008035Y011231D02*
X002000Y011231D01*
X002000Y011329D02*
X008076Y011329D01*
X008153Y011428D02*
X002000Y011428D01*
X002000Y011526D02*
X008290Y011526D01*
X009210Y011526D02*
X011290Y011526D01*
X011153Y011428D02*
X009347Y011428D01*
X009424Y011329D02*
X011076Y011329D01*
X011035Y011231D02*
X009465Y011231D01*
X009480Y011132D02*
X011020Y011132D01*
X011020Y011034D02*
X009480Y011034D01*
X009450Y010935D02*
X011050Y010935D01*
X011090Y010837D02*
X009410Y010837D01*
X009313Y010738D02*
X011187Y010738D01*
X011327Y010541D02*
X004720Y010541D01*
X004720Y010443D02*
X008264Y010443D01*
X008161Y010344D02*
X004659Y010344D01*
X004560Y010246D02*
X008106Y010246D01*
X008082Y010147D02*
X004618Y010147D01*
X004716Y010049D02*
X008083Y010049D01*
X008108Y009950D02*
X004720Y009950D01*
X004720Y009852D02*
X008164Y009852D01*
X008270Y009753D02*
X004720Y009753D01*
X004719Y009655D02*
X011337Y009655D01*
X012163Y009655D02*
X018130Y009655D01*
X018092Y009616D02*
X018020Y009443D01*
X018020Y009257D01*
X018092Y009084D01*
X018224Y008952D01*
X018397Y008880D01*
X019103Y008880D01*
X019276Y008952D01*
X019408Y009084D01*
X019480Y009257D01*
X019480Y009443D01*
X019408Y009616D01*
X019276Y009748D01*
X019103Y009820D01*
X018397Y009820D01*
X018224Y009748D01*
X018092Y009616D01*
X018067Y009556D02*
X004621Y009556D01*
X004522Y009458D02*
X018026Y009458D01*
X018020Y009359D02*
X002000Y009359D01*
X002000Y009261D02*
X018020Y009261D01*
X018059Y009162D02*
X002000Y009162D01*
X002000Y009064D02*
X018112Y009064D01*
X018210Y008965D02*
X002000Y008965D01*
X002000Y008867D02*
X050545Y008867D01*
X050644Y008965D02*
X038280Y008965D01*
X038378Y009064D02*
X050742Y009064D01*
X051258Y009064D02*
X051742Y009064D01*
X051644Y008965D02*
X051356Y008965D01*
X051455Y008867D02*
X051545Y008867D01*
X052258Y009064D02*
X052669Y009064D01*
X052740Y008965D02*
X052356Y008965D01*
X052455Y008867D02*
X052740Y008867D01*
X052740Y008768D02*
X052510Y008768D01*
X052510Y008670D02*
X052740Y008670D01*
X052740Y008571D02*
X052510Y008571D01*
X052510Y008473D02*
X052740Y008473D01*
X052740Y008374D02*
X052495Y008374D01*
X052397Y008276D02*
X052740Y008276D01*
X052740Y008177D02*
X052298Y008177D01*
X052243Y008079D02*
X052740Y008079D01*
X052740Y007980D02*
X052341Y007980D01*
X052440Y007882D02*
X052664Y007882D01*
X052750Y007600D02*
X052000Y007600D01*
X052750Y007600D02*
X053000Y007850D01*
X053000Y009100D01*
X052250Y009850D01*
X048250Y009850D01*
X047750Y009350D01*
X038000Y009350D01*
X033000Y009350D01*
X032000Y010350D01*
X021750Y010350D01*
X021213Y010738D02*
X019287Y010738D01*
X019385Y010640D02*
X021115Y010640D01*
X021060Y010541D02*
X019440Y010541D01*
X019475Y010246D02*
X021025Y010246D01*
X021020Y010257D02*
X021020Y010443D01*
X021065Y010147D02*
X019435Y010147D01*
X019373Y010049D02*
X021127Y010049D01*
X021227Y009950D02*
X019273Y009950D01*
X019265Y009753D02*
X021235Y009753D01*
X021130Y009655D02*
X019370Y009655D01*
X019433Y009556D02*
X021067Y009556D01*
X021026Y009458D02*
X019474Y009458D01*
X019480Y009359D02*
X021020Y009359D01*
X021020Y009261D02*
X019480Y009261D01*
X019441Y009162D02*
X021059Y009162D01*
X021112Y009064D02*
X019388Y009064D01*
X019290Y008965D02*
X021210Y008965D01*
X021271Y008768D02*
X019229Y008768D01*
X019276Y008748D02*
X019103Y008820D01*
X018397Y008820D01*
X018224Y008748D01*
X018092Y008616D01*
X018020Y008443D01*
X018020Y008257D01*
X018092Y008084D01*
X018224Y007952D01*
X018397Y007880D01*
X019103Y007880D01*
X019276Y007952D01*
X019408Y008084D01*
X019480Y008257D01*
X019480Y008443D01*
X019408Y008616D01*
X019276Y008748D01*
X019355Y008670D02*
X021145Y008670D01*
X021073Y008571D02*
X019427Y008571D01*
X019468Y008473D02*
X021032Y008473D01*
X021020Y008374D02*
X019480Y008374D01*
X019480Y008276D02*
X021020Y008276D01*
X021053Y008177D02*
X019447Y008177D01*
X019403Y008079D02*
X021097Y008079D01*
X021195Y007980D02*
X019305Y007980D01*
X019107Y007882D02*
X021393Y007882D01*
X021307Y007783D02*
X019193Y007783D01*
X019276Y007748D02*
X019103Y007820D01*
X018397Y007820D01*
X018224Y007748D01*
X018092Y007616D01*
X018020Y007443D01*
X018020Y007257D01*
X018092Y007084D01*
X018224Y006952D01*
X018397Y006880D01*
X019103Y006880D01*
X019276Y006952D01*
X019408Y007084D01*
X019480Y007257D01*
X019480Y007443D01*
X019408Y007616D01*
X019276Y007748D01*
X019340Y007685D02*
X021160Y007685D01*
X021079Y007586D02*
X019421Y007586D01*
X019462Y007488D02*
X021038Y007488D01*
X021020Y007389D02*
X019480Y007389D01*
X019480Y007291D02*
X021020Y007291D01*
X021047Y007192D02*
X019453Y007192D01*
X019412Y007094D02*
X021088Y007094D01*
X021180Y006995D02*
X019320Y006995D01*
X019143Y006897D02*
X021357Y006897D01*
X022143Y006897D02*
X050575Y006897D01*
X050490Y006811D02*
X050490Y006389D01*
X050779Y006100D01*
X050490Y005811D01*
X050490Y005389D01*
X050779Y005100D01*
X050490Y004811D01*
X050490Y004389D01*
X050789Y004090D01*
X051211Y004090D01*
X051358Y004237D02*
X051563Y004237D01*
X051560Y004242D02*
X051580Y004208D01*
X051608Y004180D01*
X051642Y004160D01*
X051680Y004150D01*
X051950Y004150D01*
X051950Y004550D01*
X052050Y004550D01*
X052050Y004650D01*
X051950Y004650D01*
X051950Y005050D01*
X051680Y005050D01*
X051642Y005040D01*
X051608Y005020D01*
X051580Y004992D01*
X051560Y004958D01*
X051550Y004920D01*
X051550Y004650D01*
X051950Y004650D01*
X051950Y004550D01*
X051550Y004550D01*
X051550Y004280D01*
X051560Y004242D01*
X051550Y004336D02*
X051457Y004336D01*
X051510Y004434D02*
X051550Y004434D01*
X051550Y004533D02*
X051510Y004533D01*
X051510Y004631D02*
X051950Y004631D01*
X051950Y004533D02*
X052050Y004533D01*
X052050Y004550D02*
X052050Y004150D01*
X052320Y004150D01*
X052358Y004160D01*
X052392Y004180D01*
X052420Y004208D01*
X052440Y004242D01*
X052450Y004280D01*
X052450Y004550D01*
X052050Y004550D01*
X052050Y004631D02*
X054000Y004631D01*
X054000Y004533D02*
X052450Y004533D01*
X052450Y004434D02*
X054000Y004434D01*
X054000Y004336D02*
X052450Y004336D01*
X052437Y004237D02*
X054000Y004237D01*
X054000Y004730D02*
X052450Y004730D01*
X052450Y004650D02*
X052450Y004920D01*
X052440Y004958D01*
X052420Y004992D01*
X052392Y005020D01*
X052358Y005040D01*
X052320Y005050D01*
X052050Y005050D01*
X052050Y004650D01*
X052450Y004650D01*
X052450Y004828D02*
X054000Y004828D01*
X054000Y004927D02*
X052448Y004927D01*
X052383Y005025D02*
X054000Y005025D01*
X054000Y005124D02*
X052245Y005124D01*
X052343Y005222D02*
X054000Y005222D01*
X054000Y005321D02*
X052442Y005321D01*
X052510Y005419D02*
X054000Y005419D01*
X054000Y005518D02*
X052510Y005518D01*
X052510Y005616D02*
X054000Y005616D01*
X054000Y005715D02*
X052510Y005715D01*
X052508Y005813D02*
X054000Y005813D01*
X054000Y005912D02*
X052410Y005912D01*
X052311Y006010D02*
X054000Y006010D01*
X054000Y006109D02*
X052230Y006109D01*
X052328Y006207D02*
X054000Y006207D01*
X054000Y006306D02*
X052427Y006306D01*
X052000Y006600D02*
X053000Y006600D01*
X053500Y007100D01*
X053500Y009600D01*
X051000Y012100D01*
X051000Y012850D01*
X051314Y013201D02*
X052771Y013201D01*
X052830Y013260D02*
X052590Y013020D01*
X052590Y012880D01*
X052970Y012880D01*
X052970Y013260D01*
X052830Y013260D01*
X052970Y013201D02*
X053030Y013201D01*
X053030Y013260D02*
X053170Y013260D01*
X053410Y013020D01*
X053410Y012880D01*
X053030Y012880D01*
X053030Y012820D01*
X053410Y012820D01*
X053410Y012680D01*
X053170Y012440D01*
X053030Y012440D01*
X053030Y012820D01*
X052970Y012820D01*
X052970Y012440D01*
X052830Y012440D01*
X052590Y012680D01*
X052590Y012820D01*
X052970Y012820D01*
X052970Y012880D01*
X053030Y012880D01*
X053030Y013260D01*
X053030Y013102D02*
X052970Y013102D01*
X052970Y013004D02*
X053030Y013004D01*
X053030Y012905D02*
X052970Y012905D01*
X052970Y012807D02*
X053030Y012807D01*
X053030Y012708D02*
X052970Y012708D01*
X052970Y012610D02*
X053030Y012610D01*
X053030Y012511D02*
X052970Y012511D01*
X052759Y012511D02*
X051326Y012511D01*
X051260Y012413D02*
X054000Y012413D01*
X054000Y012511D02*
X053241Y012511D01*
X053339Y012610D02*
X054000Y012610D01*
X054000Y012708D02*
X053410Y012708D01*
X053410Y012807D02*
X054000Y012807D01*
X054000Y012905D02*
X053410Y012905D01*
X053410Y013004D02*
X054000Y013004D01*
X054000Y013102D02*
X053328Y013102D01*
X053229Y013201D02*
X054000Y013201D01*
X054000Y013299D02*
X051216Y013299D01*
X051413Y013102D02*
X052672Y013102D01*
X052590Y013004D02*
X051470Y013004D01*
X051470Y012905D02*
X052590Y012905D01*
X052590Y012807D02*
X051470Y012807D01*
X051470Y012708D02*
X052590Y012708D01*
X052661Y012610D02*
X051424Y012610D01*
X051260Y012314D02*
X054000Y012314D01*
X054000Y012216D02*
X051260Y012216D01*
X051351Y012117D02*
X054000Y012117D01*
X054000Y012019D02*
X051449Y012019D01*
X051548Y011920D02*
X054000Y011920D01*
X054000Y011822D02*
X051646Y011822D01*
X051745Y011723D02*
X054000Y011723D01*
X054000Y011625D02*
X051843Y011625D01*
X051942Y011526D02*
X054000Y011526D01*
X054000Y011428D02*
X052040Y011428D01*
X052139Y011329D02*
X054000Y011329D01*
X054000Y011231D02*
X052237Y011231D01*
X052336Y011132D02*
X054000Y011132D01*
X054000Y011034D02*
X052434Y011034D01*
X052533Y010935D02*
X054000Y010935D01*
X054000Y010837D02*
X052631Y010837D01*
X052730Y010738D02*
X054000Y010738D01*
X054000Y010640D02*
X052828Y010640D01*
X052927Y010541D02*
X054000Y010541D01*
X054000Y010443D02*
X053025Y010443D01*
X053124Y010344D02*
X054000Y010344D01*
X054000Y010246D02*
X053222Y010246D01*
X053321Y010147D02*
X054000Y010147D01*
X054000Y010049D02*
X053419Y010049D01*
X053518Y009950D02*
X054000Y009950D01*
X054000Y009852D02*
X053616Y009852D01*
X053647Y009820D02*
X053647Y009820D01*
X053715Y009753D02*
X054000Y009753D01*
X054000Y009655D02*
X053759Y009655D01*
X053760Y009556D02*
X054000Y009556D01*
X054000Y009458D02*
X053760Y009458D01*
X053760Y009359D02*
X054000Y009359D01*
X054000Y009261D02*
X053760Y009261D01*
X053760Y009162D02*
X054000Y009162D01*
X054000Y009064D02*
X053760Y009064D01*
X053760Y008965D02*
X054000Y008965D01*
X054000Y008867D02*
X053760Y008867D01*
X053760Y008768D02*
X054000Y008768D01*
X054000Y008670D02*
X053760Y008670D01*
X053760Y008571D02*
X054000Y008571D01*
X054000Y008473D02*
X053760Y008473D01*
X053760Y008374D02*
X054000Y008374D01*
X054000Y008276D02*
X053760Y008276D01*
X053760Y008177D02*
X054000Y008177D01*
X054000Y008079D02*
X053760Y008079D01*
X053760Y007980D02*
X054000Y007980D01*
X054000Y007882D02*
X053760Y007882D01*
X053760Y007783D02*
X054000Y007783D01*
X054000Y007685D02*
X053760Y007685D01*
X053760Y007586D02*
X054000Y007586D01*
X054000Y007488D02*
X053760Y007488D01*
X053760Y007389D02*
X054000Y007389D01*
X054000Y007291D02*
X053760Y007291D01*
X053760Y007192D02*
X054000Y007192D01*
X054000Y007094D02*
X053760Y007094D01*
X053738Y006995D02*
X054000Y006995D01*
X054000Y006897D02*
X053664Y006897D01*
X053566Y006798D02*
X054000Y006798D01*
X054000Y006700D02*
X053467Y006700D01*
X053369Y006601D02*
X054000Y006601D01*
X054000Y006503D02*
X053270Y006503D01*
X053220Y006453D02*
X053220Y006453D01*
X053172Y006404D02*
X054000Y006404D01*
X051755Y005124D02*
X051245Y005124D01*
X051296Y005025D02*
X051617Y005025D01*
X051552Y004927D02*
X051395Y004927D01*
X051493Y004828D02*
X051550Y004828D01*
X051550Y004730D02*
X051510Y004730D01*
X051950Y004730D02*
X052050Y004730D01*
X052050Y004828D02*
X051950Y004828D01*
X051950Y004927D02*
X052050Y004927D01*
X052050Y005025D02*
X051950Y005025D01*
X051657Y005222D02*
X051343Y005222D01*
X051442Y005321D02*
X051558Y005321D01*
X050755Y005124D02*
X002000Y005124D01*
X002000Y005222D02*
X050657Y005222D01*
X050558Y005321D02*
X002000Y005321D01*
X002000Y005419D02*
X031766Y005419D01*
X031805Y005380D02*
X032195Y005380D01*
X032470Y005655D01*
X032470Y006045D01*
X032195Y006320D01*
X031805Y006320D01*
X031530Y006045D01*
X031530Y005655D01*
X031805Y005380D01*
X031668Y005518D02*
X002000Y005518D01*
X002000Y005616D02*
X031569Y005616D01*
X031530Y005715D02*
X002000Y005715D01*
X002000Y005813D02*
X031530Y005813D01*
X031530Y005912D02*
X002000Y005912D01*
X002000Y006010D02*
X031530Y006010D01*
X031594Y006109D02*
X002000Y006109D01*
X002000Y006207D02*
X031692Y006207D01*
X031791Y006306D02*
X002000Y006306D01*
X002000Y006404D02*
X050490Y006404D01*
X050490Y006503D02*
X002000Y006503D01*
X002000Y006601D02*
X050490Y006601D01*
X050490Y006700D02*
X002000Y006700D01*
X002000Y006798D02*
X050490Y006798D01*
X050490Y006811D02*
X050779Y007100D01*
X050490Y007389D01*
X050588Y007291D02*
X032558Y007291D01*
X032657Y007389D02*
X037796Y007389D01*
X037698Y007488D02*
X032755Y007488D01*
X032854Y007586D02*
X037599Y007586D01*
X038000Y007850D02*
X032750Y007850D01*
X032250Y007350D01*
X021750Y007350D01*
X022320Y006995D02*
X050674Y006995D01*
X050772Y007094D02*
X032310Y007094D01*
X032460Y007192D02*
X050687Y007192D01*
X050573Y006306D02*
X038209Y006306D01*
X038195Y006320D02*
X037805Y006320D01*
X037530Y006045D01*
X037530Y005655D01*
X037805Y005380D01*
X038195Y005380D01*
X038470Y005655D01*
X038470Y006045D01*
X038195Y006320D01*
X038308Y006207D02*
X050672Y006207D01*
X050770Y006109D02*
X038406Y006109D01*
X038470Y006010D02*
X050689Y006010D01*
X050590Y005912D02*
X038470Y005912D01*
X038470Y005813D02*
X050492Y005813D01*
X050490Y005715D02*
X038470Y005715D01*
X038431Y005616D02*
X050490Y005616D01*
X050490Y005518D02*
X038332Y005518D01*
X038234Y005419D02*
X050490Y005419D01*
X050704Y005025D02*
X002000Y005025D01*
X002000Y004927D02*
X037876Y004927D01*
X037658Y004828D02*
X006103Y004828D01*
X005944Y004828D02*
X005844Y004828D01*
X005844Y004730D02*
X005944Y004730D01*
X005944Y004631D02*
X005844Y004631D01*
X005844Y004533D02*
X005944Y004533D01*
X005944Y004434D02*
X005844Y004434D01*
X005844Y004336D02*
X005944Y004336D01*
X005944Y004237D02*
X005844Y004237D01*
X005844Y004139D02*
X005944Y004139D01*
X005944Y004040D02*
X005844Y004040D01*
X005844Y003942D02*
X005944Y003942D01*
X005944Y003843D02*
X031297Y003843D01*
X031228Y003911D02*
X031391Y003748D01*
X031605Y003660D01*
X031835Y003660D01*
X032049Y003748D01*
X032212Y003911D01*
X032300Y004125D01*
X032300Y004355D01*
X032212Y004569D01*
X032049Y004732D01*
X031835Y004820D01*
X031605Y004820D01*
X031391Y004732D01*
X031228Y004569D01*
X031140Y004355D01*
X031140Y004125D01*
X031228Y003911D01*
X031216Y003942D02*
X006890Y003942D01*
X006876Y004040D02*
X031175Y004040D01*
X031140Y004139D02*
X006852Y004139D01*
X006817Y004237D02*
X031140Y004237D01*
X031140Y004336D02*
X006770Y004336D01*
X006707Y004434D02*
X031173Y004434D01*
X031213Y004533D02*
X006625Y004533D01*
X006518Y004631D02*
X031291Y004631D01*
X031389Y004730D02*
X006372Y004730D01*
X005685Y004828D02*
X003958Y004828D01*
X003941Y004838D02*
X003671Y004910D01*
X003392Y004910D01*
X003122Y004838D01*
X002881Y004698D01*
X002683Y004501D01*
X002544Y004259D01*
X002471Y003990D01*
X002471Y003710D01*
X002544Y003441D01*
X002683Y003199D01*
X002881Y003002D01*
X003122Y002862D01*
X003392Y002790D01*
X003671Y002790D01*
X003941Y002862D01*
X004182Y003002D01*
X004380Y003199D01*
X004519Y003441D01*
X004591Y003710D01*
X004591Y003990D01*
X004519Y004259D01*
X004380Y004501D01*
X004182Y004698D01*
X003941Y004838D01*
X004128Y004730D02*
X005415Y004730D01*
X005269Y004631D02*
X004250Y004631D01*
X004348Y004533D02*
X005162Y004533D01*
X005080Y004434D02*
X004418Y004434D01*
X004475Y004336D02*
X005018Y004336D01*
X004970Y004237D02*
X004525Y004237D01*
X004552Y004139D02*
X004935Y004139D01*
X004911Y004040D02*
X004578Y004040D01*
X004591Y003942D02*
X004898Y003942D01*
X004894Y003800D02*
X004894Y003794D01*
X004906Y003682D01*
X004931Y003573D01*
X004968Y003467D01*
X005017Y003366D01*
X005077Y003270D01*
X005147Y003183D01*
X005226Y003103D01*
X005314Y003033D01*
X005409Y002973D01*
X005510Y002925D01*
X005616Y002888D01*
X005726Y002863D01*
X005838Y002850D01*
X005844Y002850D01*
X005844Y003800D01*
X004894Y003800D01*
X004899Y003745D02*
X004591Y003745D01*
X004591Y003843D02*
X005844Y003843D01*
X005844Y003745D02*
X005944Y003745D01*
X005944Y003646D02*
X005844Y003646D01*
X005844Y003548D02*
X005944Y003548D01*
X005944Y003449D02*
X005844Y003449D01*
X005844Y003351D02*
X005944Y003351D01*
X005944Y003252D02*
X005844Y003252D01*
X005844Y003154D02*
X005944Y003154D01*
X005944Y003055D02*
X005844Y003055D01*
X005844Y002957D02*
X005944Y002957D01*
X005944Y002858D02*
X005844Y002858D01*
X005766Y002858D02*
X005346Y002858D01*
X005444Y002957D02*
X005175Y002957D01*
X005287Y003055D02*
X004869Y003055D01*
X005092Y003252D02*
X004410Y003252D01*
X004467Y003351D02*
X005027Y003351D01*
X004977Y003449D02*
X004521Y003449D01*
X004548Y003548D02*
X004940Y003548D01*
X004915Y003646D02*
X004574Y003646D01*
X004334Y003154D02*
X005176Y003154D01*
X004556Y003055D02*
X004236Y003055D01*
X004250Y002957D02*
X004104Y002957D01*
X004079Y002858D02*
X003925Y002858D01*
X003973Y002760D02*
X002000Y002760D01*
X002000Y002858D02*
X003138Y002858D01*
X002959Y002957D02*
X002000Y002957D01*
X002000Y003055D02*
X002827Y003055D01*
X002729Y003154D02*
X002000Y003154D01*
X002000Y003252D02*
X002653Y003252D01*
X002596Y003351D02*
X002000Y003351D01*
X002000Y003449D02*
X002542Y003449D01*
X002515Y003548D02*
X002000Y003548D01*
X002000Y003646D02*
X002489Y003646D01*
X002471Y003745D02*
X002000Y003745D01*
X002000Y003843D02*
X002471Y003843D01*
X002471Y003942D02*
X002000Y003942D01*
X002000Y004040D02*
X002485Y004040D01*
X002511Y004139D02*
X002000Y004139D01*
X002000Y004237D02*
X002538Y004237D01*
X002588Y004336D02*
X002000Y004336D01*
X002000Y004434D02*
X002645Y004434D01*
X002715Y004533D02*
X002000Y004533D01*
X002000Y004631D02*
X002813Y004631D01*
X002935Y004730D02*
X002000Y004730D01*
X002000Y004828D02*
X003105Y004828D01*
X006021Y002858D02*
X031383Y002858D01*
X031295Y002760D02*
X005452Y002760D01*
X005550Y002661D02*
X031239Y002661D01*
X031210Y002563D02*
X005612Y002563D01*
X005668Y002464D02*
X031670Y002464D01*
X031670Y002366D02*
X031770Y002366D01*
X031770Y002267D02*
X031670Y002267D01*
X031670Y002169D02*
X031770Y002169D01*
X031770Y002070D02*
X031670Y002070D01*
X031670Y001972D02*
X031770Y001972D01*
X031899Y001972D02*
X034101Y001972D01*
X033935Y002070D02*
X032065Y002070D01*
X032151Y002169D02*
X033849Y002169D01*
X033796Y002267D02*
X032204Y002267D01*
X032232Y002366D02*
X033768Y002366D01*
X033770Y002563D02*
X032230Y002563D01*
X032201Y002661D02*
X033799Y002661D01*
X033855Y002760D02*
X032145Y002760D01*
X032057Y002858D02*
X033943Y002858D01*
X034125Y002957D02*
X031875Y002957D01*
X031208Y002366D02*
X005712Y002366D01*
X005738Y002267D02*
X031236Y002267D01*
X031289Y002169D02*
X005765Y002169D01*
X005773Y002070D02*
X031375Y002070D01*
X031541Y001972D02*
X005773Y001972D01*
X004177Y001085D02*
X002000Y001085D01*
X002000Y000987D02*
X004398Y000987D01*
X004030Y001184D02*
X002000Y001184D01*
X002000Y001282D02*
X003931Y001282D01*
X003846Y001381D02*
X002000Y001381D01*
X002000Y001479D02*
X003789Y001479D01*
X003732Y001578D02*
X002000Y001578D01*
X002000Y001676D02*
X003702Y001676D01*
X003676Y001775D02*
X002000Y001775D01*
X002000Y001873D02*
X003653Y001873D01*
X003653Y001972D02*
X002000Y001972D01*
X002000Y002070D02*
X003653Y002070D01*
X003660Y002169D02*
X002000Y002169D01*
X002000Y002267D02*
X003687Y002267D01*
X003713Y002366D02*
X002000Y002366D01*
X002000Y002464D02*
X003757Y002464D01*
X003814Y002563D02*
X002000Y002563D01*
X002000Y002661D02*
X003875Y002661D01*
X006611Y003154D02*
X037454Y003154D01*
X037420Y003252D02*
X006696Y003252D01*
X006761Y003351D02*
X037420Y003351D01*
X037420Y003449D02*
X006811Y003449D01*
X006847Y003548D02*
X037454Y003548D01*
X037495Y003646D02*
X006873Y003646D01*
X006888Y003745D02*
X031401Y003745D01*
X032039Y003745D02*
X033961Y003745D01*
X033951Y003748D02*
X034165Y003660D01*
X034395Y003660D01*
X034609Y003748D01*
X034772Y003911D01*
X034860Y004125D01*
X034860Y004355D01*
X034772Y004569D01*
X034609Y004732D01*
X034395Y004820D01*
X034165Y004820D01*
X033951Y004732D01*
X033788Y004569D01*
X033700Y004355D01*
X033700Y004125D01*
X033788Y003911D01*
X033951Y003748D01*
X033857Y003843D02*
X032143Y003843D01*
X032224Y003942D02*
X033776Y003942D01*
X033735Y004040D02*
X032265Y004040D01*
X032300Y004139D02*
X033700Y004139D01*
X033700Y004237D02*
X032300Y004237D01*
X032300Y004336D02*
X033700Y004336D01*
X033733Y004434D02*
X032267Y004434D01*
X032227Y004533D02*
X033773Y004533D01*
X033851Y004631D02*
X032149Y004631D01*
X032051Y004730D02*
X033949Y004730D01*
X034611Y004730D02*
X037559Y004730D01*
X037489Y004631D02*
X034709Y004631D01*
X034787Y004533D02*
X037448Y004533D01*
X037420Y004434D02*
X034827Y004434D01*
X034860Y004336D02*
X037420Y004336D01*
X037420Y004237D02*
X034860Y004237D01*
X034860Y004139D02*
X037460Y004139D01*
X037501Y004040D02*
X034825Y004040D01*
X034784Y003942D02*
X037588Y003942D01*
X037675Y003843D02*
X034703Y003843D01*
X034599Y003745D02*
X037574Y003745D01*
X038540Y004139D02*
X050740Y004139D01*
X050642Y004237D02*
X038580Y004237D01*
X038580Y004336D02*
X050543Y004336D01*
X050490Y004434D02*
X038580Y004434D01*
X038552Y004533D02*
X050490Y004533D01*
X050490Y004631D02*
X038511Y004631D01*
X038441Y004730D02*
X050490Y004730D01*
X050507Y004828D02*
X038342Y004828D01*
X038124Y004927D02*
X050605Y004927D01*
X051950Y004434D02*
X052050Y004434D01*
X052050Y004336D02*
X051950Y004336D01*
X051950Y004237D02*
X052050Y004237D01*
X049150Y003055D02*
X048537Y003055D01*
X048636Y002957D02*
X048950Y002957D01*
X048863Y002858D02*
X048734Y002858D01*
X048775Y002760D02*
X048813Y002760D01*
X048789Y002661D02*
X048775Y002661D01*
X048775Y002563D02*
X048785Y002563D01*
X048775Y002464D02*
X048805Y002464D01*
X048848Y002366D02*
X048758Y002366D01*
X048659Y002267D02*
X048925Y002267D01*
X049073Y002169D02*
X048561Y002169D01*
X047725Y002563D02*
X034790Y002563D01*
X034761Y002661D02*
X047725Y002661D01*
X047725Y002760D02*
X034705Y002760D01*
X034617Y002858D02*
X037672Y002858D01*
X038328Y002858D02*
X047766Y002858D01*
X047864Y002957D02*
X038427Y002957D01*
X038506Y003055D02*
X047963Y003055D01*
X037766Y005419D02*
X034234Y005419D01*
X034195Y005380D02*
X034470Y005655D01*
X034470Y006045D01*
X034195Y006320D01*
X033805Y006320D01*
X033530Y006045D01*
X033530Y005655D01*
X033805Y005380D01*
X034195Y005380D01*
X034332Y005518D02*
X037668Y005518D01*
X037569Y005616D02*
X034431Y005616D01*
X034470Y005715D02*
X037530Y005715D01*
X037530Y005813D02*
X034470Y005813D01*
X034470Y005912D02*
X037530Y005912D01*
X037530Y006010D02*
X034470Y006010D01*
X034406Y006109D02*
X037594Y006109D01*
X037692Y006207D02*
X034308Y006207D01*
X034209Y006306D02*
X037791Y006306D01*
X037662Y008177D02*
X022447Y008177D01*
X022480Y008276D02*
X037761Y008276D01*
X037640Y009655D02*
X033063Y009655D01*
X032965Y009753D02*
X037738Y009753D01*
X038262Y009753D02*
X047785Y009753D01*
X047687Y009655D02*
X038360Y009655D01*
X038250Y010935D02*
X051797Y010935D01*
X051699Y011034D02*
X038348Y011034D01*
X038447Y011132D02*
X051600Y011132D01*
X051502Y011231D02*
X038470Y011231D01*
X038470Y011329D02*
X051403Y011329D01*
X051305Y011428D02*
X038470Y011428D01*
X038470Y011526D02*
X051206Y011526D01*
X051108Y011625D02*
X038390Y011625D01*
X038292Y011723D02*
X051009Y011723D01*
X050911Y011822D02*
X034782Y011822D01*
X034743Y011723D02*
X037708Y011723D01*
X037519Y012511D02*
X022452Y012511D01*
X022411Y012610D02*
X037472Y012610D01*
X037431Y012708D02*
X022317Y012708D01*
X022136Y012807D02*
X037420Y012807D01*
X037420Y012905D02*
X024720Y012905D01*
X024695Y012880D02*
X024970Y013155D01*
X024970Y013545D01*
X024695Y013820D01*
X024305Y013820D01*
X024030Y013545D01*
X024030Y013155D01*
X024305Y012880D01*
X024695Y012880D01*
X024818Y013004D02*
X037436Y013004D01*
X037477Y013102D02*
X024917Y013102D01*
X024970Y013201D02*
X031507Y013201D01*
X031605Y013160D02*
X031835Y013160D01*
X032049Y013248D01*
X032212Y013411D01*
X032300Y013625D01*
X032300Y013855D01*
X032212Y014069D01*
X032049Y014232D01*
X031835Y014320D01*
X031605Y014320D01*
X031391Y014232D01*
X031228Y014069D01*
X031140Y013855D01*
X031140Y013625D01*
X031228Y013411D01*
X031391Y013248D01*
X031605Y013160D01*
X031341Y013299D02*
X024970Y013299D01*
X024970Y013398D02*
X031242Y013398D01*
X031193Y013496D02*
X024970Y013496D01*
X024920Y013595D02*
X031152Y013595D01*
X031140Y013693D02*
X024822Y013693D01*
X024723Y013792D02*
X031140Y013792D01*
X031154Y013890D02*
X015510Y013890D01*
X015510Y013792D02*
X018328Y013792D01*
X018397Y013820D02*
X018224Y013748D01*
X018092Y013616D01*
X018020Y013443D01*
X018020Y013257D01*
X018092Y013084D01*
X018224Y012952D01*
X018397Y012880D01*
X019103Y012880D01*
X019276Y012952D01*
X019408Y013084D01*
X019480Y013257D01*
X019480Y013443D01*
X019408Y013616D01*
X019276Y013748D01*
X019103Y013820D01*
X018397Y013820D01*
X018168Y013693D02*
X015510Y013693D01*
X015510Y013595D02*
X018083Y013595D01*
X018042Y013496D02*
X015510Y013496D01*
X015510Y013398D02*
X018020Y013398D01*
X018020Y013299D02*
X015510Y013299D01*
X015468Y013201D02*
X018043Y013201D01*
X018084Y013102D02*
X015370Y013102D01*
X015271Y013004D02*
X018172Y013004D01*
X018336Y012905D02*
X015173Y012905D01*
X015074Y012807D02*
X018364Y012807D01*
X018397Y012820D02*
X018224Y012748D01*
X018092Y012616D01*
X018020Y012443D01*
X018020Y012257D01*
X018092Y012084D01*
X018224Y011952D01*
X018397Y011880D01*
X019103Y011880D01*
X019276Y011952D01*
X019408Y012084D01*
X019480Y012257D01*
X019480Y012443D01*
X019408Y012616D01*
X019276Y012748D01*
X019103Y012820D01*
X018397Y012820D01*
X018183Y012708D02*
X014976Y012708D01*
X014877Y012610D02*
X018089Y012610D01*
X018048Y012511D02*
X014779Y012511D01*
X014680Y012413D02*
X018020Y012413D01*
X018020Y012314D02*
X014582Y012314D01*
X014483Y012216D02*
X018037Y012216D01*
X018078Y012117D02*
X014385Y012117D01*
X014286Y012019D02*
X018157Y012019D01*
X018300Y011920D02*
X014188Y011920D01*
X013945Y012413D02*
X012362Y012413D01*
X012246Y012511D02*
X014043Y012511D01*
X014733Y013201D02*
X012408Y013201D01*
X012410Y013196D02*
X012390Y013257D01*
X012361Y013315D01*
X012323Y013367D01*
X012277Y013413D01*
X012225Y013451D01*
X012167Y013480D01*
X012106Y013500D01*
X012042Y013510D01*
X011780Y013510D01*
X011780Y013130D01*
X012420Y013130D01*
X012420Y013132D01*
X012410Y013196D01*
X012369Y013299D02*
X014831Y013299D01*
X014930Y013398D02*
X012292Y013398D01*
X012118Y013496D02*
X014990Y013496D01*
X015510Y013989D02*
X031195Y013989D01*
X031247Y014087D02*
X015510Y014087D01*
X015510Y014186D02*
X031345Y014186D01*
X031518Y014284D02*
X015510Y014284D01*
X015510Y014383D02*
X037770Y014383D01*
X037614Y014284D02*
X034482Y014284D01*
X034395Y014320D02*
X034609Y014232D01*
X034772Y014069D01*
X034860Y013855D01*
X034860Y013625D01*
X034772Y013411D01*
X034609Y013248D01*
X034395Y013160D01*
X034165Y013160D01*
X033951Y013248D01*
X033788Y013411D01*
X033700Y013625D01*
X033700Y013855D01*
X033788Y014069D01*
X033951Y014232D01*
X034165Y014320D01*
X034395Y014320D01*
X034655Y014186D02*
X037515Y014186D01*
X037470Y014087D02*
X034753Y014087D01*
X034805Y013989D02*
X037430Y013989D01*
X037420Y013890D02*
X034846Y013890D01*
X034860Y013792D02*
X037420Y013792D01*
X037437Y013693D02*
X034860Y013693D01*
X034848Y013595D02*
X037478Y013595D01*
X037534Y013496D02*
X034807Y013496D01*
X034758Y013398D02*
X037632Y013398D01*
X037629Y013299D02*
X034659Y013299D01*
X034493Y013201D02*
X037530Y013201D01*
X034776Y012117D02*
X050740Y012117D01*
X050752Y012019D02*
X034797Y012019D01*
X034330Y011920D02*
X050812Y011920D01*
X052093Y010640D02*
X022385Y010640D01*
X022373Y010049D02*
X031934Y010049D01*
X032032Y009950D02*
X022273Y009950D01*
X021264Y010935D02*
X019236Y010935D01*
X019358Y011034D02*
X021142Y011034D01*
X021072Y011132D02*
X019428Y011132D01*
X019469Y011231D02*
X021031Y011231D01*
X021020Y011329D02*
X019480Y011329D01*
X019480Y011428D02*
X021020Y011428D01*
X021054Y011526D02*
X019446Y011526D01*
X019400Y011625D02*
X021100Y011625D01*
X021198Y011723D02*
X019302Y011723D01*
X019200Y011920D02*
X021300Y011920D01*
X021157Y012019D02*
X019343Y012019D01*
X019422Y012117D02*
X021078Y012117D01*
X021037Y012216D02*
X019463Y012216D01*
X019480Y012314D02*
X021020Y012314D01*
X021020Y012413D02*
X019480Y012413D01*
X019452Y012511D02*
X021048Y012511D01*
X021089Y012610D02*
X019411Y012610D01*
X019317Y012708D02*
X021183Y012708D01*
X021364Y012807D02*
X019136Y012807D01*
X019164Y012905D02*
X024280Y012905D01*
X024182Y013004D02*
X023733Y013004D01*
X023670Y012940D02*
X023910Y013180D01*
X023910Y013320D01*
X023530Y013320D01*
X023530Y013380D01*
X023910Y013380D01*
X023910Y013520D01*
X023670Y013760D01*
X023530Y013760D01*
X023530Y013380D01*
X023470Y013380D01*
X023470Y013760D01*
X023330Y013760D01*
X023090Y013520D01*
X023090Y013380D01*
X023470Y013380D01*
X023470Y013320D01*
X023530Y013320D01*
X023530Y012940D01*
X023670Y012940D01*
X023530Y013004D02*
X023470Y013004D01*
X023470Y012940D02*
X023470Y013320D01*
X023090Y013320D01*
X023090Y013180D01*
X023330Y012940D01*
X023470Y012940D01*
X023470Y013102D02*
X023530Y013102D01*
X023530Y013201D02*
X023470Y013201D01*
X023470Y013299D02*
X023530Y013299D01*
X023530Y013398D02*
X023470Y013398D01*
X023470Y013496D02*
X023530Y013496D01*
X023530Y013595D02*
X023470Y013595D01*
X023470Y013693D02*
X023530Y013693D01*
X023737Y013693D02*
X024178Y013693D01*
X024080Y013595D02*
X023835Y013595D01*
X023910Y013496D02*
X024030Y013496D01*
X024030Y013398D02*
X023910Y013398D01*
X023910Y013299D02*
X024030Y013299D01*
X024030Y013201D02*
X023910Y013201D01*
X023832Y013102D02*
X024083Y013102D01*
X024277Y013792D02*
X019172Y013792D01*
X019332Y013693D02*
X021265Y013693D01*
X021275Y013701D02*
X021223Y013663D01*
X021177Y013617D01*
X021139Y013565D01*
X021110Y013507D01*
X021090Y013446D01*
X021080Y013382D01*
X021080Y013380D01*
X021720Y013380D01*
X021720Y013760D01*
X021458Y013760D01*
X021394Y013750D01*
X021333Y013730D01*
X021275Y013701D01*
X021161Y013595D02*
X019417Y013595D01*
X019458Y013496D02*
X021106Y013496D01*
X021082Y013398D02*
X019480Y013398D01*
X019480Y013299D02*
X021083Y013299D01*
X021080Y013318D02*
X021090Y013254D01*
X021110Y013193D01*
X021139Y013135D01*
X021177Y013083D01*
X021223Y013037D01*
X021275Y012999D01*
X021333Y012970D01*
X021394Y012950D01*
X021458Y012940D01*
X021720Y012940D01*
X021720Y013320D01*
X021780Y013320D01*
X021780Y013380D01*
X021720Y013380D01*
X021720Y013320D01*
X021080Y013320D01*
X021080Y013318D01*
X021107Y013201D02*
X019457Y013201D01*
X019416Y013102D02*
X021163Y013102D01*
X021269Y013004D02*
X019328Y013004D01*
X021720Y013004D02*
X021780Y013004D01*
X021780Y012940D02*
X022042Y012940D01*
X022106Y012950D01*
X022167Y012970D01*
X022225Y012999D01*
X022277Y013037D01*
X022323Y013083D01*
X022361Y013135D01*
X022390Y013193D01*
X022410Y013254D01*
X022420Y013318D01*
X022420Y013320D01*
X021780Y013320D01*
X021780Y012940D01*
X021780Y013102D02*
X021720Y013102D01*
X021720Y013201D02*
X021780Y013201D01*
X021780Y013299D02*
X021720Y013299D01*
X021720Y013398D02*
X021780Y013398D01*
X021780Y013380D02*
X021780Y013760D01*
X022042Y013760D01*
X022106Y013750D01*
X022167Y013730D01*
X022225Y013701D01*
X022277Y013663D01*
X022323Y013617D01*
X022361Y013565D01*
X022390Y013507D01*
X022410Y013446D01*
X022420Y013382D01*
X022420Y013380D01*
X021780Y013380D01*
X021780Y013496D02*
X021720Y013496D01*
X021720Y013595D02*
X021780Y013595D01*
X021780Y013693D02*
X021720Y013693D01*
X022235Y013693D02*
X023263Y013693D01*
X023165Y013595D02*
X022339Y013595D01*
X022394Y013496D02*
X023090Y013496D01*
X023090Y013398D02*
X022418Y013398D01*
X022417Y013299D02*
X023090Y013299D01*
X023090Y013201D02*
X022393Y013201D01*
X022337Y013102D02*
X023168Y013102D01*
X023267Y013004D02*
X022231Y013004D01*
X022302Y011723D02*
X031257Y011723D01*
X031218Y011822D02*
X012396Y011822D01*
X011202Y011723D02*
X009298Y011723D01*
X009396Y011822D02*
X011104Y011822D01*
X010562Y011920D02*
X009444Y011920D01*
X009480Y012019D02*
X010464Y012019D01*
X010365Y012117D02*
X009480Y012117D01*
X009471Y012216D02*
X010267Y012216D01*
X010168Y012314D02*
X009430Y012314D01*
X009362Y012413D02*
X010070Y012413D01*
X010005Y012511D02*
X009246Y012511D01*
X008119Y012807D02*
X004708Y012807D01*
X004610Y012905D02*
X008062Y012905D01*
X008021Y013004D02*
X004511Y013004D01*
X003989Y013004D02*
X002000Y013004D01*
X002000Y013102D02*
X008020Y013102D01*
X008023Y013201D02*
X002000Y013201D01*
X002000Y013299D02*
X008064Y013299D01*
X008123Y013398D02*
X002000Y013398D01*
X002000Y013496D02*
X008221Y013496D01*
X009638Y013595D02*
X002000Y013595D01*
X002000Y013693D02*
X003992Y013693D01*
X004055Y013630D02*
X004445Y013630D01*
X004720Y013905D01*
X004720Y014295D01*
X004445Y014570D01*
X004055Y014570D01*
X003780Y014295D01*
X003780Y013905D01*
X004055Y013630D01*
X003894Y013792D02*
X002000Y013792D01*
X002000Y013890D02*
X003795Y013890D01*
X003780Y013989D02*
X002000Y013989D01*
X002000Y014087D02*
X003780Y014087D01*
X003780Y014186D02*
X002000Y014186D01*
X002000Y014284D02*
X003780Y014284D01*
X003868Y014383D02*
X002000Y014383D01*
X002000Y014481D02*
X003966Y014481D01*
X004055Y014630D02*
X004445Y014630D01*
X004720Y014905D01*
X004720Y015295D01*
X004445Y015570D01*
X004055Y015570D01*
X003780Y015295D01*
X003780Y014905D01*
X004055Y014630D01*
X004007Y014678D02*
X002000Y014678D01*
X002000Y014580D02*
X008653Y014580D01*
X006757Y014678D02*
X004493Y014678D01*
X004591Y014777D02*
X006659Y014777D01*
X006560Y014875D02*
X004690Y014875D01*
X004720Y014974D02*
X006530Y014974D01*
X006530Y015072D02*
X004720Y015072D01*
X004720Y015171D02*
X006530Y015171D01*
X006530Y015269D02*
X004720Y015269D01*
X004647Y015368D02*
X006603Y015368D01*
X006701Y015466D02*
X004549Y015466D01*
X004450Y015565D02*
X006800Y015565D01*
X007569Y015663D02*
X002000Y015663D01*
X002000Y015565D02*
X004050Y015565D01*
X003951Y015466D02*
X002000Y015466D01*
X002000Y015368D02*
X003853Y015368D01*
X003780Y015269D02*
X002000Y015269D01*
X002000Y015171D02*
X003780Y015171D01*
X003780Y015072D02*
X002000Y015072D01*
X002000Y014974D02*
X003780Y014974D01*
X003810Y014875D02*
X002000Y014875D01*
X002000Y014777D02*
X003909Y014777D01*
X004534Y014481D02*
X006716Y014481D01*
X006618Y014383D02*
X004632Y014383D01*
X004720Y014284D02*
X006530Y014284D01*
X006530Y014186D02*
X004720Y014186D01*
X004720Y014087D02*
X006530Y014087D01*
X006530Y013989D02*
X004720Y013989D01*
X004705Y013890D02*
X006545Y013890D01*
X006644Y013792D02*
X004606Y013792D01*
X004508Y013693D02*
X006742Y013693D01*
X003890Y012905D02*
X002000Y012905D01*
X002000Y012807D02*
X003792Y012807D01*
X003780Y012708D02*
X002000Y012708D01*
X002000Y012610D02*
X003780Y012610D01*
X003780Y012511D02*
X002000Y012511D01*
X002000Y012413D02*
X003780Y012413D01*
X003871Y012314D02*
X002000Y012314D01*
X002000Y012216D02*
X003970Y012216D01*
X003920Y010935D02*
X002000Y010935D01*
X002000Y010837D02*
X003822Y010837D01*
X003780Y010738D02*
X002000Y010738D01*
X002000Y010640D02*
X003780Y010640D01*
X003780Y010541D02*
X002000Y010541D01*
X002000Y010443D02*
X003780Y010443D01*
X003841Y010344D02*
X002000Y010344D01*
X002000Y010246D02*
X003940Y010246D01*
X003882Y010147D02*
X002000Y010147D01*
X002000Y010049D02*
X003784Y010049D01*
X003780Y009950D02*
X002000Y009950D01*
X002000Y009852D02*
X003780Y009852D01*
X003780Y009753D02*
X002000Y009753D01*
X002000Y009655D02*
X003781Y009655D01*
X003879Y009556D02*
X002000Y009556D01*
X002000Y009458D02*
X003978Y009458D01*
X004080Y008260D02*
X003840Y008020D01*
X003840Y007880D01*
X004220Y007880D01*
X004220Y008260D01*
X004080Y008260D01*
X003997Y008177D02*
X002000Y008177D01*
X002000Y008079D02*
X003899Y008079D01*
X003840Y007980D02*
X002000Y007980D01*
X002000Y007882D02*
X003840Y007882D01*
X003840Y007820D02*
X003840Y007680D01*
X004080Y007440D01*
X004220Y007440D01*
X004220Y007820D01*
X003840Y007820D01*
X003840Y007783D02*
X002000Y007783D01*
X002000Y007685D02*
X003840Y007685D01*
X003934Y007586D02*
X002000Y007586D01*
X002000Y007488D02*
X004033Y007488D01*
X004220Y007488D02*
X004280Y007488D01*
X004280Y007440D02*
X004420Y007440D01*
X004660Y007680D01*
X004660Y007820D01*
X004280Y007820D01*
X004280Y007880D01*
X004220Y007880D01*
X004220Y007820D01*
X004280Y007820D01*
X004280Y007440D01*
X004280Y007586D02*
X004220Y007586D01*
X004220Y007685D02*
X004280Y007685D01*
X004280Y007783D02*
X004220Y007783D01*
X004220Y007882D02*
X004280Y007882D01*
X004280Y007880D02*
X004280Y008260D01*
X004420Y008260D01*
X004660Y008020D01*
X004660Y007880D01*
X004280Y007880D01*
X004280Y007980D02*
X004220Y007980D01*
X004220Y008079D02*
X004280Y008079D01*
X004280Y008177D02*
X004220Y008177D01*
X004503Y008177D02*
X018053Y008177D01*
X018020Y008276D02*
X002000Y008276D01*
X002000Y008374D02*
X018020Y008374D01*
X018032Y008473D02*
X002000Y008473D01*
X002000Y008571D02*
X018073Y008571D01*
X018145Y008670D02*
X002000Y008670D01*
X002000Y008768D02*
X018271Y008768D01*
X018097Y008079D02*
X004601Y008079D01*
X004660Y007980D02*
X018195Y007980D01*
X018393Y007882D02*
X004660Y007882D01*
X004660Y007783D02*
X018307Y007783D01*
X018160Y007685D02*
X004660Y007685D01*
X004566Y007586D02*
X018079Y007586D01*
X018038Y007488D02*
X004467Y007488D01*
X002000Y007389D02*
X018020Y007389D01*
X018020Y007291D02*
X002000Y007291D01*
X002000Y007192D02*
X018047Y007192D01*
X018088Y007094D02*
X002000Y007094D01*
X002000Y006995D02*
X018180Y006995D01*
X018357Y006897D02*
X002000Y006897D01*
X012328Y009753D02*
X018235Y009753D01*
X022305Y007980D02*
X032512Y007980D01*
X032530Y007997D02*
X032530Y007997D01*
X032622Y008079D02*
X022403Y008079D01*
X022107Y007882D02*
X032414Y007882D01*
X032315Y007783D02*
X022193Y007783D01*
X022340Y007685D02*
X032217Y007685D01*
X032209Y006306D02*
X033791Y006306D01*
X033692Y006207D02*
X032308Y006207D01*
X032406Y006109D02*
X033594Y006109D01*
X033530Y006010D02*
X032470Y006010D01*
X032470Y005912D02*
X033530Y005912D01*
X033530Y005813D02*
X032470Y005813D01*
X032470Y005715D02*
X033530Y005715D01*
X033569Y005616D02*
X032431Y005616D01*
X032332Y005518D02*
X033668Y005518D01*
X033766Y005419D02*
X032234Y005419D01*
X032866Y009852D02*
X047884Y009852D01*
X047982Y009950D02*
X032768Y009950D01*
X032669Y010049D02*
X048081Y010049D01*
X048324Y009556D02*
X052176Y009556D01*
X052275Y009458D02*
X048225Y009458D01*
X048127Y009359D02*
X052373Y009359D01*
X052472Y009261D02*
X048028Y009261D01*
X047930Y009162D02*
X052570Y009162D01*
X053010Y009458D02*
X053240Y009458D01*
X053240Y009359D02*
X053109Y009359D01*
X053207Y009261D02*
X053240Y009261D01*
X053176Y009556D02*
X052912Y009556D01*
X052813Y009655D02*
X053078Y009655D01*
X052979Y009753D02*
X052715Y009753D01*
X052616Y009852D02*
X052881Y009852D01*
X052782Y009950D02*
X052518Y009950D01*
X052419Y010049D02*
X052684Y010049D01*
X052585Y010147D02*
X032571Y010147D01*
X032472Y010246D02*
X052487Y010246D01*
X052388Y010344D02*
X032374Y010344D01*
X032275Y010443D02*
X052290Y010443D01*
X052191Y010541D02*
X032177Y010541D01*
X031321Y011625D02*
X022400Y011625D01*
X031977Y012413D02*
X034023Y012413D01*
X034230Y011822D02*
X034330Y011822D01*
X034330Y011723D02*
X034230Y011723D01*
X034230Y011625D02*
X034330Y011625D01*
X034330Y011526D02*
X034230Y011526D01*
X034067Y013201D02*
X031933Y013201D01*
X032099Y013299D02*
X033901Y013299D01*
X033802Y013398D02*
X032198Y013398D01*
X032247Y013496D02*
X033753Y013496D01*
X033712Y013595D02*
X032288Y013595D01*
X032300Y013693D02*
X033700Y013693D01*
X033700Y013792D02*
X032300Y013792D01*
X032286Y013890D02*
X033714Y013890D01*
X033755Y013989D02*
X032245Y013989D01*
X032193Y014087D02*
X033807Y014087D01*
X033905Y014186D02*
X032095Y014186D01*
X031922Y014284D02*
X034078Y014284D01*
X051697Y014383D02*
X052303Y014383D01*
X052305Y014380D02*
X052695Y014380D01*
X052970Y014655D01*
X052970Y015045D01*
X052695Y015320D01*
X052305Y015320D01*
X052030Y015045D01*
X052030Y014655D01*
X052305Y014380D01*
X052204Y014481D02*
X051796Y014481D01*
X051894Y014580D02*
X052106Y014580D01*
X052030Y014678D02*
X051970Y014678D01*
X051970Y014777D02*
X052030Y014777D01*
X052030Y014875D02*
X051970Y014875D01*
X051970Y014974D02*
X052030Y014974D01*
X052057Y015072D02*
X051943Y015072D01*
X051844Y015171D02*
X052156Y015171D01*
X052254Y015269D02*
X051746Y015269D01*
X052746Y015269D02*
X054000Y015269D01*
X054000Y015171D02*
X052844Y015171D01*
X052943Y015072D02*
X054000Y015072D01*
X054000Y014974D02*
X052970Y014974D01*
X052970Y014875D02*
X054000Y014875D01*
X054000Y014777D02*
X052970Y014777D01*
X052970Y014678D02*
X054000Y014678D01*
X054000Y014580D02*
X052894Y014580D01*
X052796Y014481D02*
X054000Y014481D01*
X054000Y014383D02*
X052697Y014383D01*
X033682Y023839D02*
X032403Y023839D01*
X032470Y023937D02*
X033590Y023937D01*
X033590Y024036D02*
X032470Y024036D01*
X032470Y024134D02*
X033590Y024134D01*
X033590Y024233D02*
X032470Y024233D01*
X032434Y024331D02*
X033651Y024331D01*
X011780Y013496D02*
X011720Y013496D01*
X011720Y013398D02*
X011780Y013398D01*
X011780Y013299D02*
X011720Y013299D01*
X011720Y013201D02*
X011780Y013201D01*
X011780Y013004D02*
X011720Y013004D01*
X011720Y012905D02*
X011780Y012905D01*
X011780Y012807D02*
X011720Y012807D01*
X011720Y012708D02*
X011780Y012708D01*
X011254Y012511D02*
X010707Y012511D01*
X010805Y012413D02*
X011138Y012413D01*
X010250Y013350D02*
X006750Y016850D01*
X006000Y016850D01*
X006364Y016550D02*
X006683Y016550D01*
X006781Y016451D02*
X006266Y016451D01*
X008799Y017436D02*
X002000Y017436D01*
X002000Y017338D02*
X008840Y017338D01*
X008770Y017535D02*
X002000Y017535D01*
X002000Y017633D02*
X008770Y017633D01*
X008786Y017732D02*
X002000Y017732D01*
X002000Y017830D02*
X008827Y017830D01*
X008904Y017929D02*
X002000Y017929D01*
X002000Y018027D02*
X009043Y018027D01*
M02*
