%
M48
M72
T01C0.0320
T02C0.0400
T03C0.1180
%
T01
X4250Y7850
X4250Y9850
X4250Y10600
X4250Y12600
X4250Y14100
X4250Y15100
X7000Y15100
X7000Y14100
X8750Y13100
X8750Y12100
X8750Y11100
X8750Y10100
X11750Y10100
X11750Y11100
X11750Y12100
X11750Y13100
X12500Y16600
X12500Y17600
X12500Y18600
X12500Y19600
X12500Y20600
X12500Y21600
X12500Y22600
X14250Y22600
X15250Y22600
X18750Y22600
X18750Y21600
X18750Y20600
X18750Y19600
X18750Y18600
X18750Y17600
X18750Y16600
X21750Y16600
X21750Y17600
X21750Y18600
X21750Y19600
X21750Y20600
X21750Y21600
X21750Y22600
X23500Y22600
X24500Y22600
X32000Y24100
X34000Y24100
X38250Y22850
X39250Y22850
X34000Y15350
X32000Y15350
X38000Y13850
X38000Y12850
X38000Y11350
X38000Y9350
X38000Y7850
X38000Y5850
X38000Y4350
X38000Y3350
X34000Y5850
X32000Y5850
X21750Y7350
X21750Y8350
X21750Y9350
X21750Y10350
X21750Y11350
X21750Y12350
X21750Y13350
X23500Y13350
X24500Y13350
X18750Y13350
X18750Y12350
X18750Y11350
X18750Y10350
X18750Y9350
X18750Y8350
X18750Y7350
X9500Y16600
X9500Y17600
X9500Y18600
X9500Y19600
X9500Y20600
X9500Y21600
X9500Y22600
X6000Y21350
X5000Y21350
X6000Y18850
X6000Y16850
X48250Y2600
X49250Y2600
X51000Y12850
X53000Y12850
X52500Y14850
X51500Y14850
T02
X51000Y8600
X52000Y8600
X52000Y7600
X51000Y7600
X51000Y6600
X52000Y6600
X52000Y5600
X51000Y5600
X51000Y4600
X52000Y4600
X34280Y4240
X31720Y4240
X31720Y2460
X34280Y2460
X34280Y11960
X31720Y11960
X31720Y13740
X34280Y13740
X34280Y20710
X31720Y20710
X31720Y22490
X34280Y22490
X42000Y22350
X43000Y22350
X44000Y22350
X45000Y22350
X46000Y22350
X46000Y23350
X45000Y23350
X44000Y23350
X43000Y23350
X42000Y23350
T03
X4713Y2000
X5894Y3850
X3531Y3850
M30
