G75*
%MOIN*%
%OFA0B0*%
%FSLAX24Y24*%
%IPPOS*%
%LPD*%
%AMOC8*
5,1,8,0,0,1.08239X$1,22.5*
%
%ADD10C,0.0060*%
%ADD11R,0.0200X0.0200*%
%ADD12C,0.0050*%
%ADD13C,0.0080*%
%ADD14C,0.0200*%
%ADD15R,0.0100X0.0200*%
%ADD16R,0.0200X0.0100*%
%ADD17C,0.0100*%
%ADD18R,0.0200X0.1000*%
%ADD19C,0.0010*%
%ADD20C,0.0006*%
D10*
X004000Y008150D02*
X004500Y008150D01*
X004517Y008152D01*
X004534Y008156D01*
X004550Y008163D01*
X004564Y008173D01*
X004577Y008186D01*
X004587Y008200D01*
X004594Y008216D01*
X004598Y008233D01*
X004600Y008250D01*
X004600Y008350D01*
X004550Y008400D01*
X004550Y009300D01*
X004600Y009350D01*
X004600Y009450D01*
X004598Y009467D01*
X004594Y009484D01*
X004587Y009500D01*
X004577Y009514D01*
X004564Y009527D01*
X004550Y009537D01*
X004534Y009544D01*
X004517Y009548D01*
X004500Y009550D01*
X004000Y009550D01*
X003983Y009548D01*
X003966Y009544D01*
X003950Y009537D01*
X003936Y009527D01*
X003923Y009514D01*
X003913Y009500D01*
X003906Y009484D01*
X003902Y009467D01*
X003900Y009450D01*
X003900Y009350D01*
X003950Y009300D01*
X003950Y008400D01*
X003900Y008350D01*
X003900Y008250D01*
X003902Y008233D01*
X003906Y008216D01*
X003913Y008200D01*
X003923Y008186D01*
X003936Y008173D01*
X003950Y008163D01*
X003966Y008156D01*
X003983Y008152D01*
X004000Y008150D01*
X009100Y009600D02*
X009850Y009600D01*
X009852Y009639D01*
X009858Y009678D01*
X009867Y009716D01*
X009880Y009753D01*
X009897Y009789D01*
X009917Y009822D01*
X009941Y009854D01*
X009967Y009883D01*
X009996Y009909D01*
X010028Y009933D01*
X010061Y009953D01*
X010097Y009970D01*
X010134Y009983D01*
X010172Y009992D01*
X010211Y009998D01*
X010250Y010000D01*
X010289Y009998D01*
X010328Y009992D01*
X010366Y009983D01*
X010403Y009970D01*
X010439Y009953D01*
X010472Y009933D01*
X010504Y009909D01*
X010533Y009883D01*
X010559Y009854D01*
X010583Y009822D01*
X010603Y009789D01*
X010620Y009753D01*
X010633Y009716D01*
X010642Y009678D01*
X010648Y009639D01*
X010650Y009600D01*
X011400Y009600D01*
X011400Y013600D01*
X009100Y013600D01*
X009100Y009600D01*
X004600Y011000D02*
X004600Y011100D01*
X004550Y011150D01*
X004550Y012050D01*
X004600Y012100D01*
X004600Y012200D01*
X004598Y012217D01*
X004594Y012234D01*
X004587Y012250D01*
X004577Y012264D01*
X004564Y012277D01*
X004550Y012287D01*
X004534Y012294D01*
X004517Y012298D01*
X004500Y012300D01*
X004000Y012300D01*
X003983Y012298D01*
X003966Y012294D01*
X003950Y012287D01*
X003936Y012277D01*
X003923Y012264D01*
X003913Y012250D01*
X003906Y012234D01*
X003902Y012217D01*
X003900Y012200D01*
X003900Y012100D01*
X003950Y012050D01*
X003950Y011150D01*
X003900Y011100D01*
X003900Y011000D01*
X003902Y010983D01*
X003906Y010966D01*
X003913Y010950D01*
X003923Y010936D01*
X003936Y010923D01*
X003950Y010913D01*
X003966Y010906D01*
X003983Y010902D01*
X004000Y010900D01*
X004500Y010900D01*
X004517Y010902D01*
X004534Y010906D01*
X004550Y010913D01*
X004564Y010923D01*
X004577Y010936D01*
X004587Y010950D01*
X004594Y010966D01*
X004598Y010983D01*
X004600Y011000D01*
X004900Y013650D02*
X003600Y013650D01*
X003583Y013652D01*
X003566Y013656D01*
X003550Y013663D01*
X003536Y013673D01*
X003523Y013686D01*
X003513Y013700D01*
X003506Y013716D01*
X003502Y013733D01*
X003500Y013750D01*
X003500Y015450D01*
X003502Y015467D01*
X003506Y015484D01*
X003513Y015500D01*
X003523Y015514D01*
X003536Y015527D01*
X003550Y015537D01*
X003566Y015544D01*
X003583Y015548D01*
X003600Y015550D01*
X004900Y015550D01*
X004917Y015548D01*
X004934Y015544D01*
X004950Y015537D01*
X004964Y015527D01*
X004977Y015514D01*
X004987Y015500D01*
X004994Y015484D01*
X004998Y015467D01*
X005000Y015450D01*
X005000Y013750D01*
X004998Y013733D01*
X004994Y013716D01*
X004987Y013700D01*
X004977Y013686D01*
X004964Y013673D01*
X004950Y013663D01*
X004934Y013656D01*
X004917Y013652D01*
X004900Y013650D01*
X004250Y014300D02*
X004250Y014450D01*
X004250Y014500D01*
X004250Y014700D02*
X004250Y014750D01*
X004250Y014900D01*
X006500Y015450D02*
X006500Y013750D01*
X006502Y013733D01*
X006506Y013716D01*
X006513Y013700D01*
X006523Y013686D01*
X006536Y013673D01*
X006550Y013663D01*
X006566Y013656D01*
X006583Y013652D01*
X006600Y013650D01*
X007400Y013650D01*
X007417Y013652D01*
X007434Y013656D01*
X007450Y013663D01*
X007464Y013673D01*
X007477Y013686D01*
X007487Y013700D01*
X007494Y013716D01*
X007498Y013733D01*
X007500Y013750D01*
X007500Y015450D01*
X007498Y015467D01*
X007494Y015484D01*
X007487Y015500D01*
X007477Y015514D01*
X007464Y015527D01*
X007450Y015537D01*
X007434Y015544D01*
X007417Y015548D01*
X007400Y015550D01*
X006600Y015550D01*
X006583Y015548D01*
X006566Y015544D01*
X006550Y015537D01*
X006536Y015527D01*
X006523Y015514D01*
X006513Y015500D01*
X006506Y015484D01*
X006502Y015467D01*
X006500Y015450D01*
X007000Y014900D02*
X007000Y014750D01*
X007000Y014700D01*
X007000Y014500D02*
X007000Y014450D01*
X007000Y014300D01*
X009850Y016100D02*
X012150Y016100D01*
X012150Y023100D01*
X011400Y023100D01*
X011398Y023061D01*
X011392Y023022D01*
X011383Y022984D01*
X011370Y022947D01*
X011353Y022911D01*
X011333Y022878D01*
X011309Y022846D01*
X011283Y022817D01*
X011254Y022791D01*
X011222Y022767D01*
X011189Y022747D01*
X011153Y022730D01*
X011116Y022717D01*
X011078Y022708D01*
X011039Y022702D01*
X011000Y022700D01*
X010961Y022702D01*
X010922Y022708D01*
X010884Y022717D01*
X010847Y022730D01*
X010811Y022747D01*
X010778Y022767D01*
X010746Y022791D01*
X010717Y022817D01*
X010691Y022846D01*
X010667Y022878D01*
X010647Y022911D01*
X010630Y022947D01*
X010617Y022984D01*
X010608Y023022D01*
X010602Y023061D01*
X010600Y023100D01*
X009850Y023100D01*
X009850Y016100D01*
X006350Y017250D02*
X006350Y017350D01*
X006300Y017400D01*
X006300Y018300D01*
X006350Y018350D01*
X006350Y018450D01*
X006348Y018467D01*
X006344Y018484D01*
X006337Y018500D01*
X006327Y018514D01*
X006314Y018527D01*
X006300Y018537D01*
X006284Y018544D01*
X006267Y018548D01*
X006250Y018550D01*
X005750Y018550D01*
X005733Y018548D01*
X005716Y018544D01*
X005700Y018537D01*
X005686Y018527D01*
X005673Y018514D01*
X005663Y018500D01*
X005656Y018484D01*
X005652Y018467D01*
X005650Y018450D01*
X005650Y018350D01*
X005700Y018300D01*
X005700Y017400D01*
X005650Y017350D01*
X005650Y017250D01*
X005652Y017233D01*
X005656Y017216D01*
X005663Y017200D01*
X005673Y017186D01*
X005686Y017173D01*
X005700Y017163D01*
X005716Y017156D01*
X005733Y017152D01*
X005750Y017150D01*
X006250Y017150D01*
X006267Y017152D01*
X006284Y017156D01*
X006300Y017163D01*
X006314Y017173D01*
X006327Y017186D01*
X006337Y017200D01*
X006344Y017216D01*
X006348Y017233D01*
X006350Y017250D01*
X004500Y021350D02*
X004502Y021413D01*
X004508Y021475D01*
X004518Y021537D01*
X004531Y021599D01*
X004549Y021659D01*
X004570Y021718D01*
X004595Y021776D01*
X004624Y021832D01*
X004656Y021886D01*
X004691Y021938D01*
X004729Y021987D01*
X004771Y022035D01*
X004815Y022079D01*
X004863Y022121D01*
X004912Y022159D01*
X004964Y022194D01*
X005018Y022226D01*
X005074Y022255D01*
X005132Y022280D01*
X005191Y022301D01*
X005251Y022319D01*
X005313Y022332D01*
X005375Y022342D01*
X005437Y022348D01*
X005500Y022350D01*
X005563Y022348D01*
X005625Y022342D01*
X005687Y022332D01*
X005749Y022319D01*
X005809Y022301D01*
X005868Y022280D01*
X005926Y022255D01*
X005982Y022226D01*
X006036Y022194D01*
X006088Y022159D01*
X006137Y022121D01*
X006185Y022079D01*
X006229Y022035D01*
X006271Y021987D01*
X006309Y021938D01*
X006344Y021886D01*
X006376Y021832D01*
X006405Y021776D01*
X006430Y021718D01*
X006451Y021659D01*
X006469Y021599D01*
X006482Y021537D01*
X006492Y021475D01*
X006498Y021413D01*
X006500Y021350D01*
X006498Y021287D01*
X006492Y021225D01*
X006482Y021163D01*
X006469Y021101D01*
X006451Y021041D01*
X006430Y020982D01*
X006405Y020924D01*
X006376Y020868D01*
X006344Y020814D01*
X006309Y020762D01*
X006271Y020713D01*
X006229Y020665D01*
X006185Y020621D01*
X006137Y020579D01*
X006088Y020541D01*
X006036Y020506D01*
X005982Y020474D01*
X005926Y020445D01*
X005868Y020420D01*
X005809Y020399D01*
X005749Y020381D01*
X005687Y020368D01*
X005625Y020358D01*
X005563Y020352D01*
X005500Y020350D01*
X005437Y020352D01*
X005375Y020358D01*
X005313Y020368D01*
X005251Y020381D01*
X005191Y020399D01*
X005132Y020420D01*
X005074Y020445D01*
X005018Y020474D01*
X004964Y020506D01*
X004912Y020541D01*
X004863Y020579D01*
X004815Y020621D01*
X004771Y020665D01*
X004729Y020713D01*
X004691Y020762D01*
X004656Y020814D01*
X004624Y020868D01*
X004595Y020924D01*
X004570Y020982D01*
X004549Y021041D01*
X004531Y021101D01*
X004518Y021163D01*
X004508Y021225D01*
X004502Y021287D01*
X004500Y021350D01*
X013800Y022200D02*
X013800Y023000D01*
X013802Y023017D01*
X013806Y023034D01*
X013813Y023050D01*
X013823Y023064D01*
X013836Y023077D01*
X013850Y023087D01*
X013866Y023094D01*
X013883Y023098D01*
X013900Y023100D01*
X015600Y023100D01*
X015617Y023098D01*
X015634Y023094D01*
X015650Y023087D01*
X015664Y023077D01*
X015677Y023064D01*
X015687Y023050D01*
X015694Y023034D01*
X015698Y023017D01*
X015700Y023000D01*
X015700Y022200D01*
X015698Y022183D01*
X015694Y022166D01*
X015687Y022150D01*
X015677Y022136D01*
X015664Y022123D01*
X015650Y022113D01*
X015634Y022106D01*
X015617Y022102D01*
X015600Y022100D01*
X013900Y022100D01*
X013883Y022102D01*
X013866Y022106D01*
X013850Y022113D01*
X013836Y022123D01*
X013823Y022136D01*
X013813Y022150D01*
X013806Y022166D01*
X013802Y022183D01*
X013800Y022200D01*
X014450Y022600D02*
X014600Y022600D01*
X014650Y022600D01*
X014850Y022600D02*
X014900Y022600D01*
X015050Y022600D01*
X019100Y023100D02*
X021400Y023100D01*
X021400Y016100D01*
X020650Y016100D01*
X020648Y016139D01*
X020642Y016178D01*
X020633Y016216D01*
X020620Y016253D01*
X020603Y016289D01*
X020583Y016322D01*
X020559Y016354D01*
X020533Y016383D01*
X020504Y016409D01*
X020472Y016433D01*
X020439Y016453D01*
X020403Y016470D01*
X020366Y016483D01*
X020328Y016492D01*
X020289Y016498D01*
X020250Y016500D01*
X020211Y016498D01*
X020172Y016492D01*
X020134Y016483D01*
X020097Y016470D01*
X020061Y016453D01*
X020028Y016433D01*
X019996Y016409D01*
X019967Y016383D01*
X019941Y016354D01*
X019917Y016322D01*
X019897Y016289D01*
X019880Y016253D01*
X019867Y016216D01*
X019858Y016178D01*
X019852Y016139D01*
X019850Y016100D01*
X019100Y016100D01*
X019100Y023100D01*
X023050Y023000D02*
X023050Y022200D01*
X023052Y022183D01*
X023056Y022166D01*
X023063Y022150D01*
X023073Y022136D01*
X023086Y022123D01*
X023100Y022113D01*
X023116Y022106D01*
X023133Y022102D01*
X023150Y022100D01*
X024850Y022100D01*
X024867Y022102D01*
X024884Y022106D01*
X024900Y022113D01*
X024914Y022123D01*
X024927Y022136D01*
X024937Y022150D01*
X024944Y022166D01*
X024948Y022183D01*
X024950Y022200D01*
X024950Y023000D01*
X024948Y023017D01*
X024944Y023034D01*
X024937Y023050D01*
X024927Y023064D01*
X024914Y023077D01*
X024900Y023087D01*
X024884Y023094D01*
X024867Y023098D01*
X024850Y023100D01*
X023150Y023100D01*
X023133Y023098D01*
X023116Y023094D01*
X023100Y023087D01*
X023086Y023077D01*
X023073Y023064D01*
X023063Y023050D01*
X023056Y023034D01*
X023052Y023017D01*
X023050Y023000D01*
X023700Y022600D02*
X023850Y022600D01*
X023900Y022600D01*
X024100Y022600D02*
X024150Y022600D01*
X024300Y022600D01*
X032300Y023850D02*
X032300Y024350D01*
X032302Y024367D01*
X032306Y024384D01*
X032313Y024400D01*
X032323Y024414D01*
X032336Y024427D01*
X032350Y024437D01*
X032366Y024444D01*
X032383Y024448D01*
X032400Y024450D01*
X032500Y024450D01*
X032550Y024400D01*
X033450Y024400D01*
X033500Y024450D01*
X033600Y024450D01*
X033617Y024448D01*
X033634Y024444D01*
X033650Y024437D01*
X033664Y024427D01*
X033677Y024414D01*
X033687Y024400D01*
X033694Y024384D01*
X033698Y024367D01*
X033700Y024350D01*
X033700Y023850D01*
X033698Y023833D01*
X033694Y023816D01*
X033687Y023800D01*
X033677Y023786D01*
X033664Y023773D01*
X033650Y023763D01*
X033634Y023756D01*
X033617Y023752D01*
X033600Y023750D01*
X033500Y023750D01*
X033450Y023800D01*
X032550Y023800D01*
X032500Y023750D01*
X032400Y023750D01*
X032383Y023752D01*
X032366Y023756D01*
X032350Y023763D01*
X032336Y023773D01*
X032323Y023786D01*
X032313Y023800D01*
X032306Y023816D01*
X032302Y023833D01*
X032300Y023850D01*
X038100Y022850D02*
X038500Y022850D01*
X037750Y022850D02*
X037752Y022913D01*
X037758Y022975D01*
X037768Y023037D01*
X037781Y023099D01*
X037799Y023159D01*
X037820Y023218D01*
X037845Y023276D01*
X037874Y023332D01*
X037906Y023386D01*
X037941Y023438D01*
X037979Y023487D01*
X038021Y023535D01*
X038065Y023579D01*
X038113Y023621D01*
X038162Y023659D01*
X038214Y023694D01*
X038268Y023726D01*
X038324Y023755D01*
X038382Y023780D01*
X038441Y023801D01*
X038501Y023819D01*
X038563Y023832D01*
X038625Y023842D01*
X038687Y023848D01*
X038750Y023850D01*
X038813Y023848D01*
X038875Y023842D01*
X038937Y023832D01*
X038999Y023819D01*
X039059Y023801D01*
X039118Y023780D01*
X039176Y023755D01*
X039232Y023726D01*
X039286Y023694D01*
X039338Y023659D01*
X039387Y023621D01*
X039435Y023579D01*
X039479Y023535D01*
X039521Y023487D01*
X039559Y023438D01*
X039594Y023386D01*
X039626Y023332D01*
X039655Y023276D01*
X039680Y023218D01*
X039701Y023159D01*
X039719Y023099D01*
X039732Y023037D01*
X039742Y022975D01*
X039748Y022913D01*
X039750Y022850D01*
X039748Y022787D01*
X039742Y022725D01*
X039732Y022663D01*
X039719Y022601D01*
X039701Y022541D01*
X039680Y022482D01*
X039655Y022424D01*
X039626Y022368D01*
X039594Y022314D01*
X039559Y022262D01*
X039521Y022213D01*
X039479Y022165D01*
X039435Y022121D01*
X039387Y022079D01*
X039338Y022041D01*
X039286Y022006D01*
X039232Y021974D01*
X039176Y021945D01*
X039118Y021920D01*
X039059Y021899D01*
X038999Y021881D01*
X038937Y021868D01*
X038875Y021858D01*
X038813Y021852D01*
X038750Y021850D01*
X038687Y021852D01*
X038625Y021858D01*
X038563Y021868D01*
X038501Y021881D01*
X038441Y021899D01*
X038382Y021920D01*
X038324Y021945D01*
X038268Y021974D01*
X038214Y022006D01*
X038162Y022041D01*
X038113Y022079D01*
X038065Y022121D01*
X038021Y022165D01*
X037979Y022213D01*
X037941Y022262D01*
X037906Y022314D01*
X037874Y022368D01*
X037845Y022424D01*
X037820Y022482D01*
X037799Y022541D01*
X037781Y022601D01*
X037768Y022663D01*
X037758Y022725D01*
X037752Y022787D01*
X037750Y022850D01*
X038850Y022350D02*
X039050Y022350D01*
X039050Y022850D01*
X039050Y023350D01*
X038850Y023350D01*
X038850Y022350D01*
X039200Y022350D02*
X039300Y022350D01*
X039300Y022250D01*
X039300Y022350D02*
X039300Y022450D01*
X039300Y022350D02*
X039400Y022350D01*
X039400Y022850D02*
X039050Y022850D01*
X041500Y022100D02*
X041750Y021850D01*
X042250Y021850D01*
X042500Y022100D01*
X042500Y023600D01*
X042750Y023850D01*
X043250Y023850D01*
X043500Y023600D01*
X043500Y022100D01*
X043750Y021850D01*
X044250Y021850D01*
X044500Y022100D01*
X044500Y023600D01*
X044750Y023850D01*
X045250Y023850D01*
X045500Y023600D01*
X045750Y023850D01*
X046250Y023850D01*
X046500Y023600D01*
X046500Y022100D01*
X046250Y021850D01*
X045750Y021850D01*
X045500Y022100D01*
X045500Y023600D01*
X044500Y023600D02*
X044250Y023850D01*
X043750Y023850D01*
X043500Y023600D01*
X042500Y023600D02*
X042250Y023850D01*
X041750Y023850D01*
X041500Y023600D01*
X041500Y022100D01*
X042500Y022100D02*
X042750Y021850D01*
X043250Y021850D01*
X043500Y022100D01*
X044500Y022100D02*
X044750Y021850D01*
X045250Y021850D01*
X045500Y022100D01*
X051150Y015600D02*
X052850Y015600D01*
X052867Y015598D01*
X052884Y015594D01*
X052900Y015587D01*
X052914Y015577D01*
X052927Y015564D01*
X052937Y015550D01*
X052944Y015534D01*
X052948Y015517D01*
X052950Y015500D01*
X052950Y014200D01*
X052948Y014183D01*
X052944Y014166D01*
X052937Y014150D01*
X052927Y014136D01*
X052914Y014123D01*
X052900Y014113D01*
X052884Y014106D01*
X052867Y014102D01*
X052850Y014100D01*
X051150Y014100D01*
X051133Y014102D01*
X051116Y014106D01*
X051100Y014113D01*
X051086Y014123D01*
X051073Y014136D01*
X051063Y014150D01*
X051056Y014166D01*
X051052Y014183D01*
X051050Y014200D01*
X051050Y015500D01*
X051052Y015517D01*
X051056Y015534D01*
X051063Y015550D01*
X051073Y015564D01*
X051086Y015577D01*
X051100Y015587D01*
X051116Y015594D01*
X051133Y015598D01*
X051150Y015600D01*
X051700Y014850D02*
X051850Y014850D01*
X051900Y014850D01*
X052100Y014850D02*
X052150Y014850D01*
X052300Y014850D01*
X052500Y013200D02*
X052450Y013150D01*
X051550Y013150D01*
X051500Y013200D01*
X051400Y013200D01*
X051383Y013198D01*
X051366Y013194D01*
X051350Y013187D01*
X051336Y013177D01*
X051323Y013164D01*
X051313Y013150D01*
X051306Y013134D01*
X051302Y013117D01*
X051300Y013100D01*
X051300Y012600D01*
X051302Y012583D01*
X051306Y012566D01*
X051313Y012550D01*
X051323Y012536D01*
X051336Y012523D01*
X051350Y012513D01*
X051366Y012506D01*
X051383Y012502D01*
X051400Y012500D01*
X051500Y012500D01*
X051550Y012550D01*
X052450Y012550D01*
X052500Y012500D01*
X052600Y012500D01*
X052617Y012502D01*
X052634Y012506D01*
X052650Y012513D01*
X052664Y012523D01*
X052677Y012536D01*
X052687Y012550D01*
X052694Y012566D01*
X052698Y012583D01*
X052700Y012600D01*
X052700Y013100D01*
X052698Y013117D01*
X052694Y013134D01*
X052687Y013150D01*
X052677Y013164D01*
X052664Y013177D01*
X052650Y013187D01*
X052634Y013194D01*
X052617Y013198D01*
X052600Y013200D01*
X052500Y013200D01*
X052250Y009100D02*
X050750Y009100D01*
X050500Y008850D01*
X050500Y008350D01*
X050750Y008100D01*
X052250Y008100D01*
X052500Y008350D01*
X052500Y008850D01*
X052250Y009100D01*
X052250Y008100D02*
X052500Y007850D01*
X052500Y007350D01*
X052250Y007100D01*
X050750Y007100D01*
X050500Y007350D01*
X050500Y007850D01*
X050750Y008100D01*
X050750Y007100D02*
X050500Y006850D01*
X050500Y006350D01*
X050750Y006100D01*
X052250Y006100D01*
X052500Y006350D01*
X052500Y006850D01*
X052250Y007100D01*
X052250Y006100D02*
X052500Y005850D01*
X052500Y005350D01*
X052250Y005100D01*
X050750Y005100D01*
X050500Y005350D01*
X050500Y005850D01*
X050750Y006100D01*
X050750Y005100D02*
X050500Y004850D01*
X050500Y004350D01*
X050750Y004100D01*
X052250Y004100D01*
X052500Y004350D01*
X052500Y004850D01*
X052250Y005100D01*
X049050Y003100D02*
X048850Y003100D01*
X048850Y002100D01*
X049050Y002100D01*
X049050Y002600D01*
X049050Y003100D01*
X049050Y002600D02*
X049400Y002600D01*
X047750Y002600D02*
X047752Y002663D01*
X047758Y002725D01*
X047768Y002787D01*
X047781Y002849D01*
X047799Y002909D01*
X047820Y002968D01*
X047845Y003026D01*
X047874Y003082D01*
X047906Y003136D01*
X047941Y003188D01*
X047979Y003237D01*
X048021Y003285D01*
X048065Y003329D01*
X048113Y003371D01*
X048162Y003409D01*
X048214Y003444D01*
X048268Y003476D01*
X048324Y003505D01*
X048382Y003530D01*
X048441Y003551D01*
X048501Y003569D01*
X048563Y003582D01*
X048625Y003592D01*
X048687Y003598D01*
X048750Y003600D01*
X048813Y003598D01*
X048875Y003592D01*
X048937Y003582D01*
X048999Y003569D01*
X049059Y003551D01*
X049118Y003530D01*
X049176Y003505D01*
X049232Y003476D01*
X049286Y003444D01*
X049338Y003409D01*
X049387Y003371D01*
X049435Y003329D01*
X049479Y003285D01*
X049521Y003237D01*
X049559Y003188D01*
X049594Y003136D01*
X049626Y003082D01*
X049655Y003026D01*
X049680Y002968D01*
X049701Y002909D01*
X049719Y002849D01*
X049732Y002787D01*
X049742Y002725D01*
X049748Y002663D01*
X049750Y002600D01*
X049748Y002537D01*
X049742Y002475D01*
X049732Y002413D01*
X049719Y002351D01*
X049701Y002291D01*
X049680Y002232D01*
X049655Y002174D01*
X049626Y002118D01*
X049594Y002064D01*
X049559Y002012D01*
X049521Y001963D01*
X049479Y001915D01*
X049435Y001871D01*
X049387Y001829D01*
X049338Y001791D01*
X049286Y001756D01*
X049232Y001724D01*
X049176Y001695D01*
X049118Y001670D01*
X049059Y001649D01*
X048999Y001631D01*
X048937Y001618D01*
X048875Y001608D01*
X048813Y001602D01*
X048750Y001600D01*
X048687Y001602D01*
X048625Y001608D01*
X048563Y001618D01*
X048501Y001631D01*
X048441Y001649D01*
X048382Y001670D01*
X048324Y001695D01*
X048268Y001724D01*
X048214Y001756D01*
X048162Y001791D01*
X048113Y001829D01*
X048065Y001871D01*
X048021Y001915D01*
X047979Y001963D01*
X047941Y002012D01*
X047906Y002064D01*
X047874Y002118D01*
X047845Y002174D01*
X047820Y002232D01*
X047799Y002291D01*
X047781Y002351D01*
X047768Y002413D01*
X047758Y002475D01*
X047752Y002537D01*
X047750Y002600D01*
X048100Y002600D02*
X048500Y002600D01*
X049200Y002100D02*
X049300Y002100D01*
X049300Y002000D01*
X049300Y002100D02*
X049300Y002200D01*
X049300Y002100D02*
X049400Y002100D01*
X038350Y006250D02*
X038350Y006350D01*
X038300Y006400D01*
X038300Y007300D01*
X038350Y007350D01*
X038350Y007450D01*
X038348Y007467D01*
X038344Y007484D01*
X038337Y007500D01*
X038327Y007514D01*
X038314Y007527D01*
X038300Y007537D01*
X038284Y007544D01*
X038267Y007548D01*
X038250Y007550D01*
X037750Y007550D01*
X037733Y007548D01*
X037716Y007544D01*
X037700Y007537D01*
X037686Y007527D01*
X037673Y007514D01*
X037663Y007500D01*
X037656Y007484D01*
X037652Y007467D01*
X037650Y007450D01*
X037650Y007350D01*
X037700Y007300D01*
X037700Y006400D01*
X037650Y006350D01*
X037650Y006250D01*
X037652Y006233D01*
X037656Y006216D01*
X037663Y006200D01*
X037673Y006186D01*
X037686Y006173D01*
X037700Y006163D01*
X037716Y006156D01*
X037733Y006152D01*
X037750Y006150D01*
X038250Y006150D01*
X038267Y006152D01*
X038284Y006156D01*
X038300Y006163D01*
X038314Y006173D01*
X038327Y006186D01*
X038337Y006200D01*
X038344Y006216D01*
X038348Y006233D01*
X038350Y006250D01*
X037000Y003850D02*
X037002Y003913D01*
X037008Y003975D01*
X037018Y004037D01*
X037031Y004099D01*
X037049Y004159D01*
X037070Y004218D01*
X037095Y004276D01*
X037124Y004332D01*
X037156Y004386D01*
X037191Y004438D01*
X037229Y004487D01*
X037271Y004535D01*
X037315Y004579D01*
X037363Y004621D01*
X037412Y004659D01*
X037464Y004694D01*
X037518Y004726D01*
X037574Y004755D01*
X037632Y004780D01*
X037691Y004801D01*
X037751Y004819D01*
X037813Y004832D01*
X037875Y004842D01*
X037937Y004848D01*
X038000Y004850D01*
X038063Y004848D01*
X038125Y004842D01*
X038187Y004832D01*
X038249Y004819D01*
X038309Y004801D01*
X038368Y004780D01*
X038426Y004755D01*
X038482Y004726D01*
X038536Y004694D01*
X038588Y004659D01*
X038637Y004621D01*
X038685Y004579D01*
X038729Y004535D01*
X038771Y004487D01*
X038809Y004438D01*
X038844Y004386D01*
X038876Y004332D01*
X038905Y004276D01*
X038930Y004218D01*
X038951Y004159D01*
X038969Y004099D01*
X038982Y004037D01*
X038992Y003975D01*
X038998Y003913D01*
X039000Y003850D01*
X038998Y003787D01*
X038992Y003725D01*
X038982Y003663D01*
X038969Y003601D01*
X038951Y003541D01*
X038930Y003482D01*
X038905Y003424D01*
X038876Y003368D01*
X038844Y003314D01*
X038809Y003262D01*
X038771Y003213D01*
X038729Y003165D01*
X038685Y003121D01*
X038637Y003079D01*
X038588Y003041D01*
X038536Y003006D01*
X038482Y002974D01*
X038426Y002945D01*
X038368Y002920D01*
X038309Y002899D01*
X038249Y002881D01*
X038187Y002868D01*
X038125Y002858D01*
X038063Y002852D01*
X038000Y002850D01*
X037937Y002852D01*
X037875Y002858D01*
X037813Y002868D01*
X037751Y002881D01*
X037691Y002899D01*
X037632Y002920D01*
X037574Y002945D01*
X037518Y002974D01*
X037464Y003006D01*
X037412Y003041D01*
X037363Y003079D01*
X037315Y003121D01*
X037271Y003165D01*
X037229Y003213D01*
X037191Y003262D01*
X037156Y003314D01*
X037124Y003368D01*
X037095Y003424D01*
X037070Y003482D01*
X037049Y003541D01*
X037031Y003601D01*
X037018Y003663D01*
X037008Y003725D01*
X037002Y003787D01*
X037000Y003850D01*
X033700Y005600D02*
X033700Y006100D01*
X033698Y006117D01*
X033694Y006134D01*
X033687Y006150D01*
X033677Y006164D01*
X033664Y006177D01*
X033650Y006187D01*
X033634Y006194D01*
X033617Y006198D01*
X033600Y006200D01*
X033500Y006200D01*
X033450Y006150D01*
X032550Y006150D01*
X032500Y006200D01*
X032400Y006200D01*
X032383Y006198D01*
X032366Y006194D01*
X032350Y006187D01*
X032336Y006177D01*
X032323Y006164D01*
X032313Y006150D01*
X032306Y006134D01*
X032302Y006117D01*
X032300Y006100D01*
X032300Y005600D01*
X032302Y005583D01*
X032306Y005566D01*
X032313Y005550D01*
X032323Y005536D01*
X032336Y005523D01*
X032350Y005513D01*
X032366Y005506D01*
X032383Y005502D01*
X032400Y005500D01*
X032500Y005500D01*
X032550Y005550D01*
X033450Y005550D01*
X033500Y005500D01*
X033600Y005500D01*
X033617Y005502D01*
X033634Y005506D01*
X033650Y005513D01*
X033664Y005523D01*
X033677Y005536D01*
X033687Y005550D01*
X033694Y005566D01*
X033698Y005583D01*
X033700Y005600D01*
X037750Y009650D02*
X038250Y009650D01*
X038267Y009652D01*
X038284Y009656D01*
X038300Y009663D01*
X038314Y009673D01*
X038327Y009686D01*
X038337Y009700D01*
X038344Y009716D01*
X038348Y009733D01*
X038350Y009750D01*
X038350Y009850D01*
X038300Y009900D01*
X038300Y010800D01*
X038350Y010850D01*
X038350Y010950D01*
X038348Y010967D01*
X038344Y010984D01*
X038337Y011000D01*
X038327Y011014D01*
X038314Y011027D01*
X038300Y011037D01*
X038284Y011044D01*
X038267Y011048D01*
X038250Y011050D01*
X037750Y011050D01*
X037733Y011048D01*
X037716Y011044D01*
X037700Y011037D01*
X037686Y011027D01*
X037673Y011014D01*
X037663Y011000D01*
X037656Y010984D01*
X037652Y010967D01*
X037650Y010950D01*
X037650Y010850D01*
X037700Y010800D01*
X037700Y009900D01*
X037650Y009850D01*
X037650Y009750D01*
X037652Y009733D01*
X037656Y009716D01*
X037663Y009700D01*
X037673Y009686D01*
X037686Y009673D01*
X037700Y009663D01*
X037716Y009656D01*
X037733Y009652D01*
X037750Y009650D01*
X037000Y013350D02*
X037002Y013413D01*
X037008Y013475D01*
X037018Y013537D01*
X037031Y013599D01*
X037049Y013659D01*
X037070Y013718D01*
X037095Y013776D01*
X037124Y013832D01*
X037156Y013886D01*
X037191Y013938D01*
X037229Y013987D01*
X037271Y014035D01*
X037315Y014079D01*
X037363Y014121D01*
X037412Y014159D01*
X037464Y014194D01*
X037518Y014226D01*
X037574Y014255D01*
X037632Y014280D01*
X037691Y014301D01*
X037751Y014319D01*
X037813Y014332D01*
X037875Y014342D01*
X037937Y014348D01*
X038000Y014350D01*
X038063Y014348D01*
X038125Y014342D01*
X038187Y014332D01*
X038249Y014319D01*
X038309Y014301D01*
X038368Y014280D01*
X038426Y014255D01*
X038482Y014226D01*
X038536Y014194D01*
X038588Y014159D01*
X038637Y014121D01*
X038685Y014079D01*
X038729Y014035D01*
X038771Y013987D01*
X038809Y013938D01*
X038844Y013886D01*
X038876Y013832D01*
X038905Y013776D01*
X038930Y013718D01*
X038951Y013659D01*
X038969Y013599D01*
X038982Y013537D01*
X038992Y013475D01*
X038998Y013413D01*
X039000Y013350D01*
X038998Y013287D01*
X038992Y013225D01*
X038982Y013163D01*
X038969Y013101D01*
X038951Y013041D01*
X038930Y012982D01*
X038905Y012924D01*
X038876Y012868D01*
X038844Y012814D01*
X038809Y012762D01*
X038771Y012713D01*
X038729Y012665D01*
X038685Y012621D01*
X038637Y012579D01*
X038588Y012541D01*
X038536Y012506D01*
X038482Y012474D01*
X038426Y012445D01*
X038368Y012420D01*
X038309Y012399D01*
X038249Y012381D01*
X038187Y012368D01*
X038125Y012358D01*
X038063Y012352D01*
X038000Y012350D01*
X037937Y012352D01*
X037875Y012358D01*
X037813Y012368D01*
X037751Y012381D01*
X037691Y012399D01*
X037632Y012420D01*
X037574Y012445D01*
X037518Y012474D01*
X037464Y012506D01*
X037412Y012541D01*
X037363Y012579D01*
X037315Y012621D01*
X037271Y012665D01*
X037229Y012713D01*
X037191Y012762D01*
X037156Y012814D01*
X037124Y012868D01*
X037095Y012924D01*
X037070Y012982D01*
X037049Y013041D01*
X037031Y013101D01*
X037018Y013163D01*
X037008Y013225D01*
X037002Y013287D01*
X037000Y013350D01*
X033600Y015000D02*
X033500Y015000D01*
X033450Y015050D01*
X032550Y015050D01*
X032500Y015000D01*
X032400Y015000D01*
X032383Y015002D01*
X032366Y015006D01*
X032350Y015013D01*
X032336Y015023D01*
X032323Y015036D01*
X032313Y015050D01*
X032306Y015066D01*
X032302Y015083D01*
X032300Y015100D01*
X032300Y015600D01*
X032302Y015617D01*
X032306Y015634D01*
X032313Y015650D01*
X032323Y015664D01*
X032336Y015677D01*
X032350Y015687D01*
X032366Y015694D01*
X032383Y015698D01*
X032400Y015700D01*
X032500Y015700D01*
X032550Y015650D01*
X033450Y015650D01*
X033500Y015700D01*
X033600Y015700D01*
X033617Y015698D01*
X033634Y015694D01*
X033650Y015687D01*
X033664Y015677D01*
X033677Y015664D01*
X033687Y015650D01*
X033694Y015634D01*
X033698Y015617D01*
X033700Y015600D01*
X033700Y015100D01*
X033698Y015083D01*
X033694Y015066D01*
X033687Y015050D01*
X033677Y015036D01*
X033664Y015023D01*
X033650Y015013D01*
X033634Y015006D01*
X033617Y015002D01*
X033600Y015000D01*
X024950Y013750D02*
X024950Y012950D01*
X024948Y012933D01*
X024944Y012916D01*
X024937Y012900D01*
X024927Y012886D01*
X024914Y012873D01*
X024900Y012863D01*
X024884Y012856D01*
X024867Y012852D01*
X024850Y012850D01*
X023150Y012850D01*
X023133Y012852D01*
X023116Y012856D01*
X023100Y012863D01*
X023086Y012873D01*
X023073Y012886D01*
X023063Y012900D01*
X023056Y012916D01*
X023052Y012933D01*
X023050Y012950D01*
X023050Y013750D01*
X023052Y013767D01*
X023056Y013784D01*
X023063Y013800D01*
X023073Y013814D01*
X023086Y013827D01*
X023100Y013837D01*
X023116Y013844D01*
X023133Y013848D01*
X023150Y013850D01*
X024850Y013850D01*
X024867Y013848D01*
X024884Y013844D01*
X024900Y013837D01*
X024914Y013827D01*
X024927Y013814D01*
X024937Y013800D01*
X024944Y013784D01*
X024948Y013767D01*
X024950Y013750D01*
X024300Y013350D02*
X024150Y013350D01*
X024100Y013350D01*
X023900Y013350D02*
X023850Y013350D01*
X023700Y013350D01*
X021400Y013850D02*
X020650Y013850D01*
X020648Y013811D01*
X020642Y013772D01*
X020633Y013734D01*
X020620Y013697D01*
X020603Y013661D01*
X020583Y013628D01*
X020559Y013596D01*
X020533Y013567D01*
X020504Y013541D01*
X020472Y013517D01*
X020439Y013497D01*
X020403Y013480D01*
X020366Y013467D01*
X020328Y013458D01*
X020289Y013452D01*
X020250Y013450D01*
X020211Y013452D01*
X020172Y013458D01*
X020134Y013467D01*
X020097Y013480D01*
X020061Y013497D01*
X020028Y013517D01*
X019996Y013541D01*
X019967Y013567D01*
X019941Y013596D01*
X019917Y013628D01*
X019897Y013661D01*
X019880Y013697D01*
X019867Y013734D01*
X019858Y013772D01*
X019852Y013811D01*
X019850Y013850D01*
X019100Y013850D01*
X019100Y006850D01*
X021400Y006850D01*
X021400Y013850D01*
D11*
X042000Y022350D03*
X043000Y022350D03*
X044000Y022350D03*
X045000Y022350D03*
X046000Y022350D03*
X046000Y023350D03*
X045000Y023350D03*
X044000Y023350D03*
X043000Y023350D03*
X042000Y023350D03*
X051000Y008600D03*
X052000Y008600D03*
X052000Y007600D03*
X051000Y007600D03*
X051000Y006600D03*
X052000Y006600D03*
X052000Y005600D03*
X051000Y005600D03*
X051000Y004600D03*
X052000Y004600D03*
D12*
X052700Y004600D02*
X053200Y005000D01*
X053200Y004200D01*
X052700Y004600D01*
X052713Y004611D02*
X053200Y004611D01*
X053200Y004659D02*
X052774Y004659D01*
X052834Y004708D02*
X053200Y004708D01*
X053200Y004756D02*
X052895Y004756D01*
X052956Y004805D02*
X053200Y004805D01*
X053200Y004853D02*
X053016Y004853D01*
X053077Y004902D02*
X053200Y004902D01*
X053200Y004950D02*
X053138Y004950D01*
X053198Y004999D02*
X053200Y004999D01*
X053200Y004562D02*
X052747Y004562D01*
X052808Y004514D02*
X053200Y004514D01*
X053200Y004465D02*
X052869Y004465D01*
X052929Y004417D02*
X053200Y004417D01*
X053200Y004368D02*
X052990Y004368D01*
X053051Y004320D02*
X053200Y004320D01*
X053200Y004271D02*
X053111Y004271D01*
X053172Y004223D02*
X053200Y004223D01*
X042400Y021150D02*
X041600Y021150D01*
X042000Y021650D01*
X042400Y021150D01*
X042362Y021198D02*
X041638Y021198D01*
X041677Y021246D02*
X042323Y021246D01*
X042284Y021295D02*
X041716Y021295D01*
X041754Y021343D02*
X042246Y021343D01*
X042207Y021392D02*
X041793Y021392D01*
X041832Y021440D02*
X042168Y021440D01*
X042129Y021489D02*
X041871Y021489D01*
X041910Y021537D02*
X042090Y021537D01*
X042052Y021586D02*
X041948Y021586D01*
X041987Y021634D02*
X042013Y021634D01*
D13*
X000539Y005622D02*
X000539Y002078D01*
X001681Y002078D01*
X001681Y005622D01*
X005894Y005622D01*
X005894Y004795D01*
X005894Y002905D02*
X005894Y002078D01*
X005618Y002078D01*
X003768Y002078D02*
X001681Y002078D01*
X001681Y005622D02*
X000539Y005622D01*
X031800Y004350D02*
X031800Y003750D01*
X031800Y002957D01*
X031800Y002950D02*
X031800Y002350D01*
X032000Y002150D01*
X032150Y002150D01*
X033850Y002150D01*
X034000Y002150D01*
X034200Y002350D01*
X034200Y002950D01*
X034200Y002945D02*
X034200Y003750D01*
X034200Y004350D01*
X034000Y004550D01*
X033850Y004550D01*
X032150Y004550D01*
X032000Y004550D01*
X031800Y004350D01*
X032300Y003350D02*
X032302Y003402D01*
X032308Y003454D01*
X032318Y003506D01*
X032331Y003556D01*
X032348Y003606D01*
X032369Y003654D01*
X032394Y003700D01*
X032422Y003744D01*
X032453Y003786D01*
X032487Y003826D01*
X032524Y003863D01*
X032564Y003897D01*
X032606Y003928D01*
X032650Y003956D01*
X032696Y003981D01*
X032744Y004002D01*
X032794Y004019D01*
X032844Y004032D01*
X032896Y004042D01*
X032948Y004048D01*
X033000Y004050D01*
X033052Y004048D01*
X033104Y004042D01*
X033156Y004032D01*
X033206Y004019D01*
X033256Y004002D01*
X033304Y003981D01*
X033350Y003956D01*
X033394Y003928D01*
X033436Y003897D01*
X033476Y003863D01*
X033513Y003826D01*
X033547Y003786D01*
X033578Y003744D01*
X033606Y003700D01*
X033631Y003654D01*
X033652Y003606D01*
X033669Y003556D01*
X033682Y003506D01*
X033692Y003454D01*
X033698Y003402D01*
X033700Y003350D01*
X033698Y003298D01*
X033692Y003246D01*
X033682Y003194D01*
X033669Y003144D01*
X033652Y003094D01*
X033631Y003046D01*
X033606Y003000D01*
X033578Y002956D01*
X033547Y002914D01*
X033513Y002874D01*
X033476Y002837D01*
X033436Y002803D01*
X033394Y002772D01*
X033350Y002744D01*
X033304Y002719D01*
X033256Y002698D01*
X033206Y002681D01*
X033156Y002668D01*
X033104Y002658D01*
X033052Y002652D01*
X033000Y002650D01*
X032948Y002652D01*
X032896Y002658D01*
X032844Y002668D01*
X032794Y002681D01*
X032744Y002698D01*
X032696Y002719D01*
X032650Y002744D01*
X032606Y002772D01*
X032564Y002803D01*
X032524Y002837D01*
X032487Y002874D01*
X032453Y002914D01*
X032422Y002956D01*
X032394Y003000D01*
X032369Y003046D01*
X032348Y003094D01*
X032331Y003144D01*
X032318Y003194D01*
X032308Y003246D01*
X032302Y003298D01*
X032300Y003350D01*
X033850Y003500D02*
X034000Y003150D01*
X034000Y002850D01*
X034000Y003550D02*
X034000Y003850D01*
X037250Y002850D02*
X038750Y002850D01*
X034000Y011650D02*
X033850Y011650D01*
X032150Y011650D01*
X032000Y011650D01*
X031800Y011850D01*
X031800Y012450D01*
X031800Y012457D02*
X031800Y013250D01*
X031800Y013850D01*
X032000Y014050D01*
X032150Y014050D01*
X033850Y014050D01*
X034000Y014050D01*
X034200Y013850D01*
X034200Y013250D01*
X034200Y012445D01*
X034200Y012450D02*
X034200Y011850D01*
X034000Y011650D01*
X034000Y012350D02*
X034000Y012650D01*
X033850Y013000D01*
X034000Y013050D02*
X034000Y013350D01*
X032300Y012850D02*
X032302Y012902D01*
X032308Y012954D01*
X032318Y013006D01*
X032331Y013056D01*
X032348Y013106D01*
X032369Y013154D01*
X032394Y013200D01*
X032422Y013244D01*
X032453Y013286D01*
X032487Y013326D01*
X032524Y013363D01*
X032564Y013397D01*
X032606Y013428D01*
X032650Y013456D01*
X032696Y013481D01*
X032744Y013502D01*
X032794Y013519D01*
X032844Y013532D01*
X032896Y013542D01*
X032948Y013548D01*
X033000Y013550D01*
X033052Y013548D01*
X033104Y013542D01*
X033156Y013532D01*
X033206Y013519D01*
X033256Y013502D01*
X033304Y013481D01*
X033350Y013456D01*
X033394Y013428D01*
X033436Y013397D01*
X033476Y013363D01*
X033513Y013326D01*
X033547Y013286D01*
X033578Y013244D01*
X033606Y013200D01*
X033631Y013154D01*
X033652Y013106D01*
X033669Y013056D01*
X033682Y013006D01*
X033692Y012954D01*
X033698Y012902D01*
X033700Y012850D01*
X033698Y012798D01*
X033692Y012746D01*
X033682Y012694D01*
X033669Y012644D01*
X033652Y012594D01*
X033631Y012546D01*
X033606Y012500D01*
X033578Y012456D01*
X033547Y012414D01*
X033513Y012374D01*
X033476Y012337D01*
X033436Y012303D01*
X033394Y012272D01*
X033350Y012244D01*
X033304Y012219D01*
X033256Y012198D01*
X033206Y012181D01*
X033156Y012168D01*
X033104Y012158D01*
X033052Y012152D01*
X033000Y012150D01*
X032948Y012152D01*
X032896Y012158D01*
X032844Y012168D01*
X032794Y012181D01*
X032744Y012198D01*
X032696Y012219D01*
X032650Y012244D01*
X032606Y012272D01*
X032564Y012303D01*
X032524Y012337D01*
X032487Y012374D01*
X032453Y012414D01*
X032422Y012456D01*
X032394Y012500D01*
X032369Y012546D01*
X032348Y012594D01*
X032331Y012644D01*
X032318Y012694D01*
X032308Y012746D01*
X032302Y012798D01*
X032300Y012850D01*
X037250Y014350D02*
X038750Y014350D01*
X034000Y020400D02*
X033850Y020400D01*
X032150Y020400D01*
X032000Y020400D01*
X031800Y020600D01*
X031800Y021200D01*
X031800Y021207D02*
X031800Y022000D01*
X031800Y022600D01*
X032000Y022800D01*
X032150Y022800D01*
X033850Y022800D01*
X034000Y022800D01*
X034200Y022600D01*
X034200Y022000D01*
X034200Y021195D01*
X034200Y021200D02*
X034200Y020600D01*
X034000Y020400D01*
X034000Y021100D02*
X034000Y021400D01*
X033850Y021750D01*
X034000Y021800D02*
X034000Y022100D01*
X032300Y021600D02*
X032302Y021652D01*
X032308Y021704D01*
X032318Y021756D01*
X032331Y021806D01*
X032348Y021856D01*
X032369Y021904D01*
X032394Y021950D01*
X032422Y021994D01*
X032453Y022036D01*
X032487Y022076D01*
X032524Y022113D01*
X032564Y022147D01*
X032606Y022178D01*
X032650Y022206D01*
X032696Y022231D01*
X032744Y022252D01*
X032794Y022269D01*
X032844Y022282D01*
X032896Y022292D01*
X032948Y022298D01*
X033000Y022300D01*
X033052Y022298D01*
X033104Y022292D01*
X033156Y022282D01*
X033206Y022269D01*
X033256Y022252D01*
X033304Y022231D01*
X033350Y022206D01*
X033394Y022178D01*
X033436Y022147D01*
X033476Y022113D01*
X033513Y022076D01*
X033547Y022036D01*
X033578Y021994D01*
X033606Y021950D01*
X033631Y021904D01*
X033652Y021856D01*
X033669Y021806D01*
X033682Y021756D01*
X033692Y021704D01*
X033698Y021652D01*
X033700Y021600D01*
X033698Y021548D01*
X033692Y021496D01*
X033682Y021444D01*
X033669Y021394D01*
X033652Y021344D01*
X033631Y021296D01*
X033606Y021250D01*
X033578Y021206D01*
X033547Y021164D01*
X033513Y021124D01*
X033476Y021087D01*
X033436Y021053D01*
X033394Y021022D01*
X033350Y020994D01*
X033304Y020969D01*
X033256Y020948D01*
X033206Y020931D01*
X033156Y020918D01*
X033104Y020908D01*
X033052Y020902D01*
X033000Y020900D01*
X032948Y020902D01*
X032896Y020908D01*
X032844Y020918D01*
X032794Y020931D01*
X032744Y020948D01*
X032696Y020969D01*
X032650Y020994D01*
X032606Y021022D01*
X032564Y021053D01*
X032524Y021087D01*
X032487Y021124D01*
X032453Y021164D01*
X032422Y021206D01*
X032394Y021250D01*
X032369Y021296D01*
X032348Y021344D01*
X032331Y021394D01*
X032318Y021444D01*
X032308Y021496D01*
X032302Y021548D01*
X032300Y021600D01*
X004500Y022100D02*
X004500Y020600D01*
D14*
X006000Y018850D02*
X006000Y018650D01*
X006000Y017050D02*
X006000Y016850D01*
X004250Y012600D02*
X004250Y012400D01*
X004250Y010800D02*
X004250Y010600D01*
X004250Y009850D02*
X004250Y009650D01*
X004250Y008050D02*
X004250Y007850D01*
X032000Y005850D02*
X032200Y005850D01*
X033800Y005850D02*
X034000Y005850D01*
X038000Y005850D02*
X038000Y006050D01*
X038000Y007650D02*
X038000Y007850D01*
X038000Y009350D02*
X038000Y009550D01*
X038000Y011150D02*
X038000Y011350D01*
X034000Y015350D02*
X033800Y015350D01*
X032200Y015350D02*
X032000Y015350D01*
X032000Y024100D02*
X032200Y024100D01*
X033800Y024100D02*
X034000Y024100D01*
X051000Y012850D02*
X051200Y012850D01*
X052800Y012850D02*
X053000Y012850D01*
D15*
X052750Y012850D03*
X051250Y012850D03*
X033750Y015350D03*
X032250Y015350D03*
X032250Y024100D03*
X033750Y024100D03*
X033750Y005850D03*
X032250Y005850D03*
D16*
X038000Y006100D03*
X038000Y007600D03*
X038000Y009600D03*
X038000Y011100D03*
X006000Y017100D03*
X006000Y018600D03*
X004250Y012350D03*
X004250Y010850D03*
X004250Y009600D03*
X004250Y008100D03*
D17*
X004250Y014500D02*
X004550Y014500D01*
X004550Y014700D02*
X004250Y014700D01*
X003950Y014700D01*
X003950Y014500D02*
X004250Y014500D01*
X006700Y014500D02*
X007000Y014500D01*
X007300Y014500D01*
X007300Y014700D02*
X007000Y014700D01*
X006700Y014700D01*
X014650Y022300D02*
X014650Y022600D01*
X014650Y022900D01*
X014850Y022900D02*
X014850Y022600D01*
X014850Y022300D01*
X023900Y022300D02*
X023900Y022600D01*
X023900Y022900D01*
X024100Y022900D02*
X024100Y022600D01*
X024100Y022300D01*
X024100Y013650D02*
X024100Y013350D01*
X024100Y013050D01*
X023900Y013050D02*
X023900Y013350D01*
X023900Y013650D01*
X051900Y014550D02*
X051900Y014850D01*
X051900Y015150D01*
X052100Y015150D02*
X052100Y014850D01*
X052100Y014550D01*
D18*
X038550Y022850D03*
X048550Y002600D03*
D19*
X038780Y002818D02*
X038726Y002890D01*
X038727Y002889D02*
X038780Y002932D01*
X038831Y002977D01*
X038879Y003026D01*
X038924Y003077D01*
X038967Y003131D01*
X039006Y003187D01*
X039042Y003245D01*
X039075Y003305D01*
X039104Y003366D01*
X039129Y003430D01*
X039151Y003494D01*
X039170Y003560D01*
X039184Y003627D01*
X039195Y003694D01*
X039202Y003762D01*
X039205Y003830D01*
X039204Y003899D01*
X039199Y003967D01*
X039191Y004035D01*
X039178Y004102D01*
X039162Y004168D01*
X039142Y004233D01*
X039119Y004298D01*
X039092Y004360D01*
X039061Y004421D01*
X039027Y004480D01*
X038990Y004538D01*
X038949Y004593D01*
X038905Y004645D01*
X038859Y004695D01*
X038810Y004742D01*
X038758Y004787D01*
X038704Y004828D01*
X038647Y004867D01*
X038588Y004902D01*
X038528Y004933D01*
X038466Y004961D01*
X038402Y004986D01*
X038337Y005007D01*
X038271Y005024D01*
X038204Y005038D01*
X038136Y005047D01*
X038068Y005053D01*
X038000Y005055D01*
X037932Y005053D01*
X037864Y005047D01*
X037796Y005038D01*
X037729Y005024D01*
X037663Y005007D01*
X037598Y004986D01*
X037534Y004961D01*
X037472Y004933D01*
X037412Y004902D01*
X037353Y004867D01*
X037296Y004828D01*
X037242Y004787D01*
X037190Y004742D01*
X037141Y004695D01*
X037095Y004645D01*
X037051Y004593D01*
X037010Y004538D01*
X036973Y004480D01*
X036939Y004421D01*
X036908Y004360D01*
X036881Y004298D01*
X036858Y004233D01*
X036838Y004168D01*
X036822Y004102D01*
X036809Y004035D01*
X036801Y003967D01*
X036796Y003899D01*
X036795Y003830D01*
X036798Y003762D01*
X036805Y003694D01*
X036816Y003627D01*
X036830Y003560D01*
X036849Y003494D01*
X036871Y003430D01*
X036896Y003366D01*
X036925Y003305D01*
X036958Y003245D01*
X036994Y003187D01*
X037033Y003131D01*
X037076Y003077D01*
X037121Y003026D01*
X037169Y002977D01*
X037220Y002932D01*
X037273Y002889D01*
X037220Y002818D01*
X037219Y002817D01*
X037164Y002861D01*
X037111Y002909D01*
X037060Y002959D01*
X037013Y003012D01*
X036969Y003067D01*
X036927Y003125D01*
X036889Y003185D01*
X036854Y003246D01*
X036823Y003310D01*
X036795Y003375D01*
X036771Y003442D01*
X036750Y003510D01*
X036734Y003579D01*
X036721Y003649D01*
X036712Y003719D01*
X036706Y003790D01*
X036705Y003861D01*
X036708Y003932D01*
X036714Y004003D01*
X036724Y004073D01*
X036738Y004142D01*
X036756Y004211D01*
X036778Y004279D01*
X036803Y004345D01*
X036832Y004410D01*
X036865Y004473D01*
X036901Y004534D01*
X036940Y004593D01*
X036982Y004650D01*
X037027Y004705D01*
X037076Y004757D01*
X037127Y004806D01*
X037180Y004853D01*
X037237Y004896D01*
X037295Y004936D01*
X037356Y004973D01*
X037418Y005007D01*
X037482Y005037D01*
X037548Y005064D01*
X037615Y005087D01*
X037684Y005106D01*
X037753Y005121D01*
X037823Y005133D01*
X037894Y005141D01*
X037965Y005145D01*
X038035Y005145D01*
X038106Y005141D01*
X038177Y005133D01*
X038247Y005121D01*
X038316Y005106D01*
X038385Y005087D01*
X038452Y005064D01*
X038518Y005037D01*
X038582Y005007D01*
X038644Y004973D01*
X038705Y004936D01*
X038763Y004896D01*
X038820Y004853D01*
X038873Y004806D01*
X038924Y004757D01*
X038973Y004705D01*
X039018Y004650D01*
X039060Y004593D01*
X039099Y004534D01*
X039135Y004473D01*
X039168Y004410D01*
X039197Y004345D01*
X039222Y004279D01*
X039244Y004211D01*
X039262Y004142D01*
X039276Y004073D01*
X039286Y004003D01*
X039292Y003932D01*
X039295Y003861D01*
X039294Y003790D01*
X039288Y003719D01*
X039279Y003649D01*
X039266Y003579D01*
X039250Y003510D01*
X039229Y003442D01*
X039205Y003375D01*
X039177Y003310D01*
X039146Y003246D01*
X039111Y003185D01*
X039073Y003125D01*
X039031Y003067D01*
X038987Y003012D01*
X038940Y002959D01*
X038889Y002909D01*
X038836Y002861D01*
X038781Y002817D01*
X038776Y002824D01*
X038831Y002869D01*
X038884Y002916D01*
X038935Y002967D01*
X038982Y003020D01*
X039027Y003076D01*
X039068Y003134D01*
X039106Y003194D01*
X039141Y003256D01*
X039172Y003320D01*
X039199Y003386D01*
X039223Y003453D01*
X039243Y003522D01*
X039260Y003591D01*
X039272Y003661D01*
X039281Y003732D01*
X039285Y003803D01*
X039286Y003874D01*
X039282Y003945D01*
X039275Y004016D01*
X039264Y004087D01*
X039249Y004156D01*
X039230Y004225D01*
X039207Y004293D01*
X039181Y004359D01*
X039151Y004424D01*
X039117Y004486D01*
X039081Y004547D01*
X039040Y004606D01*
X038997Y004663D01*
X038950Y004717D01*
X038901Y004768D01*
X038848Y004816D01*
X038794Y004862D01*
X038736Y004904D01*
X038677Y004943D01*
X038615Y004979D01*
X038552Y005012D01*
X038487Y005040D01*
X038420Y005066D01*
X038352Y005087D01*
X038283Y005105D01*
X038213Y005118D01*
X038142Y005128D01*
X038071Y005134D01*
X038000Y005136D01*
X037929Y005134D01*
X037858Y005128D01*
X037787Y005118D01*
X037717Y005105D01*
X037648Y005087D01*
X037580Y005066D01*
X037513Y005040D01*
X037448Y005012D01*
X037385Y004979D01*
X037323Y004943D01*
X037264Y004904D01*
X037206Y004862D01*
X037152Y004816D01*
X037099Y004768D01*
X037050Y004717D01*
X037003Y004663D01*
X036960Y004606D01*
X036919Y004547D01*
X036883Y004486D01*
X036849Y004424D01*
X036819Y004359D01*
X036793Y004293D01*
X036770Y004225D01*
X036751Y004156D01*
X036736Y004087D01*
X036725Y004016D01*
X036718Y003945D01*
X036714Y003874D01*
X036715Y003803D01*
X036719Y003732D01*
X036728Y003661D01*
X036740Y003591D01*
X036757Y003522D01*
X036777Y003453D01*
X036801Y003386D01*
X036828Y003320D01*
X036859Y003256D01*
X036894Y003194D01*
X036932Y003134D01*
X036973Y003076D01*
X037018Y003020D01*
X037065Y002967D01*
X037116Y002916D01*
X037169Y002869D01*
X037224Y002824D01*
X037230Y002831D01*
X037175Y002876D01*
X037122Y002923D01*
X037072Y002973D01*
X037025Y003026D01*
X036981Y003081D01*
X036939Y003139D01*
X036902Y003198D01*
X036867Y003260D01*
X036836Y003324D01*
X036809Y003389D01*
X036785Y003456D01*
X036765Y003524D01*
X036749Y003593D01*
X036737Y003662D01*
X036728Y003733D01*
X036724Y003803D01*
X036723Y003874D01*
X036727Y003945D01*
X036734Y004015D01*
X036745Y004085D01*
X036760Y004154D01*
X036779Y004222D01*
X036801Y004290D01*
X036827Y004355D01*
X036857Y004420D01*
X036890Y004482D01*
X036927Y004542D01*
X036967Y004601D01*
X037010Y004657D01*
X037056Y004711D01*
X037106Y004761D01*
X037157Y004810D01*
X037212Y004855D01*
X037269Y004897D01*
X037328Y004936D01*
X037389Y004971D01*
X037452Y005004D01*
X037517Y005032D01*
X037583Y005057D01*
X037651Y005078D01*
X037719Y005096D01*
X037789Y005109D01*
X037859Y005119D01*
X037929Y005125D01*
X038000Y005127D01*
X038071Y005125D01*
X038141Y005119D01*
X038211Y005109D01*
X038281Y005096D01*
X038349Y005078D01*
X038417Y005057D01*
X038483Y005032D01*
X038548Y005004D01*
X038611Y004971D01*
X038672Y004936D01*
X038731Y004897D01*
X038788Y004855D01*
X038843Y004810D01*
X038894Y004761D01*
X038944Y004711D01*
X038990Y004657D01*
X039033Y004601D01*
X039073Y004542D01*
X039110Y004482D01*
X039143Y004420D01*
X039173Y004355D01*
X039199Y004290D01*
X039221Y004222D01*
X039240Y004154D01*
X039255Y004085D01*
X039266Y004015D01*
X039273Y003945D01*
X039277Y003874D01*
X039276Y003803D01*
X039272Y003733D01*
X039263Y003662D01*
X039251Y003593D01*
X039235Y003524D01*
X039215Y003456D01*
X039191Y003389D01*
X039164Y003324D01*
X039133Y003260D01*
X039098Y003198D01*
X039061Y003139D01*
X039019Y003081D01*
X038975Y003026D01*
X038928Y002973D01*
X038878Y002923D01*
X038825Y002876D01*
X038770Y002831D01*
X038765Y002839D01*
X038820Y002883D01*
X038873Y002931D01*
X038923Y002981D01*
X038971Y003034D01*
X039015Y003090D01*
X039056Y003148D01*
X039093Y003208D01*
X039128Y003270D01*
X039158Y003334D01*
X039185Y003400D01*
X039209Y003467D01*
X039228Y003535D01*
X039244Y003605D01*
X039256Y003675D01*
X039264Y003745D01*
X039268Y003816D01*
X039267Y003887D01*
X039263Y003958D01*
X039255Y004029D01*
X039243Y004099D01*
X039227Y004168D01*
X039208Y004236D01*
X039184Y004304D01*
X039157Y004369D01*
X039126Y004433D01*
X039092Y004495D01*
X039054Y004555D01*
X039012Y004613D01*
X038968Y004669D01*
X038921Y004722D01*
X038870Y004772D01*
X038817Y004819D01*
X038762Y004864D01*
X038704Y004905D01*
X038644Y004942D01*
X038581Y004977D01*
X038517Y005008D01*
X038452Y005035D01*
X038385Y005058D01*
X038316Y005078D01*
X038247Y005094D01*
X038177Y005106D01*
X038106Y005114D01*
X038036Y005118D01*
X037964Y005118D01*
X037894Y005114D01*
X037823Y005106D01*
X037753Y005094D01*
X037684Y005078D01*
X037615Y005058D01*
X037548Y005035D01*
X037483Y005008D01*
X037419Y004977D01*
X037356Y004942D01*
X037296Y004905D01*
X037238Y004864D01*
X037183Y004819D01*
X037130Y004772D01*
X037079Y004722D01*
X037032Y004669D01*
X036988Y004613D01*
X036946Y004555D01*
X036908Y004495D01*
X036874Y004433D01*
X036843Y004369D01*
X036816Y004304D01*
X036792Y004236D01*
X036773Y004168D01*
X036757Y004099D01*
X036745Y004029D01*
X036737Y003958D01*
X036733Y003887D01*
X036732Y003816D01*
X036736Y003745D01*
X036744Y003675D01*
X036756Y003605D01*
X036772Y003535D01*
X036791Y003467D01*
X036815Y003400D01*
X036842Y003334D01*
X036872Y003270D01*
X036907Y003208D01*
X036944Y003148D01*
X036985Y003090D01*
X037029Y003034D01*
X037077Y002981D01*
X037127Y002931D01*
X037180Y002883D01*
X037235Y002839D01*
X037241Y002846D01*
X037186Y002890D01*
X037133Y002937D01*
X037083Y002987D01*
X037036Y003040D01*
X036992Y003095D01*
X036952Y003153D01*
X036914Y003212D01*
X036880Y003274D01*
X036850Y003338D01*
X036823Y003403D01*
X036800Y003470D01*
X036780Y003538D01*
X036765Y003606D01*
X036753Y003676D01*
X036745Y003746D01*
X036741Y003817D01*
X036742Y003887D01*
X036746Y003958D01*
X036754Y004028D01*
X036766Y004097D01*
X036781Y004166D01*
X036801Y004234D01*
X036824Y004300D01*
X036851Y004365D01*
X036882Y004429D01*
X036916Y004491D01*
X036954Y004550D01*
X036995Y004608D01*
X037039Y004663D01*
X037086Y004716D01*
X037136Y004765D01*
X037188Y004812D01*
X037244Y004856D01*
X037301Y004897D01*
X037361Y004935D01*
X037423Y004969D01*
X037486Y004999D01*
X037551Y005026D01*
X037618Y005050D01*
X037686Y005069D01*
X037755Y005085D01*
X037824Y005097D01*
X037894Y005105D01*
X037965Y005109D01*
X038035Y005109D01*
X038106Y005105D01*
X038176Y005097D01*
X038245Y005085D01*
X038314Y005069D01*
X038382Y005050D01*
X038449Y005026D01*
X038514Y004999D01*
X038577Y004969D01*
X038639Y004935D01*
X038699Y004897D01*
X038756Y004856D01*
X038812Y004812D01*
X038864Y004765D01*
X038914Y004716D01*
X038961Y004663D01*
X039005Y004608D01*
X039046Y004550D01*
X039084Y004491D01*
X039118Y004429D01*
X039149Y004365D01*
X039176Y004300D01*
X039199Y004234D01*
X039219Y004166D01*
X039234Y004097D01*
X039246Y004028D01*
X039254Y003958D01*
X039258Y003887D01*
X039259Y003817D01*
X039255Y003746D01*
X039247Y003676D01*
X039235Y003606D01*
X039220Y003538D01*
X039200Y003470D01*
X039177Y003403D01*
X039150Y003338D01*
X039120Y003274D01*
X039086Y003212D01*
X039048Y003153D01*
X039008Y003095D01*
X038964Y003040D01*
X038917Y002987D01*
X038867Y002937D01*
X038814Y002890D01*
X038759Y002846D01*
X038754Y002853D01*
X038809Y002897D01*
X038861Y002944D01*
X038910Y002993D01*
X038957Y003046D01*
X039000Y003100D01*
X039041Y003158D01*
X039078Y003217D01*
X039112Y003278D01*
X039142Y003342D01*
X039169Y003406D01*
X039192Y003473D01*
X039211Y003540D01*
X039226Y003608D01*
X039238Y003677D01*
X039246Y003747D01*
X039250Y003817D01*
X039249Y003887D01*
X039245Y003957D01*
X039237Y004026D01*
X039226Y004095D01*
X039210Y004164D01*
X039191Y004231D01*
X039167Y004297D01*
X039140Y004362D01*
X039110Y004425D01*
X039076Y004486D01*
X039039Y004545D01*
X038998Y004603D01*
X038954Y004657D01*
X038908Y004709D01*
X038858Y004759D01*
X038806Y004806D01*
X038751Y004849D01*
X038694Y004890D01*
X038635Y004927D01*
X038573Y004961D01*
X038510Y004991D01*
X038445Y005018D01*
X038379Y005041D01*
X038312Y005060D01*
X038244Y005076D01*
X038175Y005088D01*
X038105Y005096D01*
X038035Y005100D01*
X037965Y005100D01*
X037895Y005096D01*
X037825Y005088D01*
X037756Y005076D01*
X037688Y005060D01*
X037621Y005041D01*
X037555Y005018D01*
X037490Y004991D01*
X037427Y004961D01*
X037365Y004927D01*
X037306Y004890D01*
X037249Y004849D01*
X037194Y004806D01*
X037142Y004759D01*
X037092Y004709D01*
X037046Y004657D01*
X037002Y004603D01*
X036961Y004545D01*
X036924Y004486D01*
X036890Y004425D01*
X036860Y004362D01*
X036833Y004297D01*
X036809Y004231D01*
X036790Y004164D01*
X036774Y004095D01*
X036763Y004026D01*
X036755Y003957D01*
X036751Y003887D01*
X036750Y003817D01*
X036754Y003747D01*
X036762Y003677D01*
X036774Y003608D01*
X036789Y003540D01*
X036808Y003473D01*
X036831Y003406D01*
X036858Y003342D01*
X036888Y003278D01*
X036922Y003217D01*
X036959Y003158D01*
X037000Y003100D01*
X037043Y003046D01*
X037090Y002993D01*
X037139Y002944D01*
X037191Y002897D01*
X037246Y002853D01*
X037251Y002860D01*
X037197Y002904D01*
X037145Y002950D01*
X037096Y002999D01*
X037050Y003051D01*
X037007Y003106D01*
X036967Y003163D01*
X036930Y003222D01*
X036896Y003283D01*
X036866Y003345D01*
X036840Y003410D01*
X036817Y003475D01*
X036798Y003542D01*
X036782Y003610D01*
X036771Y003679D01*
X036763Y003748D01*
X036759Y003817D01*
X036760Y003887D01*
X036764Y003956D01*
X036771Y004025D01*
X036783Y004094D01*
X036799Y004161D01*
X036818Y004228D01*
X036841Y004294D01*
X036868Y004358D01*
X036898Y004421D01*
X036932Y004482D01*
X036969Y004540D01*
X037009Y004597D01*
X037052Y004651D01*
X037099Y004703D01*
X037148Y004752D01*
X037200Y004799D01*
X037254Y004842D01*
X037311Y004882D01*
X037370Y004919D01*
X037431Y004953D01*
X037494Y004983D01*
X037558Y005010D01*
X037623Y005033D01*
X037690Y005052D01*
X037758Y005067D01*
X037827Y005079D01*
X037896Y005087D01*
X037965Y005091D01*
X038035Y005091D01*
X038104Y005087D01*
X038173Y005079D01*
X038242Y005067D01*
X038310Y005052D01*
X038377Y005033D01*
X038442Y005010D01*
X038506Y004983D01*
X038569Y004953D01*
X038630Y004919D01*
X038689Y004882D01*
X038746Y004842D01*
X038800Y004799D01*
X038852Y004752D01*
X038901Y004703D01*
X038948Y004651D01*
X038991Y004597D01*
X039031Y004540D01*
X039068Y004482D01*
X039102Y004421D01*
X039132Y004358D01*
X039159Y004294D01*
X039182Y004228D01*
X039201Y004161D01*
X039217Y004094D01*
X039229Y004025D01*
X039236Y003956D01*
X039240Y003887D01*
X039241Y003817D01*
X039237Y003748D01*
X039229Y003679D01*
X039218Y003610D01*
X039202Y003542D01*
X039183Y003475D01*
X039160Y003410D01*
X039134Y003345D01*
X039104Y003283D01*
X039070Y003222D01*
X039033Y003163D01*
X038993Y003106D01*
X038950Y003051D01*
X038904Y002999D01*
X038855Y002950D01*
X038803Y002904D01*
X038749Y002860D01*
X038743Y002867D01*
X038797Y002911D01*
X038848Y002957D01*
X038897Y003006D01*
X038943Y003057D01*
X038986Y003111D01*
X039026Y003168D01*
X039062Y003226D01*
X039096Y003287D01*
X039126Y003349D01*
X039152Y003413D01*
X039174Y003478D01*
X039193Y003544D01*
X039209Y003612D01*
X039220Y003680D01*
X039228Y003748D01*
X039232Y003817D01*
X039231Y003886D01*
X039227Y003955D01*
X039220Y004024D01*
X039208Y004092D01*
X039193Y004159D01*
X039173Y004226D01*
X039150Y004291D01*
X039124Y004354D01*
X039094Y004417D01*
X039061Y004477D01*
X039024Y004535D01*
X038984Y004592D01*
X038941Y004646D01*
X038895Y004697D01*
X038846Y004746D01*
X038794Y004792D01*
X038740Y004835D01*
X038684Y004875D01*
X038625Y004911D01*
X038565Y004945D01*
X038503Y004975D01*
X038439Y005001D01*
X038374Y005024D01*
X038307Y005043D01*
X038240Y005058D01*
X038172Y005070D01*
X038103Y005078D01*
X038035Y005082D01*
X037965Y005082D01*
X037897Y005078D01*
X037828Y005070D01*
X037760Y005058D01*
X037693Y005043D01*
X037626Y005024D01*
X037561Y005001D01*
X037497Y004975D01*
X037435Y004945D01*
X037375Y004911D01*
X037316Y004875D01*
X037260Y004835D01*
X037206Y004792D01*
X037154Y004746D01*
X037105Y004697D01*
X037059Y004646D01*
X037016Y004592D01*
X036976Y004535D01*
X036939Y004477D01*
X036906Y004417D01*
X036876Y004354D01*
X036850Y004291D01*
X036827Y004226D01*
X036807Y004159D01*
X036792Y004092D01*
X036780Y004024D01*
X036773Y003955D01*
X036769Y003886D01*
X036768Y003817D01*
X036772Y003748D01*
X036780Y003680D01*
X036791Y003612D01*
X036807Y003544D01*
X036826Y003478D01*
X036848Y003413D01*
X036874Y003349D01*
X036904Y003287D01*
X036938Y003226D01*
X036974Y003168D01*
X037014Y003111D01*
X037057Y003057D01*
X037103Y003006D01*
X037152Y002957D01*
X037203Y002911D01*
X037257Y002867D01*
X037262Y002875D01*
X037208Y002918D01*
X037157Y002964D01*
X037108Y003014D01*
X037062Y003065D01*
X037019Y003120D01*
X036979Y003177D01*
X036943Y003235D01*
X036909Y003296D01*
X036880Y003359D01*
X036854Y003423D01*
X036832Y003489D01*
X036813Y003556D01*
X036798Y003623D01*
X036787Y003692D01*
X036780Y003761D01*
X036777Y003830D01*
X036778Y003899D01*
X036783Y003969D01*
X036791Y004037D01*
X036804Y004105D01*
X036820Y004173D01*
X036841Y004239D01*
X036864Y004304D01*
X036892Y004368D01*
X036923Y004430D01*
X036958Y004490D01*
X036996Y004548D01*
X037037Y004604D01*
X037081Y004657D01*
X037128Y004708D01*
X037178Y004756D01*
X037231Y004801D01*
X037286Y004843D01*
X037343Y004882D01*
X037403Y004917D01*
X037464Y004949D01*
X037527Y004978D01*
X037592Y005003D01*
X037658Y005024D01*
X037725Y005042D01*
X037793Y005055D01*
X037862Y005065D01*
X037931Y005071D01*
X038000Y005073D01*
X038069Y005071D01*
X038138Y005065D01*
X038207Y005055D01*
X038275Y005042D01*
X038342Y005024D01*
X038408Y005003D01*
X038473Y004978D01*
X038536Y004949D01*
X038597Y004917D01*
X038657Y004882D01*
X038714Y004843D01*
X038769Y004801D01*
X038822Y004756D01*
X038872Y004708D01*
X038919Y004657D01*
X038963Y004604D01*
X039004Y004548D01*
X039042Y004490D01*
X039077Y004430D01*
X039108Y004368D01*
X039136Y004304D01*
X039159Y004239D01*
X039180Y004173D01*
X039196Y004105D01*
X039209Y004037D01*
X039217Y003969D01*
X039222Y003899D01*
X039223Y003830D01*
X039220Y003761D01*
X039213Y003692D01*
X039202Y003623D01*
X039187Y003556D01*
X039168Y003489D01*
X039146Y003423D01*
X039120Y003359D01*
X039091Y003296D01*
X039057Y003235D01*
X039021Y003177D01*
X038981Y003120D01*
X038938Y003065D01*
X038892Y003014D01*
X038843Y002964D01*
X038792Y002918D01*
X038738Y002875D01*
X038732Y002882D01*
X038786Y002925D01*
X038837Y002971D01*
X038886Y003020D01*
X038931Y003071D01*
X038974Y003125D01*
X039013Y003182D01*
X039050Y003240D01*
X039083Y003300D01*
X039112Y003363D01*
X039138Y003426D01*
X039160Y003492D01*
X039178Y003558D01*
X039193Y003625D01*
X039204Y003693D01*
X039211Y003762D01*
X039214Y003830D01*
X039213Y003899D01*
X039208Y003968D01*
X039200Y004036D01*
X039187Y004104D01*
X039171Y004170D01*
X039151Y004236D01*
X039127Y004301D01*
X039100Y004364D01*
X039069Y004425D01*
X039035Y004485D01*
X038997Y004543D01*
X038956Y004598D01*
X038912Y004651D01*
X038865Y004701D01*
X038816Y004749D01*
X038764Y004794D01*
X038709Y004836D01*
X038652Y004874D01*
X038593Y004909D01*
X038532Y004941D01*
X038469Y004970D01*
X038405Y004994D01*
X038339Y005016D01*
X038273Y005033D01*
X038205Y005046D01*
X038137Y005056D01*
X038069Y005062D01*
X038000Y005064D01*
X037931Y005062D01*
X037863Y005056D01*
X037795Y005046D01*
X037727Y005033D01*
X037661Y005016D01*
X037595Y004994D01*
X037531Y004970D01*
X037468Y004941D01*
X037407Y004909D01*
X037348Y004874D01*
X037291Y004836D01*
X037236Y004794D01*
X037184Y004749D01*
X037135Y004701D01*
X037088Y004651D01*
X037044Y004598D01*
X037003Y004543D01*
X036965Y004485D01*
X036931Y004425D01*
X036900Y004364D01*
X036873Y004301D01*
X036849Y004236D01*
X036829Y004170D01*
X036813Y004104D01*
X036800Y004036D01*
X036792Y003968D01*
X036787Y003899D01*
X036786Y003830D01*
X036789Y003762D01*
X036796Y003693D01*
X036807Y003625D01*
X036822Y003558D01*
X036840Y003492D01*
X036862Y003426D01*
X036888Y003363D01*
X036917Y003300D01*
X036950Y003240D01*
X036987Y003182D01*
X037026Y003125D01*
X037069Y003071D01*
X037114Y003020D01*
X037163Y002971D01*
X037214Y002925D01*
X037268Y002882D01*
X037220Y014382D02*
X037274Y014310D01*
X037273Y014311D02*
X037220Y014268D01*
X037169Y014223D01*
X037121Y014174D01*
X037076Y014123D01*
X037033Y014069D01*
X036994Y014013D01*
X036958Y013955D01*
X036925Y013895D01*
X036896Y013834D01*
X036871Y013770D01*
X036849Y013706D01*
X036830Y013640D01*
X036816Y013573D01*
X036805Y013506D01*
X036798Y013438D01*
X036795Y013370D01*
X036796Y013301D01*
X036801Y013233D01*
X036809Y013165D01*
X036822Y013098D01*
X036838Y013032D01*
X036858Y012967D01*
X036881Y012902D01*
X036908Y012840D01*
X036939Y012779D01*
X036973Y012720D01*
X037010Y012662D01*
X037051Y012607D01*
X037095Y012555D01*
X037141Y012505D01*
X037190Y012458D01*
X037242Y012413D01*
X037296Y012372D01*
X037353Y012333D01*
X037412Y012298D01*
X037472Y012267D01*
X037534Y012239D01*
X037598Y012214D01*
X037663Y012193D01*
X037729Y012176D01*
X037796Y012162D01*
X037864Y012153D01*
X037932Y012147D01*
X038000Y012145D01*
X038068Y012147D01*
X038136Y012153D01*
X038204Y012162D01*
X038271Y012176D01*
X038337Y012193D01*
X038402Y012214D01*
X038466Y012239D01*
X038528Y012267D01*
X038588Y012298D01*
X038647Y012333D01*
X038704Y012372D01*
X038758Y012413D01*
X038810Y012458D01*
X038859Y012505D01*
X038905Y012555D01*
X038949Y012607D01*
X038990Y012662D01*
X039027Y012720D01*
X039061Y012779D01*
X039092Y012840D01*
X039119Y012902D01*
X039142Y012967D01*
X039162Y013032D01*
X039178Y013098D01*
X039191Y013165D01*
X039199Y013233D01*
X039204Y013301D01*
X039205Y013370D01*
X039202Y013438D01*
X039195Y013506D01*
X039184Y013573D01*
X039170Y013640D01*
X039151Y013706D01*
X039129Y013770D01*
X039104Y013834D01*
X039075Y013895D01*
X039042Y013955D01*
X039006Y014013D01*
X038967Y014069D01*
X038924Y014123D01*
X038879Y014174D01*
X038831Y014223D01*
X038780Y014268D01*
X038727Y014311D01*
X038780Y014382D01*
X038781Y014383D01*
X038836Y014339D01*
X038889Y014291D01*
X038940Y014241D01*
X038987Y014188D01*
X039031Y014133D01*
X039073Y014075D01*
X039111Y014015D01*
X039146Y013954D01*
X039177Y013890D01*
X039205Y013825D01*
X039229Y013758D01*
X039250Y013690D01*
X039266Y013621D01*
X039279Y013551D01*
X039288Y013481D01*
X039294Y013410D01*
X039295Y013339D01*
X039292Y013268D01*
X039286Y013197D01*
X039276Y013127D01*
X039262Y013058D01*
X039244Y012989D01*
X039222Y012921D01*
X039197Y012855D01*
X039168Y012790D01*
X039135Y012727D01*
X039099Y012666D01*
X039060Y012607D01*
X039018Y012550D01*
X038973Y012495D01*
X038924Y012443D01*
X038873Y012394D01*
X038820Y012347D01*
X038763Y012304D01*
X038705Y012264D01*
X038644Y012227D01*
X038582Y012193D01*
X038518Y012163D01*
X038452Y012136D01*
X038385Y012113D01*
X038316Y012094D01*
X038247Y012079D01*
X038177Y012067D01*
X038106Y012059D01*
X038035Y012055D01*
X037965Y012055D01*
X037894Y012059D01*
X037823Y012067D01*
X037753Y012079D01*
X037684Y012094D01*
X037615Y012113D01*
X037548Y012136D01*
X037482Y012163D01*
X037418Y012193D01*
X037356Y012227D01*
X037295Y012264D01*
X037237Y012304D01*
X037180Y012347D01*
X037127Y012394D01*
X037076Y012443D01*
X037027Y012495D01*
X036982Y012550D01*
X036940Y012607D01*
X036901Y012666D01*
X036865Y012727D01*
X036832Y012790D01*
X036803Y012855D01*
X036778Y012921D01*
X036756Y012989D01*
X036738Y013058D01*
X036724Y013127D01*
X036714Y013197D01*
X036708Y013268D01*
X036705Y013339D01*
X036706Y013410D01*
X036712Y013481D01*
X036721Y013551D01*
X036734Y013621D01*
X036750Y013690D01*
X036771Y013758D01*
X036795Y013825D01*
X036823Y013890D01*
X036854Y013954D01*
X036889Y014015D01*
X036927Y014075D01*
X036969Y014133D01*
X037013Y014188D01*
X037060Y014241D01*
X037111Y014291D01*
X037164Y014339D01*
X037219Y014383D01*
X037224Y014376D01*
X037169Y014331D01*
X037116Y014284D01*
X037065Y014233D01*
X037018Y014180D01*
X036973Y014124D01*
X036932Y014066D01*
X036894Y014006D01*
X036859Y013944D01*
X036828Y013880D01*
X036801Y013814D01*
X036777Y013747D01*
X036757Y013678D01*
X036740Y013609D01*
X036728Y013539D01*
X036719Y013468D01*
X036715Y013397D01*
X036714Y013326D01*
X036718Y013255D01*
X036725Y013184D01*
X036736Y013113D01*
X036751Y013044D01*
X036770Y012975D01*
X036793Y012907D01*
X036819Y012841D01*
X036849Y012776D01*
X036883Y012714D01*
X036919Y012653D01*
X036960Y012594D01*
X037003Y012537D01*
X037050Y012483D01*
X037099Y012432D01*
X037152Y012384D01*
X037206Y012338D01*
X037264Y012296D01*
X037323Y012257D01*
X037385Y012221D01*
X037448Y012188D01*
X037513Y012160D01*
X037580Y012134D01*
X037648Y012113D01*
X037717Y012095D01*
X037787Y012082D01*
X037858Y012072D01*
X037929Y012066D01*
X038000Y012064D01*
X038071Y012066D01*
X038142Y012072D01*
X038213Y012082D01*
X038283Y012095D01*
X038352Y012113D01*
X038420Y012134D01*
X038487Y012160D01*
X038552Y012188D01*
X038615Y012221D01*
X038677Y012257D01*
X038736Y012296D01*
X038794Y012338D01*
X038848Y012384D01*
X038901Y012432D01*
X038950Y012483D01*
X038997Y012537D01*
X039040Y012594D01*
X039081Y012653D01*
X039117Y012714D01*
X039151Y012776D01*
X039181Y012841D01*
X039207Y012907D01*
X039230Y012975D01*
X039249Y013044D01*
X039264Y013113D01*
X039275Y013184D01*
X039282Y013255D01*
X039286Y013326D01*
X039285Y013397D01*
X039281Y013468D01*
X039272Y013539D01*
X039260Y013609D01*
X039243Y013678D01*
X039223Y013747D01*
X039199Y013814D01*
X039172Y013880D01*
X039141Y013944D01*
X039106Y014006D01*
X039068Y014066D01*
X039027Y014124D01*
X038982Y014180D01*
X038935Y014233D01*
X038884Y014284D01*
X038831Y014331D01*
X038776Y014376D01*
X038770Y014369D01*
X038825Y014324D01*
X038878Y014277D01*
X038928Y014227D01*
X038975Y014174D01*
X039019Y014119D01*
X039061Y014061D01*
X039098Y014002D01*
X039133Y013940D01*
X039164Y013876D01*
X039191Y013811D01*
X039215Y013744D01*
X039235Y013676D01*
X039251Y013607D01*
X039263Y013538D01*
X039272Y013467D01*
X039276Y013397D01*
X039277Y013326D01*
X039273Y013255D01*
X039266Y013185D01*
X039255Y013115D01*
X039240Y013046D01*
X039221Y012978D01*
X039199Y012910D01*
X039173Y012845D01*
X039143Y012780D01*
X039110Y012718D01*
X039073Y012658D01*
X039033Y012599D01*
X038990Y012543D01*
X038944Y012489D01*
X038894Y012439D01*
X038843Y012390D01*
X038788Y012345D01*
X038731Y012303D01*
X038672Y012264D01*
X038611Y012229D01*
X038548Y012196D01*
X038483Y012168D01*
X038417Y012143D01*
X038349Y012122D01*
X038281Y012104D01*
X038211Y012091D01*
X038141Y012081D01*
X038071Y012075D01*
X038000Y012073D01*
X037929Y012075D01*
X037859Y012081D01*
X037789Y012091D01*
X037719Y012104D01*
X037651Y012122D01*
X037583Y012143D01*
X037517Y012168D01*
X037452Y012196D01*
X037389Y012229D01*
X037328Y012264D01*
X037269Y012303D01*
X037212Y012345D01*
X037157Y012390D01*
X037106Y012439D01*
X037056Y012489D01*
X037010Y012543D01*
X036967Y012599D01*
X036927Y012658D01*
X036890Y012718D01*
X036857Y012780D01*
X036827Y012845D01*
X036801Y012910D01*
X036779Y012978D01*
X036760Y013046D01*
X036745Y013115D01*
X036734Y013185D01*
X036727Y013255D01*
X036723Y013326D01*
X036724Y013397D01*
X036728Y013467D01*
X036737Y013538D01*
X036749Y013607D01*
X036765Y013676D01*
X036785Y013744D01*
X036809Y013811D01*
X036836Y013876D01*
X036867Y013940D01*
X036902Y014002D01*
X036939Y014061D01*
X036981Y014119D01*
X037025Y014174D01*
X037072Y014227D01*
X037122Y014277D01*
X037175Y014324D01*
X037230Y014369D01*
X037235Y014361D01*
X037180Y014317D01*
X037127Y014269D01*
X037077Y014219D01*
X037029Y014166D01*
X036985Y014110D01*
X036944Y014052D01*
X036907Y013992D01*
X036872Y013930D01*
X036842Y013866D01*
X036815Y013800D01*
X036791Y013733D01*
X036772Y013665D01*
X036756Y013595D01*
X036744Y013525D01*
X036736Y013455D01*
X036732Y013384D01*
X036733Y013313D01*
X036737Y013242D01*
X036745Y013171D01*
X036757Y013101D01*
X036773Y013032D01*
X036792Y012964D01*
X036816Y012896D01*
X036843Y012831D01*
X036874Y012767D01*
X036908Y012705D01*
X036946Y012645D01*
X036988Y012587D01*
X037032Y012531D01*
X037079Y012478D01*
X037130Y012428D01*
X037183Y012381D01*
X037238Y012336D01*
X037296Y012295D01*
X037356Y012258D01*
X037419Y012223D01*
X037483Y012192D01*
X037548Y012165D01*
X037615Y012142D01*
X037684Y012122D01*
X037753Y012106D01*
X037823Y012094D01*
X037894Y012086D01*
X037964Y012082D01*
X038036Y012082D01*
X038106Y012086D01*
X038177Y012094D01*
X038247Y012106D01*
X038316Y012122D01*
X038385Y012142D01*
X038452Y012165D01*
X038517Y012192D01*
X038581Y012223D01*
X038644Y012258D01*
X038704Y012295D01*
X038762Y012336D01*
X038817Y012381D01*
X038870Y012428D01*
X038921Y012478D01*
X038968Y012531D01*
X039012Y012587D01*
X039054Y012645D01*
X039092Y012705D01*
X039126Y012767D01*
X039157Y012831D01*
X039184Y012896D01*
X039208Y012964D01*
X039227Y013032D01*
X039243Y013101D01*
X039255Y013171D01*
X039263Y013242D01*
X039267Y013313D01*
X039268Y013384D01*
X039264Y013455D01*
X039256Y013525D01*
X039244Y013595D01*
X039228Y013665D01*
X039209Y013733D01*
X039185Y013800D01*
X039158Y013866D01*
X039128Y013930D01*
X039093Y013992D01*
X039056Y014052D01*
X039015Y014110D01*
X038971Y014166D01*
X038923Y014219D01*
X038873Y014269D01*
X038820Y014317D01*
X038765Y014361D01*
X038759Y014354D01*
X038814Y014310D01*
X038867Y014263D01*
X038917Y014213D01*
X038964Y014160D01*
X039008Y014105D01*
X039048Y014047D01*
X039086Y013988D01*
X039120Y013926D01*
X039150Y013862D01*
X039177Y013797D01*
X039200Y013730D01*
X039220Y013662D01*
X039235Y013594D01*
X039247Y013524D01*
X039255Y013454D01*
X039259Y013383D01*
X039258Y013313D01*
X039254Y013242D01*
X039246Y013172D01*
X039234Y013103D01*
X039219Y013034D01*
X039199Y012966D01*
X039176Y012900D01*
X039149Y012835D01*
X039118Y012771D01*
X039084Y012709D01*
X039046Y012650D01*
X039005Y012592D01*
X038961Y012537D01*
X038914Y012484D01*
X038864Y012435D01*
X038812Y012388D01*
X038756Y012344D01*
X038699Y012303D01*
X038639Y012265D01*
X038577Y012231D01*
X038514Y012201D01*
X038449Y012174D01*
X038382Y012150D01*
X038314Y012131D01*
X038245Y012115D01*
X038176Y012103D01*
X038106Y012095D01*
X038035Y012091D01*
X037965Y012091D01*
X037894Y012095D01*
X037824Y012103D01*
X037755Y012115D01*
X037686Y012131D01*
X037618Y012150D01*
X037551Y012174D01*
X037486Y012201D01*
X037423Y012231D01*
X037361Y012265D01*
X037301Y012303D01*
X037244Y012344D01*
X037188Y012388D01*
X037136Y012435D01*
X037086Y012484D01*
X037039Y012537D01*
X036995Y012592D01*
X036954Y012650D01*
X036916Y012709D01*
X036882Y012771D01*
X036851Y012835D01*
X036824Y012900D01*
X036801Y012966D01*
X036781Y013034D01*
X036766Y013103D01*
X036754Y013172D01*
X036746Y013242D01*
X036742Y013313D01*
X036741Y013383D01*
X036745Y013454D01*
X036753Y013524D01*
X036765Y013594D01*
X036780Y013662D01*
X036800Y013730D01*
X036823Y013797D01*
X036850Y013862D01*
X036880Y013926D01*
X036914Y013988D01*
X036952Y014047D01*
X036992Y014105D01*
X037036Y014160D01*
X037083Y014213D01*
X037133Y014263D01*
X037186Y014310D01*
X037241Y014354D01*
X037246Y014347D01*
X037191Y014303D01*
X037139Y014256D01*
X037090Y014207D01*
X037043Y014154D01*
X037000Y014100D01*
X036959Y014042D01*
X036922Y013983D01*
X036888Y013922D01*
X036858Y013858D01*
X036831Y013794D01*
X036808Y013727D01*
X036789Y013660D01*
X036774Y013592D01*
X036762Y013523D01*
X036754Y013453D01*
X036750Y013383D01*
X036751Y013313D01*
X036755Y013243D01*
X036763Y013174D01*
X036774Y013105D01*
X036790Y013036D01*
X036809Y012969D01*
X036833Y012903D01*
X036860Y012838D01*
X036890Y012775D01*
X036924Y012714D01*
X036961Y012655D01*
X037002Y012597D01*
X037046Y012543D01*
X037092Y012491D01*
X037142Y012441D01*
X037194Y012394D01*
X037249Y012351D01*
X037306Y012310D01*
X037365Y012273D01*
X037427Y012239D01*
X037490Y012209D01*
X037555Y012182D01*
X037621Y012159D01*
X037688Y012140D01*
X037756Y012124D01*
X037825Y012112D01*
X037895Y012104D01*
X037965Y012100D01*
X038035Y012100D01*
X038105Y012104D01*
X038175Y012112D01*
X038244Y012124D01*
X038312Y012140D01*
X038379Y012159D01*
X038445Y012182D01*
X038510Y012209D01*
X038573Y012239D01*
X038635Y012273D01*
X038694Y012310D01*
X038751Y012351D01*
X038806Y012394D01*
X038858Y012441D01*
X038908Y012491D01*
X038954Y012543D01*
X038998Y012597D01*
X039039Y012655D01*
X039076Y012714D01*
X039110Y012775D01*
X039140Y012838D01*
X039167Y012903D01*
X039191Y012969D01*
X039210Y013036D01*
X039226Y013105D01*
X039237Y013174D01*
X039245Y013243D01*
X039249Y013313D01*
X039250Y013383D01*
X039246Y013453D01*
X039238Y013523D01*
X039226Y013592D01*
X039211Y013660D01*
X039192Y013727D01*
X039169Y013794D01*
X039142Y013858D01*
X039112Y013922D01*
X039078Y013983D01*
X039041Y014042D01*
X039000Y014100D01*
X038957Y014154D01*
X038910Y014207D01*
X038861Y014256D01*
X038809Y014303D01*
X038754Y014347D01*
X038749Y014340D01*
X038803Y014296D01*
X038855Y014250D01*
X038904Y014201D01*
X038950Y014149D01*
X038993Y014094D01*
X039033Y014037D01*
X039070Y013978D01*
X039104Y013917D01*
X039134Y013855D01*
X039160Y013790D01*
X039183Y013725D01*
X039202Y013658D01*
X039218Y013590D01*
X039229Y013521D01*
X039237Y013452D01*
X039241Y013383D01*
X039240Y013313D01*
X039236Y013244D01*
X039229Y013175D01*
X039217Y013106D01*
X039201Y013039D01*
X039182Y012972D01*
X039159Y012906D01*
X039132Y012842D01*
X039102Y012779D01*
X039068Y012718D01*
X039031Y012660D01*
X038991Y012603D01*
X038948Y012549D01*
X038901Y012497D01*
X038852Y012448D01*
X038800Y012401D01*
X038746Y012358D01*
X038689Y012318D01*
X038630Y012281D01*
X038569Y012247D01*
X038506Y012217D01*
X038442Y012190D01*
X038377Y012167D01*
X038310Y012148D01*
X038242Y012133D01*
X038173Y012121D01*
X038104Y012113D01*
X038035Y012109D01*
X037965Y012109D01*
X037896Y012113D01*
X037827Y012121D01*
X037758Y012133D01*
X037690Y012148D01*
X037623Y012167D01*
X037558Y012190D01*
X037494Y012217D01*
X037431Y012247D01*
X037370Y012281D01*
X037311Y012318D01*
X037254Y012358D01*
X037200Y012401D01*
X037148Y012448D01*
X037099Y012497D01*
X037052Y012549D01*
X037009Y012603D01*
X036969Y012660D01*
X036932Y012718D01*
X036898Y012779D01*
X036868Y012842D01*
X036841Y012906D01*
X036818Y012972D01*
X036799Y013039D01*
X036783Y013106D01*
X036771Y013175D01*
X036764Y013244D01*
X036760Y013313D01*
X036759Y013383D01*
X036763Y013452D01*
X036771Y013521D01*
X036782Y013590D01*
X036798Y013658D01*
X036817Y013725D01*
X036840Y013790D01*
X036866Y013855D01*
X036896Y013917D01*
X036930Y013978D01*
X036967Y014037D01*
X037007Y014094D01*
X037050Y014149D01*
X037096Y014201D01*
X037145Y014250D01*
X037197Y014296D01*
X037251Y014340D01*
X037257Y014333D01*
X037203Y014289D01*
X037152Y014243D01*
X037103Y014194D01*
X037057Y014143D01*
X037014Y014089D01*
X036974Y014032D01*
X036938Y013974D01*
X036904Y013913D01*
X036874Y013851D01*
X036848Y013787D01*
X036826Y013722D01*
X036807Y013656D01*
X036791Y013588D01*
X036780Y013520D01*
X036772Y013452D01*
X036768Y013383D01*
X036769Y013314D01*
X036773Y013245D01*
X036780Y013176D01*
X036792Y013108D01*
X036807Y013041D01*
X036827Y012974D01*
X036850Y012909D01*
X036876Y012846D01*
X036906Y012783D01*
X036939Y012723D01*
X036976Y012665D01*
X037016Y012608D01*
X037059Y012554D01*
X037105Y012503D01*
X037154Y012454D01*
X037206Y012408D01*
X037260Y012365D01*
X037316Y012325D01*
X037375Y012289D01*
X037435Y012255D01*
X037497Y012225D01*
X037561Y012199D01*
X037626Y012176D01*
X037693Y012157D01*
X037760Y012142D01*
X037828Y012130D01*
X037897Y012122D01*
X037965Y012118D01*
X038035Y012118D01*
X038103Y012122D01*
X038172Y012130D01*
X038240Y012142D01*
X038307Y012157D01*
X038374Y012176D01*
X038439Y012199D01*
X038503Y012225D01*
X038565Y012255D01*
X038625Y012289D01*
X038684Y012325D01*
X038740Y012365D01*
X038794Y012408D01*
X038846Y012454D01*
X038895Y012503D01*
X038941Y012554D01*
X038984Y012608D01*
X039024Y012665D01*
X039061Y012723D01*
X039094Y012783D01*
X039124Y012846D01*
X039150Y012909D01*
X039173Y012974D01*
X039193Y013041D01*
X039208Y013108D01*
X039220Y013176D01*
X039227Y013245D01*
X039231Y013314D01*
X039232Y013383D01*
X039228Y013452D01*
X039220Y013520D01*
X039209Y013588D01*
X039193Y013656D01*
X039174Y013722D01*
X039152Y013787D01*
X039126Y013851D01*
X039096Y013913D01*
X039062Y013974D01*
X039026Y014032D01*
X038986Y014089D01*
X038943Y014143D01*
X038897Y014194D01*
X038848Y014243D01*
X038797Y014289D01*
X038743Y014333D01*
X038738Y014325D01*
X038792Y014282D01*
X038843Y014236D01*
X038892Y014186D01*
X038938Y014135D01*
X038981Y014080D01*
X039021Y014023D01*
X039057Y013965D01*
X039091Y013904D01*
X039120Y013841D01*
X039146Y013777D01*
X039168Y013711D01*
X039187Y013644D01*
X039202Y013577D01*
X039213Y013508D01*
X039220Y013439D01*
X039223Y013370D01*
X039222Y013301D01*
X039217Y013231D01*
X039209Y013163D01*
X039196Y013095D01*
X039180Y013027D01*
X039159Y012961D01*
X039136Y012896D01*
X039108Y012832D01*
X039077Y012770D01*
X039042Y012710D01*
X039004Y012652D01*
X038963Y012596D01*
X038919Y012543D01*
X038872Y012492D01*
X038822Y012444D01*
X038769Y012399D01*
X038714Y012357D01*
X038657Y012318D01*
X038597Y012283D01*
X038536Y012251D01*
X038473Y012222D01*
X038408Y012197D01*
X038342Y012176D01*
X038275Y012158D01*
X038207Y012145D01*
X038138Y012135D01*
X038069Y012129D01*
X038000Y012127D01*
X037931Y012129D01*
X037862Y012135D01*
X037793Y012145D01*
X037725Y012158D01*
X037658Y012176D01*
X037592Y012197D01*
X037527Y012222D01*
X037464Y012251D01*
X037403Y012283D01*
X037343Y012318D01*
X037286Y012357D01*
X037231Y012399D01*
X037178Y012444D01*
X037128Y012492D01*
X037081Y012543D01*
X037037Y012596D01*
X036996Y012652D01*
X036958Y012710D01*
X036923Y012770D01*
X036892Y012832D01*
X036864Y012896D01*
X036841Y012961D01*
X036820Y013027D01*
X036804Y013095D01*
X036791Y013163D01*
X036783Y013231D01*
X036778Y013301D01*
X036777Y013370D01*
X036780Y013439D01*
X036787Y013508D01*
X036798Y013577D01*
X036813Y013644D01*
X036832Y013711D01*
X036854Y013777D01*
X036880Y013841D01*
X036909Y013904D01*
X036943Y013965D01*
X036979Y014023D01*
X037019Y014080D01*
X037062Y014135D01*
X037108Y014186D01*
X037157Y014236D01*
X037208Y014282D01*
X037262Y014325D01*
X037268Y014318D01*
X037214Y014275D01*
X037163Y014229D01*
X037114Y014180D01*
X037069Y014129D01*
X037026Y014075D01*
X036987Y014018D01*
X036950Y013960D01*
X036917Y013900D01*
X036888Y013837D01*
X036862Y013774D01*
X036840Y013708D01*
X036822Y013642D01*
X036807Y013575D01*
X036796Y013507D01*
X036789Y013438D01*
X036786Y013370D01*
X036787Y013301D01*
X036792Y013232D01*
X036800Y013164D01*
X036813Y013096D01*
X036829Y013030D01*
X036849Y012964D01*
X036873Y012899D01*
X036900Y012836D01*
X036931Y012775D01*
X036965Y012715D01*
X037003Y012657D01*
X037044Y012602D01*
X037088Y012549D01*
X037135Y012499D01*
X037184Y012451D01*
X037236Y012406D01*
X037291Y012364D01*
X037348Y012326D01*
X037407Y012291D01*
X037468Y012259D01*
X037531Y012230D01*
X037595Y012206D01*
X037661Y012184D01*
X037727Y012167D01*
X037795Y012154D01*
X037863Y012144D01*
X037931Y012138D01*
X038000Y012136D01*
X038069Y012138D01*
X038137Y012144D01*
X038205Y012154D01*
X038273Y012167D01*
X038339Y012184D01*
X038405Y012206D01*
X038469Y012230D01*
X038532Y012259D01*
X038593Y012291D01*
X038652Y012326D01*
X038709Y012364D01*
X038764Y012406D01*
X038816Y012451D01*
X038865Y012499D01*
X038912Y012549D01*
X038956Y012602D01*
X038997Y012657D01*
X039035Y012715D01*
X039069Y012775D01*
X039100Y012836D01*
X039127Y012899D01*
X039151Y012964D01*
X039171Y013030D01*
X039187Y013096D01*
X039200Y013164D01*
X039208Y013232D01*
X039213Y013301D01*
X039214Y013370D01*
X039211Y013438D01*
X039204Y013507D01*
X039193Y013575D01*
X039178Y013642D01*
X039160Y013708D01*
X039138Y013774D01*
X039112Y013837D01*
X039083Y013900D01*
X039050Y013960D01*
X039013Y014018D01*
X038974Y014075D01*
X038931Y014129D01*
X038886Y014180D01*
X038837Y014229D01*
X038786Y014275D01*
X038732Y014318D01*
X004468Y020570D02*
X004540Y020624D01*
X004539Y020623D02*
X004582Y020570D01*
X004627Y020519D01*
X004676Y020471D01*
X004727Y020426D01*
X004781Y020383D01*
X004837Y020344D01*
X004895Y020308D01*
X004955Y020275D01*
X005016Y020246D01*
X005080Y020221D01*
X005144Y020199D01*
X005210Y020180D01*
X005277Y020166D01*
X005344Y020155D01*
X005412Y020148D01*
X005480Y020145D01*
X005549Y020146D01*
X005617Y020151D01*
X005685Y020159D01*
X005752Y020172D01*
X005818Y020188D01*
X005883Y020208D01*
X005948Y020231D01*
X006010Y020258D01*
X006071Y020289D01*
X006130Y020323D01*
X006188Y020360D01*
X006243Y020401D01*
X006295Y020445D01*
X006345Y020491D01*
X006392Y020540D01*
X006437Y020592D01*
X006478Y020646D01*
X006517Y020703D01*
X006552Y020762D01*
X006583Y020822D01*
X006611Y020884D01*
X006636Y020948D01*
X006657Y021013D01*
X006674Y021079D01*
X006688Y021146D01*
X006697Y021214D01*
X006703Y021282D01*
X006705Y021350D01*
X006703Y021418D01*
X006697Y021486D01*
X006688Y021554D01*
X006674Y021621D01*
X006657Y021687D01*
X006636Y021752D01*
X006611Y021816D01*
X006583Y021878D01*
X006552Y021938D01*
X006517Y021997D01*
X006478Y022054D01*
X006437Y022108D01*
X006392Y022160D01*
X006345Y022209D01*
X006295Y022255D01*
X006243Y022299D01*
X006188Y022340D01*
X006130Y022377D01*
X006071Y022411D01*
X006010Y022442D01*
X005948Y022469D01*
X005883Y022492D01*
X005818Y022512D01*
X005752Y022528D01*
X005685Y022541D01*
X005617Y022549D01*
X005549Y022554D01*
X005480Y022555D01*
X005412Y022552D01*
X005344Y022545D01*
X005277Y022534D01*
X005210Y022520D01*
X005144Y022501D01*
X005080Y022479D01*
X005016Y022454D01*
X004955Y022425D01*
X004895Y022392D01*
X004837Y022356D01*
X004781Y022317D01*
X004727Y022274D01*
X004676Y022229D01*
X004627Y022181D01*
X004582Y022130D01*
X004539Y022077D01*
X004468Y022130D01*
X004467Y022131D01*
X004511Y022186D01*
X004559Y022239D01*
X004609Y022290D01*
X004662Y022337D01*
X004717Y022381D01*
X004775Y022423D01*
X004835Y022461D01*
X004896Y022496D01*
X004960Y022527D01*
X005025Y022555D01*
X005092Y022579D01*
X005160Y022600D01*
X005229Y022616D01*
X005299Y022629D01*
X005369Y022638D01*
X005440Y022644D01*
X005511Y022645D01*
X005582Y022642D01*
X005653Y022636D01*
X005723Y022626D01*
X005792Y022612D01*
X005861Y022594D01*
X005929Y022572D01*
X005995Y022547D01*
X006060Y022518D01*
X006123Y022485D01*
X006184Y022449D01*
X006243Y022410D01*
X006300Y022368D01*
X006355Y022323D01*
X006407Y022274D01*
X006456Y022223D01*
X006503Y022170D01*
X006546Y022113D01*
X006586Y022055D01*
X006623Y021994D01*
X006657Y021932D01*
X006687Y021868D01*
X006714Y021802D01*
X006737Y021735D01*
X006756Y021666D01*
X006771Y021597D01*
X006783Y021527D01*
X006791Y021456D01*
X006795Y021385D01*
X006795Y021315D01*
X006791Y021244D01*
X006783Y021173D01*
X006771Y021103D01*
X006756Y021034D01*
X006737Y020965D01*
X006714Y020898D01*
X006687Y020832D01*
X006657Y020768D01*
X006623Y020706D01*
X006586Y020645D01*
X006546Y020587D01*
X006503Y020530D01*
X006456Y020477D01*
X006407Y020426D01*
X006355Y020377D01*
X006300Y020332D01*
X006243Y020290D01*
X006184Y020251D01*
X006123Y020215D01*
X006060Y020182D01*
X005995Y020153D01*
X005929Y020128D01*
X005861Y020106D01*
X005792Y020088D01*
X005723Y020074D01*
X005653Y020064D01*
X005582Y020058D01*
X005511Y020055D01*
X005440Y020056D01*
X005369Y020062D01*
X005299Y020071D01*
X005229Y020084D01*
X005160Y020100D01*
X005092Y020121D01*
X005025Y020145D01*
X004960Y020173D01*
X004896Y020204D01*
X004835Y020239D01*
X004775Y020277D01*
X004717Y020319D01*
X004662Y020363D01*
X004609Y020410D01*
X004559Y020461D01*
X004511Y020514D01*
X004467Y020569D01*
X004474Y020574D01*
X004519Y020519D01*
X004566Y020466D01*
X004617Y020415D01*
X004670Y020368D01*
X004726Y020323D01*
X004784Y020282D01*
X004844Y020244D01*
X004906Y020209D01*
X004970Y020178D01*
X005036Y020151D01*
X005103Y020127D01*
X005172Y020107D01*
X005241Y020090D01*
X005311Y020078D01*
X005382Y020069D01*
X005453Y020065D01*
X005524Y020064D01*
X005595Y020068D01*
X005666Y020075D01*
X005737Y020086D01*
X005806Y020101D01*
X005875Y020120D01*
X005943Y020143D01*
X006009Y020169D01*
X006074Y020199D01*
X006136Y020233D01*
X006197Y020269D01*
X006256Y020310D01*
X006313Y020353D01*
X006367Y020400D01*
X006418Y020449D01*
X006466Y020502D01*
X006512Y020556D01*
X006554Y020614D01*
X006593Y020673D01*
X006629Y020735D01*
X006662Y020798D01*
X006690Y020863D01*
X006716Y020930D01*
X006737Y020998D01*
X006755Y021067D01*
X006768Y021137D01*
X006778Y021208D01*
X006784Y021279D01*
X006786Y021350D01*
X006784Y021421D01*
X006778Y021492D01*
X006768Y021563D01*
X006755Y021633D01*
X006737Y021702D01*
X006716Y021770D01*
X006690Y021837D01*
X006662Y021902D01*
X006629Y021965D01*
X006593Y022027D01*
X006554Y022086D01*
X006512Y022144D01*
X006466Y022198D01*
X006418Y022251D01*
X006367Y022300D01*
X006313Y022347D01*
X006256Y022390D01*
X006197Y022431D01*
X006136Y022467D01*
X006074Y022501D01*
X006009Y022531D01*
X005943Y022557D01*
X005875Y022580D01*
X005806Y022599D01*
X005737Y022614D01*
X005666Y022625D01*
X005595Y022632D01*
X005524Y022636D01*
X005453Y022635D01*
X005382Y022631D01*
X005311Y022622D01*
X005241Y022610D01*
X005172Y022593D01*
X005103Y022573D01*
X005036Y022549D01*
X004970Y022522D01*
X004906Y022491D01*
X004844Y022456D01*
X004784Y022418D01*
X004726Y022377D01*
X004670Y022332D01*
X004617Y022285D01*
X004566Y022234D01*
X004519Y022181D01*
X004474Y022126D01*
X004481Y022120D01*
X004526Y022175D01*
X004573Y022228D01*
X004623Y022278D01*
X004676Y022325D01*
X004731Y022369D01*
X004789Y022411D01*
X004848Y022448D01*
X004910Y022483D01*
X004974Y022514D01*
X005039Y022541D01*
X005106Y022565D01*
X005174Y022585D01*
X005243Y022601D01*
X005312Y022613D01*
X005383Y022622D01*
X005453Y022626D01*
X005524Y022627D01*
X005595Y022623D01*
X005665Y022616D01*
X005735Y022605D01*
X005804Y022590D01*
X005872Y022571D01*
X005940Y022549D01*
X006005Y022523D01*
X006070Y022493D01*
X006132Y022460D01*
X006192Y022423D01*
X006251Y022383D01*
X006307Y022340D01*
X006361Y022294D01*
X006411Y022244D01*
X006460Y022193D01*
X006505Y022138D01*
X006547Y022081D01*
X006586Y022022D01*
X006621Y021961D01*
X006654Y021898D01*
X006682Y021833D01*
X006707Y021767D01*
X006728Y021699D01*
X006746Y021631D01*
X006759Y021561D01*
X006769Y021491D01*
X006775Y021421D01*
X006777Y021350D01*
X006775Y021279D01*
X006769Y021209D01*
X006759Y021139D01*
X006746Y021069D01*
X006728Y021001D01*
X006707Y020933D01*
X006682Y020867D01*
X006654Y020802D01*
X006621Y020739D01*
X006586Y020678D01*
X006547Y020619D01*
X006505Y020562D01*
X006460Y020507D01*
X006411Y020456D01*
X006361Y020406D01*
X006307Y020360D01*
X006251Y020317D01*
X006192Y020277D01*
X006132Y020240D01*
X006070Y020207D01*
X006005Y020177D01*
X005940Y020151D01*
X005872Y020129D01*
X005804Y020110D01*
X005735Y020095D01*
X005665Y020084D01*
X005595Y020077D01*
X005524Y020073D01*
X005453Y020074D01*
X005383Y020078D01*
X005312Y020087D01*
X005243Y020099D01*
X005174Y020115D01*
X005106Y020135D01*
X005039Y020159D01*
X004974Y020186D01*
X004910Y020217D01*
X004848Y020252D01*
X004789Y020289D01*
X004731Y020331D01*
X004676Y020375D01*
X004623Y020422D01*
X004573Y020472D01*
X004526Y020525D01*
X004481Y020580D01*
X004489Y020585D01*
X004533Y020530D01*
X004581Y020477D01*
X004631Y020427D01*
X004684Y020379D01*
X004740Y020335D01*
X004798Y020294D01*
X004858Y020257D01*
X004920Y020222D01*
X004984Y020192D01*
X005050Y020165D01*
X005117Y020141D01*
X005185Y020122D01*
X005255Y020106D01*
X005325Y020094D01*
X005395Y020086D01*
X005466Y020082D01*
X005537Y020083D01*
X005608Y020087D01*
X005679Y020095D01*
X005749Y020107D01*
X005818Y020123D01*
X005886Y020142D01*
X005954Y020166D01*
X006019Y020193D01*
X006083Y020224D01*
X006145Y020258D01*
X006205Y020296D01*
X006263Y020338D01*
X006319Y020382D01*
X006372Y020429D01*
X006422Y020480D01*
X006469Y020533D01*
X006514Y020588D01*
X006555Y020646D01*
X006592Y020706D01*
X006627Y020769D01*
X006658Y020833D01*
X006685Y020898D01*
X006708Y020965D01*
X006728Y021034D01*
X006744Y021103D01*
X006756Y021173D01*
X006764Y021244D01*
X006768Y021314D01*
X006768Y021386D01*
X006764Y021456D01*
X006756Y021527D01*
X006744Y021597D01*
X006728Y021666D01*
X006708Y021735D01*
X006685Y021802D01*
X006658Y021867D01*
X006627Y021931D01*
X006592Y021994D01*
X006555Y022054D01*
X006514Y022112D01*
X006469Y022167D01*
X006422Y022220D01*
X006372Y022271D01*
X006319Y022318D01*
X006263Y022362D01*
X006205Y022404D01*
X006145Y022442D01*
X006083Y022476D01*
X006019Y022507D01*
X005954Y022534D01*
X005886Y022558D01*
X005818Y022577D01*
X005749Y022593D01*
X005679Y022605D01*
X005608Y022613D01*
X005537Y022617D01*
X005466Y022618D01*
X005395Y022614D01*
X005325Y022606D01*
X005255Y022594D01*
X005185Y022578D01*
X005117Y022559D01*
X005050Y022535D01*
X004984Y022508D01*
X004920Y022478D01*
X004858Y022443D01*
X004798Y022406D01*
X004740Y022365D01*
X004684Y022321D01*
X004631Y022273D01*
X004581Y022223D01*
X004533Y022170D01*
X004489Y022115D01*
X004496Y022109D01*
X004540Y022164D01*
X004587Y022217D01*
X004637Y022267D01*
X004690Y022314D01*
X004745Y022358D01*
X004803Y022398D01*
X004862Y022436D01*
X004924Y022470D01*
X004988Y022500D01*
X005053Y022527D01*
X005120Y022550D01*
X005188Y022570D01*
X005256Y022585D01*
X005326Y022597D01*
X005396Y022605D01*
X005467Y022609D01*
X005537Y022608D01*
X005608Y022604D01*
X005678Y022596D01*
X005747Y022584D01*
X005816Y022569D01*
X005884Y022549D01*
X005950Y022526D01*
X006015Y022499D01*
X006079Y022468D01*
X006141Y022434D01*
X006200Y022396D01*
X006258Y022355D01*
X006313Y022311D01*
X006366Y022264D01*
X006415Y022214D01*
X006462Y022162D01*
X006506Y022106D01*
X006547Y022049D01*
X006585Y021989D01*
X006619Y021927D01*
X006649Y021864D01*
X006676Y021799D01*
X006700Y021732D01*
X006719Y021664D01*
X006735Y021595D01*
X006747Y021526D01*
X006755Y021456D01*
X006759Y021385D01*
X006759Y021315D01*
X006755Y021244D01*
X006747Y021174D01*
X006735Y021105D01*
X006719Y021036D01*
X006700Y020968D01*
X006676Y020901D01*
X006649Y020836D01*
X006619Y020773D01*
X006585Y020711D01*
X006547Y020651D01*
X006506Y020594D01*
X006462Y020538D01*
X006415Y020486D01*
X006366Y020436D01*
X006313Y020389D01*
X006258Y020345D01*
X006200Y020304D01*
X006141Y020266D01*
X006079Y020232D01*
X006015Y020201D01*
X005950Y020174D01*
X005884Y020151D01*
X005816Y020131D01*
X005747Y020116D01*
X005678Y020104D01*
X005608Y020096D01*
X005537Y020092D01*
X005467Y020091D01*
X005396Y020095D01*
X005326Y020103D01*
X005256Y020115D01*
X005188Y020130D01*
X005120Y020150D01*
X005053Y020173D01*
X004988Y020200D01*
X004924Y020230D01*
X004862Y020264D01*
X004803Y020302D01*
X004745Y020342D01*
X004690Y020386D01*
X004637Y020433D01*
X004587Y020483D01*
X004540Y020536D01*
X004496Y020591D01*
X004503Y020596D01*
X004547Y020541D01*
X004594Y020489D01*
X004643Y020440D01*
X004696Y020393D01*
X004750Y020350D01*
X004808Y020309D01*
X004867Y020272D01*
X004928Y020238D01*
X004992Y020208D01*
X005056Y020181D01*
X005123Y020158D01*
X005190Y020139D01*
X005258Y020124D01*
X005327Y020112D01*
X005397Y020104D01*
X005467Y020100D01*
X005537Y020101D01*
X005607Y020105D01*
X005676Y020113D01*
X005745Y020124D01*
X005814Y020140D01*
X005881Y020159D01*
X005947Y020183D01*
X006012Y020210D01*
X006075Y020240D01*
X006136Y020274D01*
X006195Y020311D01*
X006253Y020352D01*
X006307Y020396D01*
X006359Y020442D01*
X006409Y020492D01*
X006456Y020544D01*
X006499Y020599D01*
X006540Y020656D01*
X006577Y020715D01*
X006611Y020777D01*
X006641Y020840D01*
X006668Y020905D01*
X006691Y020971D01*
X006710Y021038D01*
X006726Y021106D01*
X006738Y021175D01*
X006746Y021245D01*
X006750Y021315D01*
X006750Y021385D01*
X006746Y021455D01*
X006738Y021525D01*
X006726Y021594D01*
X006710Y021662D01*
X006691Y021729D01*
X006668Y021795D01*
X006641Y021860D01*
X006611Y021923D01*
X006577Y021985D01*
X006540Y022044D01*
X006499Y022101D01*
X006456Y022156D01*
X006409Y022208D01*
X006359Y022258D01*
X006307Y022304D01*
X006253Y022348D01*
X006195Y022389D01*
X006136Y022426D01*
X006075Y022460D01*
X006012Y022490D01*
X005947Y022517D01*
X005881Y022541D01*
X005814Y022560D01*
X005745Y022576D01*
X005676Y022587D01*
X005607Y022595D01*
X005537Y022599D01*
X005467Y022600D01*
X005397Y022596D01*
X005327Y022588D01*
X005258Y022576D01*
X005190Y022561D01*
X005123Y022542D01*
X005056Y022519D01*
X004992Y022492D01*
X004928Y022462D01*
X004867Y022428D01*
X004808Y022391D01*
X004750Y022350D01*
X004696Y022307D01*
X004643Y022260D01*
X004594Y022211D01*
X004547Y022159D01*
X004503Y022104D01*
X004510Y022099D01*
X004554Y022153D01*
X004600Y022205D01*
X004649Y022254D01*
X004701Y022300D01*
X004756Y022343D01*
X004813Y022383D01*
X004872Y022420D01*
X004933Y022454D01*
X004995Y022484D01*
X005060Y022510D01*
X005125Y022533D01*
X005192Y022552D01*
X005260Y022568D01*
X005329Y022579D01*
X005398Y022587D01*
X005467Y022591D01*
X005537Y022590D01*
X005606Y022586D01*
X005675Y022579D01*
X005744Y022567D01*
X005811Y022551D01*
X005878Y022532D01*
X005944Y022509D01*
X006008Y022482D01*
X006071Y022452D01*
X006132Y022418D01*
X006190Y022381D01*
X006247Y022341D01*
X006301Y022298D01*
X006353Y022251D01*
X006402Y022202D01*
X006449Y022150D01*
X006492Y022096D01*
X006532Y022039D01*
X006569Y021980D01*
X006603Y021919D01*
X006633Y021856D01*
X006660Y021792D01*
X006683Y021727D01*
X006702Y021660D01*
X006717Y021592D01*
X006729Y021523D01*
X006737Y021454D01*
X006741Y021385D01*
X006741Y021315D01*
X006737Y021246D01*
X006729Y021177D01*
X006717Y021108D01*
X006702Y021040D01*
X006683Y020973D01*
X006660Y020908D01*
X006633Y020844D01*
X006603Y020781D01*
X006569Y020720D01*
X006532Y020661D01*
X006492Y020604D01*
X006449Y020550D01*
X006402Y020498D01*
X006353Y020449D01*
X006301Y020402D01*
X006247Y020359D01*
X006190Y020319D01*
X006132Y020282D01*
X006071Y020248D01*
X006008Y020218D01*
X005944Y020191D01*
X005878Y020168D01*
X005811Y020149D01*
X005744Y020133D01*
X005675Y020121D01*
X005606Y020114D01*
X005537Y020110D01*
X005467Y020109D01*
X005398Y020113D01*
X005329Y020121D01*
X005260Y020132D01*
X005192Y020148D01*
X005125Y020167D01*
X005060Y020190D01*
X004995Y020216D01*
X004933Y020246D01*
X004872Y020280D01*
X004813Y020317D01*
X004756Y020357D01*
X004701Y020400D01*
X004649Y020446D01*
X004600Y020495D01*
X004554Y020547D01*
X004510Y020601D01*
X004517Y020607D01*
X004561Y020553D01*
X004607Y020502D01*
X004656Y020453D01*
X004707Y020407D01*
X004761Y020364D01*
X004818Y020324D01*
X004876Y020288D01*
X004937Y020254D01*
X004999Y020224D01*
X005063Y020198D01*
X005128Y020176D01*
X005194Y020157D01*
X005262Y020141D01*
X005330Y020130D01*
X005398Y020122D01*
X005467Y020118D01*
X005536Y020119D01*
X005605Y020123D01*
X005674Y020130D01*
X005742Y020142D01*
X005809Y020157D01*
X005876Y020177D01*
X005941Y020200D01*
X006004Y020226D01*
X006067Y020256D01*
X006127Y020289D01*
X006185Y020326D01*
X006242Y020366D01*
X006296Y020409D01*
X006347Y020455D01*
X006396Y020504D01*
X006442Y020556D01*
X006485Y020610D01*
X006525Y020666D01*
X006561Y020725D01*
X006595Y020785D01*
X006625Y020847D01*
X006651Y020911D01*
X006674Y020976D01*
X006693Y021043D01*
X006708Y021110D01*
X006720Y021178D01*
X006728Y021247D01*
X006732Y021315D01*
X006732Y021385D01*
X006728Y021453D01*
X006720Y021522D01*
X006708Y021590D01*
X006693Y021657D01*
X006674Y021724D01*
X006651Y021789D01*
X006625Y021853D01*
X006595Y021915D01*
X006561Y021975D01*
X006525Y022034D01*
X006485Y022090D01*
X006442Y022144D01*
X006396Y022196D01*
X006347Y022245D01*
X006296Y022291D01*
X006242Y022334D01*
X006185Y022374D01*
X006127Y022411D01*
X006067Y022444D01*
X006004Y022474D01*
X005941Y022500D01*
X005876Y022523D01*
X005809Y022543D01*
X005742Y022558D01*
X005674Y022570D01*
X005605Y022577D01*
X005536Y022581D01*
X005467Y022582D01*
X005398Y022578D01*
X005330Y022570D01*
X005262Y022559D01*
X005194Y022543D01*
X005128Y022524D01*
X005063Y022502D01*
X004999Y022476D01*
X004937Y022446D01*
X004876Y022412D01*
X004818Y022376D01*
X004761Y022336D01*
X004707Y022293D01*
X004656Y022247D01*
X004607Y022198D01*
X004561Y022147D01*
X004517Y022093D01*
X004525Y022088D01*
X004568Y022142D01*
X004614Y022193D01*
X004664Y022242D01*
X004715Y022288D01*
X004770Y022331D01*
X004827Y022371D01*
X004885Y022407D01*
X004946Y022441D01*
X005009Y022470D01*
X005073Y022496D01*
X005139Y022518D01*
X005206Y022537D01*
X005273Y022552D01*
X005342Y022563D01*
X005411Y022570D01*
X005480Y022573D01*
X005549Y022572D01*
X005619Y022567D01*
X005687Y022559D01*
X005755Y022546D01*
X005823Y022530D01*
X005889Y022509D01*
X005954Y022486D01*
X006018Y022458D01*
X006080Y022427D01*
X006140Y022392D01*
X006198Y022354D01*
X006254Y022313D01*
X006307Y022269D01*
X006358Y022222D01*
X006406Y022172D01*
X006451Y022119D01*
X006493Y022064D01*
X006532Y022007D01*
X006567Y021947D01*
X006599Y021886D01*
X006628Y021823D01*
X006653Y021758D01*
X006674Y021692D01*
X006692Y021625D01*
X006705Y021557D01*
X006715Y021488D01*
X006721Y021419D01*
X006723Y021350D01*
X006721Y021281D01*
X006715Y021212D01*
X006705Y021143D01*
X006692Y021075D01*
X006674Y021008D01*
X006653Y020942D01*
X006628Y020877D01*
X006599Y020814D01*
X006567Y020753D01*
X006532Y020693D01*
X006493Y020636D01*
X006451Y020581D01*
X006406Y020528D01*
X006358Y020478D01*
X006307Y020431D01*
X006254Y020387D01*
X006198Y020346D01*
X006140Y020308D01*
X006080Y020273D01*
X006018Y020242D01*
X005954Y020214D01*
X005889Y020191D01*
X005823Y020170D01*
X005755Y020154D01*
X005687Y020141D01*
X005619Y020133D01*
X005549Y020128D01*
X005480Y020127D01*
X005411Y020130D01*
X005342Y020137D01*
X005273Y020148D01*
X005206Y020163D01*
X005139Y020182D01*
X005073Y020204D01*
X005009Y020230D01*
X004946Y020259D01*
X004885Y020293D01*
X004827Y020329D01*
X004770Y020369D01*
X004715Y020412D01*
X004664Y020458D01*
X004614Y020507D01*
X004568Y020558D01*
X004525Y020612D01*
X004532Y020618D01*
X004575Y020564D01*
X004621Y020513D01*
X004670Y020464D01*
X004721Y020419D01*
X004775Y020376D01*
X004832Y020337D01*
X004890Y020300D01*
X004950Y020267D01*
X005013Y020238D01*
X005076Y020212D01*
X005142Y020190D01*
X005208Y020172D01*
X005275Y020157D01*
X005343Y020146D01*
X005412Y020139D01*
X005480Y020136D01*
X005549Y020137D01*
X005618Y020142D01*
X005686Y020150D01*
X005754Y020163D01*
X005820Y020179D01*
X005886Y020199D01*
X005951Y020223D01*
X006014Y020250D01*
X006075Y020281D01*
X006135Y020315D01*
X006193Y020353D01*
X006248Y020394D01*
X006301Y020438D01*
X006351Y020485D01*
X006399Y020534D01*
X006444Y020586D01*
X006486Y020641D01*
X006524Y020698D01*
X006559Y020757D01*
X006591Y020818D01*
X006620Y020881D01*
X006644Y020945D01*
X006666Y021011D01*
X006683Y021077D01*
X006696Y021145D01*
X006706Y021213D01*
X006712Y021281D01*
X006714Y021350D01*
X006712Y021419D01*
X006706Y021487D01*
X006696Y021555D01*
X006683Y021623D01*
X006666Y021689D01*
X006644Y021755D01*
X006620Y021819D01*
X006591Y021882D01*
X006559Y021943D01*
X006524Y022002D01*
X006486Y022059D01*
X006444Y022114D01*
X006399Y022166D01*
X006351Y022215D01*
X006301Y022262D01*
X006248Y022306D01*
X006193Y022347D01*
X006135Y022385D01*
X006075Y022419D01*
X006014Y022450D01*
X005951Y022477D01*
X005886Y022501D01*
X005820Y022521D01*
X005754Y022537D01*
X005686Y022550D01*
X005618Y022558D01*
X005549Y022563D01*
X005480Y022564D01*
X005412Y022561D01*
X005343Y022554D01*
X005275Y022543D01*
X005208Y022528D01*
X005142Y022510D01*
X005076Y022488D01*
X005013Y022462D01*
X004950Y022433D01*
X004890Y022400D01*
X004832Y022363D01*
X004775Y022324D01*
X004721Y022281D01*
X004670Y022236D01*
X004621Y022187D01*
X004575Y022136D01*
X004532Y022082D01*
D20*
X005498Y022226D02*
X005498Y022172D01*
X005497Y022173D02*
X005441Y022171D01*
X005385Y022165D01*
X005330Y022155D01*
X005276Y022142D01*
X005223Y022125D01*
X005171Y022104D01*
X005120Y022080D01*
X005072Y022053D01*
X005025Y022022D01*
X004980Y021988D01*
X004938Y021951D01*
X004899Y021912D01*
X004862Y021870D01*
X004828Y021825D01*
X004797Y021778D01*
X004770Y021730D01*
X004746Y021679D01*
X004725Y021627D01*
X004708Y021574D01*
X004695Y021520D01*
X004685Y021465D01*
X004679Y021409D01*
X004677Y021353D01*
X004624Y021352D01*
X004623Y021353D01*
X004625Y021410D01*
X004631Y021467D01*
X004640Y021523D01*
X004653Y021579D01*
X004670Y021634D01*
X004690Y021687D01*
X004714Y021739D01*
X004741Y021789D01*
X004771Y021838D01*
X004805Y021884D01*
X004841Y021928D01*
X004880Y021970D01*
X004922Y022009D01*
X004966Y022045D01*
X005012Y022079D01*
X005061Y022109D01*
X005111Y022136D01*
X005163Y022160D01*
X005216Y022180D01*
X005271Y022197D01*
X005327Y022210D01*
X005383Y022219D01*
X005440Y022225D01*
X005497Y022227D01*
X005497Y022222D01*
X005440Y022220D01*
X005384Y022214D01*
X005328Y022205D01*
X005272Y022192D01*
X005218Y022175D01*
X005165Y022155D01*
X005113Y022132D01*
X005063Y022105D01*
X005015Y022075D01*
X004969Y022041D01*
X004925Y022005D01*
X004883Y021967D01*
X004845Y021925D01*
X004809Y021881D01*
X004775Y021835D01*
X004745Y021787D01*
X004718Y021737D01*
X004695Y021685D01*
X004675Y021632D01*
X004658Y021578D01*
X004645Y021522D01*
X004636Y021466D01*
X004630Y021410D01*
X004628Y021353D01*
X004633Y021353D01*
X004635Y021409D01*
X004641Y021466D01*
X004650Y021521D01*
X004663Y021576D01*
X004680Y021630D01*
X004700Y021683D01*
X004723Y021735D01*
X004750Y021784D01*
X004780Y021832D01*
X004812Y021878D01*
X004848Y021922D01*
X004887Y021963D01*
X004928Y022002D01*
X004972Y022038D01*
X005018Y022070D01*
X005066Y022100D01*
X005115Y022127D01*
X005167Y022150D01*
X005220Y022170D01*
X005274Y022187D01*
X005329Y022200D01*
X005384Y022209D01*
X005441Y022215D01*
X005497Y022217D01*
X005497Y022212D01*
X005441Y022210D01*
X005385Y022204D01*
X005330Y022195D01*
X005275Y022182D01*
X005221Y022166D01*
X005169Y022146D01*
X005118Y022123D01*
X005068Y022096D01*
X005020Y022066D01*
X004975Y022034D01*
X004931Y021998D01*
X004890Y021960D01*
X004852Y021919D01*
X004816Y021875D01*
X004784Y021830D01*
X004754Y021782D01*
X004727Y021732D01*
X004704Y021681D01*
X004684Y021629D01*
X004668Y021575D01*
X004655Y021520D01*
X004646Y021465D01*
X004640Y021409D01*
X004638Y021353D01*
X004643Y021353D01*
X004645Y021411D01*
X004651Y021469D01*
X004661Y021527D01*
X004675Y021583D01*
X004693Y021639D01*
X004715Y021693D01*
X004740Y021745D01*
X004768Y021796D01*
X004800Y021845D01*
X004835Y021891D01*
X004874Y021935D01*
X004915Y021976D01*
X004959Y022015D01*
X005005Y022050D01*
X005054Y022082D01*
X005105Y022110D01*
X005157Y022135D01*
X005211Y022157D01*
X005267Y022175D01*
X005323Y022189D01*
X005381Y022199D01*
X005439Y022205D01*
X005497Y022207D01*
X005497Y022202D01*
X005439Y022200D01*
X005382Y022194D01*
X005324Y022184D01*
X005268Y022170D01*
X005213Y022152D01*
X005159Y022131D01*
X005107Y022106D01*
X005057Y022077D01*
X005008Y022046D01*
X004962Y022011D01*
X004918Y021973D01*
X004877Y021932D01*
X004839Y021888D01*
X004804Y021842D01*
X004773Y021793D01*
X004744Y021743D01*
X004719Y021691D01*
X004698Y021637D01*
X004680Y021582D01*
X004666Y021526D01*
X004656Y021468D01*
X004650Y021411D01*
X004648Y021353D01*
X004653Y021353D01*
X004655Y021411D01*
X004661Y021468D01*
X004671Y021524D01*
X004685Y021580D01*
X004702Y021635D01*
X004724Y021689D01*
X004749Y021741D01*
X004777Y021791D01*
X004808Y021839D01*
X004843Y021885D01*
X004881Y021928D01*
X004922Y021969D01*
X004965Y022007D01*
X005011Y022042D01*
X005059Y022073D01*
X005109Y022101D01*
X005161Y022126D01*
X005215Y022148D01*
X005270Y022165D01*
X005326Y022179D01*
X005382Y022189D01*
X005439Y022195D01*
X005497Y022197D01*
X005497Y022192D01*
X005440Y022190D01*
X005383Y022184D01*
X005327Y022174D01*
X005271Y022160D01*
X005216Y022143D01*
X005163Y022122D01*
X005112Y022097D01*
X005062Y022069D01*
X005014Y022038D01*
X004968Y022003D01*
X004925Y021965D01*
X004885Y021925D01*
X004847Y021882D01*
X004812Y021836D01*
X004781Y021788D01*
X004753Y021738D01*
X004728Y021687D01*
X004707Y021634D01*
X004690Y021579D01*
X004676Y021523D01*
X004666Y021467D01*
X004660Y021410D01*
X004658Y021353D01*
X004663Y021353D01*
X004665Y021410D01*
X004671Y021466D01*
X004681Y021522D01*
X004695Y021578D01*
X004712Y021632D01*
X004733Y021685D01*
X004757Y021736D01*
X004785Y021786D01*
X004817Y021833D01*
X004851Y021879D01*
X004888Y021921D01*
X004929Y021962D01*
X004971Y021999D01*
X005017Y022033D01*
X005064Y022065D01*
X005114Y022093D01*
X005165Y022117D01*
X005218Y022138D01*
X005272Y022155D01*
X005328Y022169D01*
X005384Y022179D01*
X005440Y022185D01*
X005497Y022187D01*
X005497Y022182D01*
X005440Y022180D01*
X005384Y022174D01*
X005329Y022164D01*
X005274Y022151D01*
X005220Y022133D01*
X005167Y022113D01*
X005116Y022088D01*
X005067Y022060D01*
X005020Y022029D01*
X004975Y021995D01*
X004932Y021958D01*
X004892Y021918D01*
X004855Y021875D01*
X004821Y021830D01*
X004790Y021783D01*
X004762Y021734D01*
X004737Y021683D01*
X004717Y021630D01*
X004699Y021576D01*
X004686Y021521D01*
X004676Y021466D01*
X004670Y021410D01*
X004668Y021353D01*
X004673Y021353D01*
X004675Y021409D01*
X004681Y021465D01*
X004691Y021520D01*
X004704Y021575D01*
X004721Y021629D01*
X004742Y021681D01*
X004766Y021732D01*
X004794Y021780D01*
X004825Y021827D01*
X004859Y021872D01*
X004896Y021915D01*
X004935Y021954D01*
X004978Y021991D01*
X005023Y022025D01*
X005070Y022056D01*
X005118Y022084D01*
X005169Y022108D01*
X005221Y022129D01*
X005275Y022146D01*
X005330Y022159D01*
X005385Y022169D01*
X005441Y022175D01*
X005497Y022177D01*
X005502Y020474D02*
X005502Y020528D01*
X005503Y020527D02*
X005559Y020529D01*
X005615Y020535D01*
X005670Y020545D01*
X005724Y020558D01*
X005777Y020575D01*
X005829Y020596D01*
X005880Y020620D01*
X005928Y020647D01*
X005975Y020678D01*
X006020Y020712D01*
X006062Y020749D01*
X006101Y020788D01*
X006138Y020830D01*
X006172Y020875D01*
X006203Y020922D01*
X006230Y020970D01*
X006254Y021021D01*
X006275Y021073D01*
X006292Y021126D01*
X006305Y021180D01*
X006315Y021235D01*
X006321Y021291D01*
X006323Y021347D01*
X006376Y021348D01*
X006377Y021347D01*
X006375Y021290D01*
X006369Y021233D01*
X006360Y021177D01*
X006347Y021121D01*
X006330Y021066D01*
X006310Y021013D01*
X006286Y020961D01*
X006259Y020911D01*
X006229Y020862D01*
X006195Y020816D01*
X006159Y020772D01*
X006120Y020730D01*
X006078Y020691D01*
X006034Y020655D01*
X005988Y020621D01*
X005939Y020591D01*
X005889Y020564D01*
X005837Y020540D01*
X005784Y020520D01*
X005729Y020503D01*
X005673Y020490D01*
X005617Y020481D01*
X005560Y020475D01*
X005503Y020473D01*
X005503Y020478D01*
X005560Y020480D01*
X005616Y020486D01*
X005672Y020495D01*
X005728Y020508D01*
X005782Y020525D01*
X005835Y020545D01*
X005887Y020568D01*
X005937Y020595D01*
X005985Y020625D01*
X006031Y020659D01*
X006075Y020695D01*
X006117Y020733D01*
X006155Y020775D01*
X006191Y020819D01*
X006225Y020865D01*
X006255Y020913D01*
X006282Y020963D01*
X006305Y021015D01*
X006325Y021068D01*
X006342Y021122D01*
X006355Y021178D01*
X006364Y021234D01*
X006370Y021290D01*
X006372Y021347D01*
X006367Y021347D01*
X006365Y021291D01*
X006359Y021234D01*
X006350Y021179D01*
X006337Y021124D01*
X006320Y021070D01*
X006300Y021017D01*
X006277Y020965D01*
X006250Y020916D01*
X006220Y020868D01*
X006188Y020822D01*
X006152Y020778D01*
X006113Y020737D01*
X006072Y020698D01*
X006028Y020662D01*
X005982Y020630D01*
X005934Y020600D01*
X005885Y020573D01*
X005833Y020550D01*
X005780Y020530D01*
X005726Y020513D01*
X005671Y020500D01*
X005616Y020491D01*
X005559Y020485D01*
X005503Y020483D01*
X005503Y020488D01*
X005559Y020490D01*
X005615Y020496D01*
X005670Y020505D01*
X005725Y020518D01*
X005779Y020534D01*
X005831Y020554D01*
X005882Y020577D01*
X005932Y020604D01*
X005980Y020634D01*
X006025Y020666D01*
X006069Y020702D01*
X006110Y020740D01*
X006148Y020781D01*
X006184Y020825D01*
X006216Y020870D01*
X006246Y020918D01*
X006273Y020968D01*
X006296Y021019D01*
X006316Y021071D01*
X006332Y021125D01*
X006345Y021180D01*
X006354Y021235D01*
X006360Y021291D01*
X006362Y021347D01*
X006357Y021347D01*
X006355Y021289D01*
X006349Y021231D01*
X006339Y021173D01*
X006325Y021117D01*
X006307Y021061D01*
X006285Y021007D01*
X006260Y020955D01*
X006232Y020904D01*
X006200Y020855D01*
X006165Y020809D01*
X006126Y020765D01*
X006085Y020724D01*
X006041Y020685D01*
X005995Y020650D01*
X005946Y020618D01*
X005895Y020590D01*
X005843Y020565D01*
X005789Y020543D01*
X005733Y020525D01*
X005677Y020511D01*
X005619Y020501D01*
X005561Y020495D01*
X005503Y020493D01*
X005503Y020498D01*
X005561Y020500D01*
X005618Y020506D01*
X005676Y020516D01*
X005732Y020530D01*
X005787Y020548D01*
X005841Y020569D01*
X005893Y020594D01*
X005943Y020623D01*
X005992Y020654D01*
X006038Y020689D01*
X006082Y020727D01*
X006123Y020768D01*
X006161Y020812D01*
X006196Y020858D01*
X006227Y020907D01*
X006256Y020957D01*
X006281Y021009D01*
X006302Y021063D01*
X006320Y021118D01*
X006334Y021174D01*
X006344Y021232D01*
X006350Y021289D01*
X006352Y021347D01*
X006347Y021347D01*
X006345Y021289D01*
X006339Y021232D01*
X006329Y021176D01*
X006315Y021120D01*
X006298Y021065D01*
X006276Y021011D01*
X006251Y020959D01*
X006223Y020909D01*
X006192Y020861D01*
X006157Y020815D01*
X006119Y020772D01*
X006078Y020731D01*
X006035Y020693D01*
X005989Y020658D01*
X005941Y020627D01*
X005891Y020599D01*
X005839Y020574D01*
X005785Y020552D01*
X005730Y020535D01*
X005674Y020521D01*
X005618Y020511D01*
X005561Y020505D01*
X005503Y020503D01*
X005503Y020508D01*
X005560Y020510D01*
X005617Y020516D01*
X005673Y020526D01*
X005729Y020540D01*
X005784Y020557D01*
X005837Y020578D01*
X005888Y020603D01*
X005938Y020631D01*
X005986Y020662D01*
X006032Y020697D01*
X006075Y020735D01*
X006115Y020775D01*
X006153Y020818D01*
X006188Y020864D01*
X006219Y020912D01*
X006247Y020962D01*
X006272Y021013D01*
X006293Y021066D01*
X006310Y021121D01*
X006324Y021177D01*
X006334Y021233D01*
X006340Y021290D01*
X006342Y021347D01*
X006337Y021347D01*
X006335Y021290D01*
X006329Y021234D01*
X006319Y021178D01*
X006305Y021122D01*
X006288Y021068D01*
X006267Y021015D01*
X006243Y020964D01*
X006215Y020914D01*
X006183Y020867D01*
X006149Y020821D01*
X006112Y020779D01*
X006071Y020738D01*
X006029Y020701D01*
X005983Y020667D01*
X005936Y020635D01*
X005886Y020607D01*
X005835Y020583D01*
X005782Y020562D01*
X005728Y020545D01*
X005672Y020531D01*
X005616Y020521D01*
X005560Y020515D01*
X005503Y020513D01*
X005503Y020518D01*
X005560Y020520D01*
X005616Y020526D01*
X005671Y020536D01*
X005726Y020549D01*
X005780Y020567D01*
X005833Y020587D01*
X005884Y020612D01*
X005933Y020640D01*
X005980Y020671D01*
X006025Y020705D01*
X006068Y020742D01*
X006108Y020782D01*
X006145Y020825D01*
X006179Y020870D01*
X006210Y020917D01*
X006238Y020966D01*
X006263Y021017D01*
X006283Y021070D01*
X006301Y021124D01*
X006314Y021179D01*
X006324Y021234D01*
X006330Y021290D01*
X006332Y021347D01*
X006327Y021347D01*
X006325Y021291D01*
X006319Y021235D01*
X006309Y021180D01*
X006296Y021125D01*
X006279Y021071D01*
X006258Y021019D01*
X006234Y020968D01*
X006206Y020920D01*
X006175Y020873D01*
X006141Y020828D01*
X006104Y020785D01*
X006065Y020746D01*
X006022Y020709D01*
X005977Y020675D01*
X005930Y020644D01*
X005882Y020616D01*
X005831Y020592D01*
X005779Y020571D01*
X005725Y020554D01*
X005670Y020541D01*
X005615Y020531D01*
X005559Y020525D01*
X005503Y020523D01*
X005498Y022026D02*
X005498Y021972D01*
X005497Y021973D02*
X005448Y021971D01*
X005400Y021965D01*
X005353Y021955D01*
X005306Y021942D01*
X005260Y021925D01*
X005216Y021905D01*
X005174Y021881D01*
X005133Y021854D01*
X005095Y021824D01*
X005059Y021791D01*
X005026Y021755D01*
X004996Y021717D01*
X004969Y021676D01*
X004945Y021634D01*
X004925Y021590D01*
X004908Y021544D01*
X004895Y021497D01*
X004885Y021450D01*
X004879Y021402D01*
X004877Y021353D01*
X004824Y021352D01*
X004823Y021353D01*
X004825Y021403D01*
X004831Y021453D01*
X004840Y021503D01*
X004854Y021551D01*
X004870Y021599D01*
X004891Y021645D01*
X004914Y021689D01*
X004941Y021732D01*
X004971Y021772D01*
X005004Y021811D01*
X005039Y021846D01*
X005078Y021879D01*
X005118Y021909D01*
X005161Y021936D01*
X005205Y021959D01*
X005251Y021980D01*
X005299Y021996D01*
X005347Y022010D01*
X005397Y022019D01*
X005447Y022025D01*
X005497Y022027D01*
X005497Y022022D01*
X005447Y022020D01*
X005397Y022014D01*
X005348Y022005D01*
X005300Y021992D01*
X005253Y021975D01*
X005207Y021955D01*
X005163Y021931D01*
X005121Y021905D01*
X005081Y021875D01*
X005043Y021843D01*
X005007Y021807D01*
X004975Y021769D01*
X004945Y021729D01*
X004919Y021687D01*
X004895Y021643D01*
X004875Y021597D01*
X004858Y021550D01*
X004845Y021502D01*
X004836Y021453D01*
X004830Y021403D01*
X004828Y021353D01*
X004833Y021353D01*
X004835Y021403D01*
X004841Y021452D01*
X004850Y021501D01*
X004863Y021548D01*
X004880Y021595D01*
X004900Y021641D01*
X004923Y021684D01*
X004949Y021726D01*
X004979Y021766D01*
X005011Y021804D01*
X005046Y021839D01*
X005084Y021871D01*
X005124Y021901D01*
X005166Y021927D01*
X005209Y021950D01*
X005255Y021970D01*
X005302Y021987D01*
X005349Y022000D01*
X005398Y022009D01*
X005447Y022015D01*
X005497Y022017D01*
X005497Y022012D01*
X005448Y022010D01*
X005399Y022004D01*
X005351Y021995D01*
X005303Y021982D01*
X005257Y021966D01*
X005212Y021946D01*
X005168Y021923D01*
X005126Y021897D01*
X005087Y021867D01*
X005050Y021835D01*
X005015Y021800D01*
X004983Y021763D01*
X004953Y021724D01*
X004927Y021682D01*
X004904Y021638D01*
X004884Y021593D01*
X004868Y021547D01*
X004855Y021499D01*
X004846Y021451D01*
X004840Y021402D01*
X004838Y021353D01*
X004843Y021353D01*
X004845Y021402D01*
X004851Y021450D01*
X004860Y021498D01*
X004873Y021545D01*
X004889Y021591D01*
X004909Y021636D01*
X004932Y021679D01*
X004958Y021721D01*
X004987Y021760D01*
X005018Y021797D01*
X005053Y021832D01*
X005090Y021863D01*
X005129Y021892D01*
X005171Y021918D01*
X005214Y021941D01*
X005259Y021961D01*
X005305Y021977D01*
X005352Y021990D01*
X005400Y021999D01*
X005448Y022005D01*
X005497Y022007D01*
X005497Y022002D01*
X005449Y022000D01*
X005400Y021994D01*
X005353Y021985D01*
X005306Y021972D01*
X005260Y021956D01*
X005216Y021937D01*
X005173Y021914D01*
X005132Y021888D01*
X005093Y021859D01*
X005056Y021828D01*
X005022Y021794D01*
X004991Y021757D01*
X004962Y021718D01*
X004936Y021677D01*
X004913Y021634D01*
X004894Y021590D01*
X004878Y021544D01*
X004865Y021497D01*
X004856Y021450D01*
X004850Y021401D01*
X004848Y021353D01*
X004853Y021353D01*
X004855Y021403D01*
X004861Y021454D01*
X004871Y021503D01*
X004885Y021552D01*
X004903Y021599D01*
X004924Y021645D01*
X004949Y021689D01*
X004977Y021731D01*
X005008Y021770D01*
X005043Y021807D01*
X005080Y021842D01*
X005119Y021873D01*
X005161Y021901D01*
X005205Y021926D01*
X005251Y021947D01*
X005298Y021965D01*
X005347Y021979D01*
X005396Y021989D01*
X005447Y021995D01*
X005497Y021997D01*
X005497Y021992D01*
X005447Y021990D01*
X005397Y021984D01*
X005348Y021974D01*
X005300Y021960D01*
X005253Y021943D01*
X005207Y021921D01*
X005164Y021897D01*
X005122Y021869D01*
X005083Y021838D01*
X005046Y021804D01*
X005012Y021767D01*
X004981Y021728D01*
X004953Y021686D01*
X004929Y021643D01*
X004907Y021597D01*
X004890Y021550D01*
X004876Y021502D01*
X004866Y021453D01*
X004860Y021403D01*
X004858Y021353D01*
X004863Y021353D01*
X004865Y021403D01*
X004871Y021452D01*
X004881Y021501D01*
X004895Y021549D01*
X004912Y021595D01*
X004933Y021640D01*
X004957Y021684D01*
X004985Y021725D01*
X005016Y021764D01*
X005050Y021800D01*
X005086Y021834D01*
X005125Y021865D01*
X005166Y021893D01*
X005210Y021917D01*
X005255Y021938D01*
X005301Y021955D01*
X005349Y021969D01*
X005398Y021979D01*
X005447Y021985D01*
X005497Y021987D01*
X005497Y021982D01*
X005448Y021980D01*
X005399Y021974D01*
X005350Y021964D01*
X005303Y021951D01*
X005257Y021933D01*
X005212Y021913D01*
X005169Y021888D01*
X005128Y021861D01*
X005089Y021830D01*
X005053Y021797D01*
X005020Y021761D01*
X004989Y021722D01*
X004962Y021681D01*
X004937Y021638D01*
X004917Y021593D01*
X004899Y021547D01*
X004886Y021500D01*
X004876Y021451D01*
X004870Y021402D01*
X004868Y021353D01*
X004873Y021353D01*
X004875Y021402D01*
X004881Y021450D01*
X004891Y021498D01*
X004904Y021545D01*
X004921Y021591D01*
X004942Y021636D01*
X004966Y021678D01*
X004993Y021719D01*
X005023Y021757D01*
X005057Y021793D01*
X005093Y021827D01*
X005131Y021857D01*
X005172Y021884D01*
X005214Y021908D01*
X005259Y021929D01*
X005305Y021946D01*
X005352Y021959D01*
X005400Y021969D01*
X005448Y021975D01*
X005497Y021977D01*
X005502Y020674D02*
X005502Y020728D01*
X005503Y020727D02*
X005552Y020729D01*
X005600Y020735D01*
X005647Y020745D01*
X005694Y020758D01*
X005740Y020775D01*
X005784Y020795D01*
X005826Y020819D01*
X005867Y020846D01*
X005905Y020876D01*
X005941Y020909D01*
X005974Y020945D01*
X006004Y020983D01*
X006031Y021024D01*
X006055Y021066D01*
X006075Y021110D01*
X006092Y021156D01*
X006105Y021203D01*
X006115Y021250D01*
X006121Y021298D01*
X006123Y021347D01*
X006176Y021348D01*
X006177Y021347D01*
X006175Y021297D01*
X006169Y021247D01*
X006160Y021197D01*
X006146Y021149D01*
X006130Y021101D01*
X006109Y021055D01*
X006086Y021011D01*
X006059Y020968D01*
X006029Y020928D01*
X005996Y020889D01*
X005961Y020854D01*
X005922Y020821D01*
X005882Y020791D01*
X005839Y020764D01*
X005795Y020741D01*
X005749Y020720D01*
X005701Y020704D01*
X005653Y020690D01*
X005603Y020681D01*
X005553Y020675D01*
X005503Y020673D01*
X005503Y020678D01*
X005553Y020680D01*
X005603Y020686D01*
X005652Y020695D01*
X005700Y020708D01*
X005747Y020725D01*
X005793Y020745D01*
X005837Y020769D01*
X005879Y020795D01*
X005919Y020825D01*
X005957Y020857D01*
X005993Y020893D01*
X006025Y020931D01*
X006055Y020971D01*
X006081Y021013D01*
X006105Y021057D01*
X006125Y021103D01*
X006142Y021150D01*
X006155Y021198D01*
X006164Y021247D01*
X006170Y021297D01*
X006172Y021347D01*
X006167Y021347D01*
X006165Y021297D01*
X006159Y021248D01*
X006150Y021199D01*
X006137Y021152D01*
X006120Y021105D01*
X006100Y021059D01*
X006077Y021016D01*
X006051Y020974D01*
X006021Y020934D01*
X005989Y020896D01*
X005954Y020861D01*
X005916Y020829D01*
X005876Y020799D01*
X005834Y020773D01*
X005791Y020750D01*
X005745Y020730D01*
X005698Y020713D01*
X005651Y020700D01*
X005602Y020691D01*
X005553Y020685D01*
X005503Y020683D01*
X005503Y020688D01*
X005552Y020690D01*
X005601Y020696D01*
X005649Y020705D01*
X005697Y020718D01*
X005743Y020734D01*
X005788Y020754D01*
X005832Y020777D01*
X005874Y020803D01*
X005913Y020833D01*
X005950Y020865D01*
X005985Y020900D01*
X006017Y020937D01*
X006047Y020976D01*
X006073Y021018D01*
X006096Y021062D01*
X006116Y021107D01*
X006132Y021153D01*
X006145Y021201D01*
X006154Y021249D01*
X006160Y021298D01*
X006162Y021347D01*
X006157Y021347D01*
X006155Y021298D01*
X006149Y021250D01*
X006140Y021202D01*
X006127Y021155D01*
X006111Y021109D01*
X006091Y021064D01*
X006068Y021021D01*
X006042Y020979D01*
X006013Y020940D01*
X005982Y020903D01*
X005947Y020868D01*
X005910Y020837D01*
X005871Y020808D01*
X005829Y020782D01*
X005786Y020759D01*
X005741Y020739D01*
X005695Y020723D01*
X005648Y020710D01*
X005600Y020701D01*
X005552Y020695D01*
X005503Y020693D01*
X005503Y020698D01*
X005551Y020700D01*
X005600Y020706D01*
X005647Y020715D01*
X005694Y020728D01*
X005740Y020744D01*
X005784Y020763D01*
X005827Y020786D01*
X005868Y020812D01*
X005907Y020841D01*
X005944Y020872D01*
X005978Y020906D01*
X006009Y020943D01*
X006038Y020982D01*
X006064Y021023D01*
X006087Y021066D01*
X006106Y021110D01*
X006122Y021156D01*
X006135Y021203D01*
X006144Y021250D01*
X006150Y021299D01*
X006152Y021347D01*
X006147Y021347D01*
X006145Y021297D01*
X006139Y021246D01*
X006129Y021197D01*
X006115Y021148D01*
X006097Y021101D01*
X006076Y021055D01*
X006051Y021011D01*
X006023Y020969D01*
X005992Y020930D01*
X005957Y020893D01*
X005920Y020858D01*
X005881Y020827D01*
X005839Y020799D01*
X005795Y020774D01*
X005749Y020753D01*
X005702Y020735D01*
X005653Y020721D01*
X005604Y020711D01*
X005553Y020705D01*
X005503Y020703D01*
X005503Y020708D01*
X005553Y020710D01*
X005603Y020716D01*
X005652Y020726D01*
X005700Y020740D01*
X005747Y020757D01*
X005793Y020779D01*
X005836Y020803D01*
X005878Y020831D01*
X005917Y020862D01*
X005954Y020896D01*
X005988Y020933D01*
X006019Y020972D01*
X006047Y021014D01*
X006071Y021057D01*
X006093Y021103D01*
X006110Y021150D01*
X006124Y021198D01*
X006134Y021247D01*
X006140Y021297D01*
X006142Y021347D01*
X006137Y021347D01*
X006135Y021297D01*
X006129Y021248D01*
X006119Y021199D01*
X006105Y021151D01*
X006088Y021105D01*
X006067Y021060D01*
X006043Y021016D01*
X006015Y020975D01*
X005984Y020936D01*
X005950Y020900D01*
X005914Y020866D01*
X005875Y020835D01*
X005834Y020807D01*
X005790Y020783D01*
X005745Y020762D01*
X005699Y020745D01*
X005651Y020731D01*
X005602Y020721D01*
X005553Y020715D01*
X005503Y020713D01*
X005503Y020718D01*
X005552Y020720D01*
X005601Y020726D01*
X005650Y020736D01*
X005697Y020749D01*
X005743Y020767D01*
X005788Y020787D01*
X005831Y020812D01*
X005872Y020839D01*
X005911Y020870D01*
X005947Y020903D01*
X005980Y020939D01*
X006011Y020978D01*
X006038Y021019D01*
X006063Y021062D01*
X006083Y021107D01*
X006101Y021153D01*
X006114Y021200D01*
X006124Y021249D01*
X006130Y021298D01*
X006132Y021347D01*
X006127Y021347D01*
X006125Y021298D01*
X006119Y021250D01*
X006109Y021202D01*
X006096Y021155D01*
X006079Y021109D01*
X006058Y021064D01*
X006034Y021022D01*
X006007Y020981D01*
X005977Y020943D01*
X005943Y020907D01*
X005907Y020873D01*
X005869Y020843D01*
X005828Y020816D01*
X005786Y020792D01*
X005741Y020771D01*
X005695Y020754D01*
X005648Y020741D01*
X005600Y020731D01*
X005552Y020725D01*
X005503Y020723D01*
X005498Y021826D02*
X005498Y021772D01*
X005497Y021773D02*
X005458Y021771D01*
X005420Y021765D01*
X005382Y021756D01*
X005346Y021744D01*
X005310Y021728D01*
X005277Y021709D01*
X005245Y021687D01*
X005215Y021662D01*
X005188Y021635D01*
X005163Y021605D01*
X005141Y021573D01*
X005122Y021540D01*
X005106Y021504D01*
X005094Y021468D01*
X005085Y021430D01*
X005079Y021392D01*
X005077Y021353D01*
X005024Y021352D01*
X005023Y021353D01*
X005025Y021394D01*
X005031Y021435D01*
X005040Y021475D01*
X005052Y021515D01*
X005068Y021553D01*
X005087Y021589D01*
X005110Y021624D01*
X005135Y021657D01*
X005163Y021687D01*
X005193Y021715D01*
X005226Y021740D01*
X005261Y021763D01*
X005297Y021782D01*
X005335Y021798D01*
X005375Y021810D01*
X005415Y021819D01*
X005456Y021825D01*
X005497Y021827D01*
X005497Y021822D01*
X005456Y021820D01*
X005416Y021814D01*
X005376Y021805D01*
X005337Y021793D01*
X005299Y021777D01*
X005263Y021758D01*
X005229Y021736D01*
X005196Y021711D01*
X005166Y021684D01*
X005139Y021654D01*
X005114Y021621D01*
X005092Y021587D01*
X005073Y021551D01*
X005057Y021513D01*
X005045Y021474D01*
X005036Y021434D01*
X005030Y021394D01*
X005028Y021353D01*
X005033Y021353D01*
X005035Y021396D01*
X005041Y021438D01*
X005051Y021480D01*
X005065Y021520D01*
X005083Y021559D01*
X005103Y021597D01*
X005128Y021632D01*
X005155Y021665D01*
X005185Y021695D01*
X005218Y021722D01*
X005253Y021747D01*
X005291Y021767D01*
X005330Y021785D01*
X005370Y021799D01*
X005412Y021809D01*
X005454Y021815D01*
X005497Y021817D01*
X005497Y021812D01*
X005455Y021810D01*
X005413Y021804D01*
X005372Y021794D01*
X005332Y021780D01*
X005293Y021763D01*
X005256Y021742D01*
X005221Y021718D01*
X005189Y021691D01*
X005159Y021661D01*
X005132Y021629D01*
X005108Y021594D01*
X005087Y021557D01*
X005070Y021518D01*
X005056Y021478D01*
X005046Y021437D01*
X005040Y021395D01*
X005038Y021353D01*
X005043Y021353D01*
X005045Y021395D01*
X005051Y021436D01*
X005061Y021477D01*
X005074Y021517D01*
X005091Y021555D01*
X005112Y021591D01*
X005136Y021626D01*
X005162Y021658D01*
X005192Y021688D01*
X005224Y021714D01*
X005259Y021738D01*
X005295Y021759D01*
X005333Y021776D01*
X005373Y021789D01*
X005414Y021799D01*
X005455Y021805D01*
X005497Y021807D01*
X005497Y021802D01*
X005456Y021800D01*
X005415Y021794D01*
X005374Y021784D01*
X005335Y021771D01*
X005297Y021754D01*
X005261Y021734D01*
X005227Y021710D01*
X005195Y021684D01*
X005166Y021655D01*
X005140Y021623D01*
X005116Y021589D01*
X005096Y021553D01*
X005079Y021515D01*
X005066Y021476D01*
X005056Y021435D01*
X005050Y021394D01*
X005048Y021353D01*
X005053Y021353D01*
X005055Y021394D01*
X005061Y021434D01*
X005071Y021474D01*
X005084Y021513D01*
X005100Y021550D01*
X005120Y021586D01*
X005144Y021620D01*
X005170Y021651D01*
X005199Y021680D01*
X005230Y021706D01*
X005264Y021730D01*
X005300Y021750D01*
X005337Y021766D01*
X005376Y021779D01*
X005416Y021789D01*
X005456Y021795D01*
X005497Y021797D01*
X005497Y021792D01*
X005457Y021790D01*
X005417Y021784D01*
X005377Y021775D01*
X005339Y021762D01*
X005302Y021745D01*
X005267Y021725D01*
X005233Y021702D01*
X005202Y021677D01*
X005173Y021648D01*
X005148Y021617D01*
X005125Y021583D01*
X005105Y021548D01*
X005088Y021511D01*
X005075Y021473D01*
X005066Y021433D01*
X005060Y021393D01*
X005058Y021353D01*
X005063Y021353D01*
X005065Y021393D01*
X005071Y021433D01*
X005080Y021471D01*
X005093Y021509D01*
X005109Y021546D01*
X005129Y021581D01*
X005152Y021614D01*
X005177Y021645D01*
X005205Y021673D01*
X005236Y021698D01*
X005269Y021721D01*
X005304Y021741D01*
X005341Y021757D01*
X005379Y021770D01*
X005417Y021779D01*
X005457Y021785D01*
X005497Y021787D01*
X005497Y021782D01*
X005458Y021780D01*
X005418Y021774D01*
X005380Y021765D01*
X005342Y021752D01*
X005306Y021736D01*
X005272Y021717D01*
X005239Y021694D01*
X005209Y021669D01*
X005181Y021641D01*
X005156Y021611D01*
X005133Y021578D01*
X005114Y021544D01*
X005098Y021508D01*
X005085Y021470D01*
X005076Y021432D01*
X005070Y021392D01*
X005068Y021353D01*
X005073Y021353D01*
X005075Y021392D01*
X005081Y021431D01*
X005090Y021469D01*
X005102Y021506D01*
X005118Y021541D01*
X005137Y021576D01*
X005160Y021608D01*
X005185Y021638D01*
X005212Y021665D01*
X005242Y021690D01*
X005274Y021713D01*
X005309Y021732D01*
X005344Y021748D01*
X005381Y021760D01*
X005419Y021769D01*
X005458Y021775D01*
X005497Y021777D01*
X005502Y020874D02*
X005502Y020928D01*
X005503Y020927D02*
X005542Y020929D01*
X005580Y020935D01*
X005618Y020944D01*
X005654Y020956D01*
X005690Y020972D01*
X005723Y020991D01*
X005755Y021013D01*
X005785Y021038D01*
X005812Y021065D01*
X005837Y021095D01*
X005859Y021127D01*
X005878Y021160D01*
X005894Y021196D01*
X005906Y021232D01*
X005915Y021270D01*
X005921Y021308D01*
X005923Y021347D01*
X005976Y021348D01*
X005977Y021347D01*
X005975Y021306D01*
X005969Y021265D01*
X005960Y021225D01*
X005948Y021185D01*
X005932Y021147D01*
X005913Y021111D01*
X005890Y021076D01*
X005865Y021043D01*
X005837Y021013D01*
X005807Y020985D01*
X005774Y020960D01*
X005739Y020937D01*
X005703Y020918D01*
X005665Y020902D01*
X005625Y020890D01*
X005585Y020881D01*
X005544Y020875D01*
X005503Y020873D01*
X005503Y020878D01*
X005544Y020880D01*
X005584Y020886D01*
X005624Y020895D01*
X005663Y020907D01*
X005701Y020923D01*
X005737Y020942D01*
X005771Y020964D01*
X005804Y020989D01*
X005834Y021016D01*
X005861Y021046D01*
X005886Y021079D01*
X005908Y021113D01*
X005927Y021149D01*
X005943Y021187D01*
X005955Y021226D01*
X005964Y021266D01*
X005970Y021306D01*
X005972Y021347D01*
X005967Y021347D01*
X005965Y021304D01*
X005959Y021262D01*
X005949Y021220D01*
X005935Y021180D01*
X005917Y021141D01*
X005897Y021103D01*
X005872Y021068D01*
X005845Y021035D01*
X005815Y021005D01*
X005782Y020978D01*
X005747Y020953D01*
X005709Y020933D01*
X005670Y020915D01*
X005630Y020901D01*
X005588Y020891D01*
X005546Y020885D01*
X005503Y020883D01*
X005503Y020888D01*
X005545Y020890D01*
X005587Y020896D01*
X005628Y020906D01*
X005668Y020920D01*
X005707Y020937D01*
X005744Y020958D01*
X005779Y020982D01*
X005811Y021009D01*
X005841Y021039D01*
X005868Y021071D01*
X005892Y021106D01*
X005913Y021143D01*
X005930Y021182D01*
X005944Y021222D01*
X005954Y021263D01*
X005960Y021305D01*
X005962Y021347D01*
X005957Y021347D01*
X005955Y021305D01*
X005949Y021264D01*
X005939Y021223D01*
X005926Y021183D01*
X005909Y021145D01*
X005888Y021109D01*
X005864Y021074D01*
X005838Y021042D01*
X005808Y021012D01*
X005776Y020986D01*
X005741Y020962D01*
X005705Y020941D01*
X005667Y020924D01*
X005627Y020911D01*
X005586Y020901D01*
X005545Y020895D01*
X005503Y020893D01*
X005503Y020898D01*
X005544Y020900D01*
X005585Y020906D01*
X005626Y020916D01*
X005665Y020929D01*
X005703Y020946D01*
X005739Y020966D01*
X005773Y020990D01*
X005805Y021016D01*
X005834Y021045D01*
X005860Y021077D01*
X005884Y021111D01*
X005904Y021147D01*
X005921Y021185D01*
X005934Y021224D01*
X005944Y021265D01*
X005950Y021306D01*
X005952Y021347D01*
X005947Y021347D01*
X005945Y021306D01*
X005939Y021266D01*
X005929Y021226D01*
X005916Y021187D01*
X005900Y021150D01*
X005880Y021114D01*
X005856Y021080D01*
X005830Y021049D01*
X005801Y021020D01*
X005770Y020994D01*
X005736Y020970D01*
X005700Y020950D01*
X005663Y020934D01*
X005624Y020921D01*
X005584Y020911D01*
X005544Y020905D01*
X005503Y020903D01*
X005503Y020908D01*
X005543Y020910D01*
X005583Y020916D01*
X005623Y020925D01*
X005661Y020938D01*
X005698Y020955D01*
X005733Y020975D01*
X005767Y020998D01*
X005798Y021023D01*
X005827Y021052D01*
X005852Y021083D01*
X005875Y021117D01*
X005895Y021152D01*
X005912Y021189D01*
X005925Y021227D01*
X005934Y021267D01*
X005940Y021307D01*
X005942Y021347D01*
X005937Y021347D01*
X005935Y021307D01*
X005929Y021267D01*
X005920Y021229D01*
X005907Y021191D01*
X005891Y021154D01*
X005871Y021119D01*
X005848Y021086D01*
X005823Y021055D01*
X005795Y021027D01*
X005764Y021002D01*
X005731Y020979D01*
X005696Y020959D01*
X005659Y020943D01*
X005621Y020930D01*
X005583Y020921D01*
X005543Y020915D01*
X005503Y020913D01*
X005503Y020918D01*
X005542Y020920D01*
X005582Y020926D01*
X005620Y020935D01*
X005658Y020948D01*
X005694Y020964D01*
X005728Y020983D01*
X005761Y021006D01*
X005791Y021031D01*
X005819Y021059D01*
X005844Y021089D01*
X005867Y021122D01*
X005886Y021156D01*
X005902Y021192D01*
X005915Y021230D01*
X005924Y021268D01*
X005930Y021308D01*
X005932Y021347D01*
X005927Y021347D01*
X005925Y021308D01*
X005919Y021269D01*
X005910Y021231D01*
X005898Y021194D01*
X005882Y021159D01*
X005863Y021124D01*
X005840Y021092D01*
X005815Y021062D01*
X005788Y021035D01*
X005758Y021010D01*
X005726Y020987D01*
X005691Y020968D01*
X005656Y020952D01*
X005619Y020940D01*
X005581Y020931D01*
X005542Y020925D01*
X005503Y020923D01*
X038876Y013352D02*
X038822Y013352D01*
X038823Y013353D02*
X038821Y013409D01*
X038815Y013465D01*
X038805Y013520D01*
X038792Y013574D01*
X038775Y013627D01*
X038754Y013679D01*
X038730Y013730D01*
X038703Y013778D01*
X038672Y013825D01*
X038638Y013870D01*
X038601Y013912D01*
X038562Y013951D01*
X038520Y013988D01*
X038475Y014022D01*
X038428Y014053D01*
X038380Y014080D01*
X038329Y014104D01*
X038277Y014125D01*
X038224Y014142D01*
X038170Y014155D01*
X038115Y014165D01*
X038059Y014171D01*
X038003Y014173D01*
X038002Y014226D01*
X038003Y014227D01*
X038060Y014225D01*
X038117Y014219D01*
X038173Y014210D01*
X038229Y014197D01*
X038284Y014180D01*
X038337Y014160D01*
X038389Y014136D01*
X038439Y014109D01*
X038488Y014079D01*
X038534Y014045D01*
X038578Y014009D01*
X038620Y013970D01*
X038659Y013928D01*
X038695Y013884D01*
X038729Y013838D01*
X038759Y013789D01*
X038786Y013739D01*
X038810Y013687D01*
X038830Y013634D01*
X038847Y013579D01*
X038860Y013523D01*
X038869Y013467D01*
X038875Y013410D01*
X038877Y013353D01*
X038872Y013353D01*
X038870Y013410D01*
X038864Y013466D01*
X038855Y013522D01*
X038842Y013578D01*
X038825Y013632D01*
X038805Y013685D01*
X038782Y013737D01*
X038755Y013787D01*
X038725Y013835D01*
X038691Y013881D01*
X038655Y013925D01*
X038617Y013967D01*
X038575Y014005D01*
X038531Y014041D01*
X038485Y014075D01*
X038437Y014105D01*
X038387Y014132D01*
X038335Y014155D01*
X038282Y014175D01*
X038228Y014192D01*
X038172Y014205D01*
X038116Y014214D01*
X038060Y014220D01*
X038003Y014222D01*
X038003Y014217D01*
X038059Y014215D01*
X038116Y014209D01*
X038171Y014200D01*
X038226Y014187D01*
X038280Y014170D01*
X038333Y014150D01*
X038385Y014127D01*
X038434Y014100D01*
X038482Y014070D01*
X038528Y014038D01*
X038572Y014002D01*
X038613Y013963D01*
X038652Y013922D01*
X038688Y013878D01*
X038720Y013832D01*
X038750Y013784D01*
X038777Y013735D01*
X038800Y013683D01*
X038820Y013630D01*
X038837Y013576D01*
X038850Y013521D01*
X038859Y013466D01*
X038865Y013409D01*
X038867Y013353D01*
X038862Y013353D01*
X038860Y013409D01*
X038854Y013465D01*
X038845Y013520D01*
X038832Y013575D01*
X038816Y013629D01*
X038796Y013681D01*
X038773Y013732D01*
X038746Y013782D01*
X038716Y013830D01*
X038684Y013875D01*
X038648Y013919D01*
X038610Y013960D01*
X038569Y013998D01*
X038525Y014034D01*
X038480Y014066D01*
X038432Y014096D01*
X038382Y014123D01*
X038331Y014146D01*
X038279Y014166D01*
X038225Y014182D01*
X038170Y014195D01*
X038115Y014204D01*
X038059Y014210D01*
X038003Y014212D01*
X038003Y014207D01*
X038061Y014205D01*
X038119Y014199D01*
X038177Y014189D01*
X038233Y014175D01*
X038289Y014157D01*
X038343Y014135D01*
X038395Y014110D01*
X038446Y014082D01*
X038495Y014050D01*
X038541Y014015D01*
X038585Y013976D01*
X038626Y013935D01*
X038665Y013891D01*
X038700Y013845D01*
X038732Y013796D01*
X038760Y013745D01*
X038785Y013693D01*
X038807Y013639D01*
X038825Y013583D01*
X038839Y013527D01*
X038849Y013469D01*
X038855Y013411D01*
X038857Y013353D01*
X038852Y013353D01*
X038850Y013411D01*
X038844Y013468D01*
X038834Y013526D01*
X038820Y013582D01*
X038802Y013637D01*
X038781Y013691D01*
X038756Y013743D01*
X038727Y013793D01*
X038696Y013842D01*
X038661Y013888D01*
X038623Y013932D01*
X038582Y013973D01*
X038538Y014011D01*
X038492Y014046D01*
X038443Y014077D01*
X038393Y014106D01*
X038341Y014131D01*
X038287Y014152D01*
X038232Y014170D01*
X038176Y014184D01*
X038118Y014194D01*
X038061Y014200D01*
X038003Y014202D01*
X038003Y014197D01*
X038061Y014195D01*
X038118Y014189D01*
X038174Y014179D01*
X038230Y014165D01*
X038285Y014148D01*
X038339Y014126D01*
X038391Y014101D01*
X038441Y014073D01*
X038489Y014042D01*
X038535Y014007D01*
X038578Y013969D01*
X038619Y013928D01*
X038657Y013885D01*
X038692Y013839D01*
X038723Y013791D01*
X038751Y013741D01*
X038776Y013689D01*
X038798Y013635D01*
X038815Y013580D01*
X038829Y013524D01*
X038839Y013468D01*
X038845Y013411D01*
X038847Y013353D01*
X038842Y013353D01*
X038840Y013410D01*
X038834Y013467D01*
X038824Y013523D01*
X038810Y013579D01*
X038793Y013634D01*
X038772Y013687D01*
X038747Y013738D01*
X038719Y013788D01*
X038688Y013836D01*
X038653Y013882D01*
X038615Y013925D01*
X038575Y013965D01*
X038532Y014003D01*
X038486Y014038D01*
X038438Y014069D01*
X038388Y014097D01*
X038337Y014122D01*
X038284Y014143D01*
X038229Y014160D01*
X038173Y014174D01*
X038117Y014184D01*
X038060Y014190D01*
X038003Y014192D01*
X038003Y014187D01*
X038060Y014185D01*
X038116Y014179D01*
X038172Y014169D01*
X038228Y014155D01*
X038282Y014138D01*
X038335Y014117D01*
X038386Y014093D01*
X038436Y014065D01*
X038483Y014033D01*
X038529Y013999D01*
X038571Y013962D01*
X038612Y013921D01*
X038649Y013879D01*
X038683Y013833D01*
X038715Y013786D01*
X038743Y013736D01*
X038767Y013685D01*
X038788Y013632D01*
X038805Y013578D01*
X038819Y013522D01*
X038829Y013466D01*
X038835Y013410D01*
X038837Y013353D01*
X038832Y013353D01*
X038830Y013410D01*
X038824Y013466D01*
X038814Y013521D01*
X038801Y013576D01*
X038783Y013630D01*
X038763Y013683D01*
X038738Y013734D01*
X038710Y013783D01*
X038679Y013830D01*
X038645Y013875D01*
X038608Y013918D01*
X038568Y013958D01*
X038525Y013995D01*
X038480Y014029D01*
X038433Y014060D01*
X038384Y014088D01*
X038333Y014113D01*
X038280Y014133D01*
X038226Y014151D01*
X038171Y014164D01*
X038116Y014174D01*
X038060Y014180D01*
X038003Y014182D01*
X038003Y014177D01*
X038059Y014175D01*
X038115Y014169D01*
X038170Y014159D01*
X038225Y014146D01*
X038279Y014129D01*
X038331Y014108D01*
X038382Y014084D01*
X038430Y014056D01*
X038477Y014025D01*
X038522Y013991D01*
X038565Y013954D01*
X038604Y013915D01*
X038641Y013872D01*
X038675Y013827D01*
X038706Y013780D01*
X038734Y013732D01*
X038758Y013681D01*
X038779Y013629D01*
X038796Y013575D01*
X038809Y013520D01*
X038819Y013465D01*
X038825Y013409D01*
X038827Y013353D01*
X037124Y013348D02*
X037178Y013348D01*
X037177Y013347D02*
X037179Y013291D01*
X037185Y013235D01*
X037195Y013180D01*
X037208Y013126D01*
X037225Y013073D01*
X037246Y013021D01*
X037270Y012970D01*
X037297Y012922D01*
X037328Y012875D01*
X037362Y012830D01*
X037399Y012788D01*
X037438Y012749D01*
X037480Y012712D01*
X037525Y012678D01*
X037572Y012647D01*
X037620Y012620D01*
X037671Y012596D01*
X037723Y012575D01*
X037776Y012558D01*
X037830Y012545D01*
X037885Y012535D01*
X037941Y012529D01*
X037997Y012527D01*
X037998Y012474D01*
X037997Y012473D01*
X037940Y012475D01*
X037883Y012481D01*
X037827Y012490D01*
X037771Y012503D01*
X037716Y012520D01*
X037663Y012540D01*
X037611Y012564D01*
X037561Y012591D01*
X037512Y012621D01*
X037466Y012655D01*
X037422Y012691D01*
X037380Y012730D01*
X037341Y012772D01*
X037305Y012816D01*
X037271Y012862D01*
X037241Y012911D01*
X037214Y012961D01*
X037190Y013013D01*
X037170Y013066D01*
X037153Y013121D01*
X037140Y013177D01*
X037131Y013233D01*
X037125Y013290D01*
X037123Y013347D01*
X037128Y013347D01*
X037130Y013290D01*
X037136Y013234D01*
X037145Y013178D01*
X037158Y013122D01*
X037175Y013068D01*
X037195Y013015D01*
X037218Y012963D01*
X037245Y012913D01*
X037275Y012865D01*
X037309Y012819D01*
X037345Y012775D01*
X037383Y012733D01*
X037425Y012695D01*
X037469Y012659D01*
X037515Y012625D01*
X037563Y012595D01*
X037613Y012568D01*
X037665Y012545D01*
X037718Y012525D01*
X037772Y012508D01*
X037828Y012495D01*
X037884Y012486D01*
X037940Y012480D01*
X037997Y012478D01*
X037997Y012483D01*
X037941Y012485D01*
X037884Y012491D01*
X037829Y012500D01*
X037774Y012513D01*
X037720Y012530D01*
X037667Y012550D01*
X037615Y012573D01*
X037566Y012600D01*
X037518Y012630D01*
X037472Y012662D01*
X037428Y012698D01*
X037387Y012737D01*
X037348Y012778D01*
X037312Y012822D01*
X037280Y012868D01*
X037250Y012916D01*
X037223Y012965D01*
X037200Y013017D01*
X037180Y013070D01*
X037163Y013124D01*
X037150Y013179D01*
X037141Y013234D01*
X037135Y013291D01*
X037133Y013347D01*
X037138Y013347D01*
X037140Y013291D01*
X037146Y013235D01*
X037155Y013180D01*
X037168Y013125D01*
X037184Y013071D01*
X037204Y013019D01*
X037227Y012968D01*
X037254Y012918D01*
X037284Y012870D01*
X037316Y012825D01*
X037352Y012781D01*
X037390Y012740D01*
X037431Y012702D01*
X037475Y012666D01*
X037520Y012634D01*
X037568Y012604D01*
X037618Y012577D01*
X037669Y012554D01*
X037721Y012534D01*
X037775Y012518D01*
X037830Y012505D01*
X037885Y012496D01*
X037941Y012490D01*
X037997Y012488D01*
X037997Y012493D01*
X037939Y012495D01*
X037881Y012501D01*
X037823Y012511D01*
X037767Y012525D01*
X037711Y012543D01*
X037657Y012565D01*
X037605Y012590D01*
X037554Y012618D01*
X037505Y012650D01*
X037459Y012685D01*
X037415Y012724D01*
X037374Y012765D01*
X037335Y012809D01*
X037300Y012855D01*
X037268Y012904D01*
X037240Y012955D01*
X037215Y013007D01*
X037193Y013061D01*
X037175Y013117D01*
X037161Y013173D01*
X037151Y013231D01*
X037145Y013289D01*
X037143Y013347D01*
X037148Y013347D01*
X037150Y013289D01*
X037156Y013232D01*
X037166Y013174D01*
X037180Y013118D01*
X037198Y013063D01*
X037219Y013009D01*
X037244Y012957D01*
X037273Y012907D01*
X037304Y012858D01*
X037339Y012812D01*
X037377Y012768D01*
X037418Y012727D01*
X037462Y012689D01*
X037508Y012654D01*
X037557Y012623D01*
X037607Y012594D01*
X037659Y012569D01*
X037713Y012548D01*
X037768Y012530D01*
X037824Y012516D01*
X037882Y012506D01*
X037939Y012500D01*
X037997Y012498D01*
X037997Y012503D01*
X037939Y012505D01*
X037882Y012511D01*
X037826Y012521D01*
X037770Y012535D01*
X037715Y012552D01*
X037661Y012574D01*
X037609Y012599D01*
X037559Y012627D01*
X037511Y012658D01*
X037465Y012693D01*
X037422Y012731D01*
X037381Y012772D01*
X037343Y012815D01*
X037308Y012861D01*
X037277Y012909D01*
X037249Y012959D01*
X037224Y013011D01*
X037202Y013065D01*
X037185Y013120D01*
X037171Y013176D01*
X037161Y013232D01*
X037155Y013289D01*
X037153Y013347D01*
X037158Y013347D01*
X037160Y013290D01*
X037166Y013233D01*
X037176Y013177D01*
X037190Y013121D01*
X037207Y013066D01*
X037228Y013013D01*
X037253Y012962D01*
X037281Y012912D01*
X037312Y012864D01*
X037347Y012818D01*
X037385Y012775D01*
X037425Y012735D01*
X037468Y012697D01*
X037514Y012662D01*
X037562Y012631D01*
X037612Y012603D01*
X037663Y012578D01*
X037716Y012557D01*
X037771Y012540D01*
X037827Y012526D01*
X037883Y012516D01*
X037940Y012510D01*
X037997Y012508D01*
X037997Y012513D01*
X037940Y012515D01*
X037884Y012521D01*
X037828Y012531D01*
X037772Y012545D01*
X037718Y012562D01*
X037665Y012583D01*
X037614Y012607D01*
X037564Y012635D01*
X037517Y012667D01*
X037471Y012701D01*
X037429Y012738D01*
X037388Y012779D01*
X037351Y012821D01*
X037317Y012867D01*
X037285Y012914D01*
X037257Y012964D01*
X037233Y013015D01*
X037212Y013068D01*
X037195Y013122D01*
X037181Y013178D01*
X037171Y013234D01*
X037165Y013290D01*
X037163Y013347D01*
X037168Y013347D01*
X037170Y013290D01*
X037176Y013234D01*
X037186Y013179D01*
X037199Y013124D01*
X037217Y013070D01*
X037237Y013017D01*
X037262Y012966D01*
X037290Y012917D01*
X037321Y012870D01*
X037355Y012825D01*
X037392Y012782D01*
X037432Y012742D01*
X037475Y012705D01*
X037520Y012671D01*
X037567Y012640D01*
X037616Y012612D01*
X037667Y012587D01*
X037720Y012567D01*
X037774Y012549D01*
X037829Y012536D01*
X037884Y012526D01*
X037940Y012520D01*
X037997Y012518D01*
X037997Y012523D01*
X037941Y012525D01*
X037885Y012531D01*
X037830Y012541D01*
X037775Y012554D01*
X037721Y012571D01*
X037669Y012592D01*
X037618Y012616D01*
X037570Y012644D01*
X037523Y012675D01*
X037478Y012709D01*
X037435Y012746D01*
X037396Y012785D01*
X037359Y012828D01*
X037325Y012873D01*
X037294Y012920D01*
X037266Y012968D01*
X037242Y013019D01*
X037221Y013071D01*
X037204Y013125D01*
X037191Y013180D01*
X037181Y013235D01*
X037175Y013291D01*
X037173Y013347D01*
X038676Y013352D02*
X038622Y013352D01*
X038623Y013353D02*
X038621Y013402D01*
X038615Y013450D01*
X038605Y013497D01*
X038592Y013544D01*
X038575Y013590D01*
X038555Y013634D01*
X038531Y013676D01*
X038504Y013717D01*
X038474Y013755D01*
X038441Y013791D01*
X038405Y013824D01*
X038367Y013854D01*
X038326Y013881D01*
X038284Y013905D01*
X038240Y013925D01*
X038194Y013942D01*
X038147Y013955D01*
X038100Y013965D01*
X038052Y013971D01*
X038003Y013973D01*
X038002Y014026D01*
X038003Y014027D01*
X038053Y014025D01*
X038103Y014019D01*
X038153Y014010D01*
X038201Y013996D01*
X038249Y013980D01*
X038295Y013959D01*
X038339Y013936D01*
X038382Y013909D01*
X038422Y013879D01*
X038461Y013846D01*
X038496Y013811D01*
X038529Y013772D01*
X038559Y013732D01*
X038586Y013689D01*
X038609Y013645D01*
X038630Y013599D01*
X038646Y013551D01*
X038660Y013503D01*
X038669Y013453D01*
X038675Y013403D01*
X038677Y013353D01*
X038672Y013353D01*
X038670Y013403D01*
X038664Y013453D01*
X038655Y013502D01*
X038642Y013550D01*
X038625Y013597D01*
X038605Y013643D01*
X038581Y013687D01*
X038555Y013729D01*
X038525Y013769D01*
X038493Y013807D01*
X038457Y013843D01*
X038419Y013875D01*
X038379Y013905D01*
X038337Y013931D01*
X038293Y013955D01*
X038247Y013975D01*
X038200Y013992D01*
X038152Y014005D01*
X038103Y014014D01*
X038053Y014020D01*
X038003Y014022D01*
X038003Y014017D01*
X038053Y014015D01*
X038102Y014009D01*
X038151Y014000D01*
X038198Y013987D01*
X038245Y013970D01*
X038291Y013950D01*
X038334Y013927D01*
X038376Y013901D01*
X038416Y013871D01*
X038454Y013839D01*
X038489Y013804D01*
X038521Y013766D01*
X038551Y013726D01*
X038577Y013684D01*
X038600Y013641D01*
X038620Y013595D01*
X038637Y013548D01*
X038650Y013501D01*
X038659Y013452D01*
X038665Y013403D01*
X038667Y013353D01*
X038662Y013353D01*
X038660Y013402D01*
X038654Y013451D01*
X038645Y013499D01*
X038632Y013547D01*
X038616Y013593D01*
X038596Y013638D01*
X038573Y013682D01*
X038547Y013724D01*
X038517Y013763D01*
X038485Y013800D01*
X038450Y013835D01*
X038413Y013867D01*
X038374Y013897D01*
X038332Y013923D01*
X038288Y013946D01*
X038243Y013966D01*
X038197Y013982D01*
X038149Y013995D01*
X038101Y014004D01*
X038052Y014010D01*
X038003Y014012D01*
X038003Y014007D01*
X038052Y014005D01*
X038100Y013999D01*
X038148Y013990D01*
X038195Y013977D01*
X038241Y013961D01*
X038286Y013941D01*
X038329Y013918D01*
X038371Y013892D01*
X038410Y013863D01*
X038447Y013832D01*
X038482Y013797D01*
X038513Y013760D01*
X038542Y013721D01*
X038568Y013679D01*
X038591Y013636D01*
X038611Y013591D01*
X038627Y013545D01*
X038640Y013498D01*
X038649Y013450D01*
X038655Y013402D01*
X038657Y013353D01*
X038652Y013353D01*
X038650Y013401D01*
X038644Y013450D01*
X038635Y013497D01*
X038622Y013544D01*
X038606Y013590D01*
X038587Y013634D01*
X038564Y013677D01*
X038538Y013718D01*
X038509Y013757D01*
X038478Y013794D01*
X038444Y013828D01*
X038407Y013859D01*
X038368Y013888D01*
X038327Y013914D01*
X038284Y013937D01*
X038240Y013956D01*
X038194Y013972D01*
X038147Y013985D01*
X038100Y013994D01*
X038051Y014000D01*
X038003Y014002D01*
X038003Y013997D01*
X038053Y013995D01*
X038104Y013989D01*
X038153Y013979D01*
X038202Y013965D01*
X038249Y013947D01*
X038295Y013926D01*
X038339Y013901D01*
X038381Y013873D01*
X038420Y013842D01*
X038457Y013807D01*
X038492Y013770D01*
X038523Y013731D01*
X038551Y013689D01*
X038576Y013645D01*
X038597Y013599D01*
X038615Y013552D01*
X038629Y013503D01*
X038639Y013454D01*
X038645Y013403D01*
X038647Y013353D01*
X038642Y013353D01*
X038640Y013403D01*
X038634Y013453D01*
X038624Y013502D01*
X038610Y013550D01*
X038593Y013597D01*
X038571Y013643D01*
X038547Y013686D01*
X038519Y013728D01*
X038488Y013767D01*
X038454Y013804D01*
X038417Y013838D01*
X038378Y013869D01*
X038336Y013897D01*
X038293Y013921D01*
X038247Y013943D01*
X038200Y013960D01*
X038152Y013974D01*
X038103Y013984D01*
X038053Y013990D01*
X038003Y013992D01*
X038003Y013987D01*
X038053Y013985D01*
X038102Y013979D01*
X038151Y013969D01*
X038199Y013955D01*
X038245Y013938D01*
X038290Y013917D01*
X038334Y013893D01*
X038375Y013865D01*
X038414Y013834D01*
X038450Y013800D01*
X038484Y013764D01*
X038515Y013725D01*
X038543Y013684D01*
X038567Y013640D01*
X038588Y013595D01*
X038605Y013549D01*
X038619Y013501D01*
X038629Y013452D01*
X038635Y013403D01*
X038637Y013353D01*
X038632Y013353D01*
X038630Y013402D01*
X038624Y013451D01*
X038614Y013500D01*
X038601Y013547D01*
X038583Y013593D01*
X038563Y013638D01*
X038538Y013681D01*
X038511Y013722D01*
X038480Y013761D01*
X038447Y013797D01*
X038411Y013830D01*
X038372Y013861D01*
X038331Y013888D01*
X038288Y013913D01*
X038243Y013933D01*
X038197Y013951D01*
X038150Y013964D01*
X038101Y013974D01*
X038052Y013980D01*
X038003Y013982D01*
X038003Y013977D01*
X038052Y013975D01*
X038100Y013969D01*
X038148Y013959D01*
X038195Y013946D01*
X038241Y013929D01*
X038286Y013908D01*
X038328Y013884D01*
X038369Y013857D01*
X038407Y013827D01*
X038443Y013793D01*
X038477Y013757D01*
X038507Y013719D01*
X038534Y013678D01*
X038558Y013636D01*
X038579Y013591D01*
X038596Y013545D01*
X038609Y013498D01*
X038619Y013450D01*
X038625Y013402D01*
X038627Y013353D01*
X037324Y013348D02*
X037378Y013348D01*
X037377Y013347D02*
X037379Y013298D01*
X037385Y013250D01*
X037395Y013203D01*
X037408Y013156D01*
X037425Y013110D01*
X037445Y013066D01*
X037469Y013024D01*
X037496Y012983D01*
X037526Y012945D01*
X037559Y012909D01*
X037595Y012876D01*
X037633Y012846D01*
X037674Y012819D01*
X037716Y012795D01*
X037760Y012775D01*
X037806Y012758D01*
X037853Y012745D01*
X037900Y012735D01*
X037948Y012729D01*
X037997Y012727D01*
X037998Y012674D01*
X037997Y012673D01*
X037947Y012675D01*
X037897Y012681D01*
X037847Y012690D01*
X037799Y012704D01*
X037751Y012720D01*
X037705Y012741D01*
X037661Y012764D01*
X037618Y012791D01*
X037578Y012821D01*
X037539Y012854D01*
X037504Y012889D01*
X037471Y012928D01*
X037441Y012968D01*
X037414Y013011D01*
X037391Y013055D01*
X037370Y013101D01*
X037354Y013149D01*
X037340Y013197D01*
X037331Y013247D01*
X037325Y013297D01*
X037323Y013347D01*
X037328Y013347D01*
X037330Y013297D01*
X037336Y013247D01*
X037345Y013198D01*
X037358Y013150D01*
X037375Y013103D01*
X037395Y013057D01*
X037419Y013013D01*
X037445Y012971D01*
X037475Y012931D01*
X037507Y012893D01*
X037543Y012857D01*
X037581Y012825D01*
X037621Y012795D01*
X037663Y012769D01*
X037707Y012745D01*
X037753Y012725D01*
X037800Y012708D01*
X037848Y012695D01*
X037897Y012686D01*
X037947Y012680D01*
X037997Y012678D01*
X037997Y012683D01*
X037947Y012685D01*
X037898Y012691D01*
X037849Y012700D01*
X037802Y012713D01*
X037755Y012730D01*
X037709Y012750D01*
X037666Y012773D01*
X037624Y012799D01*
X037584Y012829D01*
X037546Y012861D01*
X037511Y012896D01*
X037479Y012934D01*
X037449Y012974D01*
X037423Y013016D01*
X037400Y013059D01*
X037380Y013105D01*
X037363Y013152D01*
X037350Y013199D01*
X037341Y013248D01*
X037335Y013297D01*
X037333Y013347D01*
X037338Y013347D01*
X037340Y013298D01*
X037346Y013249D01*
X037355Y013201D01*
X037368Y013153D01*
X037384Y013107D01*
X037404Y013062D01*
X037427Y013018D01*
X037453Y012976D01*
X037483Y012937D01*
X037515Y012900D01*
X037550Y012865D01*
X037587Y012833D01*
X037626Y012803D01*
X037668Y012777D01*
X037712Y012754D01*
X037757Y012734D01*
X037803Y012718D01*
X037851Y012705D01*
X037899Y012696D01*
X037948Y012690D01*
X037997Y012688D01*
X037997Y012693D01*
X037948Y012695D01*
X037900Y012701D01*
X037852Y012710D01*
X037805Y012723D01*
X037759Y012739D01*
X037714Y012759D01*
X037671Y012782D01*
X037629Y012808D01*
X037590Y012837D01*
X037553Y012868D01*
X037518Y012903D01*
X037487Y012940D01*
X037458Y012979D01*
X037432Y013021D01*
X037409Y013064D01*
X037389Y013109D01*
X037373Y013155D01*
X037360Y013202D01*
X037351Y013250D01*
X037345Y013298D01*
X037343Y013347D01*
X037348Y013347D01*
X037350Y013299D01*
X037356Y013250D01*
X037365Y013203D01*
X037378Y013156D01*
X037394Y013110D01*
X037413Y013066D01*
X037436Y013023D01*
X037462Y012982D01*
X037491Y012943D01*
X037522Y012906D01*
X037556Y012872D01*
X037593Y012841D01*
X037632Y012812D01*
X037673Y012786D01*
X037716Y012763D01*
X037760Y012744D01*
X037806Y012728D01*
X037853Y012715D01*
X037900Y012706D01*
X037949Y012700D01*
X037997Y012698D01*
X037997Y012703D01*
X037947Y012705D01*
X037896Y012711D01*
X037847Y012721D01*
X037798Y012735D01*
X037751Y012753D01*
X037705Y012774D01*
X037661Y012799D01*
X037619Y012827D01*
X037580Y012858D01*
X037543Y012893D01*
X037508Y012930D01*
X037477Y012969D01*
X037449Y013011D01*
X037424Y013055D01*
X037403Y013101D01*
X037385Y013148D01*
X037371Y013197D01*
X037361Y013246D01*
X037355Y013297D01*
X037353Y013347D01*
X037358Y013347D01*
X037360Y013297D01*
X037366Y013247D01*
X037376Y013198D01*
X037390Y013150D01*
X037407Y013103D01*
X037429Y013057D01*
X037453Y013014D01*
X037481Y012972D01*
X037512Y012933D01*
X037546Y012896D01*
X037583Y012862D01*
X037622Y012831D01*
X037664Y012803D01*
X037707Y012779D01*
X037753Y012757D01*
X037800Y012740D01*
X037848Y012726D01*
X037897Y012716D01*
X037947Y012710D01*
X037997Y012708D01*
X037997Y012713D01*
X037947Y012715D01*
X037898Y012721D01*
X037849Y012731D01*
X037801Y012745D01*
X037755Y012762D01*
X037710Y012783D01*
X037666Y012807D01*
X037625Y012835D01*
X037586Y012866D01*
X037550Y012900D01*
X037516Y012936D01*
X037485Y012975D01*
X037457Y013016D01*
X037433Y013060D01*
X037412Y013105D01*
X037395Y013151D01*
X037381Y013199D01*
X037371Y013248D01*
X037365Y013297D01*
X037363Y013347D01*
X037368Y013347D01*
X037370Y013298D01*
X037376Y013249D01*
X037386Y013200D01*
X037399Y013153D01*
X037417Y013107D01*
X037437Y013062D01*
X037462Y013019D01*
X037489Y012978D01*
X037520Y012939D01*
X037553Y012903D01*
X037589Y012870D01*
X037628Y012839D01*
X037669Y012812D01*
X037712Y012787D01*
X037757Y012767D01*
X037803Y012749D01*
X037850Y012736D01*
X037899Y012726D01*
X037948Y012720D01*
X037997Y012718D01*
X037997Y012723D01*
X037948Y012725D01*
X037900Y012731D01*
X037852Y012741D01*
X037805Y012754D01*
X037759Y012771D01*
X037714Y012792D01*
X037672Y012816D01*
X037631Y012843D01*
X037593Y012873D01*
X037557Y012907D01*
X037523Y012943D01*
X037493Y012981D01*
X037466Y013022D01*
X037442Y013064D01*
X037421Y013109D01*
X037404Y013155D01*
X037391Y013202D01*
X037381Y013250D01*
X037375Y013298D01*
X037373Y013347D01*
X038476Y013352D02*
X038422Y013352D01*
X038423Y013353D02*
X038421Y013392D01*
X038415Y013430D01*
X038406Y013468D01*
X038394Y013504D01*
X038378Y013540D01*
X038359Y013573D01*
X038337Y013605D01*
X038312Y013635D01*
X038285Y013662D01*
X038255Y013687D01*
X038223Y013709D01*
X038190Y013728D01*
X038154Y013744D01*
X038118Y013756D01*
X038080Y013765D01*
X038042Y013771D01*
X038003Y013773D01*
X038002Y013826D01*
X038003Y013827D01*
X038044Y013825D01*
X038085Y013819D01*
X038125Y013810D01*
X038165Y013798D01*
X038203Y013782D01*
X038239Y013763D01*
X038274Y013740D01*
X038307Y013715D01*
X038337Y013687D01*
X038365Y013657D01*
X038390Y013624D01*
X038413Y013589D01*
X038432Y013553D01*
X038448Y013515D01*
X038460Y013475D01*
X038469Y013435D01*
X038475Y013394D01*
X038477Y013353D01*
X038472Y013353D01*
X038470Y013394D01*
X038464Y013434D01*
X038455Y013474D01*
X038443Y013513D01*
X038427Y013551D01*
X038408Y013587D01*
X038386Y013621D01*
X038361Y013654D01*
X038334Y013684D01*
X038304Y013711D01*
X038271Y013736D01*
X038237Y013758D01*
X038201Y013777D01*
X038163Y013793D01*
X038124Y013805D01*
X038084Y013814D01*
X038044Y013820D01*
X038003Y013822D01*
X038003Y013817D01*
X038046Y013815D01*
X038088Y013809D01*
X038130Y013799D01*
X038170Y013785D01*
X038209Y013767D01*
X038247Y013747D01*
X038282Y013722D01*
X038315Y013695D01*
X038345Y013665D01*
X038372Y013632D01*
X038397Y013597D01*
X038417Y013559D01*
X038435Y013520D01*
X038449Y013480D01*
X038459Y013438D01*
X038465Y013396D01*
X038467Y013353D01*
X038462Y013353D01*
X038460Y013395D01*
X038454Y013437D01*
X038444Y013478D01*
X038430Y013518D01*
X038413Y013557D01*
X038392Y013594D01*
X038368Y013629D01*
X038341Y013661D01*
X038311Y013691D01*
X038279Y013718D01*
X038244Y013742D01*
X038207Y013763D01*
X038168Y013780D01*
X038128Y013794D01*
X038087Y013804D01*
X038045Y013810D01*
X038003Y013812D01*
X038003Y013807D01*
X038045Y013805D01*
X038086Y013799D01*
X038127Y013789D01*
X038167Y013776D01*
X038205Y013759D01*
X038241Y013738D01*
X038276Y013714D01*
X038308Y013688D01*
X038338Y013658D01*
X038364Y013626D01*
X038388Y013591D01*
X038409Y013555D01*
X038426Y013517D01*
X038439Y013477D01*
X038449Y013436D01*
X038455Y013395D01*
X038457Y013353D01*
X038452Y013353D01*
X038450Y013394D01*
X038444Y013435D01*
X038434Y013476D01*
X038421Y013515D01*
X038404Y013553D01*
X038384Y013589D01*
X038360Y013623D01*
X038334Y013655D01*
X038305Y013684D01*
X038273Y013710D01*
X038239Y013734D01*
X038203Y013754D01*
X038165Y013771D01*
X038126Y013784D01*
X038085Y013794D01*
X038044Y013800D01*
X038003Y013802D01*
X038003Y013797D01*
X038044Y013795D01*
X038084Y013789D01*
X038124Y013779D01*
X038163Y013766D01*
X038200Y013750D01*
X038236Y013730D01*
X038270Y013706D01*
X038301Y013680D01*
X038330Y013651D01*
X038356Y013620D01*
X038380Y013586D01*
X038400Y013550D01*
X038416Y013513D01*
X038429Y013474D01*
X038439Y013434D01*
X038445Y013394D01*
X038447Y013353D01*
X038442Y013353D01*
X038440Y013393D01*
X038434Y013433D01*
X038425Y013473D01*
X038412Y013511D01*
X038395Y013548D01*
X038375Y013583D01*
X038352Y013617D01*
X038327Y013648D01*
X038298Y013677D01*
X038267Y013702D01*
X038233Y013725D01*
X038198Y013745D01*
X038161Y013762D01*
X038123Y013775D01*
X038083Y013784D01*
X038043Y013790D01*
X038003Y013792D01*
X038003Y013787D01*
X038043Y013785D01*
X038083Y013779D01*
X038121Y013770D01*
X038159Y013757D01*
X038196Y013741D01*
X038231Y013721D01*
X038264Y013698D01*
X038295Y013673D01*
X038323Y013645D01*
X038348Y013614D01*
X038371Y013581D01*
X038391Y013546D01*
X038407Y013509D01*
X038420Y013471D01*
X038429Y013433D01*
X038435Y013393D01*
X038437Y013353D01*
X038432Y013353D01*
X038430Y013392D01*
X038424Y013432D01*
X038415Y013470D01*
X038402Y013508D01*
X038386Y013544D01*
X038367Y013578D01*
X038344Y013611D01*
X038319Y013641D01*
X038291Y013669D01*
X038261Y013694D01*
X038228Y013717D01*
X038194Y013736D01*
X038158Y013752D01*
X038120Y013765D01*
X038082Y013774D01*
X038042Y013780D01*
X038003Y013782D01*
X038003Y013777D01*
X038042Y013775D01*
X038081Y013769D01*
X038119Y013760D01*
X038156Y013748D01*
X038191Y013732D01*
X038226Y013713D01*
X038258Y013690D01*
X038288Y013665D01*
X038315Y013638D01*
X038340Y013608D01*
X038363Y013576D01*
X038382Y013541D01*
X038398Y013506D01*
X038410Y013469D01*
X038419Y013431D01*
X038425Y013392D01*
X038427Y013353D01*
X037524Y013348D02*
X037578Y013348D01*
X037577Y013347D02*
X037579Y013308D01*
X037585Y013270D01*
X037594Y013232D01*
X037606Y013196D01*
X037622Y013160D01*
X037641Y013127D01*
X037663Y013095D01*
X037688Y013065D01*
X037715Y013038D01*
X037745Y013013D01*
X037777Y012991D01*
X037810Y012972D01*
X037846Y012956D01*
X037882Y012944D01*
X037920Y012935D01*
X037958Y012929D01*
X037997Y012927D01*
X037998Y012874D01*
X037997Y012873D01*
X037956Y012875D01*
X037915Y012881D01*
X037875Y012890D01*
X037835Y012902D01*
X037797Y012918D01*
X037761Y012937D01*
X037726Y012960D01*
X037693Y012985D01*
X037663Y013013D01*
X037635Y013043D01*
X037610Y013076D01*
X037587Y013111D01*
X037568Y013147D01*
X037552Y013185D01*
X037540Y013225D01*
X037531Y013265D01*
X037525Y013306D01*
X037523Y013347D01*
X037528Y013347D01*
X037530Y013306D01*
X037536Y013266D01*
X037545Y013226D01*
X037557Y013187D01*
X037573Y013149D01*
X037592Y013113D01*
X037614Y013079D01*
X037639Y013046D01*
X037666Y013016D01*
X037696Y012989D01*
X037729Y012964D01*
X037763Y012942D01*
X037799Y012923D01*
X037837Y012907D01*
X037876Y012895D01*
X037916Y012886D01*
X037956Y012880D01*
X037997Y012878D01*
X037997Y012883D01*
X037954Y012885D01*
X037912Y012891D01*
X037870Y012901D01*
X037830Y012915D01*
X037791Y012933D01*
X037753Y012953D01*
X037718Y012978D01*
X037685Y013005D01*
X037655Y013035D01*
X037628Y013068D01*
X037603Y013103D01*
X037583Y013141D01*
X037565Y013180D01*
X037551Y013220D01*
X037541Y013262D01*
X037535Y013304D01*
X037533Y013347D01*
X037538Y013347D01*
X037540Y013305D01*
X037546Y013263D01*
X037556Y013222D01*
X037570Y013182D01*
X037587Y013143D01*
X037608Y013106D01*
X037632Y013071D01*
X037659Y013039D01*
X037689Y013009D01*
X037721Y012982D01*
X037756Y012958D01*
X037793Y012937D01*
X037832Y012920D01*
X037872Y012906D01*
X037913Y012896D01*
X037955Y012890D01*
X037997Y012888D01*
X037997Y012893D01*
X037955Y012895D01*
X037914Y012901D01*
X037873Y012911D01*
X037833Y012924D01*
X037795Y012941D01*
X037759Y012962D01*
X037724Y012986D01*
X037692Y013012D01*
X037662Y013042D01*
X037636Y013074D01*
X037612Y013109D01*
X037591Y013145D01*
X037574Y013183D01*
X037561Y013223D01*
X037551Y013264D01*
X037545Y013305D01*
X037543Y013347D01*
X037548Y013347D01*
X037550Y013306D01*
X037556Y013265D01*
X037566Y013224D01*
X037579Y013185D01*
X037596Y013147D01*
X037616Y013111D01*
X037640Y013077D01*
X037666Y013045D01*
X037695Y013016D01*
X037727Y012990D01*
X037761Y012966D01*
X037797Y012946D01*
X037835Y012929D01*
X037874Y012916D01*
X037915Y012906D01*
X037956Y012900D01*
X037997Y012898D01*
X037997Y012903D01*
X037956Y012905D01*
X037916Y012911D01*
X037876Y012921D01*
X037837Y012934D01*
X037800Y012950D01*
X037764Y012970D01*
X037730Y012994D01*
X037699Y013020D01*
X037670Y013049D01*
X037644Y013080D01*
X037620Y013114D01*
X037600Y013150D01*
X037584Y013187D01*
X037571Y013226D01*
X037561Y013266D01*
X037555Y013306D01*
X037553Y013347D01*
X037558Y013347D01*
X037560Y013307D01*
X037566Y013267D01*
X037575Y013227D01*
X037588Y013189D01*
X037605Y013152D01*
X037625Y013117D01*
X037648Y013083D01*
X037673Y013052D01*
X037702Y013023D01*
X037733Y012998D01*
X037767Y012975D01*
X037802Y012955D01*
X037839Y012938D01*
X037877Y012925D01*
X037917Y012916D01*
X037957Y012910D01*
X037997Y012908D01*
X037997Y012913D01*
X037957Y012915D01*
X037917Y012921D01*
X037879Y012930D01*
X037841Y012943D01*
X037804Y012959D01*
X037769Y012979D01*
X037736Y013002D01*
X037705Y013027D01*
X037677Y013055D01*
X037652Y013086D01*
X037629Y013119D01*
X037609Y013154D01*
X037593Y013191D01*
X037580Y013229D01*
X037571Y013267D01*
X037565Y013307D01*
X037563Y013347D01*
X037568Y013347D01*
X037570Y013308D01*
X037576Y013268D01*
X037585Y013230D01*
X037598Y013192D01*
X037614Y013156D01*
X037633Y013122D01*
X037656Y013089D01*
X037681Y013059D01*
X037709Y013031D01*
X037739Y013006D01*
X037772Y012983D01*
X037806Y012964D01*
X037842Y012948D01*
X037880Y012935D01*
X037918Y012926D01*
X037958Y012920D01*
X037997Y012918D01*
X037997Y012923D01*
X037958Y012925D01*
X037919Y012931D01*
X037881Y012940D01*
X037844Y012952D01*
X037809Y012968D01*
X037774Y012987D01*
X037742Y013010D01*
X037712Y013035D01*
X037685Y013062D01*
X037660Y013092D01*
X037637Y013124D01*
X037618Y013159D01*
X037602Y013194D01*
X037590Y013231D01*
X037581Y013269D01*
X037575Y013308D01*
X037573Y013347D01*
X037124Y003848D02*
X037178Y003848D01*
X037177Y003847D02*
X037179Y003791D01*
X037185Y003735D01*
X037195Y003680D01*
X037208Y003626D01*
X037225Y003573D01*
X037246Y003521D01*
X037270Y003470D01*
X037297Y003422D01*
X037328Y003375D01*
X037362Y003330D01*
X037399Y003288D01*
X037438Y003249D01*
X037480Y003212D01*
X037525Y003178D01*
X037572Y003147D01*
X037620Y003120D01*
X037671Y003096D01*
X037723Y003075D01*
X037776Y003058D01*
X037830Y003045D01*
X037885Y003035D01*
X037941Y003029D01*
X037997Y003027D01*
X037998Y002974D01*
X037997Y002973D01*
X037940Y002975D01*
X037883Y002981D01*
X037827Y002990D01*
X037771Y003003D01*
X037716Y003020D01*
X037663Y003040D01*
X037611Y003064D01*
X037561Y003091D01*
X037512Y003121D01*
X037466Y003155D01*
X037422Y003191D01*
X037380Y003230D01*
X037341Y003272D01*
X037305Y003316D01*
X037271Y003362D01*
X037241Y003411D01*
X037214Y003461D01*
X037190Y003513D01*
X037170Y003566D01*
X037153Y003621D01*
X037140Y003677D01*
X037131Y003733D01*
X037125Y003790D01*
X037123Y003847D01*
X037128Y003847D01*
X037130Y003790D01*
X037136Y003734D01*
X037145Y003678D01*
X037158Y003622D01*
X037175Y003568D01*
X037195Y003515D01*
X037218Y003463D01*
X037245Y003413D01*
X037275Y003365D01*
X037309Y003319D01*
X037345Y003275D01*
X037383Y003233D01*
X037425Y003195D01*
X037469Y003159D01*
X037515Y003125D01*
X037563Y003095D01*
X037613Y003068D01*
X037665Y003045D01*
X037718Y003025D01*
X037772Y003008D01*
X037828Y002995D01*
X037884Y002986D01*
X037940Y002980D01*
X037997Y002978D01*
X037997Y002983D01*
X037941Y002985D01*
X037884Y002991D01*
X037829Y003000D01*
X037774Y003013D01*
X037720Y003030D01*
X037667Y003050D01*
X037615Y003073D01*
X037566Y003100D01*
X037518Y003130D01*
X037472Y003162D01*
X037428Y003198D01*
X037387Y003237D01*
X037348Y003278D01*
X037312Y003322D01*
X037280Y003368D01*
X037250Y003416D01*
X037223Y003465D01*
X037200Y003517D01*
X037180Y003570D01*
X037163Y003624D01*
X037150Y003679D01*
X037141Y003734D01*
X037135Y003791D01*
X037133Y003847D01*
X037138Y003847D01*
X037140Y003791D01*
X037146Y003735D01*
X037155Y003680D01*
X037168Y003625D01*
X037184Y003571D01*
X037204Y003519D01*
X037227Y003468D01*
X037254Y003418D01*
X037284Y003370D01*
X037316Y003325D01*
X037352Y003281D01*
X037390Y003240D01*
X037431Y003202D01*
X037475Y003166D01*
X037520Y003134D01*
X037568Y003104D01*
X037618Y003077D01*
X037669Y003054D01*
X037721Y003034D01*
X037775Y003018D01*
X037830Y003005D01*
X037885Y002996D01*
X037941Y002990D01*
X037997Y002988D01*
X037997Y002993D01*
X037939Y002995D01*
X037881Y003001D01*
X037823Y003011D01*
X037767Y003025D01*
X037711Y003043D01*
X037657Y003065D01*
X037605Y003090D01*
X037554Y003118D01*
X037505Y003150D01*
X037459Y003185D01*
X037415Y003224D01*
X037374Y003265D01*
X037335Y003309D01*
X037300Y003355D01*
X037268Y003404D01*
X037240Y003455D01*
X037215Y003507D01*
X037193Y003561D01*
X037175Y003617D01*
X037161Y003673D01*
X037151Y003731D01*
X037145Y003789D01*
X037143Y003847D01*
X037148Y003847D01*
X037150Y003789D01*
X037156Y003732D01*
X037166Y003674D01*
X037180Y003618D01*
X037198Y003563D01*
X037219Y003509D01*
X037244Y003457D01*
X037273Y003407D01*
X037304Y003358D01*
X037339Y003312D01*
X037377Y003268D01*
X037418Y003227D01*
X037462Y003189D01*
X037508Y003154D01*
X037557Y003123D01*
X037607Y003094D01*
X037659Y003069D01*
X037713Y003048D01*
X037768Y003030D01*
X037824Y003016D01*
X037882Y003006D01*
X037939Y003000D01*
X037997Y002998D01*
X037997Y003003D01*
X037939Y003005D01*
X037882Y003011D01*
X037826Y003021D01*
X037770Y003035D01*
X037715Y003052D01*
X037661Y003074D01*
X037609Y003099D01*
X037559Y003127D01*
X037511Y003158D01*
X037465Y003193D01*
X037422Y003231D01*
X037381Y003272D01*
X037343Y003315D01*
X037308Y003361D01*
X037277Y003409D01*
X037249Y003459D01*
X037224Y003511D01*
X037202Y003565D01*
X037185Y003620D01*
X037171Y003676D01*
X037161Y003732D01*
X037155Y003789D01*
X037153Y003847D01*
X037158Y003847D01*
X037160Y003790D01*
X037166Y003733D01*
X037176Y003677D01*
X037190Y003621D01*
X037207Y003566D01*
X037228Y003513D01*
X037253Y003462D01*
X037281Y003412D01*
X037312Y003364D01*
X037347Y003318D01*
X037385Y003275D01*
X037425Y003235D01*
X037468Y003197D01*
X037514Y003162D01*
X037562Y003131D01*
X037612Y003103D01*
X037663Y003078D01*
X037716Y003057D01*
X037771Y003040D01*
X037827Y003026D01*
X037883Y003016D01*
X037940Y003010D01*
X037997Y003008D01*
X037997Y003013D01*
X037940Y003015D01*
X037884Y003021D01*
X037828Y003031D01*
X037772Y003045D01*
X037718Y003062D01*
X037665Y003083D01*
X037614Y003107D01*
X037564Y003135D01*
X037517Y003167D01*
X037471Y003201D01*
X037429Y003238D01*
X037388Y003279D01*
X037351Y003321D01*
X037317Y003367D01*
X037285Y003414D01*
X037257Y003464D01*
X037233Y003515D01*
X037212Y003568D01*
X037195Y003622D01*
X037181Y003678D01*
X037171Y003734D01*
X037165Y003790D01*
X037163Y003847D01*
X037168Y003847D01*
X037170Y003790D01*
X037176Y003734D01*
X037186Y003679D01*
X037199Y003624D01*
X037217Y003570D01*
X037237Y003517D01*
X037262Y003466D01*
X037290Y003417D01*
X037321Y003370D01*
X037355Y003325D01*
X037392Y003282D01*
X037432Y003242D01*
X037475Y003205D01*
X037520Y003171D01*
X037567Y003140D01*
X037616Y003112D01*
X037667Y003087D01*
X037720Y003067D01*
X037774Y003049D01*
X037829Y003036D01*
X037884Y003026D01*
X037940Y003020D01*
X037997Y003018D01*
X037997Y003023D01*
X037941Y003025D01*
X037885Y003031D01*
X037830Y003041D01*
X037775Y003054D01*
X037721Y003071D01*
X037669Y003092D01*
X037618Y003116D01*
X037570Y003144D01*
X037523Y003175D01*
X037478Y003209D01*
X037435Y003246D01*
X037396Y003285D01*
X037359Y003328D01*
X037325Y003373D01*
X037294Y003420D01*
X037266Y003468D01*
X037242Y003519D01*
X037221Y003571D01*
X037204Y003625D01*
X037191Y003680D01*
X037181Y003735D01*
X037175Y003791D01*
X037173Y003847D01*
X038876Y003852D02*
X038822Y003852D01*
X038823Y003853D02*
X038821Y003909D01*
X038815Y003965D01*
X038805Y004020D01*
X038792Y004074D01*
X038775Y004127D01*
X038754Y004179D01*
X038730Y004230D01*
X038703Y004278D01*
X038672Y004325D01*
X038638Y004370D01*
X038601Y004412D01*
X038562Y004451D01*
X038520Y004488D01*
X038475Y004522D01*
X038428Y004553D01*
X038380Y004580D01*
X038329Y004604D01*
X038277Y004625D01*
X038224Y004642D01*
X038170Y004655D01*
X038115Y004665D01*
X038059Y004671D01*
X038003Y004673D01*
X038002Y004726D01*
X038003Y004727D01*
X038060Y004725D01*
X038117Y004719D01*
X038173Y004710D01*
X038229Y004697D01*
X038284Y004680D01*
X038337Y004660D01*
X038389Y004636D01*
X038439Y004609D01*
X038488Y004579D01*
X038534Y004545D01*
X038578Y004509D01*
X038620Y004470D01*
X038659Y004428D01*
X038695Y004384D01*
X038729Y004338D01*
X038759Y004289D01*
X038786Y004239D01*
X038810Y004187D01*
X038830Y004134D01*
X038847Y004079D01*
X038860Y004023D01*
X038869Y003967D01*
X038875Y003910D01*
X038877Y003853D01*
X038872Y003853D01*
X038870Y003910D01*
X038864Y003966D01*
X038855Y004022D01*
X038842Y004078D01*
X038825Y004132D01*
X038805Y004185D01*
X038782Y004237D01*
X038755Y004287D01*
X038725Y004335D01*
X038691Y004381D01*
X038655Y004425D01*
X038617Y004467D01*
X038575Y004505D01*
X038531Y004541D01*
X038485Y004575D01*
X038437Y004605D01*
X038387Y004632D01*
X038335Y004655D01*
X038282Y004675D01*
X038228Y004692D01*
X038172Y004705D01*
X038116Y004714D01*
X038060Y004720D01*
X038003Y004722D01*
X038003Y004717D01*
X038059Y004715D01*
X038116Y004709D01*
X038171Y004700D01*
X038226Y004687D01*
X038280Y004670D01*
X038333Y004650D01*
X038385Y004627D01*
X038434Y004600D01*
X038482Y004570D01*
X038528Y004538D01*
X038572Y004502D01*
X038613Y004463D01*
X038652Y004422D01*
X038688Y004378D01*
X038720Y004332D01*
X038750Y004284D01*
X038777Y004235D01*
X038800Y004183D01*
X038820Y004130D01*
X038837Y004076D01*
X038850Y004021D01*
X038859Y003966D01*
X038865Y003909D01*
X038867Y003853D01*
X038862Y003853D01*
X038860Y003909D01*
X038854Y003965D01*
X038845Y004020D01*
X038832Y004075D01*
X038816Y004129D01*
X038796Y004181D01*
X038773Y004232D01*
X038746Y004282D01*
X038716Y004330D01*
X038684Y004375D01*
X038648Y004419D01*
X038610Y004460D01*
X038569Y004498D01*
X038525Y004534D01*
X038480Y004566D01*
X038432Y004596D01*
X038382Y004623D01*
X038331Y004646D01*
X038279Y004666D01*
X038225Y004682D01*
X038170Y004695D01*
X038115Y004704D01*
X038059Y004710D01*
X038003Y004712D01*
X038003Y004707D01*
X038061Y004705D01*
X038119Y004699D01*
X038177Y004689D01*
X038233Y004675D01*
X038289Y004657D01*
X038343Y004635D01*
X038395Y004610D01*
X038446Y004582D01*
X038495Y004550D01*
X038541Y004515D01*
X038585Y004476D01*
X038626Y004435D01*
X038665Y004391D01*
X038700Y004345D01*
X038732Y004296D01*
X038760Y004245D01*
X038785Y004193D01*
X038807Y004139D01*
X038825Y004083D01*
X038839Y004027D01*
X038849Y003969D01*
X038855Y003911D01*
X038857Y003853D01*
X038852Y003853D01*
X038850Y003911D01*
X038844Y003968D01*
X038834Y004026D01*
X038820Y004082D01*
X038802Y004137D01*
X038781Y004191D01*
X038756Y004243D01*
X038727Y004293D01*
X038696Y004342D01*
X038661Y004388D01*
X038623Y004432D01*
X038582Y004473D01*
X038538Y004511D01*
X038492Y004546D01*
X038443Y004577D01*
X038393Y004606D01*
X038341Y004631D01*
X038287Y004652D01*
X038232Y004670D01*
X038176Y004684D01*
X038118Y004694D01*
X038061Y004700D01*
X038003Y004702D01*
X038003Y004697D01*
X038061Y004695D01*
X038118Y004689D01*
X038174Y004679D01*
X038230Y004665D01*
X038285Y004648D01*
X038339Y004626D01*
X038391Y004601D01*
X038441Y004573D01*
X038489Y004542D01*
X038535Y004507D01*
X038578Y004469D01*
X038619Y004428D01*
X038657Y004385D01*
X038692Y004339D01*
X038723Y004291D01*
X038751Y004241D01*
X038776Y004189D01*
X038798Y004135D01*
X038815Y004080D01*
X038829Y004024D01*
X038839Y003968D01*
X038845Y003911D01*
X038847Y003853D01*
X038842Y003853D01*
X038840Y003910D01*
X038834Y003967D01*
X038824Y004023D01*
X038810Y004079D01*
X038793Y004134D01*
X038772Y004187D01*
X038747Y004238D01*
X038719Y004288D01*
X038688Y004336D01*
X038653Y004382D01*
X038615Y004425D01*
X038575Y004465D01*
X038532Y004503D01*
X038486Y004538D01*
X038438Y004569D01*
X038388Y004597D01*
X038337Y004622D01*
X038284Y004643D01*
X038229Y004660D01*
X038173Y004674D01*
X038117Y004684D01*
X038060Y004690D01*
X038003Y004692D01*
X038003Y004687D01*
X038060Y004685D01*
X038116Y004679D01*
X038172Y004669D01*
X038228Y004655D01*
X038282Y004638D01*
X038335Y004617D01*
X038386Y004593D01*
X038436Y004565D01*
X038483Y004533D01*
X038529Y004499D01*
X038571Y004462D01*
X038612Y004421D01*
X038649Y004379D01*
X038683Y004333D01*
X038715Y004286D01*
X038743Y004236D01*
X038767Y004185D01*
X038788Y004132D01*
X038805Y004078D01*
X038819Y004022D01*
X038829Y003966D01*
X038835Y003910D01*
X038837Y003853D01*
X038832Y003853D01*
X038830Y003910D01*
X038824Y003966D01*
X038814Y004021D01*
X038801Y004076D01*
X038783Y004130D01*
X038763Y004183D01*
X038738Y004234D01*
X038710Y004283D01*
X038679Y004330D01*
X038645Y004375D01*
X038608Y004418D01*
X038568Y004458D01*
X038525Y004495D01*
X038480Y004529D01*
X038433Y004560D01*
X038384Y004588D01*
X038333Y004613D01*
X038280Y004633D01*
X038226Y004651D01*
X038171Y004664D01*
X038116Y004674D01*
X038060Y004680D01*
X038003Y004682D01*
X038003Y004677D01*
X038059Y004675D01*
X038115Y004669D01*
X038170Y004659D01*
X038225Y004646D01*
X038279Y004629D01*
X038331Y004608D01*
X038382Y004584D01*
X038430Y004556D01*
X038477Y004525D01*
X038522Y004491D01*
X038565Y004454D01*
X038604Y004415D01*
X038641Y004372D01*
X038675Y004327D01*
X038706Y004280D01*
X038734Y004232D01*
X038758Y004181D01*
X038779Y004129D01*
X038796Y004075D01*
X038809Y004020D01*
X038819Y003965D01*
X038825Y003909D01*
X038827Y003853D01*
X037324Y003848D02*
X037378Y003848D01*
X037377Y003847D02*
X037379Y003798D01*
X037385Y003750D01*
X037395Y003703D01*
X037408Y003656D01*
X037425Y003610D01*
X037445Y003566D01*
X037469Y003524D01*
X037496Y003483D01*
X037526Y003445D01*
X037559Y003409D01*
X037595Y003376D01*
X037633Y003346D01*
X037674Y003319D01*
X037716Y003295D01*
X037760Y003275D01*
X037806Y003258D01*
X037853Y003245D01*
X037900Y003235D01*
X037948Y003229D01*
X037997Y003227D01*
X037998Y003174D01*
X037997Y003173D01*
X037947Y003175D01*
X037897Y003181D01*
X037847Y003190D01*
X037799Y003204D01*
X037751Y003220D01*
X037705Y003241D01*
X037661Y003264D01*
X037618Y003291D01*
X037578Y003321D01*
X037539Y003354D01*
X037504Y003389D01*
X037471Y003428D01*
X037441Y003468D01*
X037414Y003511D01*
X037391Y003555D01*
X037370Y003601D01*
X037354Y003649D01*
X037340Y003697D01*
X037331Y003747D01*
X037325Y003797D01*
X037323Y003847D01*
X037328Y003847D01*
X037330Y003797D01*
X037336Y003747D01*
X037345Y003698D01*
X037358Y003650D01*
X037375Y003603D01*
X037395Y003557D01*
X037419Y003513D01*
X037445Y003471D01*
X037475Y003431D01*
X037507Y003393D01*
X037543Y003357D01*
X037581Y003325D01*
X037621Y003295D01*
X037663Y003269D01*
X037707Y003245D01*
X037753Y003225D01*
X037800Y003208D01*
X037848Y003195D01*
X037897Y003186D01*
X037947Y003180D01*
X037997Y003178D01*
X037997Y003183D01*
X037947Y003185D01*
X037898Y003191D01*
X037849Y003200D01*
X037802Y003213D01*
X037755Y003230D01*
X037709Y003250D01*
X037666Y003273D01*
X037624Y003299D01*
X037584Y003329D01*
X037546Y003361D01*
X037511Y003396D01*
X037479Y003434D01*
X037449Y003474D01*
X037423Y003516D01*
X037400Y003559D01*
X037380Y003605D01*
X037363Y003652D01*
X037350Y003699D01*
X037341Y003748D01*
X037335Y003797D01*
X037333Y003847D01*
X037338Y003847D01*
X037340Y003798D01*
X037346Y003749D01*
X037355Y003701D01*
X037368Y003653D01*
X037384Y003607D01*
X037404Y003562D01*
X037427Y003518D01*
X037453Y003476D01*
X037483Y003437D01*
X037515Y003400D01*
X037550Y003365D01*
X037587Y003333D01*
X037626Y003303D01*
X037668Y003277D01*
X037712Y003254D01*
X037757Y003234D01*
X037803Y003218D01*
X037851Y003205D01*
X037899Y003196D01*
X037948Y003190D01*
X037997Y003188D01*
X037997Y003193D01*
X037948Y003195D01*
X037900Y003201D01*
X037852Y003210D01*
X037805Y003223D01*
X037759Y003239D01*
X037714Y003259D01*
X037671Y003282D01*
X037629Y003308D01*
X037590Y003337D01*
X037553Y003368D01*
X037518Y003403D01*
X037487Y003440D01*
X037458Y003479D01*
X037432Y003521D01*
X037409Y003564D01*
X037389Y003609D01*
X037373Y003655D01*
X037360Y003702D01*
X037351Y003750D01*
X037345Y003798D01*
X037343Y003847D01*
X037348Y003847D01*
X037350Y003799D01*
X037356Y003750D01*
X037365Y003703D01*
X037378Y003656D01*
X037394Y003610D01*
X037413Y003566D01*
X037436Y003523D01*
X037462Y003482D01*
X037491Y003443D01*
X037522Y003406D01*
X037556Y003372D01*
X037593Y003341D01*
X037632Y003312D01*
X037673Y003286D01*
X037716Y003263D01*
X037760Y003244D01*
X037806Y003228D01*
X037853Y003215D01*
X037900Y003206D01*
X037949Y003200D01*
X037997Y003198D01*
X037997Y003203D01*
X037947Y003205D01*
X037896Y003211D01*
X037847Y003221D01*
X037798Y003235D01*
X037751Y003253D01*
X037705Y003274D01*
X037661Y003299D01*
X037619Y003327D01*
X037580Y003358D01*
X037543Y003393D01*
X037508Y003430D01*
X037477Y003469D01*
X037449Y003511D01*
X037424Y003555D01*
X037403Y003601D01*
X037385Y003648D01*
X037371Y003697D01*
X037361Y003746D01*
X037355Y003797D01*
X037353Y003847D01*
X037358Y003847D01*
X037360Y003797D01*
X037366Y003747D01*
X037376Y003698D01*
X037390Y003650D01*
X037407Y003603D01*
X037429Y003557D01*
X037453Y003514D01*
X037481Y003472D01*
X037512Y003433D01*
X037546Y003396D01*
X037583Y003362D01*
X037622Y003331D01*
X037664Y003303D01*
X037707Y003279D01*
X037753Y003257D01*
X037800Y003240D01*
X037848Y003226D01*
X037897Y003216D01*
X037947Y003210D01*
X037997Y003208D01*
X037997Y003213D01*
X037947Y003215D01*
X037898Y003221D01*
X037849Y003231D01*
X037801Y003245D01*
X037755Y003262D01*
X037710Y003283D01*
X037666Y003307D01*
X037625Y003335D01*
X037586Y003366D01*
X037550Y003400D01*
X037516Y003436D01*
X037485Y003475D01*
X037457Y003516D01*
X037433Y003560D01*
X037412Y003605D01*
X037395Y003651D01*
X037381Y003699D01*
X037371Y003748D01*
X037365Y003797D01*
X037363Y003847D01*
X037368Y003847D01*
X037370Y003798D01*
X037376Y003749D01*
X037386Y003700D01*
X037399Y003653D01*
X037417Y003607D01*
X037437Y003562D01*
X037462Y003519D01*
X037489Y003478D01*
X037520Y003439D01*
X037553Y003403D01*
X037589Y003370D01*
X037628Y003339D01*
X037669Y003312D01*
X037712Y003287D01*
X037757Y003267D01*
X037803Y003249D01*
X037850Y003236D01*
X037899Y003226D01*
X037948Y003220D01*
X037997Y003218D01*
X037997Y003223D01*
X037948Y003225D01*
X037900Y003231D01*
X037852Y003241D01*
X037805Y003254D01*
X037759Y003271D01*
X037714Y003292D01*
X037672Y003316D01*
X037631Y003343D01*
X037593Y003373D01*
X037557Y003407D01*
X037523Y003443D01*
X037493Y003481D01*
X037466Y003522D01*
X037442Y003564D01*
X037421Y003609D01*
X037404Y003655D01*
X037391Y003702D01*
X037381Y003750D01*
X037375Y003798D01*
X037373Y003847D01*
X038676Y003852D02*
X038622Y003852D01*
X038623Y003853D02*
X038621Y003902D01*
X038615Y003950D01*
X038605Y003997D01*
X038592Y004044D01*
X038575Y004090D01*
X038555Y004134D01*
X038531Y004176D01*
X038504Y004217D01*
X038474Y004255D01*
X038441Y004291D01*
X038405Y004324D01*
X038367Y004354D01*
X038326Y004381D01*
X038284Y004405D01*
X038240Y004425D01*
X038194Y004442D01*
X038147Y004455D01*
X038100Y004465D01*
X038052Y004471D01*
X038003Y004473D01*
X038002Y004526D01*
X038003Y004527D01*
X038053Y004525D01*
X038103Y004519D01*
X038153Y004510D01*
X038201Y004496D01*
X038249Y004480D01*
X038295Y004459D01*
X038339Y004436D01*
X038382Y004409D01*
X038422Y004379D01*
X038461Y004346D01*
X038496Y004311D01*
X038529Y004272D01*
X038559Y004232D01*
X038586Y004189D01*
X038609Y004145D01*
X038630Y004099D01*
X038646Y004051D01*
X038660Y004003D01*
X038669Y003953D01*
X038675Y003903D01*
X038677Y003853D01*
X038672Y003853D01*
X038670Y003903D01*
X038664Y003953D01*
X038655Y004002D01*
X038642Y004050D01*
X038625Y004097D01*
X038605Y004143D01*
X038581Y004187D01*
X038555Y004229D01*
X038525Y004269D01*
X038493Y004307D01*
X038457Y004343D01*
X038419Y004375D01*
X038379Y004405D01*
X038337Y004431D01*
X038293Y004455D01*
X038247Y004475D01*
X038200Y004492D01*
X038152Y004505D01*
X038103Y004514D01*
X038053Y004520D01*
X038003Y004522D01*
X038003Y004517D01*
X038053Y004515D01*
X038102Y004509D01*
X038151Y004500D01*
X038198Y004487D01*
X038245Y004470D01*
X038291Y004450D01*
X038334Y004427D01*
X038376Y004401D01*
X038416Y004371D01*
X038454Y004339D01*
X038489Y004304D01*
X038521Y004266D01*
X038551Y004226D01*
X038577Y004184D01*
X038600Y004141D01*
X038620Y004095D01*
X038637Y004048D01*
X038650Y004001D01*
X038659Y003952D01*
X038665Y003903D01*
X038667Y003853D01*
X038662Y003853D01*
X038660Y003902D01*
X038654Y003951D01*
X038645Y003999D01*
X038632Y004047D01*
X038616Y004093D01*
X038596Y004138D01*
X038573Y004182D01*
X038547Y004224D01*
X038517Y004263D01*
X038485Y004300D01*
X038450Y004335D01*
X038413Y004367D01*
X038374Y004397D01*
X038332Y004423D01*
X038288Y004446D01*
X038243Y004466D01*
X038197Y004482D01*
X038149Y004495D01*
X038101Y004504D01*
X038052Y004510D01*
X038003Y004512D01*
X038003Y004507D01*
X038052Y004505D01*
X038100Y004499D01*
X038148Y004490D01*
X038195Y004477D01*
X038241Y004461D01*
X038286Y004441D01*
X038329Y004418D01*
X038371Y004392D01*
X038410Y004363D01*
X038447Y004332D01*
X038482Y004297D01*
X038513Y004260D01*
X038542Y004221D01*
X038568Y004179D01*
X038591Y004136D01*
X038611Y004091D01*
X038627Y004045D01*
X038640Y003998D01*
X038649Y003950D01*
X038655Y003902D01*
X038657Y003853D01*
X038652Y003853D01*
X038650Y003901D01*
X038644Y003950D01*
X038635Y003997D01*
X038622Y004044D01*
X038606Y004090D01*
X038587Y004134D01*
X038564Y004177D01*
X038538Y004218D01*
X038509Y004257D01*
X038478Y004294D01*
X038444Y004328D01*
X038407Y004359D01*
X038368Y004388D01*
X038327Y004414D01*
X038284Y004437D01*
X038240Y004456D01*
X038194Y004472D01*
X038147Y004485D01*
X038100Y004494D01*
X038051Y004500D01*
X038003Y004502D01*
X038003Y004497D01*
X038053Y004495D01*
X038104Y004489D01*
X038153Y004479D01*
X038202Y004465D01*
X038249Y004447D01*
X038295Y004426D01*
X038339Y004401D01*
X038381Y004373D01*
X038420Y004342D01*
X038457Y004307D01*
X038492Y004270D01*
X038523Y004231D01*
X038551Y004189D01*
X038576Y004145D01*
X038597Y004099D01*
X038615Y004052D01*
X038629Y004003D01*
X038639Y003954D01*
X038645Y003903D01*
X038647Y003853D01*
X038642Y003853D01*
X038640Y003903D01*
X038634Y003953D01*
X038624Y004002D01*
X038610Y004050D01*
X038593Y004097D01*
X038571Y004143D01*
X038547Y004186D01*
X038519Y004228D01*
X038488Y004267D01*
X038454Y004304D01*
X038417Y004338D01*
X038378Y004369D01*
X038336Y004397D01*
X038293Y004421D01*
X038247Y004443D01*
X038200Y004460D01*
X038152Y004474D01*
X038103Y004484D01*
X038053Y004490D01*
X038003Y004492D01*
X038003Y004487D01*
X038053Y004485D01*
X038102Y004479D01*
X038151Y004469D01*
X038199Y004455D01*
X038245Y004438D01*
X038290Y004417D01*
X038334Y004393D01*
X038375Y004365D01*
X038414Y004334D01*
X038450Y004300D01*
X038484Y004264D01*
X038515Y004225D01*
X038543Y004184D01*
X038567Y004140D01*
X038588Y004095D01*
X038605Y004049D01*
X038619Y004001D01*
X038629Y003952D01*
X038635Y003903D01*
X038637Y003853D01*
X038632Y003853D01*
X038630Y003902D01*
X038624Y003951D01*
X038614Y004000D01*
X038601Y004047D01*
X038583Y004093D01*
X038563Y004138D01*
X038538Y004181D01*
X038511Y004222D01*
X038480Y004261D01*
X038447Y004297D01*
X038411Y004330D01*
X038372Y004361D01*
X038331Y004388D01*
X038288Y004413D01*
X038243Y004433D01*
X038197Y004451D01*
X038150Y004464D01*
X038101Y004474D01*
X038052Y004480D01*
X038003Y004482D01*
X038003Y004477D01*
X038052Y004475D01*
X038100Y004469D01*
X038148Y004459D01*
X038195Y004446D01*
X038241Y004429D01*
X038286Y004408D01*
X038328Y004384D01*
X038369Y004357D01*
X038407Y004327D01*
X038443Y004293D01*
X038477Y004257D01*
X038507Y004219D01*
X038534Y004178D01*
X038558Y004136D01*
X038579Y004091D01*
X038596Y004045D01*
X038609Y003998D01*
X038619Y003950D01*
X038625Y003902D01*
X038627Y003853D01*
X037524Y003848D02*
X037578Y003848D01*
X037577Y003847D02*
X037579Y003808D01*
X037585Y003770D01*
X037594Y003732D01*
X037606Y003696D01*
X037622Y003660D01*
X037641Y003627D01*
X037663Y003595D01*
X037688Y003565D01*
X037715Y003538D01*
X037745Y003513D01*
X037777Y003491D01*
X037810Y003472D01*
X037846Y003456D01*
X037882Y003444D01*
X037920Y003435D01*
X037958Y003429D01*
X037997Y003427D01*
X037998Y003374D01*
X037997Y003373D01*
X037956Y003375D01*
X037915Y003381D01*
X037875Y003390D01*
X037835Y003402D01*
X037797Y003418D01*
X037761Y003437D01*
X037726Y003460D01*
X037693Y003485D01*
X037663Y003513D01*
X037635Y003543D01*
X037610Y003576D01*
X037587Y003611D01*
X037568Y003647D01*
X037552Y003685D01*
X037540Y003725D01*
X037531Y003765D01*
X037525Y003806D01*
X037523Y003847D01*
X037528Y003847D01*
X037530Y003806D01*
X037536Y003766D01*
X037545Y003726D01*
X037557Y003687D01*
X037573Y003649D01*
X037592Y003613D01*
X037614Y003579D01*
X037639Y003546D01*
X037666Y003516D01*
X037696Y003489D01*
X037729Y003464D01*
X037763Y003442D01*
X037799Y003423D01*
X037837Y003407D01*
X037876Y003395D01*
X037916Y003386D01*
X037956Y003380D01*
X037997Y003378D01*
X037997Y003383D01*
X037954Y003385D01*
X037912Y003391D01*
X037870Y003401D01*
X037830Y003415D01*
X037791Y003433D01*
X037753Y003453D01*
X037718Y003478D01*
X037685Y003505D01*
X037655Y003535D01*
X037628Y003568D01*
X037603Y003603D01*
X037583Y003641D01*
X037565Y003680D01*
X037551Y003720D01*
X037541Y003762D01*
X037535Y003804D01*
X037533Y003847D01*
X037538Y003847D01*
X037540Y003805D01*
X037546Y003763D01*
X037556Y003722D01*
X037570Y003682D01*
X037587Y003643D01*
X037608Y003606D01*
X037632Y003571D01*
X037659Y003539D01*
X037689Y003509D01*
X037721Y003482D01*
X037756Y003458D01*
X037793Y003437D01*
X037832Y003420D01*
X037872Y003406D01*
X037913Y003396D01*
X037955Y003390D01*
X037997Y003388D01*
X037997Y003393D01*
X037955Y003395D01*
X037914Y003401D01*
X037873Y003411D01*
X037833Y003424D01*
X037795Y003441D01*
X037759Y003462D01*
X037724Y003486D01*
X037692Y003512D01*
X037662Y003542D01*
X037636Y003574D01*
X037612Y003609D01*
X037591Y003645D01*
X037574Y003683D01*
X037561Y003723D01*
X037551Y003764D01*
X037545Y003805D01*
X037543Y003847D01*
X037548Y003847D01*
X037550Y003806D01*
X037556Y003765D01*
X037566Y003724D01*
X037579Y003685D01*
X037596Y003647D01*
X037616Y003611D01*
X037640Y003577D01*
X037666Y003545D01*
X037695Y003516D01*
X037727Y003490D01*
X037761Y003466D01*
X037797Y003446D01*
X037835Y003429D01*
X037874Y003416D01*
X037915Y003406D01*
X037956Y003400D01*
X037997Y003398D01*
X037997Y003403D01*
X037956Y003405D01*
X037916Y003411D01*
X037876Y003421D01*
X037837Y003434D01*
X037800Y003450D01*
X037764Y003470D01*
X037730Y003494D01*
X037699Y003520D01*
X037670Y003549D01*
X037644Y003580D01*
X037620Y003614D01*
X037600Y003650D01*
X037584Y003687D01*
X037571Y003726D01*
X037561Y003766D01*
X037555Y003806D01*
X037553Y003847D01*
X037558Y003847D01*
X037560Y003807D01*
X037566Y003767D01*
X037575Y003727D01*
X037588Y003689D01*
X037605Y003652D01*
X037625Y003617D01*
X037648Y003583D01*
X037673Y003552D01*
X037702Y003523D01*
X037733Y003498D01*
X037767Y003475D01*
X037802Y003455D01*
X037839Y003438D01*
X037877Y003425D01*
X037917Y003416D01*
X037957Y003410D01*
X037997Y003408D01*
X037997Y003413D01*
X037957Y003415D01*
X037917Y003421D01*
X037879Y003430D01*
X037841Y003443D01*
X037804Y003459D01*
X037769Y003479D01*
X037736Y003502D01*
X037705Y003527D01*
X037677Y003555D01*
X037652Y003586D01*
X037629Y003619D01*
X037609Y003654D01*
X037593Y003691D01*
X037580Y003729D01*
X037571Y003767D01*
X037565Y003807D01*
X037563Y003847D01*
X037568Y003847D01*
X037570Y003808D01*
X037576Y003768D01*
X037585Y003730D01*
X037598Y003692D01*
X037614Y003656D01*
X037633Y003622D01*
X037656Y003589D01*
X037681Y003559D01*
X037709Y003531D01*
X037739Y003506D01*
X037772Y003483D01*
X037806Y003464D01*
X037842Y003448D01*
X037880Y003435D01*
X037918Y003426D01*
X037958Y003420D01*
X037997Y003418D01*
X037997Y003423D01*
X037958Y003425D01*
X037919Y003431D01*
X037881Y003440D01*
X037844Y003452D01*
X037809Y003468D01*
X037774Y003487D01*
X037742Y003510D01*
X037712Y003535D01*
X037685Y003562D01*
X037660Y003592D01*
X037637Y003624D01*
X037618Y003659D01*
X037602Y003694D01*
X037590Y003731D01*
X037581Y003769D01*
X037575Y003808D01*
X037573Y003847D01*
X038476Y003852D02*
X038422Y003852D01*
X038423Y003853D02*
X038421Y003892D01*
X038415Y003930D01*
X038406Y003968D01*
X038394Y004004D01*
X038378Y004040D01*
X038359Y004073D01*
X038337Y004105D01*
X038312Y004135D01*
X038285Y004162D01*
X038255Y004187D01*
X038223Y004209D01*
X038190Y004228D01*
X038154Y004244D01*
X038118Y004256D01*
X038080Y004265D01*
X038042Y004271D01*
X038003Y004273D01*
X038002Y004326D01*
X038003Y004327D01*
X038044Y004325D01*
X038085Y004319D01*
X038125Y004310D01*
X038165Y004298D01*
X038203Y004282D01*
X038239Y004263D01*
X038274Y004240D01*
X038307Y004215D01*
X038337Y004187D01*
X038365Y004157D01*
X038390Y004124D01*
X038413Y004089D01*
X038432Y004053D01*
X038448Y004015D01*
X038460Y003975D01*
X038469Y003935D01*
X038475Y003894D01*
X038477Y003853D01*
X038472Y003853D01*
X038470Y003894D01*
X038464Y003934D01*
X038455Y003974D01*
X038443Y004013D01*
X038427Y004051D01*
X038408Y004087D01*
X038386Y004121D01*
X038361Y004154D01*
X038334Y004184D01*
X038304Y004211D01*
X038271Y004236D01*
X038237Y004258D01*
X038201Y004277D01*
X038163Y004293D01*
X038124Y004305D01*
X038084Y004314D01*
X038044Y004320D01*
X038003Y004322D01*
X038003Y004317D01*
X038046Y004315D01*
X038088Y004309D01*
X038130Y004299D01*
X038170Y004285D01*
X038209Y004267D01*
X038247Y004247D01*
X038282Y004222D01*
X038315Y004195D01*
X038345Y004165D01*
X038372Y004132D01*
X038397Y004097D01*
X038417Y004059D01*
X038435Y004020D01*
X038449Y003980D01*
X038459Y003938D01*
X038465Y003896D01*
X038467Y003853D01*
X038462Y003853D01*
X038460Y003895D01*
X038454Y003937D01*
X038444Y003978D01*
X038430Y004018D01*
X038413Y004057D01*
X038392Y004094D01*
X038368Y004129D01*
X038341Y004161D01*
X038311Y004191D01*
X038279Y004218D01*
X038244Y004242D01*
X038207Y004263D01*
X038168Y004280D01*
X038128Y004294D01*
X038087Y004304D01*
X038045Y004310D01*
X038003Y004312D01*
X038003Y004307D01*
X038045Y004305D01*
X038086Y004299D01*
X038127Y004289D01*
X038167Y004276D01*
X038205Y004259D01*
X038241Y004238D01*
X038276Y004214D01*
X038308Y004188D01*
X038338Y004158D01*
X038364Y004126D01*
X038388Y004091D01*
X038409Y004055D01*
X038426Y004017D01*
X038439Y003977D01*
X038449Y003936D01*
X038455Y003895D01*
X038457Y003853D01*
X038452Y003853D01*
X038450Y003894D01*
X038444Y003935D01*
X038434Y003976D01*
X038421Y004015D01*
X038404Y004053D01*
X038384Y004089D01*
X038360Y004123D01*
X038334Y004155D01*
X038305Y004184D01*
X038273Y004210D01*
X038239Y004234D01*
X038203Y004254D01*
X038165Y004271D01*
X038126Y004284D01*
X038085Y004294D01*
X038044Y004300D01*
X038003Y004302D01*
X038003Y004297D01*
X038044Y004295D01*
X038084Y004289D01*
X038124Y004279D01*
X038163Y004266D01*
X038200Y004250D01*
X038236Y004230D01*
X038270Y004206D01*
X038301Y004180D01*
X038330Y004151D01*
X038356Y004120D01*
X038380Y004086D01*
X038400Y004050D01*
X038416Y004013D01*
X038429Y003974D01*
X038439Y003934D01*
X038445Y003894D01*
X038447Y003853D01*
X038442Y003853D01*
X038440Y003893D01*
X038434Y003933D01*
X038425Y003973D01*
X038412Y004011D01*
X038395Y004048D01*
X038375Y004083D01*
X038352Y004117D01*
X038327Y004148D01*
X038298Y004177D01*
X038267Y004202D01*
X038233Y004225D01*
X038198Y004245D01*
X038161Y004262D01*
X038123Y004275D01*
X038083Y004284D01*
X038043Y004290D01*
X038003Y004292D01*
X038003Y004287D01*
X038043Y004285D01*
X038083Y004279D01*
X038121Y004270D01*
X038159Y004257D01*
X038196Y004241D01*
X038231Y004221D01*
X038264Y004198D01*
X038295Y004173D01*
X038323Y004145D01*
X038348Y004114D01*
X038371Y004081D01*
X038391Y004046D01*
X038407Y004009D01*
X038420Y003971D01*
X038429Y003933D01*
X038435Y003893D01*
X038437Y003853D01*
X038432Y003853D01*
X038430Y003892D01*
X038424Y003932D01*
X038415Y003970D01*
X038402Y004008D01*
X038386Y004044D01*
X038367Y004078D01*
X038344Y004111D01*
X038319Y004141D01*
X038291Y004169D01*
X038261Y004194D01*
X038228Y004217D01*
X038194Y004236D01*
X038158Y004252D01*
X038120Y004265D01*
X038082Y004274D01*
X038042Y004280D01*
X038003Y004282D01*
X038003Y004277D01*
X038042Y004275D01*
X038081Y004269D01*
X038119Y004260D01*
X038156Y004248D01*
X038191Y004232D01*
X038226Y004213D01*
X038258Y004190D01*
X038288Y004165D01*
X038315Y004138D01*
X038340Y004108D01*
X038363Y004076D01*
X038382Y004041D01*
X038398Y004006D01*
X038410Y003969D01*
X038419Y003931D01*
X038425Y003892D01*
X038427Y003853D01*
M02*
