%
M48
M72
T01C0.0320
T02C0.0400
%
T01
X1950Y11100
X2750Y11100
X2750Y18600
X1950Y18600
X24100Y15100
X24100Y14100
X24100Y13100
X24100Y12100
X24100Y11100
X24100Y10100
X24100Y9100
X27100Y9100
X27100Y10100
X27100Y11100
X27100Y12100
X27100Y13100
X27100Y14100
X27100Y15100
X27600Y16600
X28600Y16600
X32100Y15100
X32100Y14100
X32100Y13100
X32100Y12100
X32100Y11100
X32100Y10100
X32100Y9100
X35100Y9100
X35100Y10100
X35100Y11100
X35100Y12100
X35100Y13100
X35100Y14100
X35100Y15100
X37100Y14850
X37100Y13850
X40600Y18600
X41600Y18600
X46950Y19350
X47750Y19350
X49350Y12350
X49350Y11350
X49350Y8350
X49350Y6350
X41600Y4600
X40600Y4600
X32600Y4600
X30600Y4600
X30100Y18600
X32100Y18600
T02
X2600Y4600
X3600Y4600
X3600Y5600
X2600Y5600
X2600Y6600
X3600Y6600
X3600Y7600
X2600Y7600
X2600Y8600
X3600Y8600
X12100Y22100
X13100Y22100
X14100Y22100
X6600Y22600
X5600Y22600
X4600Y22600
X3600Y22600
X2600Y22600
X2600Y23600
X3600Y23600
X4600Y23600
X5600Y23600
X6600Y23600
X41100Y12600
X41100Y11600
X41100Y10600
X46600Y22600
X47600Y22600
X48600Y22600
X49600Y22600
X50600Y22600
X50600Y23600
X49600Y23600
X48600Y23600
X47600Y23600
X46600Y23600
M30
