%
M48
M72
T01C0.0315
T02C0.0320
T03C0.0400
%
T01
X16800Y8700
X17800Y8700
X18800Y8700
X19800Y8700
X20800Y8700
X20800Y14700
X19800Y14700
X18800Y14700
X17800Y14700
X16800Y14700
T02
X5700Y2700
X6500Y2700
X4800Y6600
X3800Y6600
X2800Y8100
X2800Y9100
X2800Y10100
X2800Y11100
X2800Y12100
X2800Y13100
X2800Y14100
X2800Y15100
X5800Y15100
X5800Y14100
X5800Y13100
X5800Y12100
X5800Y11100
X5800Y10100
X5800Y9100
X5800Y8100
X8500Y8100
X8500Y9100
X8500Y10100
X8500Y11100
X8500Y12100
X8500Y13100
X8500Y14100
X8500Y15100
X11500Y15100
X11500Y14100
X11500Y13100
X11500Y12100
X11500Y11100
X11500Y10100
X11500Y9100
X11500Y8100
X13200Y8100
X13200Y9100
X13200Y10100
X13200Y11100
X13200Y12100
X13200Y13100
X13200Y14100
X13200Y15100
X15200Y15100
X15200Y14100
X15200Y13100
X15200Y12100
X15200Y11100
X15200Y10100
X15200Y9100
X15200Y8100
X10500Y6600
X9500Y6600
T03
X9500Y3300
X10500Y3300
X11500Y3300
X11500Y2300
X10500Y2300
X9500Y2300
X12500Y2300
X13500Y2300
X13500Y3300
X12500Y3300
M30
